<?xml version="1.0" encoding="iso-8859-1"?>
<!-- Generator: Adobe Illustrator 24.0.1, SVG Export Plug-In . SVG Version: 6.00 Build 0)  -->
<svg version="1.1" id="Layer_1" xmlns="http://www.w3.org/2000/svg" xmlns:xlink="http://www.w3.org/1999/xlink" x="0px" y="0px"
	 viewBox="0 0 700 700" style="enable-background:new 0 0 700 700;" xml:space="preserve">
<g>
	<defs>
		<path id="SVGID_1_" d="M90.277,517.832c184.681,0.71,369.362,1.421,554.043,2.131c-0.351-133.798-0.702-267.595-1.053-401.393
			H90.277V517.832z"/>
	</defs>
	<clipPath id="SVGID_2_">
		<use xlink:href="#SVGID_1_"  style="overflow:visible;"/>
	</clipPath>
	<g style="clip-path:url(#SVGID_2_);">
		<g>
			<path style="fill:none;stroke:#E3E5E8;stroke-linecap:round;stroke-linejoin:round;stroke-miterlimit:10;" d="M492.405,169.231
				c-17.385-6.745-44.689-14.232-74.298-6.894c-47.527,11.779-64.297,52.66-101.872,85.021
				c-28.216,24.301-76.909,51.329-164.681,52.851"/>
			<path style="fill:#E3E5E8;" d="M441.596,624.644c-113.842,39.541-218.762-16.466-227.748-21.442
				c-16.861-9.337-42.104-23.56-64.848-51.579c-62.71-77.253-68.217-210.577-9.702-261.371
				c48.955-42.495,100.756,9.737,189.19-36.77c67.39-35.44,66.32-80.1,125.62-94.21c49.89-11.87,112.91,4.95,147.83,45.96
				c13.232,15.54,24.892,39.464,28.05,81.51C637.197,382.722,597.768,570.4,441.596,624.644z"/>
		</g>
		<path style="fill:none;stroke:#E3E5E8;stroke-linecap:round;stroke-linejoin:round;stroke-miterlimit:10;" d="M603.474,249.662
			c1.188,2.962,2.403,6.097,3.63,9.401c0,0,5.107,13.759,9.1,27.679c41.106,143.285-14.769,233.602-14.769,233.602
			c-48.461,78.334-136.49,99.459-159.839,104.3"/>
	</g>
	<g style="clip-path:url(#SVGID_2_);">
		<polygon style="fill:#FFFFFF;" points="176.575,225.402 529.937,213.146 538.107,493.487 176.575,493.499 		"/>
		<polygon style="fill:#98BBE4;" points="187.809,235.847 517.681,226.423 522.277,468.465 193.426,468.478 		"/>
		<circle style="fill:#ECEDEB;" cx="357.341" cy="481.71" r="7.489"/>
		<path style="fill:none;stroke:#1C1D22;stroke-linecap:round;stroke-linejoin:round;stroke-miterlimit:10;" d="M176.302,225.062
			c0.11,5.171,0.201,10.365,0.273,15.582c0.26,19.011,0.252,37.737,0,56.17"/>
		<path style="fill:none;stroke:#1C1D22;stroke-linecap:round;stroke-linejoin:round;stroke-miterlimit:10;" d="M175.375,226.161
			c53.296-1.802,106.573-3.889,159.833-6.261c42.439-1.89,84.875-3.96,127.308-6.212"/>
		<circle style="fill:#1C1D22;" cx="215.843" cy="252.338" r="5.234"/>
		<circle style="fill:#668BC7;" cx="229.789" cy="252.338" r="5.234"/>
		<circle style="fill:#FFFFFF;" cx="243.735" cy="252.338" r="5.234"/>
	</g>
	<polygon style="clip-path:url(#SVGID_2_);fill:#FFFFFF;" points="214.526,376.115 320.994,376.115 323.037,404.2 214.526,402.943 	
		"/>
	<polygon style="clip-path:url(#SVGID_2_);fill:#FFFFFF;" points="214.526,414.839 323.037,414.839 323.037,445.477 
		216.143,445.477 	"/>
	<g style="clip-path:url(#SVGID_2_);">
		<polygon style="fill:#FFFFFF;" points="210.609,272.295 319.554,268.806 319.554,360.38 213.086,358.678 		"/>
		<path style="fill:none;stroke:#1C1D22;stroke-linecap:round;stroke-linejoin:round;stroke-miterlimit:10;" d="M280.666,285.355
			c9.26-0.265,18.521-0.531,27.782-0.796c0.031,20.522,0.14,33.812,0.371,34.888c0.019,0.087,0.101,0.511-0.089,0.906
			c-0.28,0.582-1.057,0.67-1.702,0.68c-7.057,0.102-14.115,0.203-21.172,0.305c-0.452,0.006-1.735,0.148-2.585-0.641
			c-0.724-0.673-0.797-1.691-0.821-2.1C282.331,316.556,281.6,303.429,280.666,285.355z"/>
		<path style="fill:none;stroke:#1C1D22;stroke-linecap:round;stroke-linejoin:round;stroke-miterlimit:10;" d="M225.03,296.416
			c15.716-2.215,31.715-2.408,47.48-0.573"/>
		<path style="fill:none;stroke:#1C1D22;stroke-linecap:round;stroke-linejoin:round;stroke-miterlimit:10;" d="M224.327,303.143
			c6.63-0.228,13.261-0.456,19.891-0.684"/>
		<path style="fill:none;stroke:#1C1D22;stroke-linecap:round;stroke-linejoin:round;stroke-miterlimit:10;" d="M251.172,302.432
			c5.806-0.999,11.747-1.208,17.609-0.62"/>
		<path style="fill:none;stroke:#1C1D22;stroke-linecap:round;stroke-linejoin:round;stroke-miterlimit:10;" d="M222.791,346.397
			c13.788,0.196,27.576,0.391,41.364,0.587"/>
		<path style="fill:none;stroke:#1C1D22;stroke-linecap:round;stroke-linejoin:round;stroke-miterlimit:10;" d="M223.562,352.175
			c16.079,0.238,32.157,0.607,48.23,1.107"/>
		<path style="fill:none;stroke:#1C1D22;stroke-linecap:round;stroke-linejoin:round;stroke-miterlimit:10;" d="M276.408,345.85
			c3.248-0.786,6.623-1.045,9.953-0.764"/>
		<path style="fill:none;stroke:#1C1D22;stroke-linecap:round;stroke-linejoin:round;stroke-miterlimit:10;" d="M281.737,353.328
			c8.526,0.189,17.052,0.378,25.579,0.567"/>
	</g>
	<g style="clip-path:url(#SVGID_2_);">
		<polygon style="fill:#FFFFFF;" points="336.235,268.806 497.256,268.806 502.022,445.487 337.937,443.104 		"/>
		<path style="fill:none;stroke:#1C1D22;stroke-linecap:round;stroke-linejoin:round;stroke-miterlimit:10;" d="M352.119,381.142
			c7.666-0.158,15.334,0.161,22.995,0.48c10.246,0.427,20.492,0.854,30.739,1.281"/>
		<path style="fill:none;stroke:#1C1D22;stroke-linecap:round;stroke-linejoin:round;stroke-miterlimit:10;" d="M348.418,387.781
			c9.437,0.658,18.873,1.315,28.31,1.973"/>
		<path style="fill:none;stroke:#1C1D22;stroke-linecap:round;stroke-linejoin:round;stroke-miterlimit:10;" d="M384.421,390.545
			c4.931-0.18,9.861-0.36,14.792-0.54"/>
		<path style="fill:none;stroke:#1C1D22;stroke-linecap:round;stroke-linejoin:round;stroke-miterlimit:10;" d="M350.702,397.413
			c14.785,0.12,29.57,0.239,44.355,0.359c8.385,0.068,16.458,1.072,24.237,1.859"/>
	</g>
	<g style="clip-path:url(#SVGID_2_);">
		<g>
			<path style="fill:#F59795;" d="M306.749,451.652c-3.63,0.37-7.26,0.73-10.89,1.09h-0.01c-1.13,0.11-2.27,0.23-3.4,0.34
				c0.08-0.14,0.16-0.27,0.24-0.41c1.74-3.01,3.47-6.01,5.21-9.02c0.05-0.08,0.09-0.15,0.14-0.23c3.19-5.52,6.38-11.04,9.57-16.56
				c0.33-0.57,0.67-1.15,1-1.72c3.95-6.83,7.9-13.66,11.84-20.49c0.88-1.5,1.74-3,2.61-4.5c0.16,0.11,0.31,0.22,0.46,0.33
				c0.83,0.6,1.59,1.2,2.28,1.81c0.11,0.09,0.22,0.19,0.32,0.29c4.52,4.03,6.25,8,6.97,10.3c0.11,0.38,0.2,0.72,0.27,1
				C336.509,426.671,326.299,443.212,306.749,451.652z"/>
			<path style="fill:#E56A77;" d="M333.089,412.882c-3.691,0.623-6.256,1.878-7.918,2.911c-5.3,3.295-6.733,7.637-11.992,9.019
				c-1.758,0.462-3.3,0.424-4.29,0.33h-0.28c-1.29,0-2.32-0.09-3.01-0.16c4.53-7.32,9.07-14.65,13.6-21.97
				c1.37-2.21,2.73-4.41,4.1-6.62c0.57,0.54,1.13,1.07,1.7,1.6c0.66,0.63,1.33,1.26,1.99,1.89c0.1,0.09,0.19,0.18,0.29,0.27
				c-0.38,0.8-0.77,1.61-1.16,2.43C330.639,406.612,332.369,410.582,333.089,412.882z"/>
		</g>
		<g>
			<path style="fill:#F59795;" d="M308.469,427.042c-4.23,7.99-8.46,16.56-12.61,25.7c-4.54,10.02-8.97,20.72-13.14,32.1
				c-2.073,5.656-4.853,13.583-7.8,23.14c-1.381,4.477-2.405,8.035-3.15,10.66c-5.403,19.023-14.096,52.083-15.875,58.853
				c-35.291-3.177-70.582-6.355-105.872-9.532c5.815-20.405,12.198-37.171,17.597-49.862c7.263-17.072,14.374-30.594,18.693-38.767
				c4.535-8.582,8.479-15.499,10.667-19.293c4.24-7.35,8.55-14.44,12.88-21.24c6.28-9.89,12.61-19.2,18.91-27.95
				c0.03-0.05,0.07-0.09,0.1-0.14c1.17,0.24,2.343,0.48,3.515,0.72c0.033,0.007,3.48,0.713,3.515,0.72
				C236.953,412.368,287.92,422.825,308.469,427.042z"/>
			<path style="fill:#F59795;" d="M334.129,382.602c-1.544,4.402-3.703,9.985-6.664,16.289c-2.964,6.312-5.557,10.843-7.678,14.532
				c-6.587,11.453-9.88,17.179-12.829,19.732c-1.168,1.012-5.337,4.42-8.919,10.267c-0.061,0.099-0.109,0.18-0.14,0.23
				c-21.89-8.4-43.78-16.79-65.68-25.19c-2.24-0.86-4.49-1.72-6.73-2.58c1.09-1.68,2.19-3.35,3.28-5.03
				c4.52-6.93,9.03-13.86,13.55-20.78c8.03-12.32,16.06-24.63,24.09-36.94c6.29,0.27,13.57,1.17,21.46,3.24
				c11.92,3.13,21.86,8.08,29.83,13.23c0.21,0.13,0.41,0.27,0.61,0.41C325.019,374.412,330.299,378.941,334.129,382.602z"/>
			<path style="fill:none;stroke:#E56A77;stroke-linecap:round;stroke-linejoin:round;stroke-miterlimit:10;" d="M287.367,377.292
				c4.989-4.537,10.182-8.848,15.558-12.918"/>
			<path style="fill:none;stroke:#E56A77;stroke-linecap:round;stroke-linejoin:round;stroke-miterlimit:10;" d="M269.917,371.238
				c5.621-4.333,11.242-8.665,16.863-12.998c0.641-0.494,1.492-1.011,2.201-0.62"/>
			<path style="fill:none;stroke:#E56A77;stroke-linecap:round;stroke-linejoin:round;stroke-miterlimit:10;" d="M265.5,376.331
				c-1.669-0.118-3.337,1.08-3.759,2.699c-0.422,1.619,0.45,3.479,1.964,4.19"/>
			<path style="fill:none;stroke:#E56A77;stroke-linecap:round;stroke-linejoin:round;stroke-miterlimit:10;" d="M286.703,382.493
				c-1.972-0.215-4.01,1.045-4.7,2.905c-0.69,1.859,0.033,4.144,1.668,5.267"/>
			<path style="fill:none;stroke:#E56A77;stroke-linecap:round;stroke-linejoin:round;stroke-miterlimit:10;" d="M308.364,390.157
				c-2.724-0.317-5.569,1.194-6.833,3.628c-1.264,2.434-0.863,5.63,0.963,7.677"/>
			<path style="fill:#E56A77;" d="M295.859,452.742c-4.54,10.02-8.97,20.72-13.14,32.1c-2.88,7.86-5.47,15.58-7.8,23.14
				c-3.93-10.29-5.14-45.79,11.27-53.72c2.12-1.03,4.33-1.49,6.5-1.59c1.07-0.06,2.13-0.03,3.16,0.07H295.859z"/>
			<path style="fill:#E56A77;" d="M242.319,390.072c-0.57,5.72-2.14,13.66-6.42,22.08c-0.54,1.09-1.14,2.2-1.79,3.3
				c-0.61,1.04-1.24,2.05-1.89,3.01c-7.27,10.93-16.49,17.15-22.36,20.34c6.28-9.89,12.61-19.2,18.91-27.95
				C233.289,403.921,237.799,396.992,242.319,390.072z"/>
		</g>
		<g>
			<path style="fill:#F59795;" d="M356.629,342.162c-0.46,7.64-4.9,11.71-10.1,19.36c-1.01,1.48-4.59,8.71-11.74,23.18
				c-2.18,4.4-4.71,9.59-7.51,15.45c-0.38,0.8-0.77,1.61-1.16,2.43c-0.9,1.89-1.83,3.85-2.77,5.86c-0.15-0.2-0.31-0.4-0.46-0.6
				c-0.7-0.92-1.4-1.83-2.1-2.75c-0.11-0.14-0.23-0.29-0.34-0.44c-0.42-0.54-0.83-1.09-1.25-1.64c-4.68-6.11-9.36-12.24-14.05-18.36
				c-0.13-0.18-0.26-0.35-0.4-0.53c4.7-5.18,9.02-10.03,12.95-14.52c3.01-3.41,5.78-6.61,8.32-9.58c0.92-1.07,1.81-2.11,2.67-3.12
				c2.59-3.04,4.91-5.8,6.96-8.26c7.57-9.06,14.5-17.67,18.35-16.03C357.009,333.902,356.719,340.822,356.629,342.162z"/>
			<path style="fill:none;stroke:#E56A77;stroke-linecap:round;stroke-linejoin:round;stroke-miterlimit:10;" d="M304.425,386.568
				c-0.158-0.86,0.469-1.647,1.054-2.297c4.888-5.434,9.775-10.869,14.663-16.303"/>
			<path style="fill:none;stroke:#E56A77;stroke-linecap:round;stroke-linejoin:round;stroke-miterlimit:10;" d="M330.803,391.29
				c-2.635,6.567-5.926,13.741-10.058,21.269c-3.113,5.672-6.302,10.815-9.425,15.434"/>
			<path style="fill:none;stroke:#E56A77;stroke-linecap:round;stroke-linejoin:round;stroke-miterlimit:10;" d="M325.391,359.631
				c2.337,1.379,4.557,2.955,6.628,4.707"/>
			<path style="fill:none;stroke:#E56A77;stroke-linecap:round;stroke-linejoin:round;stroke-miterlimit:10;" d="M328.055,356.843
				c2.448,0.15,4.81,1.386,6.328,3.312"/>
			<path style="fill:#EBC6BA;" d="M352.616,335.843c1.587,0.994,1.477,4.136,0.432,6.13c-1.705,3.253-6.543,4.681-8.036,3.236
				c-1.343-1.3-0.173-5.113,1.941-7.281C348.255,336.595,350.963,334.808,352.616,335.843z"/>
		</g>
	</g>
	<g style="clip-path:url(#SVGID_2_);">
		<g>
			<path style="fill:#8A9099;" d="M401.05,344.121c5.483-7.849,10.965-15.698,16.448-23.547
				c5.366,9.328,10.732,18.656,16.098,27.984c-6.231,2.269-12.463,4.537-18.694,6.806
				C410.285,351.617,405.667,347.869,401.05,344.121z"/>
			<circle style="fill:#606164;" cx="407.608" cy="348.602" r="7.948"/>
		</g>
		<g>
			<path style="fill:#8A9099;" d="M423.571,281.793l-11.577,14.074c0,0,13.788,15.518,14.123,15.641
				c0.335,0.123,7.114-4.988,7.114-4.988L423.571,281.793z"/>
			<circle style="fill:#606164;" cx="429.689" cy="286.866" r="7.948"/>
			<circle style="fill:#606164;" cx="443.222" cy="282.697" r="6.415"/>
			<circle style="fill:#606164;" cx="455.885" cy="279.706" r="6.415"/>
			<path style="fill:#8A9099;" d="M486.807,292.39c-8.595-5.506-17.191-11.012-25.786-16.518l-38.809,13.777l12.571,30.677
				C452.125,311.014,469.466,301.702,486.807,292.39z"/>
			<path style="fill:none;stroke:#FFFFFF;stroke-linecap:round;stroke-linejoin:round;stroke-miterlimit:10;" d="M436.32,282.176
				c5.457,7.244,10.913,14.488,16.37,21.731"/>
			<path style="fill:none;stroke:#FFFFFF;stroke-linecap:round;stroke-linejoin:round;stroke-miterlimit:10;" d="M449.341,279.793
				c6.073,5.646,12.145,11.291,18.218,16.937"/>
			<path style="fill:none;stroke:#FFFFFF;stroke-linecap:round;stroke-linejoin:round;stroke-miterlimit:10;" d="M422.696,289.285
				c1.023,4.099,2.047,8.197,3.071,12.295"/>
		</g>
		<g>
			<g>
				<path style="fill:#8A9099;" d="M434.477,382.955c-10.855-9.603-21.711-19.207-32.566-28.81c0.342-1.452,1.442-5.241,4.959-8.332
					c2.465-2.167,5.037-3.042,6.475-3.414c8.375,1.017,16.749,2.034,25.124,3.051C437.138,357.952,435.808,370.454,434.477,382.955z
					"/>
				<circle style="fill:#606164;" cx="441.928" cy="371.896" r="13.395"/>
			</g>
			<path style="fill:none;stroke:#FFFFFF;stroke-linecap:round;stroke-linejoin:round;stroke-miterlimit:10;" d="M413.315,338.577
				c5.185,2.851,10.37,5.703,15.555,8.554"/>
		</g>
		<g>
			<path style="fill:none;stroke:#FFFFFF;stroke-linecap:round;stroke-linejoin:round;stroke-miterlimit:10;" d="M414.958,289.58
				c4.671,4.66,9.46,10.182,13.98,16.687c1.073,1.544,2.085,3.077,3.039,4.593"/>
			<g>
				<circle style="fill:#606164;" cx="379.076" cy="269.296" r="7.056"/>
				<path style="fill:#8A9099;" d="M434.179,312.824c-5.646,3.773-11.282,7.547-16.928,11.32
					c-6.178-7.757-12.366-15.515-18.544-23.272l-2.701-2.923c-7.439-8.036-14.878-16.072-22.317-24.108
					c3.322-3.302,6.655-6.612,9.988-9.922c8.785,7,17.58,14.002,26.365,21.002c0.643,0.507,1.275,1.022,1.917,1.529
					c0.328,0.392,0.666,0.785,0.994,1.177C420.036,296.027,427.098,304.424,434.179,312.824z"/>
				<path style="fill:#606164;" d="M412.954,287.627l-14.247,13.245l-2.701-2.923l14.036-13.028
					c0.643,0.507,1.275,1.022,1.917,1.529C412.289,286.842,412.626,287.235,412.954,287.627z"/>
			</g>
		</g>
		<g>
			<path style="fill:#8A9099;" d="M571.009,520.192c3.784,20.576,7.569,41.153,11.353,61.729
				c-36.879-1.475-73.759-2.95-110.638-4.426c-0.862-19.278-1.723-38.556-2.585-57.833c-1.577-14.139-4.576-39.153-5.49-47.07
				c-0.03-0.26-0.07-0.53-0.11-0.79c-0.73-4.99-1.53-10.04-2.39-15.15c-0.17-1.03-0.35-2.05-0.53-3.07
				c-0.77-4.52-1.58-8.97-2.41-13.36c-0.34-1.74-0.67-3.46-1.01-5.18c-1.68-8.54-3.47-16.83-5.33-24.88
				c-1.12-4.85-2.27-9.62-3.44-14.29c-1.21-4.81-2.44-9.53-3.69-14.14c-0.05-0.17-0.09-0.34-0.14-0.51
				c10.19-4.64,22.98-9.5,38.1-13.17c15.62-3.8,29.63-5.33,41.07-5.83c3.34,7.97,6.2,15.21,8.64,21.52
				c2.33,6.03,4.62,12.21,6.86,18.54c1.74,4.85,3.44,9.8,5.1,14.82v0.01c0.06,0.15,0.11,0.3,0.16,0.45
				c1.57,4.73,3.12,9.53,4.64,14.41c4.09,13.15,7.7,26.02,10.9,38.58c2.21,8.65,4.22,17.16,6.05,25.49c0,0.01,0,0.02,0,0.02
				C567.919,504.272,569.549,512.322,571.009,520.192z"/>
			<path style="fill:none;stroke:#FFFFFF;stroke-linecap:round;stroke-linejoin:round;stroke-miterlimit:10;" d="M453.673,414.604
				c21.673-2.06,44.24-4.999,67.583-9.024c6.381-1.1,12.674-2.257,18.877-3.464"/>
			<path style="fill:none;stroke:#FFFFFF;stroke-linecap:round;stroke-linejoin:round;stroke-miterlimit:10;" d="M447.134,395.998
				c21.673-2.06,44.24-4.999,67.583-9.024c6.381-1.1,12.674-2.257,18.877-3.464"/>
			<path style="fill:none;stroke:#FFFFFF;stroke-linecap:round;stroke-linejoin:round;stroke-miterlimit:10;" d="M456.029,435.165
				c30.049-2.854,59.805-8.781,88.655-17.657"/>
			<path style="fill:none;stroke:#FFFFFF;stroke-linecap:round;stroke-linejoin:round;stroke-miterlimit:10;" d="M549.049,433.302
				c-27.41,9.2-55.67,15.83-84.31,19.74c-1.37,0.19-2.112,0.29-3.482,0.46"/>
			<path style="fill:none;stroke:#FFFFFF;stroke-linecap:round;stroke-linejoin:round;stroke-miterlimit:10;" d="M463.04,471.994
				c6.336-2.46,13.219-3.018,19.974-3.776c24.182-2.714,48.039-8.305,70.91-16.615"/>
			<path style="fill:none;stroke:#FFFFFF;stroke-linecap:round;stroke-linejoin:round;stroke-miterlimit:10;" d="M465.954,488.101
				c31.926-2.655,63.58-8.565,94.312-17.611c0.052-0.015,0.105-0.031,0.157-0.046"/>
			<path style="fill:none;stroke:#FFFFFF;stroke-linecap:round;stroke-linejoin:round;stroke-miterlimit:10;" d="M469.76,542.386
				c35.048-2.654,69.797-8.565,103.535-17.611c0.057-0.015,0.115-0.031,0.172-0.046"/>
			<path style="fill:none;stroke:#FFFFFF;stroke-linecap:round;stroke-linejoin:round;stroke-miterlimit:10;" d="M468.238,508.943
				c31.821-5.547,63.453-12.177,94.824-19.875"/>
			<path style="fill:none;stroke:#FFFFFF;stroke-linecap:round;stroke-linejoin:round;stroke-miterlimit:10;" d="M465.937,524.729
				c19.677-1.094,42.344-3.867,67.013-9.722c12.559-2.981,24.196-6.418,34.865-10.053"/>
			<path style="fill:#606164;" d="M566.119,496.042c-5.01-7.36-10.27-16.74-14.39-28.16c-7.21-19.92-8.07-38-7.36-50.77
				c0.06,0.15,0.11,0.3,0.16,0.45c1.57,4.73,3.12,9.53,4.64,14.41c4.09,13.15,7.7,26.02,10.9,38.58
				C562.279,479.202,564.289,487.712,566.119,496.042z"/>
			<path style="fill:#606164;" d="M464.369,459.292c-0.28,4.92-0.52,9.41-0.72,13.3c-0.03-0.26-0.07-0.53-0.11-0.79
				c-0.73-4.99-1.53-10.04-2.39-15.15c-0.17-1.03-0.35-2.05-0.53-3.07c-0.77-4.52-1.58-8.97-2.41-13.36
				c-0.34-1.74-0.67-3.46-1.01-5.18c-1.68-8.54-3.47-16.83-5.33-24.88c1.39,0.9,2.61,1.82,3.7,2.75c3.51,2.97,5.54,5.9,6.76,8.07
				C466.609,428.652,465.739,435.582,464.369,459.292z"/>
		</g>
		<g>
			<path style="fill:#8A9099;" d="M523.769,362.222c-24.54,5.89-49.07,11.78-73.61,17.66c-1.85,0.45-3.71,0.9-5.56,1.34
				c-1.14-2.35-2.29-4.7-3.44-7.05c-8.41-17.28-16.84-34.55-25.26-51.83c10.67-9.17,29.84-22.67,56.3-26.42
				c5.88-0.83,11.42-1.08,16.51-0.97c5.52,8.56,11.12,17.93,16.6,28.12C512.709,336.832,518.779,350.002,523.769,362.222z"/>
			<path style="fill:none;stroke:#FFFFFF;stroke-linecap:round;stroke-linejoin:round;stroke-miterlimit:10;" d="M414.532,321.665
				c0.844,0.704,2.122,1.84,3.504,3.393c3.292,3.697,4.971,7.276,8.666,16.522c1.552,3.885,2.999,7.614,4.345,11.172"/>
			<circle style="fill:#606164;" cx="448.691" cy="309.976" r="9.129"/>
			<circle style="fill:#606164;" cx="467.362" cy="302.227" r="7.948"/>
			<circle style="fill:#606164;" cx="482.777" cy="297.379" r="6.415"/>
			<circle style="fill:#606164;" cx="425.532" cy="317.681" r="10.519"/>
		</g>
	</g>
</g>
<path style="fill:none;stroke:#1C1D22;stroke-linecap:round;stroke-linejoin:round;stroke-miterlimit:10;" d="M115.549,517.832
	c1.06,0.01,2.12,0.01,3.18,0.02c2.79,0.01,5.59,0.03,8.38,0.04c13.26,0.07,26.51,0.14,39.76,0.21c0.25,0,0.5,0,0.75,0
	c5.6,0.03,11.2,0.06,16.79,0.09c29.12,0.15,58.24,0.3,87.36,0.45c9.17,0.04,18.34,0.09,27.51,0.14c7.23,0.04,14.46,0.08,21.69,0.11
	c11.27,0.06,22.54,0.12,33.81,0.18c17.87,0.09,35.75,0.18,53.62,0.27c2.96,0.02,5.91,0.03,8.87,0.05
	c7.06,0.03,14.12,0.07,21.18,0.11c3.25,0.02,6.49,0.03,9.73,0.05c6.99,0.04,13.97,0.07,20.96,0.11c8.02,0.04,16.05,0.08,24.07,0.12
	c4.57,0.02,9.13,0.05,13.7,0.07c0,0,0,0,0.01,0c13.24,0.07,26.47,0.14,39.7,0.21c8.13,0.04,16.26,0.08,24.39,0.13
	c4.43,0.02,8.85,0.04,13.28,0.07c0.3,0,0.59,0,0.89,0c3.33,0.02,6.66,0.03,9.98,0.05c4.25,0.02,8.5,0.04,12.74,0.07
	c4.79,0.02,9.59,0.04,14.38,0.07c2.41,0.01,4.82,0.03,7.23,0.04"/>
<g>
	<rect x="48.214" y="42.641" style="fill:none;" width="206.609" height="48.896"/>
	<path d="M50.433,48.617l-0.839,2.543h-1.08l2.747-8.084h1.259l2.759,8.084h-1.115l-0.864-2.543H50.433z M53.083,47.802
		l-0.791-2.326c-0.18-0.528-0.3-1.008-0.42-1.476h-0.024c-0.119,0.479-0.251,0.972-0.407,1.463l-0.792,2.339H53.083z"/>
	<path d="M56.47,43.185c0.527-0.108,1.283-0.168,2.003-0.168c1.115,0,1.835,0.204,2.338,0.659c0.408,0.36,0.636,0.912,0.636,1.535
		c0,1.068-0.671,1.775-1.522,2.063v0.036c0.623,0.216,0.995,0.791,1.187,1.631c0.265,1.127,0.456,1.907,0.624,2.219h-1.079
		c-0.132-0.228-0.313-0.924-0.54-1.931c-0.24-1.115-0.672-1.535-1.619-1.571h-0.983v3.502H56.47V43.185z M57.513,46.866h1.067
		c1.115,0,1.823-0.611,1.823-1.535c0-1.043-0.756-1.499-1.859-1.511c-0.504,0-0.863,0.048-1.031,0.096V46.866z"/>
	<path d="M64.568,43.964h-2.459v-0.888h5.985v0.888h-2.471v7.196h-1.056V43.964z"/>
	<path d="M70.041,43.076v8.084h-1.044v-8.084H70.041z"/>
	<path d="M71.865,43.076h4.354v0.876h-3.31v2.687h3.058v0.863h-3.058v3.658h-1.044V43.076z"/>
	<path d="M78.753,43.076v8.084h-1.044v-8.084H78.753z"/>
	<path d="M86.227,50.896c-0.384,0.191-1.151,0.384-2.135,0.384c-2.279,0-3.994-1.439-3.994-4.09c0-2.53,1.715-4.246,4.222-4.246
		c1.007,0,1.643,0.216,1.919,0.36l-0.252,0.852c-0.396-0.192-0.96-0.336-1.631-0.336c-1.896,0-3.154,1.211-3.154,3.334
		c0,1.979,1.139,3.25,3.106,3.25c0.635,0,1.283-0.132,1.703-0.336L86.227,50.896z"/>
	<path d="M88.581,43.076v8.084h-1.044v-8.084H88.581z"/>
	<path d="M91.713,48.617l-0.84,2.543h-1.079l2.746-8.084h1.26l2.758,8.084h-1.115l-0.863-2.543H91.713z M94.363,47.802l-0.792-2.326
		c-0.18-0.528-0.3-1.008-0.419-1.476h-0.024c-0.12,0.479-0.252,0.972-0.408,1.463l-0.791,2.339H94.363z"/>
	<path d="M97.749,43.076h1.044v7.208h3.454v0.876h-4.498V43.076z"/>
	<path d="M107.001,43.076v8.084h-1.044v-8.084H107.001z"/>
	<path d="M108.825,51.16v-8.084h1.14l2.591,4.09c0.6,0.948,1.067,1.8,1.451,2.627l0.023-0.012c-0.096-1.08-0.12-2.063-0.12-3.322
		v-3.383h0.983v8.084h-1.055l-2.567-4.102c-0.563-0.899-1.103-1.823-1.511-2.698l-0.036,0.012c0.061,1.02,0.084,1.991,0.084,3.334
		v3.454H108.825z"/>
	<path d="M118.257,43.964h-2.459v-0.888h5.984v0.888h-2.471v7.196h-1.055V43.964z"/>
	<path d="M126.871,47.37h-3.143v2.914h3.502v0.876h-4.545v-8.084h4.365v0.876h-3.322v2.555h3.143V47.37z"/>
	<path d="M128.589,43.076h1.044v7.208h3.454v0.876h-4.498V43.076z"/>
	<path d="M134.253,43.076h1.044v7.208h3.454v0.876h-4.498V43.076z"/>
	<path d="M140.961,43.076v8.084h-1.044v-8.084H140.961z"/>
	<path d="M148.938,50.801c-0.468,0.168-1.391,0.443-2.482,0.443c-1.224,0-2.23-0.312-3.022-1.067
		c-0.695-0.672-1.127-1.751-1.127-3.011c0.012-2.41,1.667-4.174,4.378-4.174c0.935,0,1.667,0.204,2.015,0.372l-0.252,0.852
		c-0.432-0.191-0.972-0.348-1.787-0.348c-1.967,0-3.25,1.224-3.25,3.25c0,2.051,1.235,3.263,3.118,3.263
		c0.684,0,1.151-0.097,1.391-0.216v-2.411h-1.643v-0.84h2.662V50.801z"/>
	<path d="M154.723,47.37h-3.142v2.914h3.502v0.876h-4.546v-8.084h4.365v0.876h-3.321v2.555h3.142V47.37z"/>
	<path d="M156.441,51.16v-8.084h1.139l2.591,4.09c0.6,0.948,1.067,1.8,1.451,2.627l0.024-0.012c-0.097-1.08-0.12-2.063-0.12-3.322
		v-3.383h0.983v8.084h-1.056l-2.566-4.102c-0.563-0.899-1.104-1.823-1.511-2.698l-0.036,0.012c0.06,1.02,0.084,1.991,0.084,3.334
		v3.454H156.441z"/>
	<path d="M169.986,50.896c-0.384,0.191-1.151,0.384-2.135,0.384c-2.279,0-3.994-1.439-3.994-4.09c0-2.53,1.715-4.246,4.222-4.246
		c1.007,0,1.643,0.216,1.919,0.36l-0.252,0.852c-0.396-0.192-0.96-0.336-1.631-0.336c-1.896,0-3.154,1.211-3.154,3.334
		c0,1.979,1.139,3.25,3.106,3.25c0.635,0,1.283-0.132,1.703-0.336L169.986,50.896z"/>
	<path d="M175.482,47.37h-3.142v2.914h3.502v0.876h-4.546v-8.084h4.365v0.876h-3.321v2.555h3.142V47.37z"/>
</g>
<g>
</g>
<g>
</g>
<g>
</g>
<g>
</g>
<g>
</g>
<g>
</g>
<g>
</g>
<g>
</g>
<g>
</g>
<g>
</g>
<g>
</g>
<g>
</g>
<g>
</g>
<g>
</g>
<g>
</g>
</svg>
