<?xml version="1.0" encoding="iso-8859-1"?>
<!-- Generator: Adobe Illustrator 24.0.1, SVG Export Plug-In . SVG Version: 6.00 Build 0)  -->
<svg version="1.1" id="Layer_1" xmlns="http://www.w3.org/2000/svg" xmlns:xlink="http://www.w3.org/1999/xlink" x="0px" y="0px"
	 viewBox="0 0 700 700" style="enable-background:new 0 0 700 700;" xml:space="preserve">
<g>
	<defs>
		<path id="SVGID_1_" d="M80.279,532.589c194.838,1.315,389.677,2.63,584.515,3.945c0-132.267,0-264.534,0-396.801H80.279V532.589z"
			/>
	</defs>
	<clipPath id="SVGID_2_">
		<use xlink:href="#SVGID_1_"  style="overflow:visible;"/>
	</clipPath>
	<g style="clip-path:url(#SVGID_2_);">
		<path style="fill:#E3E5E8;" d="M633.415,454.205c-1.461,41.057-22.698,70.559-31.17,82.01
			c-61.762,83.481-193.15,100.288-290.646,72.453c-73.239-20.91-117.204-64.114-127.484-74.613
			c-67.069-68.501-118.56-193.437-66.99-264.15c3.028-4.152,30.371-40.94,73.5-44.2c66.55-5.03,86.05,77.91,170.3,92.57
			c68.38,11.89,88.22-37.06,151.48-22.52C577.167,310.64,635.968,382.463,633.415,454.205z"/>
		<path style="fill:none;stroke:#E3E5E8;stroke-linecap:round;stroke-linejoin:round;stroke-miterlimit:10;" d="M173.892,234.876
			c7.871-3.548,20.701-8.207,36.622-8.498c59.702-1.094,78.165,60.779,142.645,77.438c49.952,12.905,65.201-17.425,121.902-11.675
			c37.701,3.823,87.269,22.942,141.617,88.388"/>
	</g>
	<g style="clip-path:url(#SVGID_2_);">
		<path style="fill:#F59795;" d="M384.235,534.354c-20.52,0.21-41.03,0.42-61.55,0.62c5.18-60.85,10.36-121.71,15.54-182.57
			c9.14,22.57,18.22,48.44,26.1,77.38c0.95,3.5,1.89,7.05,2.81,10.65c0.83,3.28,1.66,6.61,2.46,9.97
			C376.865,480.795,381.425,509.045,384.235,534.354z"/>
		<path style="fill:#E56A77;" d="M367.135,440.435c-1.8,4.34-5.04,7.03-6,7.89c-4.83,4.29-11.22,14.64-18.39,40.85
			c-0.51-17.1-1.02-34.21-1.53-51.32c7.71-2.69,15.4-5.38,23.11-8.07C365.275,433.285,366.215,436.835,367.135,440.435z"/>
	</g>
	<g style="clip-path:url(#SVGID_2_);">
		<path style="fill:#1C1D22;" d="M614.623,405.317l-30.391,126.858l-117.589,3.444c-7.674-0.051-15.348-0.101-23.021-0.139
			c-3.216-0.025-6.433-0.038-9.649-0.063l2.165-10.434l23.946-115.778L614.623,405.317z"/>
		<path style="fill:#1C1D22;" d="M584.232,524.982v11.346c-17.844-0.114-35.7-0.241-53.544-0.354
			c-18.3-0.114-36.599-0.241-54.899-0.355c-7.077-0.051-14.154-0.101-21.231-0.139c-2.966-0.025-5.933-0.038-8.899-0.063
			c-17.914-0.114-35.84-0.228-53.755-0.342c-11.293-0.076-22.597-0.152-33.89-0.228v-9.864H584.232z"/>
		<path style="fill:#FFFFFF;" d="M533.143,453.059c-9.941-0.978-18.945,8.617-18.429,18.752c0.456,8.966,8.316,17.424,17.782,16.812
			c8.773-0.567,15.071-8.673,15.519-16.812C548.505,462.919,542.014,453.932,533.143,453.059z"/>
		<path style="fill:none;stroke:#FFFFFF;stroke-linecap:round;stroke-linejoin:round;stroke-miterlimit:10;" d="M443.621,535.48
			c0.684-3.495,1.355-7.003,2.039-10.498c7.433-38.407,14.892-76.827,22.325-115.246c0.025-0.165-0.291,0.051-0.127,0.089"/>
	</g>
	<path style="clip-path:url(#SVGID_2_);fill:#FFFFFF;" d="M580.125,299.455l-0.01,0.01c-1.36,2.94-2.91,5.79-4.65,8.56
		c-2.84,4.56-6.17,8.88-9.89,12.92c-1.61,1.74-3.29,3.42-5.04,5.05c-0.43,0.41-0.87,0.81-1.32,1.21c-1.51,1.36-3.07,2.68-4.67,3.95
		c-0.01,0-0.01,0.01-0.01,0.01c-1.01,0.81-2.03,1.59-3.07,2.35l-0.01,0.02c-0.1,0.07-0.19,0.14-0.29,0.21
		c-0.1,0.07-0.19,0.14-0.28,0.2c-0.09,0.07-0.19,0.13-0.28,0.2c0,0.01-0.01,0.01-0.02,0.02c-2.04,1.47-4.14,2.87-6.29,4.2
		c-4.3,2.66-8.8,5.03-13.45,7.07c-2.07,0.91-4.17,1.76-6.29,2.54c-14.05,5.16-29.13,7.42-43.75,5.92c-2.07-0.21-4.15-0.5-6.23-0.88
		c-0.59-0.09-1.19-0.2-1.77-0.32c-0.41-0.08-0.82-0.16-1.24-0.25c-3.36-0.69-6.73-1.58-10.06-2.66c-3.85-1.25-7.66-2.74-11.39-4.46
		c-28.09-12.89-51.63-38.73-52.67-71.21c-1.15-35.89,25.62-65.74,58.4-78.88c0.4-0.16,0.8-0.32,1.21-0.47
		c0.12-0.05,0.24-0.1,0.36-0.15c2.23-0.85,4.48-1.62,6.76-2.32c1.3-0.4,2.61-0.77,3.92-1.11c5.75-1.51,11.59-2.5,17.42-2.92
		c1.03-0.08,2.05-0.14,3.07-0.18h0.16c0.04-0.01,0.09-0.01,0.13-0.01c0.27-0.01,0.54-0.02,0.81-0.02c0.08-0.01,0.15-0.01,0.23-0.01
		c7.11-0.16,14.24,0.53,21.22,1.98c0.52,0.1,1.04,0.21,1.55,0.33c26.97,6.02,51.65,23.25,64.52,46c0.35,0.59,0.67,1.18,0.99,1.78
		v0.01c0.13,0.25,0.26,0.49,0.39,0.74c0.29,0.55,0.57,1.1,0.84,1.66c0.31,0.63,0.61,1.27,0.91,1.92l0.39,0.9
		c0.12,0.26,0.23,0.53,0.34,0.79c1.98,4.68,3.47,9.53,4.39,14.55c0.67,3.57,1.06,7.22,1.12,10.93
		C586.745,280.145,584.405,290.185,580.125,299.455z"/>
	<path style="clip-path:url(#SVGID_2_);fill:#FFFFFF;" d="M416.4,309.02c-2.784,6.412-9.467,24.162-4.54,46.006
		c3.294,14.603,10.374,24.812,14.763,30.204c-1.654-6.758-3.956-20.33,0.685-36.112c2.573-8.749,6.479-15.457,9.701-20.029
		C430.139,322.399,423.27,315.71,416.4,309.02z"/>
	
		<path style="clip-path:url(#SVGID_2_);fill:none;stroke:#1C1D22;stroke-linecap:round;stroke-linejoin:round;stroke-miterlimit:10;" d="
		M403.991,298.687c-10.231-21.661-7.067-48.441,5.925-68.567c12.992-20.127,34.878-33.693,58.249-38.957
		c34.458-7.761,76.741,2.253,98.248,32.054c9.09,12.595,16.947,28.419,17.154,44.232c0.224,17.09-3.772,34.221-11.576,49.429"/>
	
		<path style="clip-path:url(#SVGID_2_);fill:none;stroke:#1C1D22;stroke-linecap:round;stroke-linejoin:round;stroke-miterlimit:10;" d="
		M404.97,302.319c2.635,4.754,5.27,9.507,7.906,14.261c-6.706,23.813-1.042,50.757,14.684,69.854
		c-2.27-9.857-2.65-20.146-1.114-30.144"/>
	<path style="clip-path:url(#SVGID_2_);fill:#1C1D22;" d="M565.641,350.029c-6.717,6.199-18.548,15.371-35.576,20.595
		c-32.673,10.024-60.672-1.788-68.56-5.45v-107c0-1.48,0.19-2.91,0.56-4.28c0-0.03,0.02-0.06,0.02-0.08
		c1.61-5.86,6.38-10.5,12.54-11.78c0.17-0.04,0.34-0.07,0.51-0.1l2.09-0.37h0.01l13.43-2.37l6.88-1.21l2.9-0.51h0.01l12.67-2.23
		c5.24-0.93,10.42,0.73,14.1,4.19c0.47,0.5,0.96,1,1.43,1.51c1.27,1.5,2.28,3.26,2.94,5.21c21.328,62.997,26.401,75.947,28.53,83.72
		C561.338,334.302,564.626,346.315,565.641,350.029z"/>
	<g style="clip-path:url(#SVGID_2_);">
		<path style="fill:#F59795;" d="M596.041,235.445c-0.088,1.388-0.189,2.789-0.278,4.177c-0.227,3.382-0.442,6.765-0.669,10.159
			c-6.348-2.827-12.696-5.667-19.044-8.493c0.063-0.24,0.114-0.492,0.177-0.732c0.631-2.713,1.275-5.414,1.906-8.128
			c0.517,0.088,1.035,0.177,1.552,0.265C585.137,233.615,590.589,234.536,596.041,235.445z"/>
		<g>
			<path style="fill:#F59795;" d="M578.128,232.432c2.875-3.37,7.313-7.768,13.637-11.564c3.998-2.399,7.776-3.974,10.935-5.027
				c3.876,5.091,7.752,10.181,11.628,15.272c-6.264,2.87-12.528,5.74-18.792,8.609C589.733,237.292,583.931,234.862,578.128,232.432
				z"/>
			<path style="fill:#F59795;" d="M593.504,216.906c-0.505,0.896-0.972,2.07-1.174,3.635c-0.152,1.06-0.177,2.297-0.013,3.748
				c-4.291,2.461-8.569,4.909-12.848,7.37c-0.442,0.252-0.896,0.517-1.338,0.77c0.202-0.997,0.517-2.272,0.997-3.736
				c1.022-3.155,2.84-7.181,6.095-11.093c3.231-3.862,6.714-6.247,9.162-7.635c0.694,0.328,1.565,0.896,1.805,1.792
				C596.608,213.347,594.715,214.71,593.504,216.906z"/>
			<path style="fill:#E56A77;" d="M584.316,242.639c-0.252,0.038-5.073,0.606-8.09-2.082c0.631-2.713,1.275-5.414,1.906-8.128
				c0.202-0.997,0.517-2.272,0.997-3.736c0.038,0.732,0.113,1.502,0.24,2.322c0.038,0.214,0.063,0.429,0.101,0.644
				c0.063,0.341,0.139,0.682,0.215,1.035c0.025,0.139,0.063,0.278,0.101,0.429c0.025,0.139,0.063,0.278,0.101,0.417
				C580.997,237.818,582.979,240.884,584.316,242.639z"/>
			<path style="fill:#F59795;" d="M602.7,215.841c1.158-0.571,2.874-1.338,5.027-2.011c6.583-2.059,14.813-2.483,15.46-0.503
				c0.165,0.504-0.089,1.383-2.137,3.016c1.896-0.095,3.389,0.281,3.519,0.88c0.137,0.633-1.208,1.699-3.394,2.388
				c2.399-0.289,4.237,0.179,4.399,0.88c0.166,0.713-1.329,1.985-3.771,2.765c-3.519,1.508-7.039,3.017-10.558,4.525
				C608.398,223.801,605.549,219.821,602.7,215.841z"/>
			<path style="fill:#F59795;" d="M610.367,227.719c2.035-0.622,11.986-3.583,14.391-1.32c0.166,0.156,0.549,0.517,0.503,0.943
				c-0.119,1.111-3.072,1.289-6.505,2.357c-2.977,0.926-5.392,1.727-6.976,2.262C611.31,230.547,610.838,229.133,610.367,227.719z"
				/>
			<path style="fill:none;stroke:#E56A77;stroke-linecap:round;stroke-linejoin:round;stroke-miterlimit:10;" d="M606.733,218.88
				c4.801-1.528,9.691-2.774,14.637-3.73"/>
			<path style="fill:none;stroke:#E56A77;stroke-linecap:round;stroke-linejoin:round;stroke-miterlimit:10;" d="M609.287,222.221
				c4.249-1.082,8.572-1.875,12.929-2.372"/>
			<path style="fill:none;stroke:#E56A77;stroke-linecap:round;stroke-linejoin:round;stroke-miterlimit:10;" d="M604.88,217.112
				c2.447,2.42,4.539,5.199,6.187,8.22"/>
		</g>
	</g>
	<g style="clip-path:url(#SVGID_2_);">
		<circle style="fill:#1C1D22;" cx="499.911" cy="201.925" r="17.237"/>
		<path style="fill:none;stroke:#1C1D22;stroke-linecap:round;stroke-linejoin:round;stroke-miterlimit:10;" d="M487.803,189.381
			c1.649-3.24,4.845-5.626,8.401-6.381s7.404,0.103,10.362,2.217c0.988,0.706,1.878,1.542,2.702,2.433
			c1.286,1.391,2.437,2.957,3.033,4.755c0.596,1.798,0.582,3.862-0.359,5.506"/>
	</g>
	<g style="clip-path:url(#SVGID_2_);">
		<path style="fill:#F59795;" d="M500.517,244.986c-7.421,1.262-14.842,2.524-22.263,3.773c-0.896-6.247-1.779-12.507-2.675-18.767
			c-0.164-1.186-0.341-2.373-0.505-3.559c0.669-3.407,1.338-6.828,2.006-10.235c1.174-6.02,2.36-12.027,3.534-18.047
			C487.253,213.763,493.879,229.375,500.517,244.986z"/>
		<path style="fill:#E56A77;" d="M475.579,229.993c-0.164-1.186-0.341-2.373-0.505-3.559c0.669-3.407,1.338-6.828,2.006-10.235
			c1.717,1.098,2.966,2.739,3.407,4.606C481.271,224.238,479.289,228.176,475.579,229.993z"/>
	</g>
	<path style="clip-path:url(#SVGID_2_);fill:#1C1D22;" d="M474.622,235.071c7.416-2.2,14.831-4.399,22.247-6.599
		c2.325,5.845,4.651,11.689,6.976,17.534c-9.741,2.137-19.482,4.273-29.223,6.41C474.622,246.635,474.622,240.853,474.622,235.071z"
		/>
	<g style="clip-path:url(#SVGID_2_);">
		<path style="fill:#E56A77;" d="M457.501,194.048c-3.61,5.739-7.219,11.478-10.829,17.217c2.667,0.582,5.334,1.164,8.001,1.747
			C455.616,206.691,456.558,200.369,457.501,194.048z"/>
		<path style="fill:#F59795;" d="M468.862,171.399c-8.497,1.008-12.154,19.191-14.797,32.329
			c-2.238,11.129-4.758,23.655,1.225,27.759c5.793,3.973,16.053-2.353,17.334-3.142c10.298-6.35,16.732-19.686,14.843-32.629
			C485.703,183.619,476.467,170.496,468.862,171.399z"/>
		<path style="fill:#1C1D22;" d="M462.59,171.349c-3.791,3.718,3.522,16.516,4.166,17.645c6.171,10.8,15.621,16.242,20.703,18.668
			c0.674-1.673,5.648-14.593-1.423-25.492C479.755,172.486,466.187,167.822,462.59,171.349z"/>
		<path style="fill:#1C1D22;" d="M468.113,170.313c-2.112-0.3-5.758-0.52-9.931,0.814c-6.863,2.195-10.583,7.135-11.79,8.9
			c2.599,1.071,5.35,2.117,8.25,3.112c5.495,1.886,10.717,3.312,15.557,4.394C469.503,181.794,468.808,176.053,468.113,170.313z"/>
		<path style="fill:#FFFFFF;" d="M459.314,198.677c-0.103,0.919,2.011,1.95,4.091,2.561c0.548,0.167,1.083,0.301,1.589,0.394
			c0.037,0.01,0.076,0.014,0.115,0.018c0.551,0.1,1.249,0.192,1.966,0.244c1.497,0.099,3.048-0.011,3.309-0.721
			c0.371-1.01-1.927-3.159-4.449-3.868c-0.466-0.137-0.943-0.217-1.425-0.258c-0.644-0.06-1.286-0.051-1.884,0.013
			C460.828,197.262,459.385,197.948,459.314,198.677z"/>
		<path style="fill:#1C1D22;" d="M459.314,198.677c-0.103,0.919,2.011,1.95,4.091,2.561c0.548,0.167,1.083,0.301,1.589,0.394
			c0.037,0.01,0.076,0.014,0.115,0.018c0.698-1.67-0.05-3.594-1.708-4.348c-0.255-0.116-0.513-0.199-0.774-0.243
			C460.828,197.262,459.385,197.948,459.314,198.677z"/>
		<path style="fill:none;stroke:#1C1D22;stroke-linecap:round;stroke-linejoin:round;stroke-miterlimit:10;" d="M462.743,191.83
			c1.689,0.339,3.237,1.333,4.246,2.728"/>
		<path style="fill:none;stroke:#1C1D22;stroke-linecap:round;stroke-linejoin:round;stroke-miterlimit:10;" d="M488.909,204.067
			c2.759-8.242,2.178-17.883-2.894-24.941c-5.071-7.058-15.022-10.697-23.005-7.26"/>
		<path style="fill:#F59795;" d="M477.011,205.895c1.54-3.915,5.116-6.019,7.875-5.369c3.608,0.849,5.288,6.279,3.729,10.126
			c-1.459,3.602-5.748,5.791-10.172,4.808L477.011,205.895z"/>
		<path style="fill:none;stroke:#E56A77;stroke-linecap:round;stroke-linejoin:round;stroke-miterlimit:10;" d="M488.808,211.507
			c-1.201,2.059-3.419,3.49-5.79,3.735c-2.371,0.245-4.835-0.702-6.432-2.471"/>
		<path style="fill:none;stroke:#E56A77;stroke-linecap:round;stroke-linejoin:round;stroke-miterlimit:10;" d="M486.231,203.852
			c-2.845-0.856-6.213,0.918-7.116,3.749"/>
		<path style="fill:none;stroke:#E56A77;stroke-linecap:round;stroke-linejoin:round;stroke-miterlimit:10;" d="M481.953,204.972
			c2.443,0.741,4.377,2.947,4.793,5.466"/>
		<path style="fill:none;stroke:#1C1D22;stroke-linecap:round;stroke-linejoin:round;stroke-miterlimit:10;" d="M454.456,216.58
			c-0.572,1.668-0.81,3.449-0.697,5.208c0.042,0.659,0.418,1.527,1.057,1.362c0.419-0.108,0.58-0.608,0.656-1.034
			c0.295-1.644,0.353-3.33,0.174-4.991c-0.026-0.237-0.066-0.493-0.239-0.658c-0.173-0.164-0.522-0.146-0.592,0.082"/>
	</g>
	
		<path style="clip-path:url(#SVGID_2_);fill:none;stroke:#FFFFFF;stroke-linecap:round;stroke-linejoin:round;stroke-miterlimit:10;" d="
		M515.43,277.776c4.582,4.896,9.005,9.94,13.259,15.123"/>
	
		<path style="clip-path:url(#SVGID_2_);fill:none;stroke:#FFFFFF;stroke-linecap:round;stroke-linejoin:round;stroke-miterlimit:10;" d="
		M469.935,278.925c-1.11,3.14-1.83,6.58-0.96,9.8c0.88,3.22,3.75,6.08,7.08,6.01c-1.8,19.21-3.3,38.45-4.49,57.71"/>
	<g style="clip-path:url(#SVGID_2_);">
		<path style="fill:#1C1D22;" d="M588.825,341.695c0,9.01-7.3,16.31-16.3,16.31c-5.92,0-11.11-3.16-13.96-7.89
			c-0.04,0.01-0.07,0.02-0.11,0.03c-1.53-3.03-3.54-7.06-5.89-11.89c-0.27-0.57-0.49-1.04-0.65-1.36c-0.02-0.04-0.04-0.08-0.06-0.12
			v-0.01c-0.06-0.12-0.1-0.21-0.13-0.26c-0.38-0.78-0.76-1.56-1.14-2.34c-0.09-0.18-0.17-0.36-0.26-0.54
			c-8.31-17.05-16.63-34.11-24.93-51.17c-6.73-20.62-12.82-43.56-7.12-46.55c0.96-0.5,2.3-0.48,5.58,1.09
			c8.14,3.88,11.48,9.23,22.16,24.09c7.12,9.9,12.53,16.47,19.23,28.17c0.08,0.14,0.16,0.27,0.25,0.41v0.01
			c3.7,6.22,7.01,12.36,9.97,18.35c1.1,2.19,2.14,4.35,3.13,6.49c3.02,6.52,5.64,12.82,7.93,18.83c0,0,0,0,0,0.01
			C587.985,335.795,588.825,338.645,588.825,341.695z"/>
		<path style="fill:none;stroke:#FFFFFF;stroke-linecap:round;stroke-linejoin:round;stroke-miterlimit:10;" d="M520.28,275.453
			c11.393,19.743,20.409,40.767,31.434,60.717c0.304,0.55,0.079,1.639-0.431,1.272"/>
		<path style="fill:none;stroke:#FFFFFF;stroke-linecap:round;stroke-linejoin:round;stroke-miterlimit:10;" d="M564.48,292.358
			c-0.619,6.201-3.835,11.889-4.679,18.063"/>
	</g>
	
		<path style="clip-path:url(#SVGID_2_);fill:none;stroke:#FFFFFF;stroke-linecap:round;stroke-linejoin:round;stroke-miterlimit:10;" d="
		M499.811,235.556c-5.005,2.196-10.136,4.104-15.361,5.709"/>
	
		<path style="clip-path:url(#SVGID_2_);fill:none;stroke:#FFFFFF;stroke-linecap:round;stroke-linejoin:round;stroke-miterlimit:10;" d="
		M500.157,237.746c-3.337,1.911-6.674,3.823-10.011,5.734"/>
	<g style="clip-path:url(#SVGID_2_);">
		<path style="fill:#1C1D22;" d="M581.614,355.234c8.686-5.06,12.633-16.416,14.802-56.438c0.786-14.495,1.376-33.452,0.88-55.806
			c-7.457-1.634-14.915-3.268-22.373-4.902c-7.456,35.93-11.566,64.314-13.952,84.087c-1.563,12.959-3.263,29.492,4.929,34.417
			C570.529,359.374,577.219,357.794,581.614,355.234z"/>
		<path style="fill:none;stroke:#FFFFFF;stroke-linecap:round;stroke-linejoin:round;stroke-miterlimit:10;" d="M565.688,284.42
			c-1.023,11.247-2.047,22.493-3.07,33.74"/>
	</g>
	<g style="clip-path:url(#SVGID_2_);">
		<path style="fill:#F59795;" d="M310.835,345.945c-15.66-1.96-31.32-3.92-46.98-5.87c6.41-28.68,12.82-57.36,19.23-86.04
			c5.17,11.25,10.33,22.51,15.5,33.77c3.23,7.04,6.46,14.08,9.69,21.12c0.07,1.03,0.14,2.07,0.21,3.1c0.2,2.82,0.4,5.64,0.59,8.46
			c0.28,4.08,0.57,8.17,0.85,12.25C310.235,337.134,310.535,341.535,310.835,345.945z"/>
		<path style="fill:#E56A77;" d="M309.925,332.735c-4.23-3.61-9.38-9.1-13.36-16.89c-7.48-14.66-6.13-28.4-5.39-33.43
			c1.67,0.93,3.34,1.87,5.01,2.8c4.11,8.94,8.21,17.88,12.3,26.81c0.2,2.82,0.4,5.64,0.59,8.46
			C309.355,324.565,309.645,328.655,309.925,332.735z"/>
	</g>
	<g style="clip-path:url(#SVGID_2_);">
		<path style="fill:none;stroke:#1C1D22;stroke-linecap:round;stroke-linejoin:round;stroke-miterlimit:10;" d="M322.503,289.74
			c3.133,0.804,6.449,0.889,9.619,0.247"/>
		<path style="fill:#E56A77;" d="M332.8,252.32c4.562,10.549,9.123,21.098,13.685,31.647c-4.619,0.285-9.238,0.57-13.856,0.855
			C332.686,273.989,332.743,263.155,332.8,252.32z"/>
		<path style="fill:#F59795;" d="M336.535,284.585c0.07,14.22-1.52,27.09-9.72,31.03c-10.19,4.9-24.72-6.8-27.83-9.41
			c-0.17-0.14-0.3-0.26-0.4-0.34c-7.56-6.45-13.18-15.41-16.22-25.34v-0.01c-0.03-0.09-0.06-0.18-0.09-0.28v-0.01
			c-0.94-3.13-1.63-6.35-2.03-9.62c-0.12-0.89-0.21-1.77-0.28-2.66c-0.01-0.01,0-0.02,0-0.02c-0.02-0.26-0.04-0.54-0.06-0.8
			c-0.18-2.79-0.16-5.6,0.09-8.4c0.31-3.82,1.03-7.63,2.17-11.36c4.25-13.82,14.71-27.53,24.89-33.37c0.1-0.07,0.2-0.12,0.3-0.18
			c4.32-2.42,8.57-3.41,12.27-2.38c2.41,0.67,4.45,2.16,6.19,4.29c1.6,1.97,2.93,4.5,4.05,7.43c1.88,4.91,3.14,10.96,4.01,17.41
			c0.8,5.85,1.29,12.03,1.64,18.02v0.01c0.22,3.73,0.38,7.38,0.54,10.83C336.285,274.425,336.505,279.595,336.535,284.585z"/>
		<path style="fill:#1C1D22;" d="M328.675,220.644c-0.072,1.964-0.429,4.948-1.858,8.244c-0.939,2.166-2.076,3.854-3.049,5.08v0.01
			c-14.979,16.098-27.38,26.284-29.87,27.58c-2.37,1.233-4.87,2.34-4.87,2.34c-0.74,0.33-1.47,0.64-2.18,0.93h-0.01
			c-2.65,1.08-5.05,1.92-7.13,2.58c-0.11,0.03-0.22,0.07-0.32,0.1c-0.28,0.09-0.55,0.17-0.82,0.25c-0.19-0.79-0.67-2.98-1.01-6.07
			v-0.01c-4.995-20.995,1.339-39.871,13.997-46.457c2.608-1.357,7.961-3.481,16.213-2.298c0.435-0.261,7.133-4.128,13.926-0.659
			C326.715,214.828,328.359,219.648,328.675,220.644z"/>
		<path style="fill:#FFFFFF;" d="M328.565,259.604c-0.07,1.48-3.46,2.62-6.91,3.14c-0.21,0.03-0.41,0.06-0.61,0.09
			c-0.96,0.14-1.89,0.23-2.76,0.25c-0.06,0.01-0.13,0.01-0.2,0c-0.95,0.03-2.14,0-3.35-0.1c-2.54-0.22-5.11-0.81-5.36-2.06
			c-0.36-1.79,4.04-4.8,8.45-5.33c0.7-0.09,1.4-0.11,2.09-0.08c0.13,0,0.25,0.01,0.37,0.02c1.09,0.06,2.16,0.24,3.15,0.5
			C326.395,256.845,328.635,258.364,328.565,259.604z"/>
		<path style="fill:none;stroke:#1C1D22;stroke-linecap:round;stroke-linejoin:round;stroke-miterlimit:10;" d="M325.253,248.956
			c-2.747-0.988-5.865-0.901-8.553,0.239"/>
		<path style="fill:#F59795;" d="M297.045,267.114l-4.14,13.31l-0.16,0.53l-0.57,1.82c-3.17,0.21-6.17-0.49-8.7-1.83
			c-0.41-0.22-0.81-0.46-1.2-0.71v-0.01c-1.87-1.22-3.42-2.82-4.51-4.67c-0.63-1.08-1.1-2.25-1.39-3.47
			c-0.85-3.57-0.1-7.64,1.7-10.78v-0.01c0.54-0.96,1.19-1.83,1.92-2.57c0.95-0.98,2.05-1.74,3.25-2.2c0.46-0.16,0.93-0.29,1.41-0.36
			c0.2-0.04,0.39-0.06,0.59-0.08c3.22-0.25,6.74,1.68,9.17,5.09C295.605,262.835,296.535,264.845,297.045,267.114z"/>
		<path style="fill:none;stroke:#E56A77;stroke-linecap:round;stroke-linejoin:round;stroke-miterlimit:10;" d="M282.13,261.31
			c4.988-0.698,10.172,3.146,10.951,8.123"/>
		<path style="fill:#1C1D22;" d="M328.565,259.604c-0.07,1.48-3.46,2.62-6.91,3.14c-1.64-1.01-2.7-2.61-2.7-4.41
			c0-1.03,0.35-2,0.96-2.82c0.13,0,0.25,0.01,0.37,0.02c1.09,0.06,2.16,0.24,3.15,0.5
			C326.395,256.845,328.635,258.364,328.565,259.604z"/>
		<path style="fill:none;stroke:#1C1D22;stroke-linecap:round;stroke-linejoin:round;stroke-miterlimit:10;" d="M310.495,201.655
			c-1.33,3.45-2.31,7.02-2.91,10.66c-0.09,0.5-0.17,1-0.23,1.5c-0.04,0.21-0.06,0.43-0.09,0.64"/>
		<path style="fill:none;stroke:#1C1D22;stroke-linecap:round;stroke-linejoin:round;stroke-miterlimit:10;" d="M308.205,216.285
			c-0.51-0.71-0.87-1.48-1.15-2.29c-0.15-0.44-0.27-0.88-0.38-1.34c-0.57-2.31-0.78-4.8-1.95-6.86c-0.6-1.06-1.65-2.06-2.85-1.92"/>
		<path style="fill:none;stroke:#1C1D22;stroke-linecap:round;stroke-linejoin:round;stroke-miterlimit:10;" d="M327.274,291.917
			c2.189,0.62,4.512,0.765,6.762,0.422"/>
		<g>
			<circle style="fill:#1C1D22;" cx="287.648" cy="269.873" r="5.8"/>
			<polygon style="fill:#1C1D22;" points="283.754,274.167 300.069,286.298 303.063,282.807 291.111,268.894 			"/>
		</g>
		<path style="fill:#1C1D22;" d="M333.875,240.565c-0.3-0.1-0.6-0.21-0.91-0.32c-3.91-1.48-6.72-4.07-8.68-6.65v-0.01
			c-2.52-3.31-3.63-6.59-3.92-7.47c1.81-3.46,3.62-6.93,5.45-10.39c1.6,1.97,2.93,4.5,4.05,7.43
			C331.745,228.065,333.005,234.114,333.875,240.565z"/>
	</g>
	<g style="clip-path:url(#SVGID_2_);">
		<g>
			<path style="fill:#FFFFFF;" d="M163.076,185.845c-23.243,8.428-39.157,32.434-37.287,57.447
				c2.334,31.218,31.801,56.423,63.439,52.9c34.319-3.822,58.645-40.052,48.847-73.186
				C228.841,191.779,192.779,175.075,163.076,185.845z"/>
			<path style="fill:#FFFFFF;" d="M182.22,286.797c6.698,5.944,14.047,12.05,22.072,18.178c6.357,4.854,12.581,9.294,18.605,13.355
				c-2.328-4.228-4.643-8.707-6.904-13.438c-4.292-8.984-7.782-17.604-10.633-25.67C197.647,281.746,189.933,284.271,182.22,286.797
				z"/>
		</g>
		<path style="fill:none;stroke:#1C1D22;stroke-linecap:round;stroke-linejoin:round;stroke-miterlimit:10;" d="M131.799,261.358
			c-5.979-8.926-7.814-20.271-6.12-30.88c1.693-10.609,6.717-20.503,13.349-28.954c4.612-5.878,10.098-11.191,16.662-14.759
			c8.129-4.419,17.634-5.975,26.863-5.312c9.229,0.663,18.209,3.462,26.627,7.302c3.913,1.785,7.734,3.803,11.245,6.286
			c10.572,7.475,18.008,19.175,20.537,31.873c2.839,14.255-0.34,33.122-10.428,44.161"/>
		<path style="fill:none;stroke:#1C1D22;stroke-linecap:round;stroke-linejoin:round;stroke-miterlimit:10;" d="M162.625,236.974
			c3.86,5.297,7.719,10.594,11.579,15.891c1.863-7.568,6.22-14.337,11.485-20.083s11.443-10.567,17.589-15.359"/>
	</g>
	<g style="clip-path:url(#SVGID_2_);">
		<path style="fill:#98BBE4;" d="M382.045,424.805c-7.13,4.19-14.75,8.4-22.87,12.54c-2.36,1.21-4.76,2.41-7.21,3.6
			c-2.5,1.21-4.97,2.39-7.42,3.52c-4.8,2.23-9.5,4.3-14.09,6.24c1.34-34.42,2.68-68.84,4.02-103.25
			c5.73,4.84,11.79,10.71,17.69,17.8C370.155,386.835,378.195,409.455,382.045,424.805z"/>
		<path style="fill:#668BC7;" d="M359.175,437.345c-2.36,1.21-4.76,2.41-7.21,3.6c-2.5,1.21-4.97,2.39-7.42,3.52
			c-0.15-18.27-1.1-36.54-2.82-54.73c3.51,7.53,7.01,15.86,10.3,24.98C354.885,422.645,357.235,430.225,359.175,437.345z"/>
		<path style="fill:#98BBE4;" d="M347.605,534.895c-3.05,0.01-6.11,0.02-9.16,0.02c-55.72,0.15-111.43,0.3-167.14,0.44
			c10.47-57.25,20.95-114.51,31.43-171.76c1.86-10.2,9.03-18.64,18.83-22.04c15.01-5.21,36.16-10,61.28-8.17
			c19.18,1.39,35.09,6.23,46.87,11.08c4.49,1.84,7.86,5.53,9.38,9.98c0.77,2.24,0.86,4.1,0.89,4.73c0.2,5.58,2.3,53.93,5.39,124.74
			c0.15,3.41,0.3,6.87,0.46,10.39c0.45,10.16,0.9,20.73,1.38,31.67C347.345,528.925,347.475,531.895,347.605,534.895z"/>
		<polygon style="fill:#98BBE4;" points="316.7,349.166 313.045,329.325 259.453,321.436 257.896,343.829 		"/>
		<path style="fill:none;stroke:#1C1D22;stroke-linecap:round;stroke-linejoin:round;stroke-miterlimit:10;" d="M344.465,461.185
			c0.08-4.45,0.11-8.89,0.1-13.34c-0.06-19.4-1.01-38.8-2.84-58.11v-0.01c-0.09-1.05-0.2-2.1-0.3-3.15"/>
		<path style="fill:none;stroke:#1C1D22;stroke-linecap:round;stroke-linejoin:round;stroke-miterlimit:10;" d="M292.721,336.55
			c2.058,6.365,4.115,12.73,6.173,19.096c4.628-6.433,12.167-10.413,16.394-17.116c0.099-0.156,0.192-0.371,0.07-0.51
			s-0.381,0.155-0.2,0.191"/>
		<path style="fill:none;stroke:#1C1D22;stroke-linecap:round;stroke-linejoin:round;stroke-miterlimit:10;" d="M292.629,336.254
			c-4.617,6.577-8.384,13.749-11.178,21.283c-2.31-2.948-4.594-5.917-6.85-8.906c-3.744-4.959-7.416-9.978-10.805-15.186"/>
		<path style="fill:none;stroke:#1C1D22;stroke-linecap:round;stroke-linejoin:round;stroke-miterlimit:10;" d="M316.82,398.043
			c5.199-0.844,10.426-1.51,15.671-1.997c0.063,4.272,0.126,8.544,0.189,12.815c0.046,3.118,0.089,6.266-0.543,9.32
			c-0.633,3.054-2.007,6.048-4.374,8.079c-1.75,1.501-4.143,2.424-6.388,1.896c-3.314-0.779-5.179-4.283-6.146-7.547
			c-1.521-5.134-1.878-10.61-1.035-15.899"/>
		<path style="fill:none;stroke:#1C1D22;stroke-linecap:round;stroke-linejoin:round;stroke-miterlimit:10;" d="M289.482,356.699
			c0.066,13.849,0.132,27.698,0.199,41.547c0.033,6.856,0.065,13.716-0.238,20.566c-0.33,7.453-1.057,14.881-1.727,22.311
			c-2.744,30.423-4.539,60.932-5.382,91.467"/>
		<path style="fill:none;stroke:#1C1D22;stroke-linecap:round;stroke-linejoin:round;stroke-miterlimit:10;" d="M349.441,388.663
			c-1.869,13.383-3.738,26.765-5.607,40.148"/>
		<path style="fill:none;stroke:#1C1D22;stroke-linecap:round;stroke-linejoin:round;stroke-miterlimit:10;" d="M343.592,429.079
			c1.517-1.258,3.276-2.18,5.002-3.132c8.984-4.954,17.403-10.932,25.043-17.78c-0.572,0.296-1.145,0.593-1.717,0.889"/>
		<path style="fill:#668BC7;" d="M347.605,534.895c-3.05,0.01-6.11,0.02-9.16,0.02c-0.81-6.07-1.01-13.72,0.73-22.25
			c1.54-7.59,4.19-13.77,6.66-18.36c0.45,10.16,0.9,20.73,1.38,31.67C347.345,528.925,347.475,531.895,347.605,534.895z"/>
	</g>
</g>
<path style="fill:none;stroke:#1C1D22;stroke-linecap:round;stroke-linejoin:round;stroke-miterlimit:10;" d="M63.355,533.425
	c20.02,0.1,40.04,0.21,60.05,0.31c6.84,0.04,13.7,0.07,20.53,0.11c13.39,0.07,26.79,0.14,40.18,0.21
	c31.42,0.16,62.83,0.32,94.24,0.48c8.46,0.05,16.92,0.09,25.38,0.13c13.19,0.07,26.38,0.14,39.57,0.21
	c20.91,0.1,41.83,0.21,62.74,0.32c3.47,0.02,6.92,0.03,10.38,0.05c8.26,0.04,16.53,0.09,24.79,0.13c3.8,0.03,7.59,0.04,11.39,0.06
	c17.56,0.09,35.13,0.19,52.69,0.27c20.83,0.11,41.67,0.22,62.51,0.33c11.48,0.06,22.96,0.12,34.44,0.18
	c3.56,0.01,7.12,0.03,10.67,0.05c17.31,0.08,34.58,0.18,51.88,0.27"/>
<g>
	<g>
		<path style="fill:#F59795;" d="M260.895,309.529c3.234-10.095,7.627-19.104,12.983-27.144c0.011-0.016,0.029-0.044,0.04-0.06
			c1.34-2.007,8.916-13.349,12.495-12.115c1.962,0.676,2.087,4.913,2.091,5.16c0.062,3.079-1.805,4.298-5.512,11.31
			c-3.415,6.461-4.545,6.895-5.92,15.841c-0.335,2.18-2.46,5.889-6.385,7.602C266.251,312.059,261.799,309.976,260.895,309.529z"/>
		<path style="fill:#F59795;" d="M255.305,350.033c-0.921-7.7-1.365-20.471,3.481-34.932c1.504-4.489,3.29-8.458,5.123-11.902
			c1.539-2.891,5.148-3.179,10.704-5.018c6.326-2.094,8.239-1.479,9.253-0.963c1.987,1.011,3.015,2.909,3.533,4.181
			c2.488-1.077,5.358-0.36,6.939,1.668c1.378,1.768,1.563,4.256,0.462,6.312c6.099,1.987,9.864,7.754,9.186,13.419
			c-0.522,4.362-3.617,8.16-7.949,9.926c-0.132,5.286-0.263,10.573-0.395,15.859c-2.803,1.911-9.768,6.111-19.653,6.547
			C265.745,355.581,258.224,351.73,255.305,350.033z"/>
		<path style="fill:none;stroke:#E56A77;stroke-linecap:round;stroke-linejoin:round;stroke-miterlimit:10;" d="M262.459,322.613
			c-0.829-1.107-0.939-2.704-0.271-3.914c0.669-1.21,2.08-1.967,3.458-1.854"/>
		<path style="fill:none;stroke:#E56A77;stroke-linecap:round;stroke-linejoin:round;stroke-miterlimit:10;" d="M273.047,323.421
			c-0.061,0.272-0.476,0.072-0.63-0.16c-0.495-0.746-1.009-1.56-0.966-2.453c0.048-0.999,0.811-1.85,1.707-2.294
			c0.896-0.444,1.914-0.556,2.909-0.661"/>
		<path style="fill:none;stroke:#E56A77;stroke-linecap:round;stroke-linejoin:round;stroke-miterlimit:10;" d="M280.519,325.926
			c0.036-0.892-0.598-1.7-0.604-2.593c-0.006-0.935,0.703-1.756,1.543-2.166c0.84-0.41,1.797-0.492,2.73-0.567"/>
		<path style="fill:none;stroke:#E56A77;stroke-linecap:round;stroke-linejoin:round;stroke-miterlimit:10;" d="M269.739,309.323
			c2.679-3.502,5.357-7.005,8.036-10.507"/>
		<path style="fill:none;stroke:#E56A77;stroke-linecap:round;stroke-linejoin:round;stroke-miterlimit:10;" d="M279.568,314.606
			c2.256-3.963,4.864-7.726,7.782-11.229"/>
		<path style="fill:none;stroke:#E56A77;stroke-linecap:round;stroke-linejoin:round;stroke-miterlimit:10;" d="M285.685,316.706
			c2.833-2.029,5.665-4.059,8.498-6.088c0.13-0.093,0.313-0.186,0.436-0.084c0.123,0.102-0.148,0.318-0.159,0.158"/>
		<path style="fill:none;stroke:#E56A77;stroke-linecap:round;stroke-linejoin:round;stroke-miterlimit:10;" d="M291.317,326.365
			c0.727-0.614,1.454-1.229,2.181-1.843c0.167-0.141,0.344-0.299,0.386-0.514c0.052-0.267-0.123-0.52-0.289-0.737
			c-0.672-0.879-1.345-1.758-2.017-2.636c1.108,0.806,2.059,1.827,2.784,2.99c1.372-1.557,2.985-2.903,4.764-3.973"/>
		<path style="fill:none;stroke:#E56A77;stroke-linecap:round;stroke-linejoin:round;stroke-miterlimit:10;" d="M296.232,334.274
			c0.196-4.277,0.147-8.566-0.149-12.837"/>
		<path style="fill:#EBC6BA;" d="M286.367,271.766c-0.847-0.722-3.41,0.043-4.588,1.565c-0.788,1.018-1.185,2.67-0.41,3.268
			c0.867,0.669,3.004-0.131,4.135-1.317C286.531,274.206,287.116,272.404,286.367,271.766z"/>
	</g>
	<path style="fill:none;stroke:#E56A77;stroke-linecap:round;stroke-linejoin:round;stroke-miterlimit:10;" d="M270.421,287.698
		c3.379-4.789,6.128-8.708,8.296-12.007c0.456-0.694,1.794-2.742,4.315-4.046c0.861-0.446,3.104-1.589,4.307-0.723
		c1.71,1.231,0.316,5.806-0.255,7.682c-1.103,3.621-2.555,5.73-3.787,7.898c-1.478,2.602-3.345,6.529-4.671,11.967
		c1.347-1.327,3.365-2.183,5.242-1.251c1.834,0.911,2.742,3.336,1.958,5.228c1.996-1.836,4.94-2.106,7.084-0.729
		c2.429,1.56,3.327,4.908,1.893,7.662c1.153,0.187,5.058,0.969,7.439,4.317c2.98,4.19,2.382,10.724-1.911,15.629"/>
	<path style="fill:none;stroke:#E56A77;stroke-linecap:round;stroke-linejoin:round;stroke-miterlimit:10;" d="M271.968,285.36
		c1.63,0.689,3.26,1.378,4.89,2.068"/>
	<path style="fill:none;stroke:#E56A77;stroke-linecap:round;stroke-linejoin:round;stroke-miterlimit:10;" d="M268.426,289.129
		c1.491,0.801,3.174,1.242,4.866,1.277"/>
</g>
<g>
	<path style="fill:#F59795;" d="M216.606,343.829c-6.71,6.767-18.255,18.972-30.762,35.613
		c-37.045,49.291-87.442,144.046-53.979,186.189c3.096,3.899,8.768,9.688,19.139,14.307c16.726-33.585,33.451-67.169,50.177-100.753
		c14.607-30.409,29.214-60.818,43.821-91.227C235.536,373.248,226.071,358.538,216.606,343.829z"/>
	<path style="fill:#E56A77;" d="M154.067,431.986c7.753,6.201,15.914,13.238,24.255,21.192c8.724,8.318,16.443,16.49,23.234,24.255
		c3.745-7.064,7.49-14.128,11.234-21.192C193.216,448.157,173.641,440.072,154.067,431.986z"/>
</g>
<g>
	<path style="fill:#98BBE4;" d="M254.865,379.295c-12.95,26.89-25.9,53.78-38.84,80.67c-27.89-10.96-55.78-21.91-83.66-32.87
		c7.35-11.8,17.25-25.6,30.39-39.65c6.43-6.88,13.63-13.81,21.69-20.6c7.16-6.03,14.24-11.3,21.05-15.91
		c3.79-2.57,7.51-4.94,11.11-7.11c10.322-6.672,23.959-5.476,32.951,2.885C258.527,355.051,260.724,368.524,254.865,379.295z"/>
	<path style="fill:none;stroke:#1C1D22;stroke-linecap:round;stroke-linejoin:round;stroke-miterlimit:10;" d="M226.661,389.725
		c-1.067,10.148-2.134,20.296-3.201,30.445c-0.176,1.671-0.353,3.348-0.769,4.975c-0.284,1.109-0.678,2.19-1.175,3.221"/>
	<path style="fill:none;stroke:#1C1D22;stroke-linecap:round;stroke-linejoin:round;stroke-miterlimit:10;" d="M143.533,406.206
		c3.202,0.503,6.165,1.954,9.073,3.387c20.875,10.287,41.749,20.573,62.624,30.86c-0.643-0.014-1.286-0.027-1.929-0.041"/>
	<path style="fill:#668BC7;" d="M205.495,350.935c-3.57,5.391-8.571,11.839-15.428,18.243c-9.943,9.286-19.966,14.906-27.312,18.267
		c6.43-6.88,13.63-13.81,21.69-20.6C191.605,360.815,198.685,355.545,205.495,350.935z"/>
</g>
<circle style="fill:#F59795;" cx="177.776" cy="540.932" r="47.307"/>
<g>
	<path style="fill:#F59795;" d="M295.795,342.374c-0.18,3.99-0.56,11.37-1.32,21.16c-1.22,15.62-3.41,37.37-7.39,61.24
		c-10.84,65.02-34.87,145.71-88.14,160.68c-5.11,1.43-10.55,2.28-16.36,2.43c-0.93-31.39-1.87-62.78-2.8-94.16
		c8.46-11.73,16.93-24.56,25.13-38.54c24.98-42.58,40.28-83.55,49.88-118.36C268.465,338.675,282.135,340.525,295.795,342.374z"/>
	<path style="fill:none;stroke:#1C1D22;stroke-linecap:round;stroke-linejoin:round;stroke-miterlimit:10;" d="M208.089,451.612
		c-0.107,0.204-0.214,0.408-0.321,0.612c-10.186,19.386-22.311,37.751-36.137,54.734"/>
	<path style="fill:#E56A77;" d="M294.475,363.535c-1.22,15.62-3.41,37.37-7.39,61.24c-4.7-11.66-8.85-29.33-1.53-46.92
		C287.965,372.065,291.185,367.325,294.475,363.535z"/>
</g>
<g>
	<rect x="40.229" y="70.324" style="fill:none;" width="206.609" height="48.896"/>
	<path d="M43.685,70.868c0.456-0.096,1.175-0.168,1.907-0.168c1.043,0,1.715,0.18,2.219,0.588c0.42,0.312,0.672,0.791,0.672,1.427
		c0,0.78-0.516,1.464-1.367,1.775v0.023c0.768,0.192,1.667,0.828,1.667,2.027c0,0.695-0.276,1.224-0.684,1.619
		c-0.564,0.516-1.475,0.756-2.794,0.756c-0.72,0-1.271-0.048-1.619-0.097V70.868z M44.728,74.178h0.947
		c1.104,0,1.751-0.576,1.751-1.355c0-0.947-0.72-1.319-1.775-1.319c-0.48,0-0.755,0.036-0.923,0.072V74.178z M44.728,78.051
		c0.204,0.036,0.503,0.049,0.875,0.049c1.079,0,2.075-0.396,2.075-1.571c0-1.104-0.947-1.56-2.087-1.56h-0.863V78.051z"/>
	<path d="M53.776,70.759v4.786c0,1.811,0.803,2.578,1.883,2.578c1.199,0,1.967-0.791,1.967-2.578v-4.786h1.056v4.714
		c0,2.482-1.308,3.502-3.059,3.502c-1.655,0-2.902-0.947-2.902-3.454v-4.762H53.776z"/>
	<path d="M62.896,77.572c0.468,0.288,1.151,0.528,1.871,0.528c1.067,0,1.691-0.564,1.691-1.38c0-0.756-0.432-1.188-1.523-1.606
		c-1.319-0.468-2.135-1.151-2.135-2.291c0-1.26,1.043-2.195,2.614-2.195c0.828,0,1.427,0.192,1.787,0.396l-0.288,0.852
		c-0.264-0.145-0.803-0.384-1.535-0.384c-1.103,0-1.523,0.659-1.523,1.211c0,0.756,0.492,1.127,1.607,1.56
		c1.367,0.527,2.063,1.187,2.063,2.374c0,1.248-0.923,2.327-2.831,2.327c-0.779,0-1.631-0.229-2.063-0.516L62.896,77.572z"/>
	<path d="M72.543,70.759v8.084H71.5v-8.084H72.543z"/>
	<path d="M76.912,78.843v-8.084h1.139l2.591,4.09c0.6,0.948,1.067,1.8,1.451,2.627l0.024-0.012c-0.096-1.08-0.12-2.063-0.12-3.322
		v-3.383h0.983v8.084h-1.055l-2.566-4.102c-0.564-0.899-1.104-1.823-1.511-2.698l-0.036,0.012c0.06,1.02,0.084,1.991,0.084,3.334
		v3.454H76.912z"/>
	<path d="M91.538,75.053h-3.142v2.914h3.502v0.876h-4.545v-8.084h4.365v0.876h-3.322v2.555h3.142V75.053z"/>
	<path d="M95.656,77.572c0.468,0.288,1.151,0.528,1.871,0.528c1.067,0,1.691-0.564,1.691-1.38c0-0.756-0.432-1.188-1.523-1.606
		c-1.319-0.468-2.135-1.151-2.135-2.291c0-1.26,1.043-2.195,2.614-2.195c0.828,0,1.427,0.192,1.787,0.396l-0.288,0.852
		c-0.264-0.145-0.803-0.384-1.535-0.384c-1.103,0-1.523,0.659-1.523,1.211c0,0.756,0.492,1.127,1.607,1.56
		c1.367,0.527,2.063,1.187,2.063,2.374c0,1.248-0.923,2.327-2.831,2.327c-0.779,0-1.631-0.229-2.063-0.516L95.656,77.572z"/>
	<path d="M104.116,77.572c0.468,0.288,1.151,0.528,1.871,0.528c1.067,0,1.691-0.564,1.691-1.38c0-0.756-0.432-1.188-1.523-1.606
		c-1.319-0.468-2.135-1.151-2.135-2.291c0-1.26,1.043-2.195,2.614-2.195c0.828,0,1.427,0.192,1.787,0.396l-0.288,0.852
		c-0.264-0.145-0.803-0.384-1.535-0.384c-1.103,0-1.523,0.659-1.523,1.211c0,0.756,0.492,1.127,1.607,1.56
		c1.367,0.527,2.063,1.187,2.063,2.374c0,1.248-0.923,2.327-2.831,2.327c-0.779,0-1.631-0.229-2.063-0.516L104.116,77.572z"/>
	<path d="M117.664,77.572c0.468,0.288,1.151,0.528,1.871,0.528c1.067,0,1.691-0.564,1.691-1.38c0-0.756-0.432-1.188-1.523-1.606
		c-1.319-0.468-2.135-1.151-2.135-2.291c0-1.26,1.043-2.195,2.614-2.195c0.828,0,1.427,0.192,1.787,0.396l-0.288,0.852
		c-0.264-0.145-0.803-0.384-1.535-0.384c-1.103,0-1.523,0.659-1.523,1.211c0,0.756,0.492,1.127,1.607,1.56
		c1.367,0.527,2.063,1.187,2.063,2.374c0,1.248-0.923,2.327-2.831,2.327c-0.779,0-1.631-0.229-2.063-0.516L117.664,77.572z"/>
	<path d="M127.311,70.759v4.786c0,1.811,0.803,2.578,1.883,2.578c1.199,0,1.967-0.791,1.967-2.578v-4.786h1.056v4.714
		c0,2.482-1.308,3.502-3.059,3.502c-1.655,0-2.902-0.947-2.902-3.454v-4.762H127.311z"/>
	<path d="M136.575,70.856c0.503-0.084,1.163-0.156,2.003-0.156c1.031,0,1.787,0.24,2.267,0.672c0.444,0.384,0.708,0.972,0.708,1.69
		c0,0.732-0.216,1.308-0.624,1.728c-0.552,0.588-1.451,0.888-2.471,0.888c-0.312,0-0.6-0.013-0.839-0.072v3.238h-1.043V70.856z
		 M137.619,74.753c0.228,0.061,0.516,0.084,0.863,0.084c1.259,0,2.027-0.611,2.027-1.727c0-1.067-0.755-1.584-1.907-1.584
		c-0.456,0-0.804,0.036-0.983,0.084V74.753z"/>
	<path d="M145.503,70.856c0.503-0.084,1.163-0.156,2.003-0.156c1.031,0,1.787,0.24,2.267,0.672c0.444,0.384,0.708,0.972,0.708,1.69
		c0,0.732-0.216,1.308-0.624,1.728c-0.552,0.588-1.451,0.888-2.471,0.888c-0.312,0-0.6-0.013-0.839-0.072v3.238h-1.043V70.856z
		 M146.546,74.753c0.228,0.061,0.516,0.084,0.863,0.084c1.259,0,2.027-0.611,2.027-1.727c0-1.067-0.755-1.584-1.907-1.584
		c-0.456,0-0.804,0.036-0.983,0.084V74.753z"/>
	<path d="M161.339,74.717c0,2.782-1.691,4.258-3.754,4.258c-2.135,0-3.634-1.655-3.634-4.102c0-2.566,1.595-4.246,3.754-4.246
		C159.912,70.627,161.339,72.319,161.339,74.717z M155.066,74.849c0,1.728,0.935,3.274,2.579,3.274c1.655,0,2.59-1.523,2.59-3.358
		c0-1.606-0.839-3.286-2.579-3.286C155.93,71.479,155.066,73.075,155.066,74.849z"/>
	<path d="M165.243,70.868c0.527-0.108,1.283-0.168,2.003-0.168c1.115,0,1.835,0.204,2.338,0.659c0.408,0.36,0.636,0.912,0.636,1.535
		c0,1.068-0.671,1.775-1.523,2.063v0.036c0.624,0.216,0.995,0.791,1.187,1.631c0.264,1.127,0.456,1.907,0.624,2.219h-1.08
		c-0.132-0.228-0.312-0.924-0.54-1.931c-0.24-1.115-0.672-1.535-1.619-1.571h-0.983v3.502h-1.043V70.868z M166.286,74.549h1.067
		c1.115,0,1.823-0.611,1.823-1.535c0-1.043-0.755-1.499-1.859-1.511c-0.504,0-0.863,0.048-1.031,0.096V74.549z"/>
	<path d="M175.286,71.647h-2.459v-0.888h5.985v0.888h-2.471v7.196h-1.055V71.647z"/>
</g>
<g>
</g>
<g>
</g>
<g>
</g>
<g>
</g>
<g>
</g>
<g>
</g>
<g>
</g>
<g>
</g>
<g>
</g>
<g>
</g>
<g>
</g>
<g>
</g>
<g>
</g>
<g>
</g>
<g>
</g>
</svg>
