<?xml version="1.0" encoding="iso-8859-1"?>
<!-- Generator: Adobe Illustrator 24.0.1, SVG Export Plug-In . SVG Version: 6.00 Build 0)  -->
<svg version="1.1" id="Layer_1" xmlns="http://www.w3.org/2000/svg" xmlns:xlink="http://www.w3.org/1999/xlink" x="0px" y="0px"
	 viewBox="0 0 700 700" style="enable-background:new 0 0 700 700;" xml:space="preserve">
<g>
	<path style="fill:none;stroke:#ECEDEB;stroke-linecap:round;stroke-linejoin:round;stroke-miterlimit:10;" d="M87.296,480.484
		c-2.41-13.839-3.247-33.659,7.59-52.374c35.626-61.525,147.41-24.74,223.897-90.105c52.423-44.8,27.308-85.492,88.547-123.332
		c10.83-6.692,68.454-42.297,130.923-20.837c58.943,20.249,76.918,75.748,79.06,82.784"/>
	<path style="fill:#ECEDEB;" d="M578.731,487.808c-1.66,2.29-3.36,4.55-5.09,6.78c-32.11,41.51-75.58,72.52-123.48,93.34
		c-12.48,5.42-25.26,10.15-38.22,14.2c-1.53,0.48-3.07,0.95-4.61,1.41c-5.36,1.6-10.74,3.08-16.14,4.44
		c-1.35,0.34-2.69,0.68-4.04,1.01c-7.17,1.74-14.37,3.28-21.59,4.61c-0.83,0.15-1.67,0.3-2.5,0.45
		c-15.74,2.81-31.53,4.66-47.15,5.55c-0.88,0.05-1.77,0.1-2.65,0.13c-21.42,1.06-42.51,0.35-62.74-2.15
		c-0.15-0.02-0.29-0.04-0.44-0.05c-0.5-0.07-1.01-0.13-1.5-0.19c-8.41-1.1-31.36-4.07-58-11.19c-0.2-0.05-0.4-0.11-0.6-0.16
		c-16.06-4.33-33.43-10.16-49.71-18.02c-0.58-0.27-1.16-0.56-1.74-0.84c-27.3-13.43-51.3-32.61-60.72-59.9
		c-8.05-23.32-5.14-51.7,8.8-75.11c1.38-2.33,2.88-4.61,4.48-6.83c8.25-11.42,17.97-19.34,28.9-25.03c2.87-1.5,5.82-2.84,8.85-4.05
		c32.03-12.83,72.84-11.19,116.77-22.84c5.61-1.48,11.28-3.19,16.99-5.17c4.4-1.53,8.83-3.22,13.27-5.1c3.06-1.3,6.13-2.68,9.2-4.17
		c3.46-1.67,6.94-3.46,10.42-5.41c3.33-1.85,6.67-3.83,10.01-5.95c3.02-1.91,5.9-3.85,8.66-5.82
		c46.5-33.06,57.21-72.36,75.72-103.77c0.04-0.07,0.08-0.13,0.12-0.2c3.99-6.73,8.34-13.1,13.48-18.95c2.45-2.81,5.09-5.5,7.96-8.06
		c6.52-5.8,14.22-10.94,23.65-15.21c3.37-1.54,6.97-2.96,10.82-4.26c50.36-17.08,114.4-4.22,152,27.24l0.01,0.02
		c1.56,1.29,3.07,2.63,4.53,3.99C670.551,306.118,623.051,426.618,578.731,487.808z"/>
</g>
<g>
	<path style="fill:#98BBE4;" d="M171.005,155.996c-6.757-0.846-21.493-1.727-37.255,5.749c-17.84,8.461-26.535,22.666-29.119,27.019
		c-18.246,30.734,0.6,56.152-4.943,97.83c-2.387,17.95-9.81,42.766-32.681,70.979c67.064,1.872,134.128,3.745,201.191,5.617
		c41.682-14.195,56.219-32.73,61.277-48c13.263-40.042-31.825-78.24-14.808-120.511c6.65-16.519,20.067-26.911,30.638-33.191
		C287.205,159.657,229.105,157.826,171.005,155.996z"/>
	<path style="fill:#1C1D22;" d="M435.711,210.488l-0.62,5.07l-13.25,108.72l-7.84,64.32l-2.17,17.86l-2.01,16.49l-2.52,20.68
		l-3.43,28.16l-3.98,32.6l-1.62,13.33l-0.06,0.48l-0.03,0.27l-0.49,4.02l-2.53,20.74l-0.99,8.09l-0.98,8.08l-0.22,1.83l-2.4,19.7
		l-3.42,28.06c-7.17,1.74-14.37,3.28-21.59,4.61c-0.83,0.15-1.67,0.3-2.5,0.45c-15.74,2.81-31.53,4.66-47.15,5.55
		c-0.88,0.05-1.77,0.1-2.65,0.13c-21.42,1.06-42.51,0.35-62.74-2.15c-0.15-0.02-0.29-0.04-0.44-0.05c-0.5-0.07-1.01-0.13-1.5-0.19
		c-8.41-1.1-31.36-4.07-58-11.19c-0.2-0.05-0.4-0.11-0.6-0.16c-16.06-4.33-33.43-10.16-49.71-18.02
		c-3.266-65.251-9.934-118.055-15.561-154.821c-10.994-71.834-21.039-102.229-8.681-142.979
		c13.562-44.721,45.831-74.621,70.502-92.63c34.41,1.79,68.82,3.58,103.23,5.37c25.15,1.31,50.31,2.62,75.47,3.92
		c11.14,0.58,22.28,1.16,33.42,1.74c5.84,0.3,11.67,0.6,17.5,0.91C422.671,209.808,429.191,210.148,435.711,210.488z"/>
	<polygon style="fill:#FFFFFF;" points="201.328,250.703 415.361,260.205 400.558,377.647 196.702,371.233 	"/>
	<path style="fill:none;stroke:#1C1D22;stroke-linecap:round;stroke-linejoin:round;stroke-miterlimit:10;" d="M322.443,407.674
		c0.626-0.997,1.252-1.993,1.878-2.99"/>
	<polygon style="fill:#FFFFFF;" points="249.553,439.12 192.21,436.886 195.037,403.467 252.38,405.7 	"/>
	<polygon style="fill:#FFFFFF;" points="321.848,441.695 264.505,439.462 267.333,406.043 324.676,408.276 	"/>
	<polygon style="fill:#FFFFFF;" points="391.444,443.435 334.101,441.202 336.929,407.783 394.272,410.016 	"/>
	<polygon style="fill:#FFFFFF;" points="243.703,489.649 186.36,487.415 189.188,453.996 246.531,456.229 	"/>
	<polygon style="fill:#FFFFFF;" points="315.998,492.225 258.655,489.991 261.483,456.572 318.826,458.805 	"/>
	<polygon style="fill:#FFFFFF;" points="385.595,493.964 328.252,491.731 331.079,458.312 388.422,460.545 	"/>
	<polygon style="fill:#FFFFFF;" points="240.695,541.563 183.352,539.329 186.18,505.91 243.523,508.144 	"/>
	<polygon style="fill:#FFFFFF;" points="312.991,544.139 255.648,541.905 258.475,508.486 315.818,510.72 	"/>
	<polygon style="fill:#FFFFFF;" points="382.587,545.878 325.244,543.645 328.072,510.226 385.415,512.459 	"/>
	<polygon style="fill:#A081B7;" points="233.232,591.415 175.889,589.181 178.716,555.762 236.059,557.996 	"/>
	<polygon style="fill:#98BBE4;" points="305.527,593.991 248.184,591.757 251.011,558.338 308.354,560.572 	"/>
	<polygon style="fill:#E56A77;" points="375.123,595.73 317.78,593.497 320.608,560.078 377.951,562.311 	"/>
	<path style="fill:#FFFFFF;" d="M405.455,240.413c1.36-5.725,5.429-25.974-5.487-46.982c-15.281-29.411-46.828-35.097-50.494-35.694
		c-59.49-0.58-118.979-1.161-178.469-1.741c7.362,5.23,17.903,14.11,26.988,27.859c13.238,20.033,16.306,39.687,17.158,49.802
		C278.586,235.908,342.021,238.161,405.455,240.413z"/>
	<path style="fill:none;stroke:#1C1D22;stroke-linecap:round;stroke-linejoin:round;stroke-miterlimit:10;" d="M172.371,156.009
		c59.034,0.576,118.069,1.152,177.104,1.728c6.706,1.093,16.046,3.58,25.568,9.618c24.117,15.291,30.347,41.278,31.695,47.687"/>
	<path style="fill:none;stroke:#1C1D22;stroke-linecap:round;stroke-linejoin:round;stroke-miterlimit:10;" d="M214.569,173.977
		c13.43-0.307,26.862,0.312,40.283,0.931c17.949,0.828,35.898,1.655,53.848,2.483"/>
	<path style="fill:none;stroke:#1C1D22;stroke-linecap:round;stroke-linejoin:round;stroke-miterlimit:10;" d="M223.802,188.255
		c16.576,0.34,33.153,0.681,49.729,1.022"/>
	<path style="fill:none;stroke:#1C1D22;stroke-linecap:round;stroke-linejoin:round;stroke-miterlimit:10;" d="M286.963,190.783
		c8.623,0.604,17.247,1.209,25.87,1.813"/>
	<path style="fill:none;stroke:#1C1D22;stroke-linecap:round;stroke-linejoin:round;stroke-miterlimit:10;" d="M227.873,205.53
		c25.535,0.003,51.439,0.228,77.7,0.696c19.231,0.343,38.264,0.808,57.094,1.389"/>
</g>
<path style="fill:none;stroke:#1C1D22;stroke-linecap:round;stroke-linejoin:round;stroke-miterlimit:10;" d="M502.847,349.935
	c0.248,6.64,0.9,13.265,1.952,19.826c4.269-3.38,9.084-5.992,13.872-8.586c3.175-1.72,6.349-3.44,9.524-5.16"/>
<path style="fill:none;stroke:#1C1D22;stroke-linecap:round;stroke-linejoin:round;stroke-miterlimit:10;" d="M494.84,350.942
	c-1.518,7.663-2.783,15.376-3.793,23.123c-0.822-2.027-1.617-4.192-2.358-6.493c-1.646-5.111-2.707-9.902-3.387-14.204"/>
<path style="fill:#814D99;" d="M608.631,508.818c-0.29,6.82-0.95,13.37-1.9,19.62c-4.77-8.09-10.02-21.2-7.25-37.31
	c1.31-7.63,4.09-14.07,6.96-19.09C608.311,483.538,609.181,495.828,608.631,508.818z"/>
<g>
	<path style="fill:#F59795;" d="M525.421,372.948c-12.92-2.55-25.84-5.1-38.76-7.66c1.78-7.85,3.55-15.71,5.32-23.57
		c1.12-4.98,2.25-9.95,3.37-14.93c2.39-3.83,4.77-7.67,7.17-11.5c6.49-10.43,12.99-20.86,19.49-31.3
		C523.151,313.638,524.281,343.298,525.421,372.948z"/>
	<path style="fill:#E56A77;" d="M502.751,334.938c-3.54,4.08-7.88,5.93-10.77,6.78c1.12-4.98,2.25-9.95,3.37-14.93
		c2.39-3.83,4.77-7.67,7.17-11.5c1.38-1.51,2.76-3.02,4.15-4.53C506.901,311.428,511.391,324.988,502.751,334.938z"/>
</g>
<g>
	<path style="fill:#E56A77;" d="M473.488,270.194c-7.181,9.443-14.362,18.886-21.543,28.33c4.558,1.428,9.116,2.856,13.674,4.285
		C468.242,291.937,470.865,281.065,473.488,270.194z"/>
	<path style="fill:#F59795;" d="M496.802,232.48c-14.966,0.44-24.16,31.564-30.802,54.053c-5.627,19.05-11.96,40.492-2.168,48.572
		c9.481,7.823,28.345-1.612,30.698-2.79c18.932-9.47,32.214-31.716,30.929-54.567C524.258,256.39,510.197,232.086,496.802,232.48z"
		/>
	<path style="fill:#1C1D22;" d="M504.502,232.345c-5.551,7.223-7.27,13.854-7.877,17.93c-2.612,17.544,8.139,36.301,26.969,48.291
		c1.574-3.733,3.605-9.139,5.262-15.845c3.137-12.697,5.504-22.279,1.848-31.213C525.045,237.677,508.149,233.224,504.502,232.345z"
		/>
	<path style="fill:#FFFFFF;" d="M475.93,278.543c-0.322,1.586,3.203,3.711,6.733,5.098c0.929,0.376,1.841,0.692,2.708,0.933
		c0.062,0.023,0.13,0.036,0.198,0.049c0.945,0.26,2.148,0.528,3.388,0.729c2.594,0.404,5.314,0.453,5.88-0.744
		c0.802-1.703-2.869-5.805-7.154-7.432c-0.79-0.31-1.61-0.524-2.443-0.67c-1.114-0.205-2.234-0.288-3.285-0.269
		C478.789,276.311,476.167,277.284,475.93,278.543z"/>
	<path style="fill:#1C1D22;" d="M475.93,278.543c-0.322,1.586,3.203,3.711,6.733,5.098c0.929,0.376,1.841,0.692,2.708,0.933
		c0.062,0.023,0.13,0.036,0.198,0.049c1.476-2.802,0.469-6.271-2.303-7.843c-0.427-0.242-0.863-0.426-1.311-0.543
		C478.789,276.311,476.167,277.284,475.93,278.543z"/>
	<path style="fill:none;stroke:#1C1D22;stroke-linecap:round;stroke-linejoin:round;stroke-miterlimit:10;" d="M482.211,268.457
		c2.997-0.311,6.101,0.548,8.512,2.355"/>
	<path style="fill:#F59795;" d="M505.657,293.867c3.291-6.585,9.85-9.697,14.558-8.138c6.156,2.039,8.243,11.764,4.93,18.227
		c-3.102,6.052-10.916,9.203-18.474,6.802L505.657,293.867z"/>
	<path style="fill:none;stroke:#E56A77;stroke-linecap:round;stroke-linejoin:round;stroke-miterlimit:10;" d="M525.347,305.477
		c-2.412,3.402-6.501,5.553-10.671,5.613c-4.17,0.06-8.319-1.973-10.827-5.305"/>
	<path style="fill:none;stroke:#E56A77;stroke-linecap:round;stroke-linejoin:round;stroke-miterlimit:10;" d="M522.043,291.736
		c-4.826-1.934-10.972,0.637-12.983,5.431"/>
	<path style="fill:none;stroke:#E56A77;stroke-linecap:round;stroke-linejoin:round;stroke-miterlimit:10;" d="M514.414,293.024
		c4.143,1.67,7.172,5.815,7.506,10.269"/>
	<path style="fill:#1C1D22;" d="M505.878,247.654c-4.453,2.725-10.015,5.65-16.654,8.173c-5.36,2.036-10.337,3.398-14.691,4.324
		c0.604-13.609,9.21-24.786,20.551-27.608c10.84-2.698,19.93,3.294,21.605,4.442C513.085,240.541,509.481,244.097,505.878,247.654z"
		/>
	<path style="fill:none;stroke:#1C1D22;stroke-linecap:round;stroke-linejoin:round;stroke-miterlimit:10;" d="M466.239,309.535
		c2.897,0.575,5.962,0.269,8.688-0.866"/>
	<path style="fill:none;stroke:#1C1D22;stroke-linecap:round;stroke-linejoin:round;stroke-miterlimit:10;" d="M514.266,238.814
		c3.838-2.936,7.677-5.872,11.515-8.808"/>
	<path style="fill:none;stroke:#1C1D22;stroke-linecap:round;stroke-linejoin:round;stroke-miterlimit:10;" d="M514.189,239.429
		c1.79-5.812,3.843-11.543,6.149-17.17"/>
	<path style="fill:none;stroke:#1C1D22;stroke-linecap:round;stroke-linejoin:round;stroke-miterlimit:10;" d="M515.96,236.694
		c-0.753-2.208-2.714-3.795-4.785-4.869c-6.335-3.284-14.32-2.634-20.498,0.934c-6.179,3.568-10.593,9.774-12.796,16.56"/>
	<path style="fill:none;stroke:#1C1D22;stroke-linecap:round;stroke-linejoin:round;stroke-miterlimit:10;" d="M514.897,237.337
		c0.201-0.955,1.387-1.29,2.362-1.328c2.44-0.095,4.903,0.513,7.018,1.734c1.009,0.582,1.951,1.313,2.634,2.257
		c0.61,0.843,0.993,1.826,1.365,2.798c2.647,6.925,5.082,14.329,3.789,21.629"/>
</g>
<path style="fill:#814D99;" d="M313.646,536.807c10.478,9.222,24.691,19.989,42.894,29.617
	c23.096,12.216,44.436,18.273,60.255,21.447c3.745-18.383,7.49-36.766,11.234-55.149c-32.511-15.83-65.021-31.66-97.532-47.489
	C324.88,502.424,319.263,519.615,313.646,536.807z"/>
<path style="fill:#814D99;" d="M470.011,360.744c-3.759,3.729-7.457,7.633-11.08,11.722c-48.8,55.068-65.419,122.674-70.093,177.888
	c20.355,3.701,40.709,7.402,61.064,11.103C456.605,494.552,463.308,427.648,470.011,360.744z"/>
<path style="fill:none;stroke:#1C1D22;stroke-linecap:round;stroke-linejoin:round;stroke-miterlimit:10;" d="M451.141,418.151
	c-7.676,26.558-14.333,53.398-20.987,80.23c-1.872,7.549-4.603,14.718-6.265,22.395c-3.741,17.286-7.482,34.572-11.223,51.858"/>
<path style="fill:#F59795;" d="M401.132,523.617c-1.176-2.74-3.05-6.637-5.897-10.967c-6.678-10.157-17.16-20.344-19.923-18.576
	c-1.264,0.809-0.666,4.12-0.192,5.667c1.221,3.987,4.183,4.621,5.125,7.685c0.538,1.749,0.466,4.449-2.363,8.555
	C385.631,518.526,393.382,521.072,401.132,523.617z"/>
<polygon style="fill:#F59795;" points="388.107,558.222 405.532,562.278 411.249,524.707 405.532,521.175 "/>
<path style="fill:#A081B7;" d="M602.377,543.311c0,23.979-20.539,45.531-43.713,43.713c-17.573-1.379-33.266-15.934-37.189-35.919
	c12.396-17.169,24.792-34.337,37.189-51.506C582.644,499.599,602.377,519.331,602.377,543.311z"/>
<path style="fill:#E56A77;" d="M404.121,541.778c-2.49,6.58-4.97,13.17-7.45,19.76c-5.11-0.26-13.52-1.34-22.78-5.77
	c-1.88-0.9-3.62-1.86-5.23-2.84c4.65,0.71,11.75,1,19.71-1.65C395.711,548.828,400.901,544.838,404.121,541.778z"/>
<g>
	<path style="fill:#A081B7;" d="M564.601,488.698c-29.98,43.52-70.09,76.5-114.44,99.23c-12.48,5.42-25.26,10.15-38.22,14.2
		c-1.53,0.48-3.07,0.95-4.61,1.41c0.84-5.8,1.7-11.53,2.56-17.17c2.859-18.756,3.179-23.446,4.94-31.29
		c1.116-4.972,3.023-12.393,6.304-21.335c4.34-17.362,8.681-34.723,13.021-52.085c6.96-48.183,14.375-83.364,18.594-93.259
		c1.653-3.877,3.74-7.93,3.74-7.93c2.23-4,5.76-11.42,11.33-17.51c0.02-0.02,0.03-0.04,0.05-0.06c0.68-0.73,1.38-1.45,2.12-2.13
		c0.01-0.01,0.01-0.02,0.02-0.02c4.01-3.74,8.95-6.64,15.02-7.35c0.09-0.01,0.18-0.02,0.27-0.03c1.35-0.16,2.73-0.3,4.14-0.41
		c1.65-0.15,3.34-0.26,5.07-0.33c2.73-0.12,5.55-0.17,8.46-0.11c0.68,0.01,1.36,0.03,2.04,0.05c7.03,0.23,13.62,1.01,19.71,2.15
		c1.64,0.3,3.24,0.63,4.81,0.98c3.72,0.83,7.24,1.79,10.52,2.8c13.46,4.18,22.65,16.63,22.88,30.72
		C563.481,422.368,564.041,455.538,564.601,488.698z"/>
	<path style="fill:none;stroke:#1C1D22;stroke-linecap:round;stroke-linejoin:round;stroke-miterlimit:10;" d="M497.111,367.567
		c-12.933,50.388-16.911,102.647-27.841,153.508"/>
	<polygon style="fill:#A081B7;" points="486.247,344.693 496.237,344.693 499.864,349.604 506.042,344.693 529.53,344.232 
		529.53,376.413 483.518,369.674 	"/>
	<path style="fill:#814D99;" d="M537.181,542.057c-4.76,0.588-9.5,1.314-14.27,1.738c1.333-3.248,3.161-8.178,4.751-14.478
		c1.911-7.57,2.589-13.598,3.005-17.422c2.221-20.406,3.996-41.499,4.483-47.355c0.468,17.025,0.921,34.058,1.361,51.099
		C536.738,524.45,536.961,533.256,537.181,542.057z"/>
	<path style="fill:none;stroke:#1C1D22;stroke-linecap:round;stroke-linejoin:round;stroke-miterlimit:10;" d="M523.71,428.691
		c0.931,2.535,1.966,5.031,3.102,7.481c3.405,7.347,5.735,14.863,8.157,22.021"/>
</g>
<g>
	<path style="fill:#A081B7;" d="M608.631,508.818c-0.29,6.82-0.95,13.37-1.9,19.62c-1.31,8.66-3.17,16.76-5.36,24.25
		c-0.6,2.04-1.22,4.03-1.86,5.97c-0.29,0.87-0.6,1.72-0.95,2.54c-0.07,0.16-0.14,0.32-0.22,0.48c-0.51,1.18-1.1,2.31-1.75,3.39
		c-0.15,0.26-0.3,0.51-0.46,0.77c-2.61,4.11-6.06,7.42-10,9.83c-8.575,5.283-19.476,6.355-29.067,2.376
		c-5.445-2.259-8.864-5.496-10.213-6.816c-15.997-15.648-11.59-45.543-10.888-49.927c-1.141-35.796-2.282-71.592-3.423-107.388
		c0.77-5.878,2.678-14.959,7.905-24.858c4.976-9.424,11.016-15.908,15.286-19.836c8.6,9.32,41.57,46.74,50.71,102.82
		C608.311,483.538,609.181,495.828,608.631,508.818z"/>
	<path style="fill:none;stroke:#1C1D22;stroke-linecap:round;stroke-linejoin:round;stroke-miterlimit:10;" d="M537.211,522.038
		c-0.01-0.28-0.02-0.57-0.03-0.85c-0.44-12.87-0.89-25.74-1.37-38.61c-0.64-17.82-1.32-35.63-2.02-53.44"/>
	<path style="fill:none;stroke:#1C1D22;stroke-linecap:round;stroke-linejoin:round;stroke-miterlimit:10;" d="M537.138,520.667
		c9.461-3.571,20.067-4.319,28.646-9.672"/>
</g>
<g>
	<path style="fill:#A081B7;" d="M574.531,584.979c-13.66,5.49-29.68,10.16-47.76,12.43c-0.96,0.12-13.91,1.46-23.05,1.49
		c-44.34,0.14-102.21-30.65-108.3-33.95c4.62-14.71,9.24-29.42,13.86-44.13l40.73,1.59c16.926,0.045,33.852,0.089,50.778,0.134
		c14.131-0.601,28.261-1.203,42.392-1.804c10.073,5.727,20.147,11.453,30.22,17.18C595.361,545.538,596.091,576.308,574.531,584.979
		z"/>
	<path style="fill:#814D99;" d="M501.381,522.548c-2.93,2-6.44,3.83-10.54,5.13c-15.87,5.04-30.37-1.15-38.5-6.03
		c9.13,0.16,18.26,0.31,27.39,0.47C486.951,522.239,494.161,522.418,501.381,522.548z"/>
	<path style="fill:none;stroke:#1C1D22;stroke-linecap:round;stroke-linejoin:round;stroke-miterlimit:10;" d="M564.311,519.618
		c-6.78,0.36-13.56,0.71-20.34,1.07c-0.26,0.01-0.53,0.03-0.79,0.05c-2.01,0.11-4.01,0.27-6,0.45c-4.76,0.43-9.5,0.96-14.27,1.27
		c-2.6,0.18-5.21,0.28-7.83,0.27c-4.56-0.02-9.13-0.09-13.7-0.18c-7.22-0.13-14.43-0.31-21.65-0.43
		c-9.13-0.16-18.26-0.31-27.39-0.47c-14.18-0.24-28.35-0.49-42.53-0.73"/>
</g>
<g>
	<g>
		<g>
			<polygon style="fill:#98BBE4;" points="488.741,463.068 389.191,509.368 360.771,522.588 311.121,545.678 302.471,525.558 
				284.601,484.008 181.591,244.518 351.831,179.028 377.331,231.938 440.491,362.958 			"/>
			<g>
				<path style="fill:#F59795;" d="M413.408,406.385c3.312,0,6.427,0.843,9.143,2.325c0.264-1.267,0.407-2.579,0.407-3.924
					c0-10.56-8.561-19.121-19.121-19.121c-10.56,0-19.121,8.561-19.121,19.121c0,7.248,4.034,13.553,9.978,16.796
					C396.504,412.905,404.193,406.385,413.408,406.385z"/>
				<path style="fill:#A081B7;" d="M422.551,408.71c-1.811,8.677-9.5,15.197-18.715,15.197c-3.312,0-6.426-0.843-9.143-2.325
					c-0.265,1.267-0.407,2.579-0.407,3.924c0,10.56,8.561,19.121,19.121,19.121c10.56,0,19.121-8.561,19.121-19.121
					C432.529,418.258,428.495,411.953,422.551,408.71z"/>
				<path style="fill:#E56A77;" d="M422.551,408.71c-2.716-1.482-5.831-2.325-9.143-2.325c-9.215,0-16.904,6.52-18.714,15.197
					c2.716,1.482,5.831,2.325,9.143,2.325C413.051,423.907,420.74,417.388,422.551,408.71z"/>
			</g>
			<polygon style="fill:#FFFFFF;" points="296.317,229.71 333.017,218.063 353.063,267.871 317.288,282.139 			"/>
		</g>
		<path style="fill:none;stroke:#1C1D22;stroke-linecap:round;stroke-linejoin:round;stroke-miterlimit:10;" d="M212.135,255.699
			c5.152,10.589,10.393,21.228,15.724,31.916c10.263,20.574,20.587,40.778,30.952,60.612"/>
		<path style="fill:none;stroke:#1C1D22;stroke-linecap:round;stroke-linejoin:round;stroke-miterlimit:10;" d="M221.528,250.662
			c13.369,26.079,26.737,52.158,40.106,78.236"/>
		<path style="fill:none;stroke:#1C1D22;stroke-linecap:round;stroke-linejoin:round;stroke-miterlimit:10;" d="M266.269,336.991
			c2.065,5.031,4.567,9.882,7.47,14.481"/>
		<path style="fill:none;stroke:#1C1D22;stroke-linecap:round;stroke-linejoin:round;stroke-miterlimit:10;" d="M263.577,355.642
			c11.092,26.65,24.187,52.466,39.138,77.158"/>
		<path style="fill:none;stroke:#1C1D22;stroke-linecap:round;stroke-linejoin:round;stroke-miterlimit:10;" d="M253.707,239.493
			c0.651,2.032,1.646,3.934,2.635,5.824c2.326,4.442,4.651,8.884,6.977,13.326c1.417,2.705,2.852,5.438,4.854,7.744"/>
		<path style="fill:none;stroke:#1C1D22;stroke-linecap:round;stroke-linejoin:round;stroke-miterlimit:10;" d="M270.579,274.715
			c3.828,7.371,7.657,14.742,11.485,22.113c0.884,1.703,1.771,3.412,2.415,5.219"/>
		<path style="fill:none;stroke:#1C1D22;stroke-linecap:round;stroke-linejoin:round;stroke-miterlimit:10;" d="M287.814,310.5
			c3.925,8.01,7.849,16.019,11.774,24.029"/>
		<path style="fill:none;stroke:#1C1D22;stroke-linecap:round;stroke-linejoin:round;stroke-miterlimit:10;" d="M302.282,341.604
			c3.065,4.746,6.186,10.067,9.194,15.969c2.054,4.03,3.852,7.932,5.428,11.659"/>
		<path style="fill:none;stroke:#1C1D22;stroke-linecap:round;stroke-linejoin:round;stroke-miterlimit:10;" d="M277.172,363.631
			c7.505,14.544,15.01,29.089,22.515,43.633"/>
		<path style="fill:none;stroke:#1C1D22;stroke-linecap:round;stroke-linejoin:round;stroke-miterlimit:10;" d="M296.707,229.525
			c2.635,2.622,5.504,5.125,8.939,6.544c5.862,2.422,12.929,1.259,18.022-2.521c5.094-3.78,8.207-9.939,8.757-16.258"/>
		<path style="fill:none;stroke:#1C1D22;stroke-linecap:round;stroke-linejoin:round;stroke-miterlimit:10;" d="M316.935,281.098
			c-0.758-4.332-1.44-9.107,0.849-12.862c1.184-1.942,3.053-3.378,5.038-4.488c3.843-2.149,8.184-3.208,12.463-4.244
			c2.306-0.558,4.709-1.119,7.027-0.612c4.349,0.951,7.005,5.233,9.163,9.128"/>
		<path style="fill:none;stroke:#1C1D22;stroke-linecap:round;stroke-linejoin:round;stroke-miterlimit:10;" d="M318.454,236.28
			c2.934-1.903,7.14-0.576,9.465,1.374c2.024,1.698,2.869,3.923,3.88,7.608c0.433,1.579,0.796,3.18,1.03,4.801
			c0.431,2.996,0.227,6.491-2.11,8.415c-2.216,1.825-5.665,1.458-8.011-0.198c-2.027-1.431-3.043-3.15-4.822-6.986
			c-1.817-3.92-2.986-6.441-2.406-9.665C315.68,240.524,316.177,237.758,318.454,236.28z"/>
		<path style="fill:none;stroke:#1C1D22;stroke-linecap:round;stroke-linejoin:round;stroke-miterlimit:10;" d="M331.762,245.298
			c3.337-1.663,6.737-3.199,10.189-4.606"/>
		<path style="fill:none;stroke:#1C1D22;stroke-linecap:round;stroke-linejoin:round;stroke-miterlimit:10;" d="M317.902,250.577
			c-3.883,1.298-7.919,2.69-10.79,5.609"/>
	</g>
	<path style="fill:#668BC7;" d="M389.191,509.368l-28.42,13.22c-7.19-7.35-14.39-14.7-21.59-22.04c3.69-1.56,16.6-6.49,31.91-1.78
		C379.521,501.358,385.501,505.888,389.191,509.368z"/>
	<path style="fill:#668BC7;" d="M302.471,525.558l-17.87-41.55c5.37-7.48,10.74-14.95,16.11-22.44c3.06,2.16,13.3,9.95,16.34,23.83
		C320.181,499.718,314.481,515.098,302.471,525.558z"/>
	<path style="fill:#668BC7;" d="M440.491,362.958c-30.2-33.7-43.98-64.07-50.93-85.9c-3.72-11.69-8.74-31.13-12.23-45.12
		L440.491,362.958z"/>
</g>
<g>
	<g>
		<path style="fill:#F59795;" d="M275.693,486.474c3.721-9.931,8.988-15.994,12.645-19.429c5.018-4.714,13.464-10.551,15.729-8.635
			c1.318,1.115,0.254,4.615-0.617,6.477c-1.941,4.15-5.651,5.994-7.402,7.093c-3.823,2.4-8.195,7.451-10.486,19.121
			C282.272,489.558,278.982,488.016,275.693,486.474z"/>
		<path style="fill:#F59795;" d="M284.019,491.562c1.759-3.509,5.012-8.733,10.794-12.953c6.848-4.999,16.786-8.257,18.505-5.86
			c0.606,0.845,0.029,2.17-0.771,4.009c-2.423,5.564-7.228,8.402-9.56,9.561c5.844-3.481,10.619-4.768,11.873-3.238
			c1.432,1.746-2.004,6.816-2.621,7.71c1.281-0.079,2.845,0.011,3.393,0.925c0.971,1.62-1.807,4.901-4.626,8.173
			c-12.997,15.086-13.7,15.633-14.958,15.574C290.896,515.225,285.894,505.271,284.019,491.562z"/>
		<path style="fill:#F59795;" d="M307.531,537.239c-2.08-0.73-12.95-4.74-21.58-14.27c-3.71-4.09-7.01-9.21-9.02-15.52
			c-1.31-4.12-1.85-8.04-1.95-11.53c-0.05-1.62-0.01-3.14,0.1-4.55c0.13-1.85,0.36-3.49,0.61-4.89c3.08-1.05,5.44-0.92,7.09-0.54
			c1.26,0.28,2.47,0.79,3.63,1.49v0.01c2.56,1.56,4.83,4.12,6.64,7.46c1.17,2.12,2.16,4.56,2.92,7.25
			c1.06,3.72,1.71,7.93,1.83,12.48l1.14,2.64C301.801,523.928,304.671,530.588,307.531,537.239z"/>
		<path style="fill:none;stroke:#E56A77;stroke-linecap:round;stroke-linejoin:round;stroke-miterlimit:10;" d="M305.842,483.878
			c-6.901,3.977-12.719,9.814-16.673,16.728"/>
		<path style="fill:none;stroke:#E56A77;stroke-linecap:round;stroke-linejoin:round;stroke-miterlimit:10;" d="M309.676,490.895
			c-6.388,3.616-11.992,8.608-16.318,14.537"/>
		<path style="fill:none;stroke:#E56A77;stroke-linecap:round;stroke-linejoin:round;stroke-miterlimit:10;" d="M276.286,490.703
			c-1.407,0.375-2.428,1.857-2.277,3.306s1.456,2.688,2.911,2.764"/>
		<path style="fill:none;stroke:#E56A77;stroke-linecap:round;stroke-linejoin:round;stroke-miterlimit:10;" d="M280.975,501.311
			c-0.746,0.873-0.781,2.273-0.081,3.183c0.701,0.91,2.063,1.234,3.098,0.736"/>
		<path style="fill:none;stroke:#E56A77;stroke-linecap:round;stroke-linejoin:round;stroke-miterlimit:10;" d="M285.249,507.443
			c-0.572,1.119-0.364,2.587,0.498,3.502c0.862,0.915,2.315,1.21,3.466,0.705"/>
	</g>
	<path style="fill:#E56A77;" d="M307.531,537.239c-2.08-0.73-12.95-4.74-21.58-14.27c2.38,0.04,5.57-0.38,8.8-2.25
		c1.73-1.01,3.11-2.22,4.19-3.45C301.801,523.928,304.671,530.588,307.531,537.239z"/>
</g>
<g>
	<path style="fill:#F59795;" d="M411.961,520.958c-2.62,6.94-5.23,13.88-7.84,20.82c-2.49,6.58-4.97,13.17-7.45,19.76
		c-5.11-0.26-13.52-1.34-22.78-5.77c-1.88-0.9-3.62-1.86-5.23-2.84c-5.15-3.14-8.95-6.53-11.52-9.13c2.28-3.46,4.56-6.92,6.84-10.38
		c1.66-2.52,3.32-5.04,4.99-7.56c2.63-3.99,5.26-7.98,7.89-11.97c0.2-0.31,0.41-0.62,0.61-0.93
		C388.961,515.628,400.461,518.288,411.961,520.958z"/>
	<path style="fill:#F59795;" d="M357.143,543.795c-2.456-2.273-6.017-5.623-10.231-9.791c-9.388-9.285-11.656-12.383-10.776-14.196
		c0.301-0.62,1.093-1.342,3.36-1.581c-6.728-7.93-9.566-12.504-8.515-13.722c0.617-0.715,2.573-0.274,5.869,1.323
		c-1.113-2.214-3.577-7.487-2.063-8.776c1.142-0.972,4.133,0.68,9.498,3.701c3.482,1.961,6.228,3.762,8.041,5.006
		c-4.578-5.924-9.385-12.966-7.672-14.908c0.241-0.273,0.804-0.664,2.588-0.416c5.854,0.815,9.669,6.395,11.497,8.771
		c3.188,4.143,8.679,9.393,18.73,13.755c0.536,2.77,1.205,8.416-1.245,14.616C371.396,539.794,358.728,543.375,357.143,543.795z"/>
	<path style="fill:none;stroke:#E56A77;stroke-linecap:round;stroke-linejoin:round;stroke-miterlimit:10;" d="M344.246,493.64
		c6.342,12.335,14.964,23.494,25.299,32.744"/>
	<path style="fill:none;stroke:#E56A77;stroke-linecap:round;stroke-linejoin:round;stroke-miterlimit:10;" d="M335.575,504.164
		c7.569,8.801,15.835,17.001,24.696,24.5"/>
	<path style="fill:none;stroke:#E56A77;stroke-linecap:round;stroke-linejoin:round;stroke-miterlimit:10;" d="M338.881,518.421
		c6.517,5.418,13.353,10.451,20.461,15.065"/>
	<path style="fill:none;stroke:#E56A77;stroke-linecap:round;stroke-linejoin:round;stroke-miterlimit:10;" d="M372.314,522.393
		c-0.378,0.108-0.415,0.621-0.375,1.012c0.128,1.255,0.316,2.633,1.258,3.473c0.942,0.84,2.86,0.508,2.954-0.751"/>
	<path style="fill:none;stroke:#E56A77;stroke-linecap:round;stroke-linejoin:round;stroke-miterlimit:10;" d="M364.457,530.384
		c-0.73,0.415-1.003,1.388-0.812,2.206s0.752,1.501,1.365,2.076c0.973,0.912,2.643,1.587,3.525,0.586"/>
	<path style="fill:none;stroke:#E56A77;stroke-linecap:round;stroke-linejoin:round;stroke-miterlimit:10;" d="M361.282,538.961
		c-0.131,1.369,0.575,2.785,1.748,3.503c1.173,0.718,2.755,0.704,3.915-0.035"/>
	<path style="fill:none;stroke:#E56A77;stroke-linecap:round;stroke-linejoin:round;stroke-miterlimit:10;" d="M376.296,513.723
		c5.607,1.705,11.213,3.411,16.82,5.116"/>
</g>
<g>
	<rect x="34.972" y="86.038" style="fill:none;" width="206.609" height="48.896"/>
	<path d="M41.533,94.293c-0.384,0.191-1.151,0.384-2.135,0.384c-2.279,0-3.994-1.439-3.994-4.09c0-2.53,1.715-4.246,4.222-4.246
		c1.008,0,1.643,0.216,1.919,0.36l-0.252,0.852c-0.396-0.192-0.959-0.336-1.631-0.336c-1.895,0-3.154,1.211-3.154,3.334
		c0,1.979,1.139,3.25,3.106,3.25c0.636,0,1.283-0.132,1.703-0.336L41.533,94.293z"/>
	<path d="M44.199,92.014l-0.839,2.543h-1.08l2.747-8.084h1.259l2.758,8.084h-1.115l-0.864-2.543H44.199z M46.85,91.199l-0.792-2.326
		c-0.18-0.528-0.3-1.008-0.419-1.476h-0.024c-0.12,0.479-0.251,0.972-0.408,1.463l-0.792,2.339H46.85z"/>
	<path d="M50.236,86.582c0.528-0.108,1.283-0.168,2.003-0.168c1.115,0,1.835,0.204,2.338,0.659c0.408,0.36,0.636,0.912,0.636,1.535
		c0,1.068-0.671,1.775-1.523,2.063v0.036c0.624,0.216,0.995,0.791,1.187,1.631c0.264,1.127,0.456,1.907,0.624,2.219h-1.08
		c-0.132-0.228-0.312-0.924-0.54-1.931c-0.24-1.115-0.672-1.535-1.619-1.571h-0.983v3.502h-1.043V86.582z M51.279,90.263h1.067
		c1.115,0,1.823-0.611,1.823-1.535c0-1.043-0.755-1.499-1.859-1.511c-0.504,0-0.863,0.048-1.031,0.096V90.263z"/>
	<path d="M56.692,86.582c0.636-0.096,1.391-0.168,2.219-0.168c1.499,0,2.566,0.348,3.274,1.008c0.72,0.659,1.14,1.595,1.14,2.902
		c0,1.319-0.408,2.398-1.164,3.142c-0.755,0.756-2.003,1.164-3.574,1.164c-0.744,0-1.367-0.036-1.895-0.097V86.582z M57.735,93.73
		c0.264,0.048,0.647,0.06,1.055,0.06c2.231,0,3.442-1.247,3.442-3.43c0.012-1.907-1.067-3.119-3.274-3.119
		c-0.54,0-0.947,0.049-1.223,0.108V93.73z"/>
	<path d="M67.228,86.57c0.503-0.084,1.163-0.156,2.003-0.156c1.031,0,1.787,0.24,2.267,0.672c0.444,0.384,0.708,0.972,0.708,1.69
		c0,0.732-0.216,1.308-0.624,1.728c-0.552,0.588-1.451,0.888-2.471,0.888c-0.312,0-0.6-0.013-0.839-0.072v3.238h-1.043V86.57z
		 M68.271,90.467c0.228,0.061,0.516,0.084,0.863,0.084c1.259,0,2.027-0.611,2.027-1.727c0-1.067-0.755-1.584-1.907-1.584
		c-0.456,0-0.804,0.036-0.983,0.084V90.467z"/>
	<path d="M73.911,92.014l-0.839,2.543h-1.08l2.747-8.084h1.259l2.758,8.084h-1.115l-0.863-2.543H73.911z M76.561,91.199
		l-0.792-2.326c-0.18-0.528-0.3-1.008-0.419-1.476h-0.024c-0.12,0.479-0.251,0.972-0.408,1.463l-0.792,2.339H76.561z"/>
	<path d="M80.798,94.557v-3.43l-2.555-4.654h1.188l1.139,2.231c0.312,0.611,0.552,1.104,0.804,1.667h0.024
		c0.228-0.528,0.504-1.056,0.816-1.667l1.163-2.231h1.188l-2.71,4.642v3.442H80.798z"/>
	<path d="M92.184,91.007c-0.06-1.128-0.132-2.482-0.12-3.49h-0.036c-0.276,0.947-0.612,1.955-1.02,3.07l-1.427,3.922H88.79
		l-1.307-3.85c-0.384-1.14-0.708-2.184-0.936-3.143h-0.024c-0.024,1.008-0.084,2.362-0.156,3.574l-0.216,3.466h-0.995l0.563-8.084
		h1.332l1.379,3.91c0.336,0.995,0.612,1.883,0.815,2.723h0.036c0.204-0.815,0.492-1.703,0.852-2.723l1.439-3.91h1.331l0.504,8.084
		h-1.02L92.184,91.007z"/>
	<path d="M99.205,90.767h-3.142v2.914h3.502v0.876H95.02v-8.084h4.365v0.876h-3.322v2.555h3.142V90.767z"/>
	<path d="M100.923,94.557v-8.084h1.139l2.591,4.09c0.6,0.948,1.067,1.8,1.451,2.627l0.024-0.012c-0.096-1.08-0.12-2.063-0.12-3.322
		v-3.383h0.983v8.084h-1.055l-2.566-4.102c-0.564-0.899-1.104-1.823-1.511-2.698l-0.036,0.012c0.06,1.02,0.084,1.991,0.084,3.334
		v3.454H100.923z"/>
	<path d="M110.354,87.361h-2.459v-0.888h5.985v0.888h-2.471v7.196h-1.055V87.361z"/>
</g>
<g>
</g>
<g>
</g>
<g>
</g>
<g>
</g>
<g>
</g>
<g>
</g>
<g>
</g>
<g>
</g>
<g>
</g>
<g>
</g>
<g>
</g>
<g>
</g>
<g>
</g>
<g>
</g>
<g>
</g>
</svg>
