<?xml version="1.0" encoding="iso-8859-1"?>
<!-- Generator: Adobe Illustrator 24.0.1, SVG Export Plug-In . SVG Version: 6.00 Build 0)  -->
<svg version="1.1" id="Layer_1" xmlns="http://www.w3.org/2000/svg" xmlns:xlink="http://www.w3.org/1999/xlink" x="0px" y="0px"
	 viewBox="0 0 700 700" style="enable-background:new 0 0 700 700;" xml:space="preserve">
<g>
	<path style="fill:#E3E5E8;" d="M427.576,109.319c50.076-7.733,129.055-19.931,178.186,24.912
		c46.214,42.18,47.708,118.116,12.149,160.701c-29.525,35.358-62.896,21.737-96.383,51.908
		c-65.426,58.947,17.383,172.072-34.017,239.629c-48.679,63.98-200.219,69.036-293.998-8.287
		c-71.965-59.337-95.126-154.992-81.813-230.631C144.677,160.188,397.991,113.888,427.576,109.319z"/>
	<path style="fill:none;stroke:#E3E5E8;stroke-linecap:round;stroke-linejoin:round;stroke-miterlimit:10;" d="M450.79,116.309
		c-24.634-2.22-60.985-3.072-103.404,5.362c-26.379,5.245-192.524,38.278-240.511,174.638
		c-26.512,75.337-4.331,146.336,8.661,178.94"/>
	<path style="fill:none;stroke:#E3E5E8;stroke-linecap:round;stroke-linejoin:round;stroke-miterlimit:10;" d="M624.663,161.501
		c16.51,39.666,29.688,90.971,6.894,130.979c-26.635,46.749-77.057,33.616-104.17,78.894
		c-36.198,60.447,27.627,127.344-7.955,186.998c-19.434,32.58-58.086,45.509-87.003,51.357"/>
</g>
<g>
	<path style="fill:#FFFFFF;" d="M178.495,142.883l431.58,13.976c3.5,26.796,5.971,56.524,6.479,88.772
		c0.766,48.621-3.1,92.156-8.726,129.306c-10.839-19.252-21.679-38.504-32.518-57.756l-412.875-0.072L178.495,142.883z"/>
	<path style="fill:none;stroke:#1C1D22;stroke-linecap:round;stroke-linejoin:round;stroke-miterlimit:10;" d="M616.487,257.295
		c0.614,20.774-0.012,41.583-1.866,62.283c-0.927,10.35-2.161,20.672-3.7,30.949c-0.785,5.242-1.582,10.501-2.597,15.704
		c-0.773,3.96-0.773,8.37-2.474,12.073c-3.701-21.596-20.181-38.511-29.319-58.425c-0.278-0.605-0.579-1.249-1.144-1.601
		c-0.463-0.289-1.031-0.335-1.575-0.374c-15.763-1.131-31.004-1.407-46.761-0.493c-3.435,0.199-6.871,0.398-10.308,0.549
		c-27.175,1.189-54.392-0.675-81.591-0.314c-2.866,0.038-5.739,0.101-8.579,0.483"/>
	<path style="fill:none;stroke:#1C1D22;stroke-linecap:round;stroke-linejoin:round;stroke-miterlimit:10;" d="M168.857,252.927
		c1.843-36.523,3.694-73.124,9.322-109.258c8.174-0.534,16.365-0.819,24.556-0.856c42.705-0.189,85.333,6.387,127.987,4.291"/>
</g>
<g>
	<path style="fill:#FFFFFF;" d="M155.478,375.401l404.968-9.868l4.86,188.749l-387.96-3.273l-38.877,63.175
		c-4.677-46.945-5.694-103.925,3.24-167.657C145.287,421.005,150.06,397.25,155.478,375.401z"/>
	<path style="fill:none;stroke:#1C1D22;stroke-linecap:round;stroke-linejoin:round;stroke-miterlimit:10;" d="M138.836,458.781
		c0.685-5.093,1.606-10.154,2.758-15.161"/>
	<path style="fill:none;stroke:#1C1D22;stroke-linecap:round;stroke-linejoin:round;stroke-miterlimit:10;" d="M496.37,367.073
		c21.477-0.945,42.954-1.89,64.431-2.835c2.685,11.564,1.952,23.601,1.787,35.471c-0.116,8.34,0.057,16.68,0.23,25.019
		c0.891,43.074,1.783,86.149,2.674,129.223"/>
	<path style="fill:none;stroke:#1C1D22;stroke-linecap:round;stroke-linejoin:round;stroke-miterlimit:10;" d="M457.49,554.28
		c3.329-0.532,6.721-0.453,10.091-0.373c15.153,0.361,30.305,0.722,45.458,1.083c4.219,0.101,8.44,0.201,12.658,0.059
		c3.884-0.131,7.759-0.467,11.638-0.698c9.656-0.575,19.35-0.498,28.995,0.229"/>
</g>
<path style="fill:#668BC7;" d="M230.353,557.561c0.11-4.27,0.14-8.63,0.12-13.08c-0.09-12.86-0.7-25.06-1.69-36.52
	c2.86,6.81,5.71,13.62,8.58,20.43v0.01c3.85,9.17,7.69,18.34,11.55,27.51C242.723,556.461,236.543,557.011,230.353,557.561z"/>
<g>
	<path style="fill:none;stroke:#1C1D22;stroke-linecap:round;stroke-linejoin:round;stroke-miterlimit:10;" d="M519.696,223.239
		c-4.251,1.499-8.441,3.168-12.559,5.001c-4.757,2.118-9.492,4.507-13.274,8.086c-4.414,4.176-7.261,9.711-9.834,15.215
		c-9.454,20.229-16.326,41.559-25.042,62.117"/>
	<path style="fill:none;stroke:#1C1D22;stroke-linecap:round;stroke-linejoin:round;stroke-miterlimit:10;" d="M446.839,232.853
		c4.843,26.187,9.691,52.416,12.199,78.929c0.042,0.447,0.048,0.981-0.315,1.246"/>
	<path style="fill:none;stroke:#1C1D22;stroke-linecap:round;stroke-linejoin:round;stroke-miterlimit:10;" d="M407.77,248.736
		c2.994,22.666,4.599,45.516,4.803,68.378"/>
	<path style="fill:none;stroke:#1C1D22;stroke-linecap:round;stroke-linejoin:round;stroke-miterlimit:10;" d="M599.976,197.99
		c5.699-0.472,11.397-0.943,17.096-1.415"/>
	<path style="fill:none;stroke:#1C1D22;stroke-linecap:round;stroke-linejoin:round;stroke-miterlimit:10;" d="M506.247,275.912
		c-1.236,2.587-2.201,5.305-2.873,8.093c-0.512,2.123-0.797,4.554,0.482,6.324c1.42,1.965,4.163,2.321,6.586,2.408
		c0.407,0.015,0.875,0.058,1.107,0.392c0.123,0.176,0.151,0.399,0.176,0.612c0.795,6.84,1.59,13.68,2.385,20.52"/>
	<path style="fill:none;stroke:#1C1D22;stroke-linecap:round;stroke-linejoin:round;stroke-miterlimit:10;" d="M410.804,274.654
		c14.606,1.565,29.667-1.417,42.575-8.429"/>
	<path style="fill:none;stroke:#1C1D22;stroke-linecap:round;stroke-linejoin:round;stroke-miterlimit:10;" d="M416.05,259.299
		c-1.21-0.082-2.068,1.249-2.172,2.458c-0.163,1.893,1.028,3.919,2.871,4.38c1.843,0.461,4.009-1.069,3.905-2.966
		c-0.123-2.246-2.753-3.373-4.97-3.753"/>
</g>
<g>
	<g>
		<path style="fill:none;stroke:#1C1D22;stroke-linecap:round;stroke-linejoin:round;stroke-miterlimit:10;" d="M207.443,183.087
			c18.261,0.652,36.541,0.79,54.81,0.414"/>
		<path style="fill:none;stroke:#1C1D22;stroke-linecap:round;stroke-linejoin:round;stroke-miterlimit:10;" d="M270.08,182.372
			c3.186-0.232,6.398-0.106,9.556,0.376"/>
		<path style="fill:none;stroke:#1C1D22;stroke-linecap:round;stroke-linejoin:round;stroke-miterlimit:10;" d="M290.515,182.419
			c10.78-0.046,21.561-0.091,32.341-0.137"/>
		<path style="fill:none;stroke:#1C1D22;stroke-linecap:round;stroke-linejoin:round;stroke-miterlimit:10;" d="M335.453,181.95
			c3.448,0.084,6.896,0.168,10.344,0.251c5.054,0.123,10.126,0.245,15.149-0.325"/>
		<path style="fill:none;stroke:#1C1D22;stroke-linecap:round;stroke-linejoin:round;stroke-miterlimit:10;" d="M206.431,198.07
			c31.206,0.11,62.411,0.219,93.617,0.329"/>
	</g>
	<path style="fill:none;stroke:#1C1D22;stroke-linecap:round;stroke-linejoin:round;stroke-miterlimit:10;" d="M205.048,224.808
		c1.264-0.574,2.718-0.475,4.103-0.373c14.317,1.054,28.705,1.155,43.036,0.299c-0.422,0.358-1.027,0.486-1.558,0.331"/>
	<path style="fill:none;stroke:#1C1D22;stroke-linecap:round;stroke-linejoin:round;stroke-miterlimit:10;" d="M259.811,225.077
		c2.099,0.091,4.204,0.033,6.295-0.174"/>
	<path style="fill:none;stroke:#1C1D22;stroke-linecap:round;stroke-linejoin:round;stroke-miterlimit:10;" d="M278.547,224.714
		c27.552-1.283,55.129-2.012,82.71-2.189"/>
	<path style="fill:none;stroke:#1C1D22;stroke-linecap:round;stroke-linejoin:round;stroke-miterlimit:10;" d="M205.02,236.934
		c23.919,1.003,47.886,2.006,71.786,0.628c24.754-1.427,49.5-5.406,74.224-3.522"/>
	<path style="fill:none;stroke:#1C1D22;stroke-linecap:round;stroke-linejoin:round;stroke-miterlimit:10;" d="M362.958,234.987
		c2.157-0.028,4.314-0.057,6.471-0.085"/>
	<g>
		<path style="fill:none;stroke:#1C1D22;stroke-linecap:round;stroke-linejoin:round;stroke-miterlimit:10;" d="M205.594,269.206
			c33.366,0.131,66.735-0.202,100.092-0.996"/>
		<path style="fill:none;stroke:#1C1D22;stroke-linecap:round;stroke-linejoin:round;stroke-miterlimit:10;" d="M313.167,268.062
			c4.879-0.02,9.759-0.041,14.638-0.061"/>
		<path style="fill:none;stroke:#1C1D22;stroke-linecap:round;stroke-linejoin:round;stroke-miterlimit:10;" d="M335.967,269.097
			c7.025-0.501,14.081-0.564,21.114-0.188"/>
		<path style="fill:none;stroke:#1C1D22;stroke-linecap:round;stroke-linejoin:round;stroke-miterlimit:10;" d="M205.594,282.583
			c6.051-0.874,12.189-0.912,18.303-0.949c6.038-0.036,12.075-0.072,18.113-0.108"/>
		<path style="fill:none;stroke:#1C1D22;stroke-linecap:round;stroke-linejoin:round;stroke-miterlimit:10;" d="M256.656,282.893
			c4.046-0.628,8.169-0.76,12.246-0.393"/>
		<path style="fill:none;stroke:#1C1D22;stroke-linecap:round;stroke-linejoin:round;stroke-miterlimit:10;" d="M292.416,282.78
			c17.668,1.047,35.383,1.306,53.074,0.777"/>
	</g>
</g>
<g>
	<g>
		<path style="fill:none;stroke:#1C1D22;stroke-linecap:round;stroke-linejoin:round;stroke-miterlimit:10;" d="M354.451,402.667
			c19.854,3.677,40.635-2.171,60.378,2.062"/>
		<path style="fill:none;stroke:#1C1D22;stroke-linecap:round;stroke-linejoin:round;stroke-miterlimit:10;" d="M421.94,404.556
			c4.938,0.17,9.889-0.023,14.8-0.578"/>
		<path style="fill:none;stroke:#1C1D22;stroke-linecap:round;stroke-linejoin:round;stroke-miterlimit:10;" d="M448.559,404.3
			c20.621-2.847,41.421-4.394,62.236-4.63"/>
		<path style="fill:none;stroke:#1C1D22;stroke-linecap:round;stroke-linejoin:round;stroke-miterlimit:10;" d="M519.483,399.502
			c2.889,0.112,5.779,0.224,8.668,0.337"/>
		<path style="fill:none;stroke:#1C1D22;stroke-linecap:round;stroke-linejoin:round;stroke-miterlimit:10;" d="M352.909,418.276
			c29.758,2.132,59.666,2.166,89.429,0.099"/>
		<path style="fill:none;stroke:#1C1D22;stroke-linecap:round;stroke-linejoin:round;stroke-miterlimit:10;" d="M451.986,418.101
			c3.915,0,7.83,0,11.745,0"/>
		<path style="fill:none;stroke:#1C1D22;stroke-linecap:round;stroke-linejoin:round;stroke-miterlimit:10;" d="M475.985,418.557
			c17.873-0.323,35.745-0.64,53.618-0.949"/>
	</g>
	<g>
		<path style="fill:none;stroke:#1C1D22;stroke-linecap:round;stroke-linejoin:round;stroke-miterlimit:10;" d="M386.69,456.858
			c3.181-0.191,6.363-0.383,9.544-0.574c6.696-0.403,13.393-0.805,20.089-1.208"/>
		<path style="fill:none;stroke:#1C1D22;stroke-linecap:round;stroke-linejoin:round;stroke-miterlimit:10;" d="M424.977,454.498
			c7.994,0.43,16.007,0.52,24.009,0.267"/>
		<path style="fill:none;stroke:#1C1D22;stroke-linecap:round;stroke-linejoin:round;stroke-miterlimit:10;" d="M456.098,456.965
			c5.772-1.071,11.669-1.229,17.537-1.385c3.105-0.082,6.21-0.165,9.315-0.247c6.038-0.16,12.075-0.321,18.113-0.481"/>
		<path style="fill:none;stroke:#1C1D22;stroke-linecap:round;stroke-linejoin:round;stroke-miterlimit:10;" d="M386.82,471.203
			c29.991,0.295,59.997-0.956,89.859-3.744"/>
		<path style="fill:none;stroke:#1C1D22;stroke-linecap:round;stroke-linejoin:round;stroke-miterlimit:10;" d="M488.445,465.669
			c4.737-0.559,9.521-0.514,14.29-0.468c12.678,0.122,25.357,0.243,38.036,0.365"/>
	</g>
	<g>
		<path style="fill:none;stroke:#1C1D22;stroke-linecap:round;stroke-linejoin:round;stroke-miterlimit:10;" d="M386.202,506.785
			c3.976-0.816,8.076-0.72,12.134-0.62c15.873,0.39,31.747,0.78,47.62,1.17"/>
		<path style="fill:none;stroke:#1C1D22;stroke-linecap:round;stroke-linejoin:round;stroke-miterlimit:10;" d="M456.165,506.634
			c3.167,0.715,6.5,0.684,9.652-0.092"/>
		<path style="fill:none;stroke:#1C1D22;stroke-linecap:round;stroke-linejoin:round;stroke-miterlimit:10;" d="M474.546,506.993
			c11.751-0.947,23.501-1.894,35.252-2.841"/>
		<path style="fill:none;stroke:#1C1D22;stroke-linecap:round;stroke-linejoin:round;stroke-miterlimit:10;" d="M520.591,504.508
			c0.693,0.016,1.314-0.049,1.998-0.163c6.163-1.027,12.447-1.332,18.681-0.906"/>
		<path style="fill:none;stroke:#1C1D22;stroke-linecap:round;stroke-linejoin:round;stroke-miterlimit:10;" d="M386.718,524.634
			c5.909-1.055,12.021-0.962,17.896,0.271"/>
		<path style="fill:none;stroke:#1C1D22;stroke-linecap:round;stroke-linejoin:round;stroke-miterlimit:10;" d="M417.854,524.159
			c18.043,0.048,36.086,0.095,54.129,0.143"/>
		<path style="fill:none;stroke:#1C1D22;stroke-linecap:round;stroke-linejoin:round;stroke-miterlimit:10;" d="M480.239,522.611
			c21.57-3.161,43.996-2.969,65.789-2.751"/>
	</g>
</g>
<g>
	<path style="fill:#F59795;" d="M253.434,454.362c-13.135-1.376-26.27-2.752-39.405-4.128c6.265-24.393,12.541-48.797,18.806-73.201
		c6.369,8.016,12.728,16.033,19.098,24.049c0.146,5.056,0.281,10.101,0.427,15.157c0.156,5.546,0.313,11.081,0.469,16.627
		C253.027,440.028,253.235,447.2,253.434,454.362z"/>
	<path style="fill:#E56A77;" d="M252.829,432.867c-2.304-0.969-5.108-2.554-7.599-5.223c-8.454-9.048-5.494-21.923-5.191-23.163
		c4.107,3.92,8.214,7.839,12.322,11.759C252.516,421.785,252.673,427.321,252.829,432.867z"/>
</g>
<g>
	<polygon style="fill:#E56A77;" points="280.926,371.486 292.046,396.209 280.131,397.865 280.131,371.486 	"/>
	<path style="fill:#F59795;" d="M271.1,345.079c9.258,4.041,10.048,19.182,11.224,41.74c0.987,18.932,1.597,30.631-5.254,34.899
		c-9.489,5.911-29.26-4.944-38.276-19.888c-2.403-3.983-9.284-16.945-4.503-31.521C239.986,352.949,259.953,340.213,271.1,345.079z"
		/>
	<path style="fill:#1C1D22;" d="M235.375,361.147c-1.93-5.051,15.16-16.377,26.715-22.136c19.563-9.751,44.848-14.308,47.35-8.747
		c2.247,4.993-13.896,18.105-28.859,25.146C261.314,364.478,237.446,366.568,235.375,361.147z"/>
	<path style="fill:#1C1D22;" d="M241.754,351.868c7.457,2.707,14.913,5.413,22.37,8.12c-0.523,4.04-1.697,9.703-4.597,15.855
		c-8.096,17.175-26.31,31.086-33.35,27.116c-5.412-3.052-3.259-16.131-2.58-20.268C226.291,366.27,237.094,355.858,241.754,351.868z
		"/>
	<path style="fill:#F59795;" d="M260.09,382.973c-1.371-5.79-5.239-10.123-9.475-10.601c-7.054-0.796-14.669,9.149-11.82,16.324
		c1.876,4.726,8.252,7.836,15.198,6.567C256.025,391.166,258.058,387.069,260.09,382.973z"/>
	<path style="fill:none;stroke:#E56A77;stroke-linecap:round;stroke-linejoin:round;stroke-miterlimit:10;" d="M245.815,376.752
		c4.178,0.265,7.846,4.003,8.032,8.185"/>
	<path style="fill:none;stroke:#E56A77;stroke-linecap:round;stroke-linejoin:round;stroke-miterlimit:10;" d="M250.372,379.117
		c-3.493,1.587-5.87,5.364-5.79,9.2"/>
	<path style="fill:none;stroke:#1C1D22;stroke-linecap:round;stroke-linejoin:round;stroke-miterlimit:10;" d="M241.823,352.881
		c-1.544-4.61-1.838-9.632-0.843-14.39"/>
	<path style="fill:none;stroke:#1C1D22;stroke-linecap:round;stroke-linejoin:round;stroke-miterlimit:10;" d="M241.196,353.25
		c-2.278-1.983-5.994-2.047-8.339-0.144"/>
	<path style="fill:none;stroke:#1C1D22;stroke-linecap:round;stroke-linejoin:round;stroke-miterlimit:10;" d="M240.141,353.25
		c9.96-9.222,39.238-34.391,62.2-25.485c1.046,0.406,2.081,0.883,3.102,1.437"/>
	<path style="fill:#FFFFFF;" d="M279.235,379.609c0.011,0.97-1.819,1.863-3.99,2.458c-0.584,0.165-1.191,0.309-1.797,0.419
		c-0.75,0.154-1.488,0.254-2.172,0.32h-0.154c-0.75,0.066-1.687,0.099-2.657,0.077c-2.006-0.066-4.056-0.419-4.31-1.4
		c-0.364-1.389,2.976-3.957,6.426-4.575c0.187-0.033,0.375-0.066,0.562-0.077c0.463-0.066,0.915-0.088,1.378-0.077
		c0.86,0,1.72,0.099,2.502,0.265C277.394,377.525,279.235,378.628,279.235,379.609z"/>
	<path style="fill:#1C1D22;" d="M279.235,379.609c0.011,0.97-1.819,1.863-3.99,2.458c-2.359-0.485-4.123-2.458-4.123-4.817
		c0-0.143,0.011-0.276,0.022-0.419c0.463-0.066,0.915-0.088,1.378-0.077c0.86,0,1.72,0.099,2.502,0.265
		C277.394,377.525,279.235,378.628,279.235,379.609z"/>
	<path style="fill:none;stroke:#1C1D22;stroke-linecap:round;stroke-linejoin:round;stroke-miterlimit:10;" d="M276.185,368.464
		c-1.306-0.379-2.744-0.005-3.893,0.723c-1.149,0.728-2.054,1.778-2.893,2.849"/>
	<path style="fill:none;stroke:#1C1D22;stroke-linecap:round;stroke-linejoin:round;stroke-miterlimit:10;" d="M273.803,404.289
		c2.276,2.042,5.37,3.145,8.425,3.002"/>
</g>
<g>
	<g>
		<path style="fill:#F59795;" d="M441.603,239.983c0,0.01,0,0.01-0.01,0.02c-0.24,0.36-0.49,0.7-0.77,1.03
			c-0.26,0.3-0.52,0.59-0.79,0.87c-3.01,3.16-6.71,5.16-10.72,6.28c-3.81,1.07-7.88,1.35-11.9,1.09c-2.23-0.15-5.08-0.27-6.8-1.85
			c-1.32-1.21-1.79-3.06-2.4-4.71c-1.13-3.07-2.07-6.17-2.75-9.33c-0.34-1.55-0.62-3.11-0.83-4.7c-0.22-1.61-0.57-3.9-0.68-6.25
			c-0.18-4.01,0.35-8.23,3.52-9.66c0.32-0.16,0.68-0.27,1.06-0.36c0.6-0.13,1.2-0.24,1.81-0.33c2.2-0.36,4.44-0.51,6.64-0.91
			c3.99-0.72,8.02-1.86,12.05-2.34c3.46-0.41,6.59-0.31,8.82,1.53c0.87,0.71,1.6,1.68,2.16,2.97c0.11,0.24,0.21,0.48,0.3,0.74
			c0.01,0.03,0.02,0.06,0.03,0.09c0.37,1.07,0.64,2.21,0.98,3.29c0.71,2.28,1.34,4.67,1.82,7
			C444.113,229.113,444.353,235.713,441.603,239.983z"/>
		<path style="fill:#F59795;" d="M440.034,241.899c2.23-2.557,5.393-6.797,7.669-12.75c0.429-1.122,2.884-6.071,2.758-13.326
			c-0.034-1.971-0.135-23.509-5.407-21.517c-2.356,0.89-2.127,7.042-2.162,9.007c-0.083,4.655-0.788,7.397-3.664,11.076
			c-4.171,5.338-5.535,15.249-2.294,22.645C437.452,238.216,438.373,239.981,440.034,241.899z"/>
		<path style="fill:#F59795;" d="M442.871,209.62c0.188,1.074-1.89,1.784-2.576,1.575c-1.484-0.452-1.716-2.54-2.161-3.783
			c-0.715-2-1.428-4.001-2.149-5.999c-1.491-4.132-3.01-8.255-4.621-12.343c-2.665-6.762-5.535-14.192-11.102-19.078
			c-2.91-2.554-5.327-1.026-5.746,2.413c-0.784-0.68-2.07-1.314-3.099-1.59c-2.406-0.644-3.993,2.205-2.572,4.183
			c-1.528-2.127-3.282-3.987-4.339-0.266c-0.619,2.178-0.186,4.564-0.123,6.785c0.08,2.836,0.435,5.69,0.828,8.492
			c0.432,3.084,1.295,6.145,1.883,9.196c0.494,2.563,1.481,6.507,0.999,9.149c-0.307,1.681-0.952,2.674-0.606,4.568
			c1.322,7.224,7.97,9.209,14.503,9.45c6.475,0.239,12.556-2.702,17.13-7.108C440.587,213.853,443.28,211.959,442.871,209.62z"/>
		<path style="fill:#F59795;" d="M410.468,211.189c-3.894-0.231-4.643-7.758-5.406-10.507c-1.037-3.736-0.296-10.347-4.302-12.564
			c-3.213-1.778-2.632,5.617-2.581,7.379c0.106,3.669,0.913,6.864,1.776,10.403c0.947,3.881,1.611,7.828,2.67,11.682
			c0.328,1.194,1.243,6.58,2.82,6.724c1.348,0.122,3.178-4.361,3.655-5.282C410.012,217.266,410.132,213.196,410.468,211.189z"/>
		<path style="fill:none;stroke:#E56A77;stroke-linecap:round;stroke-linejoin:round;stroke-miterlimit:10;" d="M408.474,173.624
			c0.678,5.147,2.105,10.161,3.527,15.154c1.611,5.654,3.221,11.308,4.832,16.962c0.061,0.214,0.187,0.475,0.408,0.456
			c0.221-0.02,0.032-0.472-0.07-0.274"/>
		<path style="fill:none;stroke:#E56A77;stroke-linecap:round;stroke-linejoin:round;stroke-miterlimit:10;" d="M414.387,172.484
			c4.259,10.045,8.051,20.288,11.358,30.685"/>
	</g>
	<path style="fill:none;stroke:#E56A77;stroke-linecap:round;stroke-linejoin:round;stroke-miterlimit:10;" d="M429.298,201.558
		c-1.287,0.822-2.776,1.253-4.228,1.724c-6.06,1.968-11.836,4.81-17.092,8.41c-0.156,0.107-0.407-0.056-0.373-0.242
		s0.327-0.25,0.435-0.095"/>
	<path style="fill:none;stroke:#E56A77;stroke-linecap:round;stroke-linejoin:round;stroke-miterlimit:10;" d="M441.887,209.844
		c0.078,0.116,0.203-0.153,0.07-0.194s-0.252,0.091-0.33,0.206c-2.621,3.9-5.079,7.908-7.368,12.011"/>
	<path style="fill:none;stroke:#E56A77;stroke-linecap:round;stroke-linejoin:round;stroke-miterlimit:10;" d="M423.981,189.073
		c1.301-0.52,2.602-1.041,3.903-1.561"/>
	<path style="fill:none;stroke:#E56A77;stroke-linecap:round;stroke-linejoin:round;stroke-miterlimit:10;" d="M415.972,193.653
		c0.932-0.518,1.91-0.953,2.918-1.3"/>
	<path style="fill:none;stroke:#E56A77;stroke-linecap:round;stroke-linejoin:round;stroke-miterlimit:10;" d="M409.862,195.385
		c0.938-0.615,1.972-1.083,3.054-1.381"/>
	<path style="fill:none;stroke:#E56A77;stroke-linecap:round;stroke-linejoin:round;stroke-miterlimit:10;" d="M402.37,204.917
		c0.793-0.335,1.498-0.874,2.03-1.55"/>
	<path style="fill:none;stroke:#E56A77;stroke-linecap:round;stroke-linejoin:round;stroke-miterlimit:10;" d="M401.024,195.932
		c0.563-0.238,1.125-0.476,1.688-0.715"/>
	<path style="fill:none;stroke:#E56A77;stroke-linecap:round;stroke-linejoin:round;stroke-miterlimit:10;" d="M412.922,182.287
		c0.885-0.175,1.719-0.597,2.384-1.206"/>
	<path style="fill:none;stroke:#E56A77;stroke-linecap:round;stroke-linejoin:round;stroke-miterlimit:10;" d="M420.239,178.355
		c0.974-0.551,1.948-1.102,2.921-1.653"/>
	<path style="fill:none;stroke:#E56A77;stroke-linecap:round;stroke-linejoin:round;stroke-miterlimit:10;" d="M408.337,185.721
		c0.883-0.261,1.736-0.62,2.54-1.069"/>
	<path style="fill:none;stroke:#E56A77;stroke-linecap:round;stroke-linejoin:round;stroke-miterlimit:10;" d="M443.553,207.636
		c-0.156-0.059-0.312-0.117-0.468-0.176c0.908,0.545,1.816,1.089,2.725,1.634"/>
	<path style="fill:#E56A77;" d="M429.313,248.183c-3.81,1.07-7.88,1.35-11.9,1.09c-2.23-0.15-5.08-0.27-6.8-1.85
		c-1.32-1.21-1.79-3.06-2.4-4.71c-1.13-3.07-2.07-6.17-2.75-9.33c2.44,2.78,5.91,6.1,10.6,9.05
		C420.773,245.393,425.373,247.143,429.313,248.183z"/>
</g>
<g>
	<path style="fill:#1C1D22;" d="M527.141,163.098c5.772-1.402,17.848-3.431,31.316,1.379c26.767,9.559,34.828,37.486,35.649,40.516
		c-1.813,1.347-19.18,13.824-38.625,7.432C537.03,206.36,524.466,185.852,527.141,163.098z"/>
	<path style="fill:none;stroke:#1C1D22;stroke-linecap:round;stroke-linejoin:round;stroke-miterlimit:10;" d="M537.778,163.648
		c11.185-5.809,25.412-5.268,36.124,1.375c10.711,6.643,17.52,19.146,17.287,31.748"/>
</g>
<g>
	<path style="fill:#F59795;" d="M554.203,198.363c-10.71,10.67-21.41,21.35-32.12,32.02l-1.5-6c-1.47-5.92-2.94-11.83-4.42-17.74
		c-1.8-7.26-3.61-14.51-5.42-21.76c-0.05-0.17-0.09-0.34-0.13-0.51c0.05-0.29,0.1-0.58,0.15-0.87c0.48-2.73,0.95-5.46,1.42-8.18
		c1.48-8.48,2.95-16.96,4.42-25.43C529.143,166.053,541.673,182.213,554.203,198.363z"/>
	<path style="fill:#E56A77;" d="M516.163,206.643c-1.8-7.26-3.61-14.51-5.42-21.76c0.01-0.46,0.02-0.92,0.02-1.38
		c0.05-2.95,0.1-5.9,0.15-8.85c0.28,0.14,0.72,0.36,1.27,0.67c2.46,1.41,7.05,4.68,9.08,10.56
		C523.633,192.773,521.623,200.773,516.163,206.643z"/>
</g>
<g>
	<path style="fill:#F59795;" d="M602.723,197.273c-0.33,1.53-1.12,5-2.63,9.5c-3.87,11.46-12.49,29.6-30.45,39.32
		c-1.12,0.61-2.28,1.18-3.48,1.72c-18.94,8.52-46.36,7.45-51.33-3.5c-2.75-6.04,1.96-13.74,5.75-19.93
		c10.3-16.83,26.59-23.59,33.62-26.02c8.44-0.65,17.34-1.1,26.69-1.26C588.463,196.973,595.743,197.043,602.723,197.273z"/>
	<path style="fill:none;stroke:#E56A77;stroke-linecap:round;stroke-linejoin:round;stroke-miterlimit:10;" d="M547.192,234.056
		c0.503-0.806,1.359-1.311,2.182-1.786c8.337-4.807,16.675-9.614,25.012-14.422c0.145-0.084,0.312-0.212,0.279-0.376
		c-0.033-0.164-0.37-0.063-0.251,0.054"/>
	<path style="fill:none;stroke:#E56A77;stroke-linecap:round;stroke-linejoin:round;stroke-miterlimit:10;" d="M523.051,233.742
		c1.899,0.177,3.797,0.354,5.696,0.531c0.773,0.072,1.612,0.173,2.166,0.718"/>
	<path style="fill:#E56A77;" d="M600.093,206.773c-3.87,11.46-12.49,29.6-30.45,39.32c5.4-6.36,10.88-13.11,16.38-20.25
		C591.023,219.363,595.703,212.993,600.093,206.773z"/>
</g>
<g>
	<path style="fill:#F59795;" d="M495.578,128.948c-9.96,2.383-12.941,19.588-14.22,26.971c-3.609,20.826,0.971,49.32,11.295,51.121
		c12.321,2.149,37.31-32.936,27.758-58.074C516.275,138.079,504.782,126.745,495.578,128.948z"/>
	<path style="fill:#1C1D22;" d="M544.155,170.174c-7.92-18.97-19.119-29.599-25.724-34.853c-8.641-6.873-18.43-14.68-28.034-11.435
		c-11.991,4.05-17.657,22.699-13.723,26.202c1.69,1.505,6.028,0.994,16.703-5.907c2.317,4.291,6.273,10.196,12.804,15.376
		C521.487,171.698,539.295,170.628,544.155,170.174z"/>
	<path style="fill:none;stroke:#1C1D22;stroke-linecap:round;stroke-linejoin:round;stroke-miterlimit:10;" d="M488.489,189.697
		c1.692-0.011,5.537-0.287,8.959-2.976c1.038-0.816,1.83-1.69,2.429-2.486"/>
	<path style="fill:none;stroke:#1C1D22;stroke-linecap:round;stroke-linejoin:round;stroke-miterlimit:10;" d="M496.682,126.615
		c0.588-3.85,0.47-7.806-0.344-11.614"/>
	<path style="fill:none;stroke:#1C1D22;stroke-linecap:round;stroke-linejoin:round;stroke-miterlimit:10;" d="M496.865,126.177
		c2.541-4.563,7.158-7.916,12.283-8.919"/>
	<path style="fill:#FFFFFF;" d="M508.177,165.6c-0.038,0.933-1.844,1.703-3.954,2.162c-0.582,0.128-1.162,0.23-1.754,0.305
		c-0.027-0.001-0.054,0.01-0.081,0.009c-0.701,0.108-1.385,0.151-2.028,0.183l-0.147-0.008c-0.723,0.027-1.617,0.005-2.548-0.073
		c-1.929-0.159-3.882-0.614-4.07-1.573c-0.211-1.027,1.68-2.594,4.053-3.466c0.75-0.28,1.55-0.476,2.357-0.579
		c0.189-0.03,0.363-0.047,0.551-0.05c0.443-0.043,0.884-0.032,1.323,0.006c0.826,0.045,1.647,0.184,2.398,0.386
		C506.515,163.504,508.229,164.667,508.177,165.6z"/>
	<path style="fill:#1C1D22;" d="M502.704,166.957c-0.022,0.4-0.136,0.768-0.315,1.119c-0.701,0.108-1.385,0.151-2.028,0.183
		l-0.147-0.008c-0.723,0.027-1.617,0.005-2.548-0.073c-1.929-0.159-3.882-0.614-4.07-1.573c-0.211-1.027,1.68-2.594,4.053-3.466
		c0.121-0.007,0.24,0,0.374,0.007C500.713,163.292,502.811,164.998,502.704,166.957z"/>
	<path style="fill:#FFFFFF;" d="M487.92,166.804c-0.033,0.813-1.607,1.483-3.445,1.883c-0.507,0.112-1.012,0.201-1.528,0.265
		c-0.023-0.001-0.047,0.009-0.07,0.008c-0.611,0.094-1.206,0.132-1.767,0.159l-0.128-0.007c-0.63,0.024-1.409,0.004-2.22-0.064
		c-1.68-0.139-3.381-0.535-3.545-1.371c-0.184-0.895,1.463-2.26,3.53-3.019c0.654-0.243,1.35-0.415,2.053-0.504
		c0.164-0.026,0.317-0.041,0.48-0.044c0.386-0.037,0.77-0.028,1.152,0.005c0.72,0.04,1.435,0.16,2.089,0.336
		C486.472,164.979,487.965,165.992,487.92,166.804z"/>
	<path style="fill:#1C1D22;" d="M483.152,167.986c-0.019,0.348-0.118,0.669-0.275,0.974c-0.611,0.094-1.206,0.132-1.767,0.159
		l-0.128-0.007c-0.63,0.024-1.409,0.004-2.22-0.064c-1.68-0.139-3.381-0.535-3.545-1.371c-0.184-0.895,1.463-2.26,3.53-3.019
		c0.105-0.006,0.209,0,0.326,0.006C481.418,164.794,483.246,166.28,483.152,167.986z"/>
	<polygon style="fill:#E56A77;" points="489.431,164.497 484.805,182.441 492.094,182.273 	"/>
	<path style="fill:none;stroke:#1C1D22;stroke-linecap:round;stroke-linejoin:round;stroke-miterlimit:10;" d="M495.213,159.231
		c1.506-1.334,3.624-1.947,5.609-1.624"/>
	<path style="fill:none;stroke:#1C1D22;stroke-linecap:round;stroke-linejoin:round;stroke-miterlimit:10;" d="M485.969,157.922
		c-2.375-0.413-4.935,0.47-6.55,2.26"/>
</g>
<g>
	<defs>
		<path id="SVGID_1_" d="M155.478,375.401l404.968-9.868l4.86,188.749l-387.96-3.273l-38.877,63.175
			c-4.677-46.945-5.694-103.925,3.24-167.657C145.287,421.005,150.06,397.25,155.478,375.401z"/>
	</defs>
	<clipPath id="SVGID_2_">
		<use xlink:href="#SVGID_1_"  style="overflow:visible;"/>
	</clipPath>
	<g style="clip-path:url(#SVGID_2_);">
		<path style="fill:#98BBE4;" d="M298.705,578.862c-1.862-12.854-4.406-26.552-7.852-40.93c-6.809-28.408-15.656-53.275-24.72-74.33
			c-0.01,0-0.01,0-0.01-0.01c-0.01-0.03-0.02-0.08-0.04-0.11c-0.02-0.01-0.04-0.02-0.06-0.03v-0.01c-3.26-2.01-6.52-4.02-9.78-6.03
			c-0.17-0.11-0.35-0.21-0.52-0.32h-0.01c-0.55-0.34-1.11-0.68-1.66-1.02c-1.07-0.66-2.14-1.32-3.21-1.98
			c-0.41-0.25-0.81-0.5-1.22-0.75c-0.42-0.26-0.83-0.51-1.25-0.77l-21.96-10.22l-4.59,0.59l-1.51,0.2c-1.6,0.21-3.17,0.51-4.7,0.92
			c-1.04,0.27-2.06,0.58-3.05,0.95h-0.01c-11.83,4.22-20.94,14.24-23.83,26.84l-0.79,3.48l-13,57.04
			c-2.09,13.965-4.18,27.929-6.271,41.894C212.01,575.798,255.358,577.33,298.705,578.862z"/>
		<polygon style="fill:#98BBE4;" points="256.248,442.353 256.248,464.589 230.249,456.687 211.777,451.078 214.029,433.628 
			214.654,433.753 		"/>
		<path style="fill:#668BC7;" d="M230.416,451.12c-6.088-1.397-12.197-3.284-17.92-5.65l1.532-11.842l0.625,0.125
			c2.606,3.899,5.9,8.1,10.081,12.249C226.653,447.899,228.55,449.598,230.416,451.12z"/>
		<path style="fill:none;stroke:#1C1D22;stroke-linecap:round;stroke-linejoin:round;stroke-miterlimit:10;" d="M255.372,454.028
			c-7.141-1.241-14.292-0.719-21.495-2.158c-1.157-0.229-2.304-0.48-3.461-0.751c-6.088-1.397-12.197-3.284-17.92-5.65
			c-0.083-0.031-0.156-0.063-0.24-0.094"/>
		<path style="fill:#668BC7;" d="M168.663,574.266c1.564-13.317,3.613-27.312,6.271-41.894c3.736-20.495,8.198-39.544,13-57.04
			c0.253,20.223-0.125,41.52-1.34,63.78c-0.668,12.238-1.555,24.142-2.622,35.695C178.868,574.627,173.766,574.447,168.663,574.266z
			"/>
	</g>
</g>
<path style="fill:none;stroke:#1C1D22;stroke-linecap:round;stroke-linejoin:round;stroke-miterlimit:10;" d="M262.003,551.733
	c-28.219-0.242-56.438-0.483-84.657-0.725c-8.05,12.431-16.173,25.856-24.173,40.285c-5.695,10.271-10.918,20.311-15.71,30.06
	c-1.08-27.19-2.17-54.37-3.26-81.56c-0.07-1.88-0.14-3.76-0.18-5.63c-0.55-20.18,0.4-40.21,2.65-60.32"/>
<g>
	<path style="fill:#F59795;" d="M363.281,497.441c-1.676,7.053-3.352,14.105-5.028,21.158c-5.933-0.72-11.866-1.439-17.798-2.169
		c-5.923-0.719-11.844-1.448-17.767-2.166c1.265-4.514,2.529-9.018,3.793-13.533c0.609-2.165,1.218-4.341,1.827-6.506
		C339.965,495.301,351.623,496.366,363.281,497.441z"/>
	<g>
		<path style="fill:#F59795;" d="M327.478,478.363c-0.232-7.331,0.101-14.692,1.019-21.969c1.074-5.405,1.76-10.868,3.582-16.083
			c0.63-1.787,1.427-3.474,2.704-4.954c1.204-1.451,3.728-0.783,4.079,1.048c0.779,3.572-0.006,7.109-0.392,10.65
			c-1.024,6.86-1.428,13.794-1.855,20.713c-0.14,3.461-0.184,6.926-0.146,10.39C336.364,484.026,327.86,484.236,327.478,478.363
			L327.478,478.363z"/>
		<path style="fill:#F59795;" d="M325.796,492.988c0.553-7.566,1.105-15.133,1.658-22.699c3.983-0.877,10.608-1.79,18.517-0.267
			c11.002,2.117,18.371,7.768,21.67,10.66c-0.527,5.103-1.054,10.206-1.581,15.309c-1.098,10.629-9.347,18.843-19.293,19.209
			l-0.559,0.021c-3.119,0.115-6.21-0.561-9.022-1.973c-0.055-0.027-0.109-0.055-0.164-0.082
			C329.802,509.539,325.374,501.581,325.796,492.988z"/>
		<path style="fill:#F59795;" d="M334.241,474.958c-1.518-8.643,2.87-15.496,7.842-16.388c4.002-0.718,7.614,2.565,8.376,3.287
			c0.612-0.314,2.871-1.381,5.714-0.724c3.288,0.76,4.918,3.261,5.227,3.756c3.151-0.532,5.057,0.339,5.863,0.797
			c4.729,2.691,5.472,10.504,3.141,15.72c-1.053,2.357-2.611,3.909-3.62,4.768C355.935,482.435,345.088,478.696,334.241,474.958z"/>
		<path style="fill:#E56A77;" d="M332.857,469.67c-0.005,0-0.011,0-0.016-0.001c-0.068-0.009-0.117-0.071-0.108-0.14
			c0.59-4.694,3.937-9.032,8.328-10.796c0.065-0.025,0.137,0.005,0.163,0.069c0.025,0.064-0.006,0.137-0.069,0.163
			c-4.311,1.73-7.595,5.988-8.174,10.595C332.973,469.625,332.919,469.67,332.857,469.67z"/>
		<path style="fill:#E56A77;" d="M342.067,470.794c-0.018,0-0.035-0.004-0.052-0.012c-0.063-0.028-0.091-0.103-0.062-0.165
			c1.9-4.142,5.387-7.563,9.564-9.384c0.061-0.029,0.137,0.001,0.164,0.064c0.028,0.063-0.001,0.137-0.064,0.164
			c-4.121,1.798-7.562,5.173-9.438,9.259C342.16,470.767,342.114,470.794,342.067,470.794z"/>
		<path style="fill:#E56A77;" d="M351.898,473.304c-0.029,0-0.059-0.01-0.082-0.03c-0.052-0.046-0.058-0.125-0.013-0.177
			c2.623-3.019,5.909-5.542,9.503-7.297c0.063-0.03,0.137-0.005,0.167,0.058c0.03,0.062,0.005,0.137-0.058,0.167
			c-3.563,1.74-6.822,4.242-9.423,7.236C351.967,473.29,351.933,473.304,351.898,473.304z"/>
		<path style="fill:#E56A77;" d="M365.711,492.073c-0.006,0-0.013,0-0.019-0.001c-0.068-0.011-0.115-0.074-0.105-0.143
			c0.506-3.311,0.923-6.853,0.554-10.328c-0.282-2.651-1.174-6.438-3.825-9.415c-0.046-0.052-0.041-0.131,0.011-0.177
			c0.051-0.045,0.129-0.042,0.177,0.011c2.694,3.027,3.601,6.866,3.886,9.554c0.372,3.505-0.046,7.066-0.554,10.393
			C365.826,492.029,365.772,492.073,365.711,492.073z"/>
		<path style="fill:#E56A77;" d="M366.472,481.656c-0.002,0-0.003,0-0.005,0c-0.069-0.003-0.123-0.062-0.12-0.13l0.452-11.263
			c0.003-0.069,0.063-0.124,0.13-0.12c0.069,0.003,0.123,0.061,0.12,0.13l-0.452,11.263
			C366.594,481.603,366.539,481.656,366.472,481.656z"/>
		<path style="fill:#EBC6BA;" d="M337.017,439.665c-0.431,0.971-1.457,2.131-2.265,1.921c-0.893-0.231-1.341-2.086-0.875-3.474
			c0.452-1.348,1.862-2.54,2.693-2.226C337.454,436.222,337.647,438.247,337.017,439.665z"/>
		<path style="fill:#E56A77;" d="M333.855,477.623c-0.005,0-0.01,0-0.015-0.001c-1.117-0.13-2.105-1.063-2.298-2.173
			c-0.193-1.109,0.422-2.321,1.431-2.821c0.062-0.03,0.137-0.005,0.168,0.057c0.03,0.063,0.005,0.137-0.057,0.168
			c-0.913,0.452-1.471,1.55-1.296,2.554c0.175,1.005,1.069,1.851,2.081,1.968c0.068,0.008,0.117,0.07,0.109,0.139
			C333.972,477.576,333.917,477.623,333.855,477.623z"/>
		<path style="fill:#E56A77;" d="M344.167,479.98c-0.011,0-0.021-0.001-0.032-0.004c-1.438-0.386-2.582-1.533-2.847-2.857
			c-0.29-1.453,0.588-3.015,1.918-3.41c0.067-0.015,0.136,0.019,0.155,0.085c0.02,0.065-0.019,0.136-0.085,0.155
			c-1.211,0.359-2.009,1.789-1.742,3.121c0.246,1.232,1.317,2.304,2.665,2.664c0.066,0.019,0.106,0.087,0.089,0.153
			C344.273,479.943,344.223,479.98,344.167,479.98z"/>
		<path style="fill:#E56A77;" d="M354.607,480.49c-0.022,0-0.046-0.006-0.066-0.019c-0.386-0.24-0.85-0.271-1.34-0.303
			c-0.443-0.029-0.9-0.06-1.311-0.254c-0.864-0.41-1.314-1.526-1.024-2.541c0.245-0.858,0.976-1.617,1.955-2.031
			c0.063-0.026,0.137,0.003,0.164,0.066c0.026,0.063-0.003,0.137-0.066,0.164c-0.91,0.384-1.588,1.083-1.813,1.869
			c-0.253,0.886,0.146,1.894,0.892,2.246c0.366,0.175,0.78,0.202,1.219,0.23c0.5,0.033,1.018,0.067,1.457,0.34
			c0.059,0.037,0.076,0.114,0.04,0.173C354.689,480.469,354.649,480.49,354.607,480.49z"/>
		<path style="fill:#E56A77;" d="M332.852,450.558c-0.011,0-0.022-0.001-0.033-0.005c-0.954-0.266-1.939-0.4-2.93-0.4
			c-0.011,0-0.021,0-0.032,0l0,0c-0.069,0-0.125-0.056-0.125-0.125c0-0.079,0.077-0.125,0.157-0.125c1.013,0,2.021,0.138,2.996,0.41
			c0.066,0.019,0.105,0.087,0.087,0.153C332.958,450.522,332.907,450.558,332.852,450.558z"/>
		<path style="fill:#E56A77;" d="M328.46,453.333c-0.044,0-0.086-0.023-0.109-0.064c-0.033-0.061-0.012-0.137,0.049-0.17
			c0.901-0.501,2.052-0.56,3-0.156c0.063,0.027,0.093,0.101,0.066,0.164c-0.027,0.064-0.101,0.095-0.164,0.066
			c-0.88-0.374-1.945-0.319-2.781,0.145C328.501,453.328,328.481,453.333,328.46,453.333z"/>
		<path style="fill:#E56A77;" d="M340.62,515.658c-5.923-0.719-11.844-1.448-17.767-2.166c1.265-4.514,2.529-9.018,3.793-13.533
			c1.501,2.696,3.707,6.05,6.902,9.469C335.988,512.039,338.435,514.085,340.62,515.658z"/>
	</g>
</g>
<g>
	<g>
		<path style="fill:#98BBE4;" d="M324.553,639.963c-0.51,1.48-1.02,2.98-1.53,4.47c-0.33,0.99-0.67,1.98-1.01,2.97
			c-1.26,3.71-3.26,6.85-5.75,9.37c-3.3,3.33-7.45,5.58-11.88,6.61c-8.21,1.93-17.37-0.31-23.75-7.49c-1.41-1.57-2.81-3.2-4.24-4.88
			l-0.01-0.01c-10.63-12.58-21.65-28.1-31.24-46.71v-0.01c-4.42-8.58-8.55-17.83-12.19-27.77c-2.16-5.89-4.02-11.67-5.63-17.32
			c-0.23-0.82-0.45-1.64-0.67-2.45c-0.17-0.61-0.33-1.21-0.49-1.81c-0.01-0.01-0.01-0.01-0.01-0.02c-0.66-2.5-1.27-4.97-1.83-7.4
			c-1.85-8.02-3.2-15.69-4.16-22.94v-0.01c-0.88-6.59-1.44-12.82-1.77-18.61c-0.39-6.62-0.48-12.67-0.39-18.06
			c8.72-8.85,17.45-17.84,26.22-26.96c0.18-0.19,0.37-0.38,0.55-0.57c2.62-2.73,5.95-4.11,9.28-4.29c0.69-0.05,1.37-0.04,2.05,0.02
			c0.05,0,0.09,0.01,0.14,0.02c0.45,0.04,0.91,0.11,1.36,0.2h0.01c4.01,0.79,7.67,3.31,9.7,7.23v0.01c0.03,0.06,0.06,0.1,0.08,0.15
			c0,0.01,0,0.01,0.01,0.01c0.32,0.64,0.61,1.33,0.84,2.05c7.61,23.55,15.23,47.09,22.84,70.65v0.01
			c3.6,11.16,7.21,22.31,10.82,33.47c1.43,4.44,2.87,8.89,4.31,13.33C312.323,602.133,318.443,621.053,324.553,639.963z"/>
		<path style="fill:#668BC7;" d="M306.21,583.222l-7.326,18.188c-4.257-10.299-8.921-25.447-9.272-44.044
			c-0.146-7.799,0.499-14.838,1.47-20.947C296.124,552.02,301.167,567.621,306.21,583.222z"/>
		<path style="fill:#668BC7;" d="M276.382,650.999c-10.627-12.58-21.653-28.093-31.244-46.703c4.552,2.716,9.867,6.631,14.91,12.195
			C271.162,628.779,274.987,642.535,276.382,650.999z"/>
	</g>
	<path style="fill:none;stroke:#1C1D22;stroke-linecap:round;stroke-linejoin:round;stroke-miterlimit:10;" d="M217.138,494.2
		c1.938,19.702,4.656,39.328,8.145,58.816"/>
</g>
<g>
	<path style="fill:#98BBE4;" d="M279.411,625.827c9.738-23.366,19.345-47.451,28.755-72.251
		c5.125-13.506,10.063-26.887,14.823-40.135c11.781,1.374,23.562,2.748,35.343,4.122c-1.272,17.962-4.204,38.761-10.202,61.369
		c-7.938,29.922-19.204,55.323-30.707,76.027c-7.108,12.795-26.14,10.661-30.325-3.365
		C284.536,643.006,281.974,634.416,279.411,625.827z"/>
	<path style="fill:none;stroke:#1C1D22;stroke-linecap:round;stroke-linejoin:round;stroke-miterlimit:10;" d="M313.625,534.472
		c14.699-0.615,29.407-1.043,44.117-1.284c-0.543,0.162-1.087,0.325-1.63,0.487"/>
	<path style="fill:none;stroke:#1C1D22;stroke-linecap:round;stroke-linejoin:round;stroke-miterlimit:10;" d="M350.04,522.491
		c-0.973-0.086-2-0.024-2.846,0.465s-1.449,1.494-1.224,2.444c0.284,1.199,1.699,1.789,2.93,1.737
		c1.495-0.063,3.067-0.982,3.369-2.447s-1.305-3.102-2.657-2.461"/>
	<path style="fill:none;stroke:#1C1D22;stroke-linecap:round;stroke-linejoin:round;stroke-miterlimit:10;" d="M301.317,570.644
		c-6.263,16.784-11.694,33.879-16.266,51.2"/>
	<path style="fill:none;stroke:#1C1D22;stroke-linecap:round;stroke-linejoin:round;stroke-miterlimit:10;" d="M295.204,584.512
		c-2.513,8.645-6.826,16.639-11.107,24.558c-1.057,1.955-2.114,3.91-3.171,5.865c0.169-6.065,1.723-12.087,4.508-17.477
		c-0.177,0.487-0.353,0.975-0.53,1.462"/>
</g>
<g>
	<rect x="51.173" y="39.072" style="fill:none;" width="206.609" height="48.896"/>
	<path d="M57.734,47.328c-0.384,0.191-1.151,0.384-2.135,0.384c-2.279,0-3.994-1.439-3.994-4.09c0-2.53,1.715-4.246,4.222-4.246
		c1.008,0,1.643,0.216,1.919,0.36l-0.252,0.852c-0.396-0.192-0.96-0.336-1.631-0.336c-1.896,0-3.154,1.211-3.154,3.334
		c0,1.979,1.139,3.25,3.106,3.25c0.636,0,1.283-0.132,1.703-0.336L57.734,47.328z"/>
	<path d="M65.701,43.465c0,2.782-1.691,4.258-3.754,4.258c-2.135,0-3.634-1.655-3.634-4.102c0-2.566,1.595-4.246,3.754-4.246
		C64.274,39.375,65.701,41.067,65.701,43.465z M59.429,43.597c0,1.728,0.936,3.274,2.579,3.274c1.654,0,2.59-1.523,2.59-3.358
		c0-1.606-0.839-3.286-2.578-3.286C60.292,40.227,59.429,41.823,59.429,43.597z"/>
	<path d="M73.873,44.042c-0.06-1.128-0.132-2.482-0.119-3.49h-0.036c-0.276,0.947-0.612,1.955-1.02,3.07l-1.428,3.922h-0.791
		l-1.308-3.85c-0.384-1.14-0.707-2.184-0.936-3.143h-0.023c-0.024,1.008-0.084,2.362-0.156,3.574l-0.216,3.466h-0.995l0.563-8.084
		h1.331l1.379,3.91c0.336,0.995,0.612,1.883,0.815,2.723h0.036c0.204-0.815,0.492-1.703,0.852-2.723l1.439-3.91h1.331l0.504,8.084
		h-1.02L73.873,44.042z"/>
	<path d="M83.521,44.042c-0.061-1.128-0.132-2.482-0.12-3.49h-0.036c-0.275,0.947-0.611,1.955-1.02,3.07l-1.427,3.922h-0.792
		l-1.307-3.85c-0.384-1.14-0.708-2.184-0.936-3.143H77.86c-0.023,1.008-0.084,2.362-0.156,3.574l-0.216,3.466h-0.995l0.563-8.084
		h1.332l1.379,3.91c0.336,0.995,0.611,1.883,0.815,2.723h0.036c0.204-0.815,0.491-1.703,0.852-2.723l1.439-3.91h1.331l0.504,8.084
		h-1.02L83.521,44.042z"/>
	<path d="M87.4,39.507v4.786c0,1.811,0.804,2.578,1.883,2.578c1.199,0,1.967-0.791,1.967-2.578v-4.786h1.056v4.714
		c0,2.482-1.308,3.502-3.059,3.502c-1.654,0-2.902-0.947-2.902-3.454v-4.762H87.4z"/>
	<path d="M94.121,47.591v-8.084h1.139l2.591,4.09c0.6,0.948,1.067,1.8,1.451,2.627l0.024-0.012c-0.097-1.08-0.12-2.063-0.12-3.322
		v-3.383h0.983v8.084h-1.056l-2.566-4.102c-0.563-0.899-1.104-1.823-1.511-2.698l-0.036,0.012c0.06,1.02,0.084,1.991,0.084,3.334
		v3.454H94.121z"/>
	<path d="M103.061,39.507v8.084h-1.044v-8.084H103.061z"/>
	<path d="M110.534,47.328c-0.384,0.191-1.151,0.384-2.135,0.384c-2.279,0-3.994-1.439-3.994-4.09c0-2.53,1.715-4.246,4.222-4.246
		c1.008,0,1.643,0.216,1.919,0.36l-0.252,0.852c-0.396-0.192-0.96-0.336-1.631-0.336c-1.896,0-3.154,1.211-3.154,3.334
		c0,1.979,1.139,3.25,3.106,3.25c0.636,0,1.283-0.132,1.703-0.336L110.534,47.328z"/>
	<path d="M113.2,45.048l-0.84,2.543h-1.079l2.746-8.084h1.26l2.758,8.084h-1.115l-0.863-2.543H113.2z M115.851,44.233l-0.792-2.326
		c-0.18-0.528-0.3-1.008-0.419-1.476h-0.024c-0.12,0.479-0.252,0.972-0.408,1.463l-0.791,2.339H115.851z"/>
	<path d="M119.848,40.395h-2.459v-0.888h5.985v0.888h-2.471v7.196h-1.056V40.395z"/>
	<path d="M125.32,39.507v8.084h-1.044v-8.084H125.32z"/>
	<path d="M134.053,43.465c0,2.782-1.691,4.258-3.754,4.258c-2.135,0-3.634-1.655-3.634-4.102c0-2.566,1.595-4.246,3.754-4.246
		C132.626,39.375,134.053,41.067,134.053,43.465z M127.78,43.597c0,1.728,0.936,3.274,2.579,3.274c1.654,0,2.59-1.523,2.59-3.358
		c0-1.606-0.839-3.286-2.578-3.286C128.644,40.227,127.78,41.823,127.78,43.597z"/>
	<path d="M135.413,47.591v-8.084h1.139l2.591,4.09c0.6,0.948,1.067,1.8,1.451,2.627l0.024-0.012c-0.097-1.08-0.12-2.063-0.12-3.322
		v-3.383h0.983v8.084h-1.056l-2.566-4.102c-0.563-0.899-1.104-1.823-1.511-2.698l-0.036,0.012c0.06,1.02,0.084,1.991,0.084,3.334
		v3.454H135.413z"/>
	<path d="M148.107,39.268c-0.876,1.175-1.511,2.734-1.511,4.905c0,2.135,0.659,3.67,1.511,4.869h-0.827
		c-0.756-0.995-1.571-2.53-1.571-4.869c0.012-2.363,0.815-3.898,1.571-4.905H148.107z"/>
	<path d="M154.766,47.328c-0.384,0.191-1.151,0.384-2.135,0.384c-2.278,0-3.994-1.439-3.994-4.09c0-2.53,1.716-4.246,4.222-4.246
		c1.008,0,1.644,0.216,1.919,0.36l-0.252,0.852c-0.396-0.192-0.959-0.336-1.631-0.336c-1.895,0-3.154,1.211-3.154,3.334
		c0,1.979,1.14,3.25,3.106,3.25c0.636,0,1.283-0.132,1.703-0.336L154.766,47.328z"/>
	<path d="M157.12,39.507v3.383h3.91v-3.383h1.056v8.084h-1.056v-3.79h-3.91v3.79h-1.043v-8.084H157.12z"/>
	<path d="M165.208,45.048l-0.84,2.543h-1.079l2.746-8.084h1.26l2.758,8.084h-1.115l-0.863-2.543H165.208z M167.858,44.233
		l-0.792-2.326c-0.18-0.528-0.3-1.008-0.419-1.476h-0.024c-0.12,0.479-0.252,0.972-0.408,1.463l-0.791,2.339H167.858z"/>
	<path d="M171.856,40.395h-2.459v-0.888h5.984v0.888h-2.471v7.196h-1.055V40.395z"/>
	<path d="M178.157,49.042c0.852-1.188,1.511-2.746,1.511-4.905c0-2.146-0.647-3.682-1.511-4.869h0.815
		c0.768,0.983,1.571,2.519,1.571,4.881c0,2.351-0.804,3.874-1.571,4.894H178.157z"/>
</g>
<g>
</g>
<g>
</g>
<g>
</g>
<g>
</g>
<g>
</g>
<g>
</g>
<g>
</g>
<g>
</g>
<g>
</g>
<g>
</g>
<g>
</g>
<g>
</g>
<g>
</g>
<g>
</g>
<g>
</g>
</svg>
