<?xml version="1.0" encoding="iso-8859-1"?>
<!-- Generator: Adobe Illustrator 24.0.1, SVG Export Plug-In . SVG Version: 6.00 Build 0)  -->
<svg version="1.1" id="Layer_1" xmlns="http://www.w3.org/2000/svg" xmlns:xlink="http://www.w3.org/1999/xlink" x="0px" y="0px"
	 viewBox="0 0 700 700" style="enable-background:new 0 0 700 700;" xml:space="preserve">
<g>
	<defs>
		<path id="SVGID_1_" d="M62.07,506.61c162.65,0.896,325.301,1.792,487.951,2.688c1.032-143.603,2.064-287.206,3.096-430.809H62.07
			V506.61z"/>
	</defs>
	<clipPath id="SVGID_2_">
		<use xlink:href="#SVGID_1_"  style="overflow:visible;"/>
	</clipPath>
	<g style="clip-path:url(#SVGID_2_);">
		<path style="fill:none;stroke:#E3E5E8;stroke-linecap:round;stroke-linejoin:round;stroke-miterlimit:10;" d="M101.046,310.321
			c1.431-53.199,17.519-106.861,50.714-148.457c14.646-18.353,33.44-34.718,56.284-40.151c8.036-1.911,16.613-2.387,24.469,0.166
			c13.652,4.436,22.759,16.926,31.626,28.214c12.109,15.414,25.48,29.859,40.194,42.81c13.76,12.112,30.658,23.477,48.87,21.393
			c25.695-2.94,41.86-30.849,66.793-37.721c14.276-3.935,29.651-0.356,43.152,5.728c26.462,11.925,48.352,33.69,60.427,60.084
			c12.075,26.394,14.231,57.187,5.952,85.006c-3.256,10.94-8.04,21.364-13.196,31.546c-17.642,34.84-40.428,67.951-71.729,91.304
			c-5.743,4.285-12.665,8.411-19.65,6.817"/>
		<path style="fill:#E3E5E8;" d="M467.12,402.755c-1.418,4.914-8.162,26.421-21.17,49.114
			c-10.735,18.729-83.172,145.101-194.993,135.982c-97.313-7.936-148.561-112.299-154.027-123.862
			c-16.703-35.332-18.571-65.215-21.56-98.205c-6.26-69.081,6.04-156.902,51.01-206.547c30.52-33.679,76.84-30.823,112.88-12.084
			c31.98,16.639,51.08,56.726,83.78,73.99c23.91,12.615,50.67,5.641,75.02,1.251c42.08-7.576,66.27,28.947,74.48,73.86
			C478.97,331.455,476.95,368.698,467.12,402.755z"/>
	</g>
	<g style="clip-path:url(#SVGID_2_);">
		<path style="fill:#FFFFFF;" d="M365.77,274.28c-5.12,54.7-9.33,110.85-12.47,168.41c-1.2,21.95-2.22,43.7-3.08,65.25
			c1.693,28.027,3.385,56.054,5.078,84.081c-76.369-9.872-152.738-19.745-229.106-29.617c3.226-18.155,6.452-36.31,9.678-54.464
			c5.26-22.895,12.36-51.889,21.641-85.28c12.076-43.447,9.839-29.565,25.229-82.09c14.433-49.257,24.996-60.939,35.64-82.87
			c6.45-13.29,20.27-21.37,35-20.4c28.56,1.88,57.11,3.77,85.66,5.65C355.17,244.02,367.27,258.18,365.77,274.28z"/>
		<polygon style="fill:#FFFFFF;" points="261.127,238.949 263.68,224.396 326.999,228.736 325.291,247.018 		"/>
		<path style="fill:none;stroke:#1C1D22;stroke-linecap:round;stroke-linejoin:round;stroke-miterlimit:10;" d="M258.55,237.857
			c27.569,1.519,55.249,1.02,82.745-1.49"/>
		<path style="fill:none;stroke:#1C1D22;stroke-linecap:round;stroke-linejoin:round;stroke-miterlimit:10;" d="M280.001,501.978
			c-14.745-24.379-29.619-49.036-38.37-76.15"/>
		<path style="fill:none;stroke:#1C1D22;stroke-linecap:round;stroke-linejoin:round;stroke-miterlimit:10;" d="M269.151,497.222
			c-12.506-13.253-25.039-26.539-36.038-41.067c-3.861-5.1-7.614-10.537-8.967-16.789"/>
		<path style="fill:none;stroke:#1C1D22;stroke-linecap:round;stroke-linejoin:round;stroke-miterlimit:10;" d="M205.486,281.648
			c-5.504,25.062-6.202,51.171-2.046,76.491"/>
	</g>
	<g style="clip-path:url(#SVGID_2_);">
		<path style="fill:#F59795;" d="M327.985,175.467l-7.463,60.798l-53.181-6.217c1.628-7.026,3.256-14.052,4.884-21.078
			c3.103-13.353,6.195-26.716,9.288-40.069c1.705-7.343,3.409-14.697,5.114-22.04C300.417,156.399,314.196,165.928,327.985,175.467z
			"/>
		<path style="fill:none;stroke:#E56A77;stroke-linecap:round;stroke-linejoin:round;stroke-miterlimit:10;" d="M321.092,231.576
			c1.413-11.485,2.838-22.97,4.251-34.455c0.378-3.057,0.755-6.102,1.133-9.159c0.037-0.292,0.073-0.597,0.11-0.889"/>
		<path style="fill:#E56A77;" d="M299.342,170.545c-10.223,1.517-14.48,5.257-16.437,8.559c-3.491,5.89-0.545,11.871-4.768,21.155
			c-1.815,3.991-4.174,6.875-5.912,8.709c3.103-13.353,6.195-26.716,9.288-40.069c1.208,0.101,2.417,0.204,3.629,0.31
			C289.914,169.626,294.647,170.071,299.342,170.545z"/>
	</g>
	<g style="clip-path:url(#SVGID_2_);">
		<polygon style="fill:#E56A77;" points="354.013,162.592 359.714,180.42 349.556,181.975 		"/>
		<path style="fill:none;stroke:#E56A77;stroke-linecap:round;stroke-linejoin:round;stroke-miterlimit:10;" d="M329.313,157.355
			c4.125-6.297,11.668-8.109,16.546-5.225c4.711,2.784,6.107,9.454,4.358,13.618c-2.581,6.145-13.206,9.673-25.33,5.175"/>
		<path style="fill:#E56A77;" d="M288.647,146.686c-3.155-5.653-8.35-8.361-12.219-7.163c-3.975,1.231-5.305,6.2-5.477,6.882
			c-1.69,6.691,3.168,14.863,11.938,20.927"/>
		<path style="fill:#F59795;" d="M339.483,203.917c-0.609,0.146-1.279,0.231-2.009,0.195c-6.358-0.317-10.998-5.712-12.143-7.003
			c-3.544-4.019-14.006-11.315-44.394-25.698c-0.305-10.949,1.035-23.616,6.126-36.648c0.572-1.462,1.169-2.874,1.79-4.251
			c0.012-0.012,0.012-0.036,0.024-0.061c1.657-3.301,3.934-6.589,7.076-9.561c2.071-1.949,9.756-9.293,20.681-9.171
			c14.627,0.171,23.994,12.752,26.892,16.637c3.471,4.665,6.029,9.926,7.795,15.468c0.171,0.536,0.341,1.084,0.5,1.632
			C359.251,170.874,350.871,201.177,339.483,203.917z"/>
		<path style="fill:none;stroke:#E56A77;stroke-linecap:round;stroke-linejoin:round;stroke-miterlimit:10;" d="M329.605,157.081
			c1.096-1.885,2.895-3.298,4.884-4.191c1.989-0.893,4.167-1.296,6.339-1.478c1.703-0.143,3.127,0.114,4.113,0.301"/>
		<path style="fill:none;stroke:#E56A77;stroke-linecap:round;stroke-linejoin:round;stroke-miterlimit:10;" d="M326.344,171.818
			c0.911,0.345,12.355,4.493,19.869-1.843c1.192-1.005,4.68-3.946,4.719-8.577c0.051-5.942-5.618-9.46-5.992-9.684"/>
		<path style="fill:none;stroke:#1C1D22;stroke-linecap:round;stroke-linejoin:round;stroke-miterlimit:10;" d="M305.888,98.256
			c0.749,1.594,1.982,2.899,3.06,4.292c3.023,3.908,4.896,8.695,5.328,13.617c0.082-0.283,0.163-0.565,0.245-0.848"/>
		<path style="fill:none;stroke:#1C1D22;stroke-linecap:round;stroke-linejoin:round;stroke-miterlimit:10;" d="M313.213,114.986
			c0.009,0.28,0.018,0.561,0.026,0.841c-0.151-3.138,0.964-6.234,2.616-8.907c1.651-2.673,3.823-4.98,5.991-7.253"/>
		<path style="fill:#E56A77;" d="M337.474,204.112c-2.947-0.073-6.857-1.754-12.131-6.991c0.377-3.057,0.755-6.102,1.133-9.159
			L337.474,204.112z"/>
		<path style="fill:#1C1D22;" d="M351.322,143.824c-1.4,2.359-2.944,3.084-3.751,3.349c-4.116,1.352-10.178-2.326-13.99-9.798
			c-0.714,2.401-8.432,26.926-31.257,33.584c-8.738,2.549-16.54,1.56-21.387,0.451c-0.305-10.949,1.035-23.616,6.126-36.648
			c0.572-1.462,1.169-2.874,1.79-4.251c0.012-0.012,0.012-0.036,0.024-0.061c1.657-3.301,3.934-6.589,7.076-9.561
			c2.071-1.949,9.756-9.293,20.681-9.171c14.627,0.171,23.994,12.752,26.892,16.637
			C346.998,133.021,349.556,138.282,351.322,143.824z"/>
	</g>
	<path style="clip-path:url(#SVGID_2_);fill:#E56A77;" d="M424.155,274.411c-0.628,2.812-1.729,6.061-3.566,8.343
		c-0.779,0.967-1.722,1.7-2.693,2.438c-1.735,1.319-3.51,2.605-5.324,3.823c-4.106,2.758-8.554,4.551-13.029,6.628
		c-2.893,1.343-6.377,2.331-9.065,3.98c-2.662,1.633-4.774,4.401-7.361,6.223c-2.693,1.897-6.418,2.704-9.308,4.37
		c-2.574-3.948-3.251-9.504-4.741-14.038c-1.661-5.058-3.306-10.11-4.878-15.185c-0.962-3.105-2.5-5.618-0.514-8.171
		c1.82-2.34,6.42-4.068,8.949-5.54c5.698-3.317,11.574-5.29,16.985-8.946c6.781-4.58,13.502-9.268,20.615-13.328
		c4.515-2.577,17.614-9.65,18.013,0.47c0.308,7.819-1.725,15.371-3.004,23.016C424.889,270.561,424.575,272.533,424.155,274.411z"/>
	
		<path style="clip-path:url(#SVGID_2_);fill:none;stroke:#E56A77;stroke-linecap:round;stroke-linejoin:round;stroke-miterlimit:10;" d="
		M390.201,461.366c1.302,14.231,3.48,28.381,6.518,42.345"/>
	<g style="clip-path:url(#SVGID_2_);">
		<path style="fill:#1C1D22;" d="M408.77,286.999l87.622,30.821c2.786,0.98,5.847-0.433,6.908-3.19l49.451-128.526
			c1.153-2.996-0.516-6.336-3.604-7.213l-90.429-25.684c-2.729-0.775-5.596,0.668-6.599,3.322l-46.644,123.39
			C404.39,282.784,405.878,285.981,408.77,286.999z"/>
		<polygon style="fill:#E3E5E8;" points="456.263,156.405 549.109,183.192 501.702,312.662 408.88,282.868 		"/>
		<g>
			<g>
				<path style="fill:#F59795;" d="M504.474,236.389c0.511-0.684-0.025-3.159,0.16-4.071c0.179-0.88,0.607-1.451,0.923-2.258
					c0.86-2.199,0.573-4.665,1.02-6.96c0.637-3.267,1.202-6.56,1.819-9.773c0.354-1.843,0.147-3.586,1.363-5.139
					c3.305-4.221,2.272,4.806,2.05,6.291c-0.276,1.846-1.013,4.217,0.022,5.918c1.018-0.051,1.833-3.67,2.221-4.704
					c0.613-1.634,1.328-6.644,3.286-7.161c2.047-0.54,1.914,2.386,1.987,3.574c0.749-0.688,0.859-1.869,2.048-2.08
					c1.743,1.302,0.432,5.834-0.098,7.411c0.668-1.155,1.052-2.805,2.256-3.541c1.709,1.197-0.138,4.795-0.529,6.372
					c-1.317,5.304-2.765,10.344-3.95,15.703c-0.285,1.287-0.291,3.548-0.936,4.625c-1.622,2.708-6.776,0.222-8.926-0.661
					C507.589,239.279,503.646,237.497,504.474,236.389z"/>
				<path style="fill:#F59795;" d="M504.312,236.552c-0.083-2.808-1.801-5.663-2.566-8.343c-0.759-2.656-1.344-5.984-0.854-8.759
					c0.192-1.088,0.85-4.172,2.238-2.736c0.71,0.733,0.575,2.555,0.835,3.542c0.377,1.43,0.869,2.798,2.076,3.736
					c2.691,2.092,1.788,3.425,1.249,6.234C506.885,232.33,506.913,235.806,504.312,236.552z"/>
				<path style="fill:none;stroke:#E56A77;stroke-linecap:round;stroke-linejoin:round;stroke-miterlimit:10;" d="M517.646,208.719
					c0.806,1.273,0.693,2.111,0.548,3.545c-0.36,3.566-1.212,7.062-2.062,10.544c0.241-0.364,0.394-0.787,0.441-1.221"/>
				<path style="fill:none;stroke:#E56A77;stroke-linecap:round;stroke-linejoin:round;stroke-miterlimit:10;" d="M509.155,220.26
					c2.918,0.568,5.722,1.709,8.208,3.339c0.708,0.464,1.435,0.985,2.279,1.056"/>
				<path style="fill:none;stroke:#E56A77;stroke-linecap:round;stroke-linejoin:round;stroke-miterlimit:10;" d="M522.216,211.635
					c-0.707,4.424-1.849,8.779-3.404,12.981c0.113-0.106,0.226-0.212,0.34-0.318"/>
				<path style="fill:none;stroke:#E56A77;stroke-linecap:round;stroke-linejoin:round;stroke-miterlimit:10;" d="M504.946,223.419
					c-0.204,0.139,0.013,0.445,0.216,0.585c2.192,1.507,3.887,3.725,4.766,6.235c0.182-0.034,0.339-0.179,0.386-0.358"/>
			</g>
			<g>
				<path style="fill:#F59795;" d="M480.527,187.369c-8.638-2.419-22.775,14.845-19.868,19.864c0.915,1.579,3.839,2.504,11.402,1.14
					c-2.226,5.429-4.452,10.859-6.678,16.288c4.941,1.14,9.882,2.28,14.822,3.421c2.75-9.144,4.449-16.961,5.538-22.966
					c1.11-6.121,1.753-11.29-1.303-14.985C484.023,189.626,482.647,187.963,480.527,187.369z"/>
				<path style="fill:#1C1D22;" d="M461.528,185.896c-0.311,2.397,6.984,6.286,13.872,6.108c2.603-0.067,4.766-0.705,6.325-1.33
					c-0.314,0.785-1.705,4.502,0.027,8.578c1.196,2.817,3.263,4.345,4.157,4.93c0.528-0.906,2.956-5.291,1.544-10.712
					c-1.642-6.308-7.281-8.899-8.47-9.447C471.518,180.58,461.867,183.278,461.528,185.896z"/>
				<polygon style="fill:#E56A77;" points="467.438,193.749 460.272,199.664 464.367,201.37 				"/>
				<path style="fill:#F59795;" d="M483.742,201.559c1.323-1.215,3.395-1.43,4.78-0.597c2.492,1.499,2.517,6.25,0.163,7.655
					c-1.407,0.84-3.573,0.432-5.294-0.977C481.915,205.669,482.154,203.017,483.742,201.559z"/>
				<path style="fill:none;stroke:#E56A77;stroke-linecap:round;stroke-linejoin:round;stroke-miterlimit:10;" d="M467.673,208.412
					c3.202,0.426,6.502,0.104,9.561-0.934c0.651-0.221,1.316-0.477,2.001-0.427"/>
				<path style="fill:none;stroke:#E56A77;stroke-linecap:round;stroke-linejoin:round;stroke-miterlimit:10;" d="M484.157,206.578
					c-0.164-1.696,1.549-3.303,3.231-3.031"/>
				<path style="fill:none;stroke:#E56A77;stroke-linecap:round;stroke-linejoin:round;stroke-miterlimit:10;" d="M477.27,207.829
					c-2.28,1.394-4.498,2.891-6.643,4.484c0.503-1.321,1.065-2.62,1.683-3.891c0.697,0.276,1.46,0.382,2.206,0.306
					c-0.8,0.69-1.702,1.261-2.667,1.69c-0.082,0.036-0.171,0.077-0.213,0.157c-0.042,0.079,0,0.205,0.09,0.206
					s0.089-0.18,0.002-0.155"/>
			</g>
			<path style="fill:#1C1D22;" d="M467.337,216.518c10.171,3.394,6.661,2.223,16.832,5.616c-0.67,3.014-1.34,6.028-2.01,9.043
				c0,0,0,0.001,0,0.001c4.562,3.171,4.793,10.111,4.897,12.978c0.254,6.995-4.478,30.502-13.504,61.559
				c-16.731-6.278-33.462-12.555-50.193-18.833c7.339-17.221,17.143-36.961,24.969-54.68c1.531-3.466,5.016-5.651,8.802-5.492
				l5.483,0.231C464.188,223.467,465.763,219.993,467.337,216.518z"/>
			<circle style="fill:#1C1D22;" cx="453.349" cy="236.134" r="6.922"/>
			<path style="fill:#1C1D22;" d="M485.73,236.041c3.859,16.735,7.718,33.47,11.577,50.206l-7.779,11.432
				c-2.469,3.628-8.03,2.829-9.378-1.347c-5.031-15.583-10.062-31.166-15.093-46.749
				C471.948,245.069,478.839,240.555,485.73,236.041z"/>
			<path style="fill:#1C1D22;" d="M452.146,227.947c-6.983,4.267-16.075,10.819-25.041,20.51
				c-9.852,10.649-15.977,21.224-19.708,28.993c4.832,2.769,9.664,5.538,14.497,8.307c7.323-7.387,14.713-15.04,22.152-22.966
				c5.696-6.069,11.233-12.099,16.614-18.08C457.822,239.123,454.984,233.535,452.146,227.947z"/>
			<path style="fill:#1C1D22;" d="M413.749,269.617c7.115-5.407,15.44-4.875,24.921-4.398c8.974,0.451,22.548,1.042,40.557,1.466
				c0.163,5.647,0.326,11.293,0.489,16.94c-27.4,9.204-46.319,8.215-56.846,6.515c-13.836-2.234-15.815-6.121-16.288-7.818
				C405.273,277.627,410.397,272.165,413.749,269.617z"/>
			<path style="fill:#1C1D22;" d="M486.162,185.793c-1.319-4.19,1.182-8.734,4.468-10.403c5.819-2.956,14.723,2.788,14.659,8.144
				c-0.052,4.42-6.219,9.093-11.89,8.144C490.658,191.22,487.273,189.322,486.162,185.793z"/>
			<path style="fill:#1C1D22;" d="M504.232,235.711c4.628,1.628,9.256,3.257,13.884,4.885c-1.446,9-4.959,28.904-11.035,46.286
				c-0.921,2.635-3.931,10.942-10.167,13.982c-1.448,0.706-6.214,3.029-10.843,1.297c-0.054-0.02-0.101-0.039-0.161-0.062
				c-4.753-1.831-5.543-10.823-5.8-13.625C479.317,279.814,488.279,259.651,504.232,235.711z"/>
			<path style="fill:none;stroke:#FFFFFF;stroke-linecap:round;stroke-linejoin:round;stroke-miterlimit:10;" d="M491.836,256.132
				c-1.521,1.295-2.379,3.185-3.18,5.014c-2.91,6.641-5.698,13.336-8.362,20.079c0.164-0.248,0.329-0.496,0.493-0.744"/>
			<path style="fill:none;stroke:#FFFFFF;stroke-linecap:round;stroke-linejoin:round;stroke-miterlimit:10;" d="M450.659,239.97
				c-5.455-0.87-7.505,8.806-3.281,7.991c-3.637,8.02-7.921,15.698-11.307,23.86"/>
			<path style="fill:none;stroke:#FFFFFF;stroke-linecap:round;stroke-linejoin:round;stroke-miterlimit:10;" d="M463.038,250.679
				c-0.821,0.778-0.375,2.139,0.123,3.154c0.492,1.005,1.063,2.088,2.091,2.531c0.855,0.369,1.835,0.206,2.751,0.037"/>
			<path style="fill:none;stroke:#FFFFFF;stroke-linecap:round;stroke-linejoin:round;stroke-miterlimit:10;" d="M478.346,257.301
				c-5.219,9.67-9.847,19.658-13.849,29.892c0.16-0.304,0.321-0.607,0.481-0.911"/>
		</g>
		<path style="fill:none;stroke:#1C1D22;stroke-linecap:round;stroke-linejoin:round;stroke-miterlimit:10;" d="M459.254,162.987
			c-1.024,2.423-2.048,4.845-3.071,7.268c3.538,0.495,7.037,1.271,10.453,2.319c0.642-2.018,1.593-3.938,2.809-5.672
			c-3.148-1.519-6.454-2.71-9.848-3.548"/>
		<path style="fill:none;stroke:#1C1D22;stroke-linecap:round;stroke-linejoin:round;stroke-miterlimit:10;" d="M468.555,169.646
			c-0.027,0.006-0.053,0.012-0.08,0.017c2.052-0.821,4.188-1.431,6.364-1.816c-0.75,1.268-1.5,2.535-2.25,3.803
			c-0.549,0.928-1.103,1.866-1.422,2.896c-1.112-1.599-2.096-3.288-2.939-5.044"/>
		<circle style="fill:#1C1D22;" cx="530.913" cy="183.766" r="2.043"/>
		<circle style="fill:#1C1D22;" cx="536.19" cy="185.415" r="2.043"/>
		<circle style="fill:#E56A77;" cx="541.551" cy="187.202" r="2.043"/>
	</g>
	<g style="clip-path:url(#SVGID_2_);">
		<path style="fill:#E56A77;" d="M401.757,256.401c0.099-0.052,0.199-0.101,0.303-0.148c4.719-2.157,10.122-1.904,15.153-2.647
			c3.978-0.588,7.862-1.679,11.841-2.26c1.364-0.199,3.703-1,4.458,0.379c0.623,1.138-0.332,3.209-0.961,4.158
			c-1.038,1.568-2.746,2.702-4.259,3.746c-3.269,2.254-7.082,3.031-9.909,5.871c-3.575,3.592-4.375,9.036-7.267,13.091
			c-2.863,4.014-7.048,6.396-12.027,6.402c-2.026,0.002-5.077-1.188-6.283-2.952c-0.813-1.189,0.06-3.799,0.433-5.246
			c0.648-2.512,1.484-5.011,2.409-7.442C397.275,265.076,397.434,258.658,401.757,256.401z"/>
		<path style="fill:none;stroke:#F59795;stroke-linecap:round;stroke-linejoin:round;stroke-miterlimit:10;" d="M391.224,279.445
			c-0.321,0.134-0.158,0.62,0.059,0.891c3.203,3.995,7.47,5.686,12.314,3.835c1.587-0.606,3.025-1.533,4.557-2.259"/>
		<path style="fill:#F59795;" d="M431.336,251.857c-1.686-0.245-5.624,1.422-5.146,3.028c0.792,2.66,6.968-1.082,5.786-2.716
			C431.854,252,431.629,251.899,431.336,251.857z"/>
		<path style="fill:none;stroke:#F59795;stroke-linecap:round;stroke-linejoin:round;stroke-miterlimit:10;" d="M414.592,255.877
			c-0.004,0.943-0.007,1.885-0.01,2.828c-0.001,0.201,0.011,0.429,0.164,0.558s0.469-0.002,0.4-0.19"/>
		<path style="fill:none;stroke:#F59795;stroke-linecap:round;stroke-linejoin:round;stroke-miterlimit:10;" d="M416.6,255.855
			c0.182,1.018,0.364,2.035,0.545,3.053c0.162-0.032,0.268-0.229,0.204-0.382"/>
	</g>
</g>
<path style="fill:#F59795;" d="M412.73,597.42c-0.19,0.01-0.38,0.01-0.56,0.01c-0.12,0-0.24,0-0.36-0.01H412.73z"/>
<path style="fill:none;stroke:#1C1D22;stroke-linecap:round;stroke-linejoin:round;stroke-miterlimit:10;" d="M503.28,509.27
	c-39-0.24-78.01-0.47-117.01-0.71c-88.36-0.53-176.73-1.06-265.09-1.59c-19.7-0.12-39.41-0.24-59.11-0.36"/>
<ellipse style="fill:#F59795;" cx="390.253" cy="539.178" rx="45.467" ry="38.958"/>
<g>
	<path style="fill:#F59795;" d="M398.236,517.245c-1.63,17.28-10.72,31.43-20.72,42.22c-6.75,7.26-18.16,7.66-25.21,0.7
		c-0.06-0.05-0.11-0.1-0.16-0.15c-26.98-26.74-34.4-59.9-44.43-125.73c-0.13-0.82-0.25-1.65-0.38-2.48
		c-1.45-9.56-2.81-18.84-4.09-27.82c-3.87-27.1-7-51.48-9.52-72.61c25.07-17.14,50.15-34.27,75.23-51.4
		c3.8,29.02,7.01,52.62,9.19,68.42c1.58,11.51,2.87,23.07,4.03,34.64c0.54,5.23,1.04,10.47,1.54,15.7
		c3.13,32.78,6.01,65.58,12.82,97.75C397.376,500.475,399.136,507.675,398.236,517.245z"/>
	<path style="fill:#E56A77;" d="M383.716,398.735c-9.58,4.16-19.26,8.48-29.06,12.98c-16.19,7.44-31.84,14.97-46.94,22.57
		c-0.13-0.82-0.25-1.65-0.38-2.48c-1.45-9.56-2.81-18.84-4.09-27.82c26.32-6.99,52.62-13.97,78.93-20.95
		C382.716,388.265,383.216,393.505,383.716,398.735z"/>
</g>
<g>
	<path style="fill:#F59795;" d="M472,350.96c10.701,2.402,18.13,12.119,17.693,23.078c-0.54,13.577-1.466,25.201-2.377,34.437
		c0,0-7.749,76.077-31.04,120.02c-0.53,1-1.07,1.96-1.6,2.89c-5.62,9.76-15.39,26.76-34.8,37.56c-8,5.82-18.38,9.28-29.7,9.17
		c-0.03,0.01-0.07,0.01-0.11,0.01l-0.92-0.02c-24.94-0.71-44.73-18.51-44.26-39.93c0.35-16.16,12.14-29.77,28.63-35.32
		c0.53-1.02,1.09-2.02,1.68-3.01c0.28-0.48,0.57-0.96,0.87-1.44c0.84-1.34,1.73-2.65,2.67-3.93c7.68-10.49,15.42-21.97,22.98-34.44
		c1.52-2.5,2.99-4.99,4.43-7.47c0,0,0.928-1.596,1.85-3.21c2.047-3.584,17.141-37.19,37.831-85.307
		c4.311-10.026,15.156-15.561,25.804-13.171C471.754,350.905,471.877,350.932,472,350.96z"/>
	<path style="fill:#E56A77;" d="M406.146,452.565c0.07,3.55-0.21,7.48-1.07,11.65c-4.97,24-25.31,36.33-29.61,38.81l-0.27-3.18
		c0.28-0.48,0.57-0.96,0.87-1.44c0.84-1.34,1.73-2.65,2.67-3.93c7.68-10.49,15.42-21.97,22.98-34.44
		C403.236,457.535,404.706,455.045,406.146,452.565z"/>
	<path style="fill:#E56A77;" d="M487.316,408.475c-6.46,54.39-18.34,96.29-31.04,120.02c2.03-30.79,8.51-67.43,24.68-105.89
		C483.006,417.735,485.126,413.025,487.316,408.475z"/>
</g>
<g>
	<path style="fill:#F59795;" d="M454.12,337.09c2.529-2.199,6.149-2.428,10.179-2.065c4.689,0.423,9.399,1.61,14.049,2.314
		c3.266,0.494,6.591,0.525,9.838,1.155c7.342,1.426,5.62,13.344,5.063,18.727c-0.581,5.616-1.888,11.019-3.691,16.391
		c-0.647,1.927-1.126,4.09-2.618,5.54c-1.944,1.888-5.244,2.121-7.827,2.362c-9.97,0.931-20.364-1-27.405-8.764
		c-4.279-4.718-4.292-13.248-3.25-19.142c0.48-2.715,1.133-5.508,1.879-8.183c0.362-1.299,0.645-2.662,1.059-3.942
		C452.032,339.518,452.962,338.097,454.12,337.09z"/>
	<path style="fill:#F59795;" d="M449.021,372.083c-1.688-3.084-3.818-7.438-5.691-12.88c-1.48-4.301-3.569-8.913-3.642-15.357
		c-0.026-2.287-0.628-27.258,5.55-25.125c2.761,0.953,2.701,8.093,2.807,10.37c0.251,5.393,1.161,8.549,4.617,12.718
		c5.79,6.985,8.427,19.859,3.415,26.176C455.128,369.182,453.159,371.082,449.021,372.083z"/>
	<path style="fill:#F59795;" d="M448.281,336.4c-0.182,1.252,2.251,2.005,3.039,1.74c1.706-0.573,1.905-3.002,2.379-4.457
		c0.763-2.343,1.522-4.686,2.291-7.027c1.591-4.841,3.214-9.671,4.945-14.463c2.864-7.928,5.943-16.637,12.234-22.487
		c3.288-3.058,6.141-1.367,6.742,2.606c0.886-0.815,2.356-1.593,3.539-1.946c2.767-0.827,4.703,2.423,3.121,4.764
		c1.7-2.516,3.672-4.731,5.021-0.453c0.79,2.505,0.368,5.285,0.369,7.862c0.002,3.291-0.315,6.611-0.677,9.872
		c-0.398,3.589-1.297,7.167-1.876,10.723c-0.487,2.988-1.5,7.593-0.853,10.64c0.412,1.939,1.193,3.068,0.854,5.275
		c-1.291,8.418-8.933,10.942-16.497,11.44c-7.498,0.493-14.647-2.714-20.096-7.669C451.069,341.232,447.885,339.126,448.281,336.4z"
		/>
	<path style="fill:#F59795;" d="M485.897,337.139c4.507-0.397,5.124-9.149,5.917-12.361c1.077-4.366-0.002-12.005,4.568-14.709
		c3.665-2.168,3.239,6.424,3.239,8.468c0,4.257-0.829,7.988-1.712,12.119c-0.968,4.531-1.606,9.129-2.706,13.633
		c-0.341,1.395-1.222,7.67-3.045,7.889c-1.558,0.187-3.83-4.949-4.413-6.001C486.629,344.168,486.354,339.453,485.897,337.139z"/>
	<path style="fill:none;stroke:#E56A77;stroke-linecap:round;stroke-linejoin:round;stroke-miterlimit:10;" d="M486.956,293.523
		c-0.614,5.989-2.101,11.85-3.583,17.686c-1.678,6.609-3.357,13.217-5.035,19.826c-0.063,0.25-0.201,0.557-0.458,0.542
		c-0.257-0.016-0.053-0.546,0.071-0.32"/>
	<path style="fill:none;stroke:#E56A77;stroke-linecap:round;stroke-linejoin:round;stroke-miterlimit:10;" d="M480.063,292.398
		c-4.602,11.787-8.656,23.788-12.143,35.951"/>
	<path style="fill:#EBC6BA;" d="M476.309,296.245c1.146-1.216,2.427-4.95,0.286-5.936c-2.264-1.042-4.762,2.259-4.663,4.331
		C472.066,297.42,474.543,298.119,476.309,296.245z"/>
	<path style="fill:#EBC6BA;" d="M483.371,292.748c-0.127-0.017-0.262-0.007-0.403,0.033c-0.81,0.233-1.532,1.55-1.861,2.238
		c-0.624,1.305-1.539,4.523,0.407,5.232C485.578,301.732,485.598,293.053,483.371,292.748z"/>
	<path style="fill:#EBC6BA;" d="M489.275,295.456c-0.487,0.176-0.92,0.641-1.105,1.253c-0.292,0.967-0.237,4.986,1.702,3.966
		c0.748-0.393,1.392-3.724,0.986-4.488C490.455,295.429,489.83,295.255,489.275,295.456z"/>
	<path style="fill:#EBC6BA;" d="M497.279,311.942c-1.2-1.33-3.654,5.499-0.319,4.851c1.717-0.334,1.64-4.93-0.191-4.723"/>
	<path style="fill:#EBC6BA;" d="M443.608,320.762c-0.029-0.004-0.058-0.005-0.087-0.003c-1.914,0.11-3.163,5.241-0.625,5.707
		C445.369,326.92,444.967,320.932,443.608,320.762z"/>
	<path style="fill:none;stroke:#E56A77;stroke-linecap:round;stroke-linejoin:round;stroke-miterlimit:10;" d="M460.658,329.494
		c-0.982,0.287-1.672,1.244-1.85,2.252s0.089,2.05,0.522,2.977c0.198,0.422,0.443,0.843,0.829,1.106
		c0.385,0.262,0.942,0.323,1.305,0.03"/>
	<path style="fill:none;stroke:#E56A77;stroke-linecap:round;stroke-linejoin:round;stroke-miterlimit:10;" d="M471.175,332.305
		c-1.254,0.605-1.524,2.325-1.154,3.667c0.221,0.804,0.9,1.702,1.697,1.456"/>
	<path style="fill:none;stroke:#E56A77;stroke-linecap:round;stroke-linejoin:round;stroke-miterlimit:10;" d="M482.229,336.516
		c-1.211,0.668-1.264,2.37-1.065,3.738c0.055,0.377,0.129,0.779,0.393,1.054c0.264,0.275,0.785,0.332,0.997,0.014"/>
	<path style="fill:none;stroke:#E56A77;stroke-linecap:round;stroke-linejoin:round;stroke-miterlimit:10;" d="M465.309,310.054
		c1.524,0.781,3.155,1.352,4.833,1.692c0.01-0.175,0.02-0.351,0.03-0.526"/>
	<path style="fill:none;stroke:#E56A77;stroke-linecap:round;stroke-linejoin:round;stroke-miterlimit:10;" d="M465.408,307.472
		c1.185,0.803,2.517,1.388,3.91,1.719"/>
	<path style="fill:none;stroke:#E56A77;stroke-linecap:round;stroke-linejoin:round;stroke-miterlimit:10;" d="M475.496,313.695
		c0.962,0.576,2.067,0.909,3.186,0.961"/>
	<path style="fill:none;stroke:#E56A77;stroke-linecap:round;stroke-linejoin:round;stroke-miterlimit:10;" d="M476.481,310.52
		c1.092,0.657,2.185,1.314,3.277,1.971"/>
	<path style="fill:none;stroke:#E56A77;stroke-linecap:round;stroke-linejoin:round;stroke-miterlimit:10;" d="M485.842,318.351
		c0.918,0.5,1.877,0.924,2.864,1.267"/>
	<path style="fill:none;stroke:#E56A77;stroke-linecap:round;stroke-linejoin:round;stroke-miterlimit:10;" d="M485.984,316.026
		c0.939,0.415,1.834,0.928,2.668,1.527"/>
	<path style="fill:none;stroke:#E56A77;stroke-linecap:round;stroke-linejoin:round;stroke-miterlimit:10;" d="M494.662,326.664
		c1.28-0.046,2.428,1.537,3.587,0.991"/>
	<path style="fill:none;stroke:#E56A77;stroke-linecap:round;stroke-linejoin:round;stroke-miterlimit:10;" d="M494.907,324.289
		c0.022-0.233,0.296-0.373,0.528-0.339c0.232,0.034,0.425,0.189,0.606,0.337c0.727,0.598,1.455,1.196,2.182,1.794"/>
	<path style="fill:none;stroke:#E56A77;stroke-linecap:round;stroke-linejoin:round;stroke-miterlimit:10;" d="M438.86,334.72
		c1.679-0.943,3.431-1.755,5.235-2.426c0.104,0.206-0.062,0.494-0.293,0.507"/>
	<path style="fill:none;stroke:#E56A77;stroke-linecap:round;stroke-linejoin:round;stroke-miterlimit:10;" d="M438.96,337.722
		c1.084-1.388,2.738-2.316,4.488-2.518"/>
</g>
<g>
	<path style="fill:#FFFFFF;" d="M316.802,252.665c17.98-17.289,47.952-8.439,53.633,15.849c2.868,12.261,5.714,24.59,8.536,36.988
		c6.259,27.491,12.27,54.728,18.042,81.702c-14.969,4.884-30.318,9.687-46.042,14.383c-19.194,5.732-38.014,11.025-56.426,15.915
		l-23.49-120.851C286.305,281.989,301.553,267.327,316.802,252.665z"/>
	<path style="fill:none;stroke:#1C1D22;stroke-linecap:round;stroke-linejoin:round;stroke-miterlimit:10;" d="M342.313,243.779
		c-9.051,0.395-28.382,2.599-43.215,16.815c-14.872,14.254-17.102,32.8-19.684,57.251c-1.816,17.204-2.611,44.538,5.671,78.08"/>
	<path style="fill:none;stroke:#1C1D22;stroke-linecap:round;stroke-linejoin:round;stroke-miterlimit:10;" d="M279.569,397.244
		c39.552-9.35,78.645-20.64,117.092-33.815"/>
	<path style="fill:none;stroke:#1C1D22;stroke-linecap:round;stroke-linejoin:round;stroke-miterlimit:10;" d="M277.475,396.556
		c1.885,8.083,4.11,16.087,6.668,23.983c8.266-2.712,16.532-5.424,24.798-8.136"/>
	<path style="fill:none;stroke:#1C1D22;stroke-linecap:round;stroke-linejoin:round;stroke-miterlimit:10;" d="M279.414,317.846
		c0.125,18.93,6.546,37.158,11.74,55.362"/>
	<path style="fill:none;stroke:#1C1D22;stroke-linecap:round;stroke-linejoin:round;stroke-miterlimit:10;" d="M370.874,269.081
		c2.244,20.312,1.412,40.962-2.46,61.027"/>
</g>
<g>
	<rect x="29.571" y="29.593" style="fill:none;" width="206.609" height="48.896"/>
	<path d="M38.675,37.849c-0.384,0.191-1.151,0.384-2.135,0.384c-2.279,0-3.994-1.439-3.994-4.09c0-2.53,1.715-4.246,4.222-4.246
		c1.008,0,1.643,0.216,1.919,0.36l-0.252,0.852c-0.396-0.192-0.959-0.336-1.631-0.336c-1.895,0-3.154,1.211-3.154,3.334
		c0,1.979,1.139,3.25,3.106,3.25c0.636,0,1.283-0.132,1.703-0.336L38.675,37.849z"/>
	<path d="M46.643,33.986c0,2.782-1.691,4.258-3.754,4.258c-2.135,0-3.634-1.655-3.634-4.102c0-2.566,1.595-4.246,3.754-4.246
		C45.215,29.896,46.643,31.588,46.643,33.986z M40.37,34.118c0,1.728,0.935,3.274,2.579,3.274c1.655,0,2.59-1.523,2.59-3.358
		c0-1.606-0.839-3.286-2.579-3.286C41.233,30.748,40.37,32.344,40.37,34.118z"/>
	<path d="M54.814,34.563c-0.06-1.128-0.132-2.482-0.12-3.49h-0.036c-0.276,0.947-0.612,1.955-1.02,3.07l-1.427,3.922H51.42
		l-1.307-3.85c-0.384-1.14-0.708-2.184-0.936-3.143h-0.024c-0.024,1.008-0.084,2.362-0.156,3.574l-0.216,3.466h-0.995l0.563-8.084
		h1.331l1.379,3.91c0.336,0.995,0.612,1.883,0.815,2.723h0.036c0.204-0.815,0.492-1.703,0.852-2.723l1.439-3.91h1.331l0.504,8.084
		h-1.02L54.814,34.563z"/>
	<path d="M64.462,34.563c-0.06-1.128-0.132-2.482-0.12-3.49h-0.036c-0.276,0.947-0.612,1.955-1.02,3.07l-1.427,3.922h-0.792
		l-1.307-3.85c-0.384-1.14-0.708-2.184-0.936-3.143h-0.024c-0.024,1.008-0.084,2.362-0.156,3.574l-0.216,3.466h-0.995l0.563-8.084
		h1.332l1.379,3.91c0.336,0.995,0.612,1.883,0.815,2.723h0.036c0.204-0.815,0.492-1.703,0.852-2.723l1.439-3.91h1.331l0.504,8.084
		h-1.02L64.462,34.563z"/>
	<path d="M68.342,30.028v4.786c0,1.811,0.803,2.578,1.883,2.578c1.199,0,1.967-0.791,1.967-2.578v-4.786h1.056v4.714
		c0,2.482-1.308,3.502-3.059,3.502c-1.655,0-2.902-0.947-2.902-3.454v-4.762H68.342z"/>
	<path d="M75.062,38.112v-8.084h1.139l2.591,4.09c0.6,0.948,1.067,1.8,1.451,2.627l0.024-0.012c-0.096-1.08-0.12-2.063-0.12-3.322
		v-3.383h0.983v8.084h-1.055l-2.567-4.102c-0.563-0.899-1.103-1.823-1.511-2.698l-0.036,0.012c0.06,1.02,0.084,1.991,0.084,3.334
		v3.454H75.062z"/>
	<path d="M84.001,30.028v8.084h-1.043v-8.084H84.001z"/>
	<path d="M91.475,37.849c-0.384,0.191-1.151,0.384-2.135,0.384c-2.279,0-3.994-1.439-3.994-4.09c0-2.53,1.715-4.246,4.222-4.246
		c1.008,0,1.643,0.216,1.919,0.36l-0.252,0.852c-0.396-0.192-0.959-0.336-1.631-0.336c-1.895,0-3.154,1.211-3.154,3.334
		c0,1.979,1.139,3.25,3.106,3.25c0.636,0,1.283-0.132,1.703-0.336L91.475,37.849z"/>
	<path d="M94.141,35.569l-0.839,2.543h-1.08l2.747-8.084h1.259l2.758,8.084h-1.115l-0.864-2.543H94.141z M96.792,34.754L96,32.428
		c-0.18-0.528-0.3-1.008-0.419-1.476h-0.024c-0.12,0.479-0.251,0.972-0.408,1.463l-0.792,2.339H96.792z"/>
	<path d="M100.789,30.916H98.33v-0.888h5.985v0.888h-2.471v7.196h-1.055V30.916z"/>
	<path d="M106.261,30.028v8.084h-1.043v-8.084H106.261z"/>
	<path d="M114.994,33.986c0,2.782-1.691,4.258-3.754,4.258c-2.135,0-3.634-1.655-3.634-4.102c0-2.566,1.595-4.246,3.754-4.246
		C113.567,29.896,114.994,31.588,114.994,33.986z M108.722,34.118c0,1.728,0.935,3.274,2.579,3.274c1.655,0,2.59-1.523,2.59-3.358
		c0-1.606-0.839-3.286-2.579-3.286C109.585,30.748,108.722,32.344,108.722,34.118z"/>
	<path d="M116.354,38.112v-8.084h1.139l2.591,4.09c0.6,0.948,1.067,1.8,1.451,2.627l0.024-0.012c-0.096-1.08-0.12-2.063-0.12-3.322
		v-3.383h0.983v8.084h-1.055l-2.567-4.102c-0.563-0.899-1.103-1.823-1.511-2.698l-0.036,0.012c0.06,1.02,0.084,1.991,0.084,3.334
		v3.454H116.354z"/>
	<path d="M32.737,44.189c-0.875,1.175-1.511,2.734-1.511,4.905c0,2.135,0.66,3.67,1.511,4.869H31.91
		c-0.756-0.995-1.571-2.53-1.571-4.869c0.012-2.363,0.815-3.898,1.571-4.905H32.737z"/>
	<path d="M37.777,52.513l-2.639-8.084h1.127l1.259,3.982c0.348,1.091,0.648,2.074,0.864,3.022h0.024
		c0.228-0.936,0.563-1.955,0.923-3.011l1.367-3.994h1.116l-2.891,8.084H37.777z"/>
	<path d="M43.742,44.429v8.084h-1.043v-8.084H43.742z"/>
	<path d="M45.566,44.537c0.636-0.096,1.391-0.168,2.219-0.168c1.499,0,2.566,0.348,3.274,1.008c0.72,0.659,1.14,1.595,1.14,2.902
		c0,1.319-0.408,2.398-1.164,3.142c-0.755,0.756-2.003,1.164-3.574,1.164c-0.744,0-1.367-0.036-1.895-0.097V44.537z M46.61,51.686
		c0.264,0.048,0.647,0.06,1.055,0.06c2.231,0,3.442-1.247,3.442-3.43c0.012-1.907-1.067-3.119-3.274-3.119
		c-0.54,0-0.947,0.049-1.223,0.108V51.686z"/>
	<path d="M57.744,48.723h-3.142v2.914h3.502v0.876h-4.545v-8.084h4.365v0.876h-3.322v2.555h3.142V48.723z"/>
	<path d="M66.37,48.387c0,2.782-1.691,4.258-3.754,4.258c-2.135,0-3.634-1.655-3.634-4.102c0-2.566,1.595-4.246,3.754-4.246
		C64.943,44.297,66.37,45.988,66.37,48.387z M60.098,48.519c0,1.728,0.935,3.274,2.579,3.274c1.655,0,2.59-1.523,2.59-3.358
		c0-1.606-0.839-3.286-2.579-3.286C60.961,45.148,60.098,46.744,60.098,48.519z"/>
	<path d="M73.379,52.249c-0.384,0.191-1.151,0.384-2.135,0.384c-2.279,0-3.994-1.439-3.994-4.09c0-2.53,1.715-4.246,4.222-4.246
		c1.007,0,1.643,0.216,1.919,0.36l-0.252,0.852c-0.396-0.192-0.959-0.336-1.631-0.336c-1.895,0-3.154,1.211-3.154,3.334
		c0,1.979,1.139,3.25,3.106,3.25c0.635,0,1.283-0.132,1.703-0.336L73.379,52.249z"/>
	<path d="M75.733,44.429v3.383h3.91v-3.383h1.056v8.084h-1.056v-3.79h-3.91v3.79H74.69v-8.084H75.733z"/>
	<path d="M83.821,49.97l-0.839,2.543h-1.08l2.747-8.084h1.259l2.758,8.084h-1.115l-0.864-2.543H83.821z M86.471,49.154l-0.792-2.326
		c-0.18-0.528-0.3-1.008-0.419-1.476h-0.024c-0.12,0.479-0.251,0.972-0.408,1.463l-0.792,2.339H86.471z"/>
	<path d="M90.469,45.316H88.01v-0.888h5.985v0.888h-2.471v7.196h-1.055V45.316z"/>
	<path d="M96.77,53.964c0.852-1.188,1.511-2.746,1.511-4.905c0-2.146-0.647-3.682-1.511-4.869h0.815
		c0.768,0.983,1.571,2.519,1.571,4.881c0,2.351-0.804,3.874-1.571,4.894H96.77z"/>
</g>
<g>
</g>
<g>
</g>
<g>
</g>
<g>
</g>
<g>
</g>
<g>
</g>
<g>
</g>
<g>
</g>
<g>
</g>
<g>
</g>
<g>
</g>
<g>
</g>
<g>
</g>
<g>
</g>
<g>
</g>
</svg>
