<?xml version="1.0" encoding="iso-8859-1"?>
<!-- Generator: Adobe Illustrator 24.0.1, SVG Export Plug-In . SVG Version: 6.00 Build 0)  -->
<svg version="1.1" id="Layer_1" xmlns="http://www.w3.org/2000/svg" xmlns:xlink="http://www.w3.org/1999/xlink" x="0px" y="0px"
	 viewBox="0 0 700 700" style="enable-background:new 0 0 700 700;" xml:space="preserve">
<g>
	<defs>
		<path id="SVGID_1_" d="M81.45,526.097c194.213-2.468,388.426-4.936,582.638-7.404c1.702-127.064,3.404-254.128,5.106-381.191
			H83.416C82.76,267.033,82.105,396.565,81.45,526.097z"/>
	</defs>
	<clipPath id="SVGID_2_">
		<use xlink:href="#SVGID_1_"  style="overflow:visible;"/>
	</clipPath>
	<g style="clip-path:url(#SVGID_2_);">
		<path style="fill:none;stroke:#E3E5E8;stroke-linecap:round;stroke-linejoin:round;stroke-miterlimit:10;" d="M90.424,339.029
			c7.188-34.923,22.638-80.785,60.217-98.889c36.348-17.512,66.589,3.863,118.723-2.298c31.487-3.721,76.219-18.108,127.149-68.936"
			/>
		<path style="fill:#E3E5E8;" d="M173.543,522.256c-64.089-40.882-78.926-78.02-83.92-94.34c-19.3-63.069,8.028-143.275,59.49-170.3
			c42.33-22.23,66.91,10.79,127.15-5.36c77.6-20.8,77.7-86.56,138.03-101.36c53.59-13.15,126.94,20.7,175.32,79.04
			c8.398,10.127,34.87,43.22,46.65,94.32c16.82,72.962-1.021,161.343-53.622,216.905
			C474.881,654.988,267.511,582.198,173.543,522.256z"/>
	</g>
	<path style="clip-path:url(#SVGID_2_);fill:#1C1D22;" d="M302.811,253.867c1.645-1.637,3.357-2.936,5.085-3.967
		c20.907-12.473,52.947,8.922,57.341,11.932c-2.965,8.485-5.929,16.971-8.894,25.456c-10.635-1.574-32.382-6.518-47.468-24.69
		C306.478,259.711,304.481,256.769,302.811,253.867z"/>
	<g style="clip-path:url(#SVGID_2_);">
		<path style="fill:#F59795;" d="M355.907,157.255c26.252,8.229,36.786,52.397,28.687,80.979
			c-1.603,5.657-4.615,16.287-12.251,17.929c-7.648,1.645-15.036-6.782-16.136-8.068c0.946,9.674,1.893,19.348,2.839,29.023
			c-0.796,1.361-6.155,10.187-16.829,12.043c-9.488,1.65-19.38-2.866-25.079-11.482c-3.501-39.663-1.428-68.675,0.822-86.657
			c1.449-11.585,3.758-24.847,14.044-31.376C342.219,153.162,354.72,156.883,355.907,157.255z"/>
		<path style="fill:#1C1D22;" d="M332.899,157.255c8.748-5.457,18.099-4.326,30.181-2.689c24.526,3.323,53.016,16.065,51.695,25.101
			c-0.958,6.554-17.383,9.665-27.192,9.861c-24.543,0.491-41.382-16.588-45.42-20.917c0.057,2.01,0.188,13.354-8.666,22.112
			c-6.297,6.229-13.655,7.704-16.381,8.111C316.939,196.802,314.866,168.505,332.899,157.255z"/>
		<path style="fill:#F59795;" d="M325.727,204.633c-3.828-9.71-13.763-14.005-20.632-11.306c-8.102,3.183-11.059,15.75-5.694,24.016
			c4.678,7.209,14.868,9.89,23.355,5.447"/>
		<path style="fill:none;stroke:#E56A77;stroke-linecap:round;stroke-linejoin:round;stroke-miterlimit:10;" d="M304.5,201.625
			c0.959-0.097,4.202-0.304,7.322,1.812c0.748,0.507,3.964,2.688,4.348,6.115c0.295,2.635-1.345,3.689-0.848,6.111
			c0.416,2.022,1.995,3.41,3.234,4.255"/>
		<path style="fill:none;stroke:#E56A77;stroke-linecap:round;stroke-linejoin:round;stroke-miterlimit:10;" d="M310.528,202.69
			c-0.304,0.223-3.771,2.861-3.632,7.441c0.138,4.549,3.711,6.97,4.035,7.181"/>
		<g>
			<path style="fill:#E56A77;" d="M366.704,205.093c2.334,7.168,4.767,14.296,7.297,21.379c-3.081,0.122-6.166,0.111-9.247-0.035"/>
		</g>
		<path style="fill:#E56A77;" d="M337.731,233.419c0.759,3.473,2.118,7.884,4.655,12.584c4.787,8.87,11.307,14.211,15.274,16.958
			c-0.485-4.955-0.969-9.91-1.454-14.865C350.048,243.203,343.89,238.311,337.731,233.419z"/>
		<path style="fill:#E56A77;" d="M315.426,224.899c2.443-0.703,4.886-1.406,7.33-2.109c-0.511,1.442-1.26,3.69-1.987,6.489
			c-1.555,5.982-1.817,9.884-2.723,16.17c-0.433,3.006-1.134,7.388-2.247,12.735C315.674,247.089,315.55,235.994,315.426,224.899z"
			/>
		<path style="fill:none;stroke:#1C1D22;stroke-linecap:round;stroke-linejoin:round;stroke-miterlimit:10;" d="M354.523,192.534
			c0.313-1.597-1.027-3.249-2.639-3.473s-3.25,0.831-3.925,2.312"/>
		<path style="fill:none;stroke:#1C1D22;stroke-linecap:round;stroke-linejoin:round;stroke-miterlimit:10;" d="M374.797,199.623
			c-0.084-0.821,0.016-1.66,0.29-2.439c0.213-0.606,0.565-1.209,1.144-1.488c0.762-0.369,1.714-0.056,2.329,0.526
			c0.615,0.582,0.969,1.381,1.307,2.157"/>
		<path style="fill:none;stroke:#1C1D22;stroke-linecap:round;stroke-linejoin:round;stroke-miterlimit:10;" d="M369.89,233.213
			c-1.97,0.914-3.61,2.522-4.563,4.473"/>
		<path style="fill:none;stroke:#1C1D22;stroke-linecap:round;stroke-linejoin:round;stroke-miterlimit:10;" d="M320.217,144.971
			c4.997,4.159,9.995,8.319,14.992,12.478c-0.348-0.58-0.834-1.473-1.268-2.621c-0.542-1.434-0.934-3.088-1.126-7.564
			c-0.071-1.643-0.12-3.8-0.059-6.346"/>
		<g>
			<path style="fill:#FFFFFF;" d="M343.595,208.012c-2.339-0.595-4.647-1.53-4.694-2.735c-0.06-1.732,4.511-3.862,8.71-3.693
				c0.77,0.024,1.54,0.132,2.298,0.313c4.03,0.902,7.446,3.537,7.11,5.065c-0.301,1.456-4.03,1.973-7.507,1.877
				c-0.914-0.024-1.804-0.084-2.622-0.193C345.977,208.528,344.782,208.314,343.595,208.012"/>
			<path style="fill:#FFFFFF;" d="M385.276,208.222c-0.187,1.519-3.689,2.272-6.565,2.287c-0.3,0.015-0.6,0-0.888-0.015
				c-3.252-0.192-7.528-1.652-7.553-3.393c-0.025-1.652,3.814-3.497,7.241-3.393c0.5,0.015,0.988,0.074,1.488,0.162
				C382.387,204.49,385.451,206.732,385.276,208.222z"/>
			<path style="fill:#1C1D22;" d="M357.017,206.962c-0.301,1.456-4.03,1.973-7.507,1.877c-0.842-0.854-1.359-2.009-1.359-3.308
				c0-1.48,0.685-2.791,1.756-3.633C353.938,202.799,357.354,205.434,357.017,206.962z"/>
			<path style="fill:#1C1D22;" d="M385.276,208.222c-0.187,1.519-3.689,2.272-6.565,2.287c-0.588-0.856-0.938-1.947-0.938-3.142
				c0-1.372,0.463-2.597,1.225-3.496C382.387,204.49,385.451,206.732,385.276,208.222z"/>
		</g>
	</g>
	<path style="clip-path:url(#SVGID_2_);fill:#A081B7;" d="M530.958,183.726v335.44c-8.66,0.03-17.32,0.06-25.98,0.09h-1.15
		c-3.84,0.01-7.68,0.03-11.52,0.04c-3.01,0.01-6.03,0.03-9.04,0.04c-1.19,0.01-2.38,0.01-3.57,0.02v-335.63H530.958z"/>
	<path style="clip-path:url(#SVGID_2_);fill:#1C1D22;" d="M589.053,302.045v217.019c-6.09,0.009-12.19,0.018-18.29,0.028
		c-4.53,0.009-9.06,0.018-13.6,0.028c-2.1,0.009-4.2,0.009-6.3,0.018c-4.35,0.009-8.71,0.018-13.06,0.028v-217.12H589.053z"/>
	<path style="clip-path:url(#SVGID_2_);fill:#98BBE4;" d="M647.523,264.501v254.537c-17.08-0.009-34.17,0-51.26,0.018V264.501
		H647.523z"/>
	<path style="clip-path:url(#SVGID_2_);fill:#FFFFFF;" d="M515.492,572.565c-22.134,14.387-76.387-28.388-92.389-52.879
		c-0.453-0.693-5.818-8.937-12.46-20.428c-5.651-9.777-10.005-18.061-12.94-23.833c-32.06-113.02-38.93-173.95-20.62-182.8
		c4.37-2.11,10.16-1.27,17.38,2.53c23.38,33.62,48.16,74.85,70.29,123.83c2.355,5.212,2.008,4.624,3.95,8.87
		c32.929,71.996,59.955,86.378,57.002,119.688C525.054,554.885,523.976,567.051,515.492,572.565z"/>
	<g style="clip-path:url(#SVGID_2_);">
		<g>
			<path style="fill:#FFFFFF;" d="M342.216,287.288c-1.589-2.383-3.177-4.766-4.766-7.149c-12.709-2.326-25.418-4.652-38.128-6.979
				c-9.273,0.568-37.436,3.499-55.248,25.411c-2.709,3.333-9.43,12.333-14.75,34.754c-8.211,34.601-3.318,63.383-3.545,67.675
				c-2.609,49.324-5.272,98.637-7.988,147.938c67.064-2.383,131.477-56.309,198.54-58.692c-0.01-15.322-0.234-103.328-8.315-161.648
				c-1.332-9.612-3.855-25.474-16.438-37.055c-14.18-13.05-33.501-13.641-42.809-13.243
				C346.584,281.296,344.4,284.292,342.216,287.288z"/>
			<path style="fill:#FFFFFF;" d="M302.811,253.79c4.96,6.383,12.464,14.367,23.234,21.191c4.195,2.658,8.255,4.741,12,6.383
				c-3.404,6.894-6.808,13.787-10.213,20.681c-10.383-6.894-20.766-13.787-31.149-20.681
				C298.726,272.173,300.769,262.981,302.811,253.79z"/>
			<path style="fill:#FFFFFF;" d="M348.769,278.3c2.383,6.638,4.766,13.277,7.149,19.915c2.861-2.068,6.642-5.342,9.958-10.213
				c1.705-2.505,2.935-4.914,3.83-7.021c-1.489-6.383-2.979-12.766-4.468-19.149c-0.889,2.688-3.468,9.192-10.085,13.532
				C352.863,276.865,350.628,277.756,348.769,278.3z"/>
			<path style="fill:none;stroke:#1C1D22;stroke-linecap:round;stroke-linejoin:round;stroke-miterlimit:10;" d="M353.533,431.988
				c-0.049,1.732,0.625,4.084,1.827,4.307c1.424,0.265,3.377-2.499,3.776-5.13c0.313-2.056-0.198-4.861-1.431-5.163
				C356.24,425.644,353.623,428.79,353.533,431.988z"/>
			<path style="fill:none;stroke:#1C1D22;stroke-linecap:round;stroke-linejoin:round;stroke-miterlimit:10;" d="M297.044,280.768
				c8.904,11.25,18.549,21.913,28.852,31.898c0.633,0.613,1.542,1.267,2.308,0.832c0.641-0.364,0.752-1.404,0.781-1.67
				c0.223-2.034,3.283-12.291,9.06-30.464"/>
			<path style="fill:none;stroke:#1C1D22;stroke-linecap:round;stroke-linejoin:round;stroke-miterlimit:10;" d="M348.386,278.811
				c1.066,3.558,2.26,7.226,3.6,10.988c2.622,7.364,5.464,14.137,8.36,20.306c0.389-0.825,0.774-1.66,1.154-2.504
				c3.35-7.448,5.919-14.779,7.878-21.863"/>
			<path style="fill:none;stroke:#1C1D22;stroke-linecap:round;stroke-linejoin:round;stroke-miterlimit:10;" d="M340.327,289.024
				c1.237,54.331,1.576,108.683,1.019,163.025"/>
			<path style="fill:none;stroke:#1C1D22;stroke-linecap:round;stroke-linejoin:round;stroke-miterlimit:10;" d="M356.301,346.726
				c-2.06,1.445-3.069,4.173-2.515,6.617c0.271,1.194,1.053,2.424,2.263,2.611c2.572,0.397,4.895-3.409,5.343-5.497
				c0.239-1.112,0.237-2.321-0.28-3.334c-0.517-1.013-1.637-1.767-2.763-1.609c-1.34,0.188-2.204,1.483-2.835,2.679"/>
			<path style="fill:none;stroke:#1C1D22;stroke-linecap:round;stroke-linejoin:round;stroke-miterlimit:10;" d="M356.003,384.139
				c-2.035,0.851-2.96,2.987-2.514,5.12c0.673,3.218,5.131,5.919,7.309,2.523c2.07-3.227,0.467-8.138-3.553-8.62"/>
		</g>
		<path style="fill:none;stroke:#1C1D22;stroke-linecap:round;stroke-linejoin:round;stroke-miterlimit:10;" d="M396.905,356.477
			c-1.413,25.649-2.825,51.297-4.238,76.946c0.081-0.647,0.162-1.293,0.243-1.94"/>
		<path style="fill:none;stroke:#1C1D22;stroke-linecap:round;stroke-linejoin:round;stroke-miterlimit:10;" d="M394.639,397.601
			c0.531-4.7,1.534-10.314,3.423-16.481c2.214-7.229,5.025-13.196,7.604-17.808"/>
	</g>
	<g style="clip-path:url(#SVGID_2_);">
		<g>
			<path style="fill:#F59795;" d="M416.088,242.981c1.001-1.332,1.617-3.544,0.936-5.447c-2.552-7.128-21.848-5.841-23.915-5.703
				c-3.654,0.244-8.285,0.595-13.74,3.034c-5.774,2.582-12.49,7.512-11.707,9.393c1.189,2.856,17.84-5.688,30.527-0.619
				c0.58,0.232,3.858,1.573,8.318,1.81C409.285,245.597,413.936,245.844,416.088,242.981z"/>
			<path style="fill:none;stroke:#E56A77;stroke-linecap:round;stroke-linejoin:round;stroke-miterlimit:10;" d="M409.931,232.803
				c-12.03-2.01-21.112-0.688-26.4,0.527c0,0-10.7,2.459-15.038,8.704c-0.143,0.205-0.564,0.812-0.403,1.431
				c0.287,1.105,2.228,1.48,2.893,1.609c4.21,0.813,9.397-1.352,12.191-2.169c3.112-0.91,7.673-1.44,13.932,0.338"/>
			<path style="fill:#EBC6BA;" d="M372.576,239.493c-1.736,0.661-3.289,2.368-2.921,3.206c0.328,0.747,2.159,0.745,3.419,0.356
				c1.954-0.603,3.659-2.485,3.277-3.348C376.011,238.938,374.003,238.95,372.576,239.493z"/>
		</g>
		<path style="fill:#F59795;" d="M474.642,283.369c-2.71,1.96-5.41,3.92-8.12,5.88c-4.79,3.47-9.58,6.94-14.36,10.41
			c-1.51-2.49-3.96-6.06-7.7-9.68c-1.92-1.85-3.46-2.92-4.54-3.87c-3.74-3.32-7.14-6.63-10.2-9.87h-0.01
			c-0.97-1.02-1.91-2.04-2.82-3.05c-0.61,0.74-3.03,3.46-7.23,4.18c-4.49,0.76-7.84-1.3-8.6-1.79c-2.3,1.85-5.51,2.09-8,0.59
			c-2.32-1.39-3.63-4.06-3.31-6.8c-1.56-0.24-3.54-0.82-5.15-2.34c-5.27-4.96-1.63-15.24-1.13-16.6c3.3-8.96,12.75-17.09,20.1-15.35
			c0.08,0.02,0.28,0.07,0.65,0.18c3.95,1.11,9.6,2.18,15.23,5.23c5.4,2.92,18.2,9.43,29.99,21.99
			C463.752,267.069,469.432,273.959,474.642,283.369z"/>
		<path style="fill:none;stroke:#E56A77;stroke-linecap:round;stroke-linejoin:round;stroke-miterlimit:10;" d="M404.245,239.105
			c-4.539,2.746-8.853,6.373-10.769,11.32c-0.521,1.345-0.851,2.755-1.173,4.161c-0.819,3.581-0.946,7.541,0.993,10.881
			c1.241,2.139,3.801,3.434,6.259,3.167"/>
		<path style="fill:none;stroke:#E56A77;stroke-linecap:round;stroke-linejoin:round;stroke-miterlimit:10;" d="M411.252,247.649
			c-3.328,2.544-6.126,5.777-8.166,9.436c-2.503,4.49-3.674,8.406-2.761,13.525c0.237,1.328,0.661,2.649,1.461,3.735
			c1.533,2.084,4.456,3.023,6.916,2.223"/>
		<path style="fill:none;stroke:#E56A77;stroke-linecap:round;stroke-linejoin:round;stroke-miterlimit:10;" d="M421.849,253.838
			c-1.326,1.635-3.217,2.685-4.937,3.899c-5.711,4.03-13.807,13.67-3.946,18.378c3.237,1.545,7.162,1.138,10.395-0.414
			c1.052-0.505,2.079-1.153,2.734-2.118c0.655-0.965,0.859-2.308,0.246-3.3c-0.733-1.186-2.315-1.503-3.709-1.482
			s-2.847,0.255-4.142-0.261"/>
		<path style="fill:none;stroke:#E56A77;stroke-linecap:round;stroke-linejoin:round;stroke-miterlimit:10;" d="M420.858,261.957
			c0.096,1.753,0.498,3.489,1.182,5.107c1.581-1.709,3.161-3.417,4.742-5.126"/>
		<path style="fill:none;stroke:#E56A77;stroke-linecap:round;stroke-linejoin:round;stroke-miterlimit:10;" d="M421.887,266.669
			c-1.699,1.436-3.923,2.237-6.147,2.213"/>
		<path style="fill:none;stroke:#E56A77;stroke-linecap:round;stroke-linejoin:round;stroke-miterlimit:10;" d="M425.494,251.657
			c1.33-0.88,2.978-1.27,4.561-1.079c1.632,0.197,3.222,1.048,4.099,2.438"/>
		<path style="fill:none;stroke:#E56A77;stroke-linecap:round;stroke-linejoin:round;stroke-miterlimit:10;" d="M416.967,244.316
			c0.76-0.055,1.374-0.607,2.032-0.99c2.225-1.297,5.425-0.473,6.746,1.738"/>
		<path style="fill:none;stroke:#E56A77;stroke-linecap:round;stroke-linejoin:round;stroke-miterlimit:10;" d="M408.773,237.313
			c2.706-1.773,6.176-2.331,9.302-1.496c0.8,0.214,1.744,0.794,1.564,1.602"/>
		<path style="fill:#E56A77;" d="M466.522,289.249c-4.79,3.47-9.58,6.94-14.36,10.41c-1.51-2.49-3.96-6.06-7.7-9.68
			c-1.92-1.85-3.46-2.92-4.54-3.87c-3.74-3.32-7.14-6.63-10.2-9.87c3.32-0.14,6.9-0.45,10.71-1c7.25-1.05,13.59-2.75,18.91-4.56
			C461.742,276.869,464.122,283.059,466.522,289.249z"/>
	</g>
	<g style="clip-path:url(#SVGID_2_);">
		<path style="fill:#F59795;" d="M400.088,443.237c9.592-7.963,18.207-13.599,24.51-17.362
			c11.402-6.806,17.271-10.223,25.532-10.894c10.541-0.856,19.134,3.101,23.83,5.787c2.383,9.872,4.766,19.745,7.149,29.617
			c-5.674,3.518-11.347,7.035-17.021,10.553c-14.979,6.128-29.958,12.255-44.936,18.383
			C412.797,467.293,406.442,455.265,400.088,443.237z"/>
		<path style="fill:none;stroke:#E56A77;stroke-linecap:round;stroke-linejoin:round;stroke-miterlimit:10;" d="M455.004,446.752
			c1.191-0.748,1.687-2.281,2.841-3.086c1.468-1.023,3.808-0.341,4.496,1.31"/>
		<path style="fill:none;stroke:#E56A77;stroke-linecap:round;stroke-linejoin:round;stroke-miterlimit:10;" d="M448.726,437.109
			c-0.197-1.836,0.562-3.624,2.007-4.663c1.766-1.27,3.732-0.827,4.011-0.76c2.233,0.542,3.184,2.427,3.308,2.683"/>
		<path style="fill:none;stroke:#E56A77;stroke-linecap:round;stroke-linejoin:round;stroke-miterlimit:10;" d="M442.862,427.052
			c0.302-1.248,0.76-2.49,1.59-3.47c1.212-1.43,3.199-2.158,5.047-1.849s3.491,1.643,4.172,3.389"/>
		<path style="fill:#E56A77;" d="M400.088,443.237c4.406,5.208,10.437,11.385,18.383,17.362c6.723,5.056,13.16,8.723,18.634,11.379
			c-5.984,2.448-11.969,4.896-17.953,7.344C412.797,467.293,406.442,455.265,400.088,443.237z"/>
	</g>
	<g style="clip-path:url(#SVGID_2_);">
		<g>
			<path style="fill:#FFFFFF;" d="M559.403,498.896c-0.423,5.764-1.12,11.591-1.12,11.591s-0.547,4.733-1.12,8.629
				c-1.049,7.128-17.253,57.055-49.061,56.631c-21.472-0.286-44.74-23.446-47.049-56.271c4.266-26.43,7.157-60.777,3.7-100.49
				c-3.948-45.357-14.577-79.672-20.04-95.48c-4.42-12.79-9.08-24.18-13.48-33.97l41.37-27.75c3.55,4.05,8.37,9.71,13.94,16.86
				c15.11,19.38,35.7,49.65,51.26,88.23C552.773,403.976,563.083,448.756,559.403,498.896z"/>
			<path style="fill:none;stroke:#1C1D22;stroke-linecap:round;stroke-linejoin:round;stroke-miterlimit:10;" d="M440.281,327.679
				c14.002-13.493,29.56-25.37,46.266-35.322"/>
			<path style="fill:none;stroke:#1C1D22;stroke-linecap:round;stroke-linejoin:round;stroke-miterlimit:10;" d="M443.552,302.991
				c0.212,3.177,2.109,5.473,3.898,5.479c2.167,0.007,3.465-2.365,4.149-4.421c0.628-1.887,1.112-4.1,0.003-5.751
				c-1.212-1.804-4.055-2.021-6.049-1.052c-2.674,1.3-2.983,4.382-2.996,4.544"/>
			<path style="fill:none;stroke:#1C1D22;stroke-linecap:round;stroke-linejoin:round;stroke-miterlimit:10;" d="M449.784,338.488
				c11.396,27.7,23.239,55.217,35.521,82.537"/>
			<path style="fill:none;stroke:#1C1D22;stroke-linecap:round;stroke-linejoin:round;stroke-miterlimit:10;" d="M541.076,387.582
				c-1.424,13.924-4.491,27.68-9.117,40.89"/>
		</g>
		<path style="fill:none;stroke:#1C1D22;stroke-linecap:round;stroke-linejoin:round;stroke-miterlimit:10;" d="M466.132,443.134
			c0.275,10.1,0.196,20.934-0.401,32.411c-0.468,8.977-1.209,17.517-2.14,25.582"/>
	</g>
</g>
<g>
	<path style="fill:#FFFFFF;" d="M244.074,298.572c-22.692,26.29-106.214,127.143-104.411,224.324
		c0.354,19.05,1.001,53.804,25.532,75.574c19.463,17.273,44.534,18.007,57.192,18.204c76.952,1.202,136.116-60.976,155.745-82.034
		c19.525-20.948,32.688-40.987,41.021-55.319c-9.042-14.997-18.085-29.994-27.127-44.991c-9.254,2.915-23.349,7.733-39.936,15.033
		c-60.968,26.833-94.719,60.473-101.277,53.957c-3.129-3.109,2.758-11.873,10.042-28.766c13.595-31.526,24.075-57.846,31.319-76.596
		C276.14,364.831,260.107,331.701,244.074,298.572z"/>
	<path style="fill:none;stroke:#1C1D22;stroke-linecap:round;stroke-linejoin:round;stroke-miterlimit:10;" d="M291.321,407.026
		c-11.797,21.736-23.609,43.502-33.554,66.146c-4.641,10.567-11.662,23.79-13.198,35.178c0.1-0.738,10.465-5.225,11.533-5.788
		c5.417-2.856,10.883-5.618,16.393-8.289c38.136-18.488,76.812-35.956,114.999-54.405"/>
	<path style="fill:none;stroke:#1C1D22;stroke-linecap:round;stroke-linejoin:round;stroke-miterlimit:10;" d="M361.06,451.536
		c12.171,19.751,24.733,38.961,38.67,57.517c-0.279-0.013-0.266-0.167-0.493-0.318"/>
	<path style="fill:none;stroke:#1C1D22;stroke-linecap:round;stroke-linejoin:round;stroke-miterlimit:10;" d="M401.216,473.791
		c-6.133-4.701-10.533,7.567-8.448,11.961c0.736,1.552,2.169,2.823,3.863,3.106c3.952,0.66,7.608-3.491,8.032-7.134
		c0.33-2.838-1.363-5.007-1.906-5.675"/>
	<path style="fill:none;stroke:#1C1D22;stroke-linecap:round;stroke-linejoin:round;stroke-miterlimit:10;" d="M274.062,439.904
		c7.764-8.791,15.528-17.583,23.292-26.374"/>
	<path style="fill:none;stroke:#1C1D22;stroke-linecap:round;stroke-linejoin:round;stroke-miterlimit:10;" d="M160.307,434.16
		c-18.035,41.399-30.235,88.14-17.76,131.54c2.985,10.386,7.464,20.561,14.736,28.555c10.334,11.359,25.427,17.336,40.523,20.148
		c20.366,3.793,41.673,2.417,61.381-3.964c8.691-2.814,17.049-6.573,25.227-10.645c27.036-13.463,52.293-30.478,74.972-50.421
		c23.341-20.526,41.632-45.613,56.993-72.682"/>
	<path style="fill:none;stroke:#1C1D22;stroke-linecap:round;stroke-linejoin:round;stroke-miterlimit:10;" d="M260.408,501.193
		c10.759-6.355,23.446-8.391,35.794-10.309c8.963-1.392,17.925-2.784,26.888-4.176"/>
	<path style="fill:none;stroke:#1C1D22;stroke-linecap:round;stroke-linejoin:round;stroke-miterlimit:10;" d="M151.248,456.976
		c-0.69,17.908-0.395,37.707,1.574,59.04c0.912,9.885,2.114,19.337,3.521,28.327"/>
	
		<line style="fill:none;stroke:#1C1D22;stroke-linecap:round;stroke-linejoin:round;stroke-miterlimit:10;" x1="244.568" y1="508.349" x2="223.747" y2="519.032"/>
	
		<line style="fill:none;stroke:#1C1D22;stroke-linecap:round;stroke-linejoin:round;stroke-miterlimit:10;" x1="341.989" y1="561.98" x2="365.197" y2="526.706"/>
</g>
<g>
	<path style="fill:#FFFFFF;" d="M236.317,380.726c42.112,29.279,52.515,87.153,23.235,129.265
		c-29.279,42.113-87.152,52.515-129.264,23.236c-42.113-29.279-52.516-87.154-23.235-129.266
		C136.331,361.85,194.205,351.446,236.317,380.726"/>
	<path style="fill:#A081B7;" d="M183.302,456.976l53.015-76.251c41.83,29.084,52.319,87.436,23.236,129.266
		c-29.084,41.83-87.436,52.319-129.266,23.236c-40.848-28.402-51.99-84.841-25-126.634L183.302,456.976z"/>
	<path style="fill:#1C1D22;" d="M183.302,456.976l-27.373-88.744c13.468-4.153,27.707-5.188,41.635-3.024
		c13.927,2.164,27.181,7.471,38.753,15.517L183.302,456.976z"/>
</g>
<path style="fill:none;stroke:#1C1D22;stroke-linecap:round;stroke-linejoin:round;stroke-miterlimit:10;" d="M385.309,522.666
	c4.731-0.13,9.462-0.26,14.193-0.38c0.333-0.01,0.665-0.02,0.998-0.03c26.664-0.72,53.339-1.32,80.029-1.79
	c1.674-0.03,3.363-0.06,5.058-0.09c9.509-0.17,19.04-0.32,28.549-0.45c5.349-0.08,10.703-0.15,16.051-0.22
	c0.692-0.01,1.389-0.02,2.08-0.02c4.852-0.06,9.705-0.11,14.557-0.16c1.827-0.02,3.654-0.04,5.481-0.05
	c2.54-0.03,5.085-0.05,7.63-0.07c0.021-0.01,0.047-0.01,0.074,0c1.917-0.02,3.839-0.04,5.755-0.05c0.628-0.01,1.257-0.01,1.885-0.02
	c1.589-0.01,3.184-0.03,4.773-0.04c2.028-0.01,4.055-0.03,6.083-0.04c0.206,0,0.407,0,0.607,0c4.573-0.03,9.145-0.06,13.717-0.09
	c2.297-0.01,4.599-0.02,6.896-0.03c1.109-0.01,2.218-0.01,3.326-0.02c2.397-0.01,4.789-0.02,7.181-0.03
	c3.221-0.01,6.442-0.02,9.657-0.03c9.023-0.02,18.047-0.03,27.065-0.02c2.476,0,4.953,0,7.429,0.01"/>
<g>
	<rect x="36.329" y="51.839" style="fill:none;" width="206.609" height="48.896"/>
	<path d="M37.241,52.382c0.636-0.096,1.391-0.168,2.219-0.168c1.499,0,2.566,0.348,3.274,1.008c0.72,0.659,1.14,1.595,1.14,2.902
		c0,1.319-0.408,2.398-1.164,3.142c-0.755,0.756-2.003,1.164-3.574,1.164c-0.744,0-1.367-0.036-1.895-0.097V52.382z M38.285,59.531
		c0.264,0.048,0.647,0.06,1.055,0.06c2.231,0,3.442-1.247,3.442-3.43c0.012-1.907-1.067-3.119-3.274-3.119
		c-0.54,0-0.947,0.049-1.223,0.108V59.531z"/>
	<path d="M46.372,57.815l-0.839,2.543h-1.08l2.747-8.084h1.259l2.758,8.084h-1.115l-0.863-2.543H46.372z M49.022,57l-0.792-2.326
		c-0.18-0.528-0.3-1.008-0.419-1.476h-0.024c-0.12,0.479-0.251,0.972-0.408,1.463L46.588,57H49.022z"/>
	<path d="M53.021,53.162h-2.459v-0.888h5.985v0.888h-2.471v7.196h-1.055V53.162z"/>
	<path d="M57.856,57.815l-0.839,2.543h-1.08l2.747-8.084h1.259l2.758,8.084h-1.115l-0.863-2.543H57.856z M60.507,57l-0.792-2.326
		c-0.18-0.528-0.3-1.008-0.419-1.476h-0.024c-0.12,0.479-0.251,0.972-0.408,1.463L58.072,57H60.507z"/>
	<path d="M67.744,57.815l-0.839,2.543h-1.08l2.747-8.084h1.259l2.758,8.084h-1.115l-0.863-2.543H67.744z M70.395,57l-0.792-2.326
		c-0.18-0.528-0.3-1.008-0.419-1.476h-0.024c-0.12,0.479-0.251,0.972-0.408,1.463L67.96,57H70.395z"/>
	<path d="M73.781,60.358v-8.084h1.139l2.591,4.09c0.6,0.948,1.067,1.8,1.451,2.627l0.024-0.012c-0.096-1.08-0.12-2.063-0.12-3.322
		v-3.383h0.983v8.084h-1.055l-2.567-4.102c-0.563-0.899-1.103-1.823-1.511-2.698L74.68,53.57c0.06,1.02,0.084,1.991,0.084,3.334
		v3.454H73.781z"/>
	<path d="M82.984,57.815l-0.839,2.543h-1.08l2.747-8.084h1.259l2.758,8.084h-1.115l-0.864-2.543H82.984z M85.634,57l-0.792-2.326
		c-0.18-0.528-0.3-1.008-0.419-1.476h-0.024c-0.12,0.479-0.251,0.972-0.408,1.463L83.2,57H85.634z"/>
	<path d="M89.021,52.274h1.043v7.208h3.454v0.876h-4.498V52.274z"/>
	<path d="M95.476,60.358v-3.43l-2.555-4.654h1.188l1.139,2.231c0.312,0.611,0.552,1.104,0.804,1.667h0.024
		c0.228-0.528,0.504-1.056,0.816-1.667l1.163-2.231h1.188l-2.71,4.642v3.442H95.476z"/>
	<path d="M102.112,53.162h-2.459v-0.888h5.985v0.888h-2.471v7.196h-1.055V53.162z"/>
	<path d="M107.584,52.274v8.084h-1.043v-8.084H107.584z"/>
	<path d="M115.058,60.094c-0.384,0.191-1.151,0.384-2.135,0.384c-2.279,0-3.994-1.439-3.994-4.09c0-2.53,1.715-4.246,4.222-4.246
		c1.007,0,1.643,0.216,1.919,0.36l-0.252,0.852c-0.396-0.192-0.959-0.336-1.631-0.336c-1.895,0-3.154,1.211-3.154,3.334
		c0,1.979,1.139,3.25,3.106,3.25c0.635,0,1.283-0.132,1.703-0.336L115.058,60.094z"/>
	<path d="M116.225,59.086c0.468,0.288,1.151,0.528,1.871,0.528c1.067,0,1.691-0.564,1.691-1.38c0-0.756-0.432-1.188-1.523-1.606
		c-1.319-0.468-2.135-1.151-2.135-2.291c0-1.26,1.043-2.195,2.615-2.195c0.828,0,1.427,0.192,1.787,0.396l-0.288,0.852
		c-0.264-0.145-0.803-0.384-1.535-0.384c-1.103,0-1.523,0.659-1.523,1.211c0,0.756,0.492,1.127,1.607,1.56
		c1.368,0.527,2.063,1.187,2.063,2.374c0,1.248-0.923,2.327-2.831,2.327c-0.779,0-1.631-0.229-2.063-0.516L116.225,59.086z"/>
</g>
<g>
</g>
<g>
</g>
<g>
</g>
<g>
</g>
<g>
</g>
<g>
</g>
<g>
</g>
<g>
</g>
<g>
</g>
<g>
</g>
<g>
</g>
<g>
</g>
<g>
</g>
<g>
</g>
<g>
</g>
</svg>
