<?xml version="1.0" encoding="iso-8859-1"?>
<!-- Generator: Adobe Illustrator 24.0.1, SVG Export Plug-In . SVG Version: 6.00 Build 0)  -->
<svg version="1.1" id="Layer_1" xmlns="http://www.w3.org/2000/svg" xmlns:xlink="http://www.w3.org/1999/xlink" x="0px" y="0px"
	 viewBox="0 0 700 700" style="enable-background:new 0 0 700 700;" xml:space="preserve">
<g>
	<defs>
		<path id="SVGID_1_" d="M47.254,546.927c208.511-1.669,417.021-3.337,625.532-5.006V168.544H47.764
			C47.594,294.672,47.424,420.8,47.254,546.927z"/>
	</defs>
	<clipPath id="SVGID_2_">
		<use xlink:href="#SVGID_1_"  style="overflow:visible;"/>
	</clipPath>
	<g style="clip-path:url(#SVGID_2_);">
		<path style="fill:#E3E5E8;" d="M579.509,482.247c-9.287,5.643-17.337,9.338-25.035,11.897
			c-29.719,9.882-44.74,4.066-68.407,11.262c-20.294,6.17-31.705,17.724-41.792,26.202c-6.263,5.264-112.392,92.336-211.404,71.234
			c-58.015-12.364-106.874-60.437-115.643-69.065c-6.679-6.571-11.907-12.396-15.494-16.567c0,0-15.727-20.615-22.771-47.468
			c-11.037-42.073,5.622-111.548,50.505-151.241c3.331-2.946,12.836-10.324,27.129-17.373
			c73.657-36.331,126.308,13.372,204.191,2.99c94.564-12.606,108.51-98.085,183.319-88.085c56.029,7.49,86.164,60.514,88.757,65.239
			C669.867,348.692,636.325,447.721,579.509,482.247z"/>
		<path style="fill:none;stroke:#E3E5E8;stroke-linecap:round;stroke-linejoin:round;stroke-miterlimit:10;" d="M91.979,370.2
			c8.17-17.55,22.601-41.79,48.252-60.149c63.609-45.524,113.591,4.253,209.68-24.735c80.945-24.419,105.869-77.963,179.319-70.036
			c20.238,2.184,36.429,8.201,47.044,13.01"/>
	</g>
	<g style="clip-path:url(#SVGID_2_);">
		<polygon style="fill:#FFFFFF;" points="587.088,278.337 482.854,278.337 482.854,299.749 479.337,300.263 478.933,337.027 
			482.854,338.13 485.279,406.607 489.722,406.607 485.279,424.992 482.854,493.269 587.896,493.269 587.088,433.88 590.32,411.487 
			585.472,411.487 589.916,344.594 587.612,342.077 583.571,300.263 586.684,297.325 		"/>
		<path style="fill:none;stroke:#FFFFFF;stroke-linecap:round;stroke-linejoin:round;stroke-miterlimit:10;" d="M482.569,278.244
			c-2.123-0.198-4.246-0.396-6.368-0.594c37.067-1.731,74.067-4.87,110.896-9.41"/>
		<path style="fill:none;stroke:#FFFFFF;stroke-linecap:round;stroke-linejoin:round;stroke-miterlimit:10;" d="M484.189,277.97
			c36.881,0.401,73.776-0.578,110.584-2.932"/>
		<path style="fill:none;stroke:#FFFFFF;stroke-linecap:round;stroke-linejoin:round;stroke-miterlimit:10;" d="M494.241,277.954
			c23.905-1.404,47.811-2.809,71.716-4.213c5.704-0.335,11.426-0.672,17.042-1.724"/>
		<path style="fill:none;stroke:#1C1D22;stroke-linecap:round;stroke-linejoin:round;stroke-miterlimit:10;" d="M478.439,287.362
			c30.866-4.829,62.186-6.755,93.412-5.744"/>
		<path style="fill:none;stroke:#1C1D22;stroke-linecap:round;stroke-linejoin:round;stroke-miterlimit:10;" d="M478.121,293.409
			c28.992-1.228,57.99-2.318,86.993-3.268c6.845-0.224,13.737-0.438,20.505,0.61"/>
		<path style="fill:none;stroke:#1C1D22;stroke-linecap:round;stroke-linejoin:round;stroke-miterlimit:10;" d="M478.946,301.403
			c32.618-3.229,65.521-3.581,98.201-1.051"/>
		<path style="fill:none;stroke:#1C1D22;stroke-linecap:round;stroke-linejoin:round;stroke-miterlimit:10;" d="M481.38,306.986
			c31.348-1.551,62.765-1.717,94.128-0.496"/>
		<path style="fill:none;stroke:#1C1D22;stroke-linecap:round;stroke-linejoin:round;stroke-miterlimit:10;" d="M495.091,316.408
			c25.469-0.996,50.982-0.888,76.442,0.326c6.092,0.29,12.375,0.693,17.838,3.405"/>
		<path style="fill:none;stroke:#1C1D22;stroke-linecap:round;stroke-linejoin:round;stroke-miterlimit:10;" d="M476.125,331.033
			c35.138-1.034,70.276-2.068,105.414-3.102"/>
		<path style="fill:none;stroke:#1C1D22;stroke-linecap:round;stroke-linejoin:round;stroke-miterlimit:10;" d="M491.863,338.06
			c27.982-1.512,56.02-1.978,84.036-1.397"/>
		<path style="fill:none;stroke:#1C1D22;stroke-linecap:round;stroke-linejoin:round;stroke-miterlimit:10;" d="M490.647,344.877
			c26.352-1.872,52.769-2.825,79.188-2.855"/>
		<path style="fill:none;stroke:#1C1D22;stroke-linecap:round;stroke-linejoin:round;stroke-miterlimit:10;" d="M505.605,352.246
			c26.059-2.545,52.377-2.424,78.411,0.361"/>
		<path style="fill:none;stroke:#1C1D22;stroke-linecap:round;stroke-linejoin:round;stroke-miterlimit:10;" d="M472.914,362.273
			c43.309-2.217,86.694-2.956,130.053-2.214"/>
		<path style="fill:none;stroke:#1C1D22;stroke-linecap:round;stroke-linejoin:round;stroke-miterlimit:10;" d="M482.573,371.638
			c30.398-1.737,60.856-2.43,91.302-2.077"/>
		<path style="fill:none;stroke:#1C1D22;stroke-linecap:round;stroke-linejoin:round;stroke-miterlimit:10;" d="M484.2,375.647
			c25.854-0.883,51.746-0.64,77.578,0.728"/>
		<path style="fill:none;stroke:#1C1D22;stroke-linecap:round;stroke-linejoin:round;stroke-miterlimit:10;" d="M491.861,382.474
			c16.796-1.383,33.649-2.066,50.501-2.048"/>
		<path style="fill:none;stroke:#1C1D22;stroke-linecap:round;stroke-linejoin:round;stroke-miterlimit:10;" d="M492.668,388.006
			c33.676,0.153,67.349,0.924,100.997,2.314"/>
		<path style="fill:none;stroke:#1C1D22;stroke-linecap:round;stroke-linejoin:round;stroke-miterlimit:10;" d="M527.013,397.302
			c23.023,0.548,46.053,0.806,69.083,0.772"/>
		<path style="fill:none;stroke:#1C1D22;stroke-linecap:round;stroke-linejoin:round;stroke-miterlimit:10;" d="M539.523,402.044
			c18.563,1.289,37.155,2.158,55.757,2.605"/>
	</g>
	<g style="clip-path:url(#SVGID_2_);">
		<path style="fill:#A081B7;" d="M492.571,403.901c-11.31,22.762-22.62,45.513-33.942,68.275
			c-58.84,1.211-117.693,2.421-176.545,3.643c0.368-2.065,0.748-4.118,1.115-6.183c-6.8,4.118-13.707,8.474-20.709,13.043
			c-16.437,10.74-31.58,21.54-45.454,32.126c-20.401-10.907-40.801-21.825-61.202-32.731
			c12.949-12.174,60.509-56.69,115.333-103.402c7.212-6.145,29.838-25.018,51.366-23.541c2.25,0.154,9.465,0.873,18.239,2.382
			c4.228,0.727,13.176,2.388,24.849,5.705C380.843,367.543,428.465,382.572,492.571,403.901z"/>
		<path style="fill:none;stroke:#814D99;stroke-linecap:round;stroke-linejoin:round;stroke-miterlimit:10;" d="M350.474,383.308
			c-1.689,16.735,1.885,33.963,10.092,48.645"/>
		<path style="fill:none;stroke:#814D99;stroke-linecap:round;stroke-linejoin:round;stroke-miterlimit:10;" d="M379.679,419.013
			c-6.298,4.851-12.596,9.702-18.894,14.553"/>
		<path style="fill:none;stroke:#814D99;stroke-linecap:round;stroke-linejoin:round;stroke-miterlimit:10;" d="M378.658,419.268
			c0.596,5.192,1.191,10.383,1.787,15.574c2.985-1.323,6.683-3.329,10.468-6.383c2.26-1.824,4.116-3.669,5.617-5.362"/>
	</g>
	<path style="clip-path:url(#SVGID_2_);fill:#A081B7;" d="M451.219,390.261c27.211,7.205,59.085,17.74,93.47,33.436
		c35.085,16.016,64.421,33.589,87.986,49.736c-9.625,22.228-19.25,44.455-28.875,66.683
		c-50.718-13.636-101.436-27.273-152.154-40.909C451.504,462.892,451.362,426.576,451.219,390.261z"/>
	<g style="clip-path:url(#SVGID_2_);">
		<path style="fill:#A081B7;" d="M641.553,484.025c-6.67-13.419-21.224-18.968-52.144-25.663
			c-26.614-5.763-63.901-11.96-110.115-13.725c-25.501-1.276-63.174-3.779-109.867-9.251c-0.845,15.083-1.691,30.167-2.536,45.25
			c77.919,20.428,141.044,37.298,196.537,53.009c19.9,5.634,51.264,14.643,69.102-1.47
			C644.924,520.98,649.092,499.192,641.553,484.025z"/>
		<path style="fill:none;stroke:#814D99;stroke-linecap:round;stroke-linejoin:round;stroke-miterlimit:10;" d="M366.062,438.332
			c30.597-1.846,65.009-1.996,102.468,1.021c20.352,1.639,39.556,4.049,57.512,6.946"/>
		<path style="fill:none;stroke:#814D99;stroke-linecap:round;stroke-linejoin:round;stroke-miterlimit:10;" d="M522.191,446.165
			c22.449,5.909,44.707,12.545,66.727,19.896c-16.41-10.463-35.163-17.23-54.473-19.656c7.299,0.171,14.719,0.414,22.257,0.735
			c7.235,0.308,14.356,0.679,21.36,1.107c-2.943-0.639-5.93-1.25-8.959-1.831c-15.598-2.99-30.558-4.834-44.725-5.827"/>
	</g>
	<g style="clip-path:url(#SVGID_2_);">
		<path style="fill:#A081B7;" d="M507.39,491.208c-0.91,8.75-1.727,17.717-2.435,26.893c-0.639,8.285-1.163,16.415-1.584,24.381
			c-9.65,0.03-19.31,0.07-28.96,0.11h-1.32c-2.81,0.01-5.63,0.02-8.45,0.03c-1.58,0-3.15,0.01-4.73,0.01
			c-3.45,0.02-6.91,0.04-10.35,0.05c-1.37,0.01-2.73,0.01-4.09,0.02c-4.16,0.02-8.32,0.04-12.48,0.06c-0.06-0.01-0.11-0.01-0.16,0
			c-5.52,0.03-11.03,0.05-16.54,0.09c-3.96,0.01-7.92,0.03-11.88,0.06c-9.96,0.06-19.92,0.11-29.88,0.18
			c-0.56,0-1.12,0.01-1.68,0.01c-1.5,0-3.01,0.01-4.51,0.02c-11.6,0.08-23.21,0.17-34.81,0.26c-20.61,0.16-41.28,0.33-61.89,0.54
			c-3.68,0.03-7.34,0.07-10.97,0.1c-21.51,0.21-43.01,0.44-64.51,0.69c-21.34-6.9-36.72-26.11-37.13-47.02
			c-0.46-23.76,18.47-46.69,45.48-51.29c37.15,3.46,75.63,7.9,115.31,13.5c53.31,7.53,104.08,16.5,152.18,26.42
			c1.43,0.3,2.86,0.6,4.29,0.89c0.03,0.01,0.05,0.01,0.07,0.01c4.265,1.266,9.364,2.461,15.175,3.219
			C497.499,491.218,502.858,491.358,507.39,491.208z"/>
		<path style="fill:none;stroke:#814D99;stroke-linecap:round;stroke-linejoin:round;stroke-miterlimit:10;" d="M498.104,490.94
			c-10.767-1.839-21.533-3.679-32.3-5.518c-69.99-11.958-140.109-23.932-210.923-29.139c-1.012-0.074-2.297-0.389-2.424-1.396
			c-0.128-1.007,2.073-0.637,1.31,0.031"/>
		<path style="fill:none;stroke:#814D99;stroke-linecap:round;stroke-linejoin:round;stroke-miterlimit:10;" d="M280.834,453.307
			c14.129,8.099,28.259,16.198,42.388,24.298"/>
		<path style="fill:none;stroke:#814D99;stroke-linecap:round;stroke-linejoin:round;stroke-miterlimit:10;" d="M316.483,539.891
			c16.377-3.421,32.754-6.842,49.132-10.264"/>
		<path style="fill:none;stroke:#814D99;stroke-linecap:round;stroke-linejoin:round;stroke-miterlimit:10;" d="M326.585,535.659
			c11.995-4.731,23.991-9.461,35.986-14.192c3.52-1.388,7.041-2.777,10.493-4.324"/>
		<path style="fill:none;stroke:#814D99;stroke-linecap:round;stroke-linejoin:round;stroke-miterlimit:10;" d="M472.052,485.753
			c-0.02,0.19-0.03,0.38-0.05,0.57c0,0.05-0.01,0.11-0.01,0.16c-1.65,18.81-4.11,37.54-7.35,56.14"/>
	</g>
	<g style="clip-path:url(#SVGID_2_);">
		<path style="fill:#F59795;" d="M363.102,441.762c-10.983-3.464-24.233-6.511-39.391-7.766c-5.528-0.458-10.793-0.634-15.756-0.606
			c-14.816,5.457-24.604,12.582-30.705,17.978c-2.347,2.076-13.567,12.001-11.565,15.453c0.722,1.245,2.918,1.227,4.091,1.212
			c5.597-0.073,8.393-4.361,14.999-8.939c6.573-4.555,12.554-6.372,12.726-6.06c0.238,0.43-6.648,4.853-17.12,13.181
			c-4.962,3.945-10.454,8.55-9.518,11.762c0.125,0.429,0.502,1.303,1.337,1.873c2.087,1.424,5.195-0.306,5.454-0.454
			c-0.148,1.143,0.09,1.835,0.454,2.273c2.557,3.07,14.234-2.961,16.666-4.242c4.634-0.129,9.957-0.629,15.756-1.818
			c11.824-2.425,21.174-6.802,27.725-10.605c11.513,1.067,23.027,2.135,34.54,3.202
			C369.564,459.392,366.333,450.577,363.102,441.762z"/>
		<path style="fill:none;stroke:#E56A77;stroke-linecap:round;stroke-linejoin:round;stroke-miterlimit:10;" d="M333.24,456.855
			c-0.247-1.199-1.597-1.983-2.806-1.785s-2.185,1.214-2.546,2.384c-0.038,0.124-0.06,0.284,0.045,0.361
			c0.105,0.077,0.264-0.134,0.139-0.167"/>
		<path style="fill:none;stroke:#E56A77;stroke-linecap:round;stroke-linejoin:round;stroke-miterlimit:10;" d="M325.912,447.142
			c-0.541-1.192-1.851-1.989-3.159-1.921s-2.527,0.998-2.94,2.241c-0.05,0.151-0.089,0.305-0.128,0.459"/>
		<path style="fill:none;stroke:#E56A77;stroke-linecap:round;stroke-linejoin:round;stroke-miterlimit:10;" d="M322.537,439.538
			c-0.08-0.116-1.338-1.87-3.394-1.749c-0.448,0.027-2.071,0.21-2.804,1.646c-0.77,1.51,0.148,3.023,0.198,3.103"/>
		<path style="fill:none;stroke:#E56A77;stroke-linecap:round;stroke-linejoin:round;stroke-miterlimit:10;" d="M309.552,435.63
			c0.103-0.195,1.257-2.293,3.73-2.602c2.74-0.343,4.459,1.841,4.529,1.933"/>
		<path style="fill:none;stroke:#E56A77;stroke-linecap:round;stroke-linejoin:round;stroke-miterlimit:10;" d="M308.414,444.978
			c-4.933,3.815-9.867,7.63-14.8,11.445"/>
		<path style="fill:none;stroke:#E56A77;stroke-linecap:round;stroke-linejoin:round;stroke-miterlimit:10;" d="M277.928,478.92
			c7.514-5.5,15.028-10.999,22.542-16.499c4.868-3.563,9.833-7.178,15.539-9.138"/>
		<path style="fill:none;stroke:#E56A77;stroke-linecap:round;stroke-linejoin:round;stroke-miterlimit:10;" d="M295.679,476.474
			c7.317-6.139,15.995-10.647,25.225-13.103"/>
		<path style="fill:#E56A77;" d="M363.102,441.762c0.524,1.315,4.209,10.933-0.758,17.03c-1.506,1.849-3.286,2.734-5.151,3.636
			c-2.893,1.4-8.953,3.713-17.927,2.669c11.177,1.036,22.353,2.072,33.53,3.108C369.564,459.392,366.333,450.577,363.102,441.762z"
			/>
		<path style="fill:#EBC6BA;" d="M274.074,461.074c0.576,0.988-0.849,2.823-1.963,3.744c-1.522,1.26-4.025,2.107-4.766,1.277
			c-0.806-0.904,0.358-3.92,2.551-5.082C271.348,460.242,273.529,460.137,274.074,461.074z"/>
		<path style="fill:#EBC6BA;" d="M277.554,472.115c-1.091-0.69-3.905,1.015-4.762,3.36c-0.088,0.241-0.704,1.927,0,2.553
			c0.89,0.791,3.796-0.194,4.851-2.298C278.264,474.493,278.366,472.628,277.554,472.115z"/>
		<path style="fill:#EBC6BA;" d="M284.452,477.347c-0.787-0.732-3.36,0.189-4.085,1.872c-0.095,0.221-0.385,0.895-0.085,1.362
			c0.508,0.791,2.58,0.79,3.66-0.34C284.754,479.391,285.026,477.881,284.452,477.347z"/>
	</g>
	<g style="clip-path:url(#SVGID_2_);">
		<path style="fill:#1C1D22;" d="M407.6,310.779c5.897-2.28,11.502-4.532,15.515-10.273c7.149-10.226,4.8-25.162-0.931-34.19
			c-11.649-18.35-45.959-25.983-63.076-7.379c-13.004,14.134-12.638,39.665,0.849,51.688
			C374.49,323.58,397.388,314.727,407.6,310.779z"/>
		<path style="fill:none;stroke:#1C1D22;stroke-linecap:round;stroke-linejoin:round;stroke-miterlimit:10;" d="M414.283,306.85
			c8.438-4.278,15.504-11.819,17.771-21.004c2.267-9.185-0.97-19.865-8.817-25.151c-7.512-5.061-18.467-4.211-25.108,1.948"/>
		<path style="fill:none;stroke:#1C1D22;stroke-linecap:round;stroke-linejoin:round;stroke-miterlimit:10;" d="M383.224,319.18
			c-5.695,2.621-12.562,1.029-17.928-2.213c-10.615-6.414-16.899-19.341-15.385-31.651c0.854-6.944,3.941-13.44,7.721-19.327
			c2.867-4.466,6.261-8.756,10.801-11.505c3.677-2.227,7.913-3.327,12.107-4.269c5.165-1.16,10.462-2.129,15.73-1.605
			c8.163,0.812,15.873,5.394,20.487,12.176s6.045,15.636,3.803,23.527"/>
	</g>
	<g style="clip-path:url(#SVGID_2_);">
		<path style="fill:#F59795;" d="M437.068,380.824c-2.76,14.212-12.018,44.677-27.163,45.22c-2.878,0.094-8.61-0.79-15.887-9.896
			c-2.241,2.264-4.482,4.529-6.723,6.794c-2.347-1.215-6.015-3.338-9.943-6.746c-2.949-2.559-6.039-5.838-8.81-9.978
			c-5.65-8.433-7.407-16.571-8.044-21.041c5.85-46.576,25.936-76.286,43.498-75.968c13.575,0.248,25.794,18.399,30.654,29.333
			C442.045,355.159,439.155,370.079,437.068,380.824z"/>
		<path style="fill:#F59795;" d="M370.007,357.159c-1.849-6.518-5.684-11.707-10.121-12.203
			c-6.999-0.783-15.306,10.134-13.156,19.831c1.625,7.33,9.02,13.036,17.969,13.138
			C366.469,371.003,368.238,364.081,370.007,357.159z"/>
		<path style="fill:#F59795;" d="M437.419,364.008c0.701-0.635,7.013-6.22,12.108-4.275c6.032,2.303,7.957,14.246,2.841,21.479
			c-3.868,5.469-11.492,7.864-19.014,5.882C434.71,379.399,436.065,371.703,437.419,364.008z"/>
		<path style="fill:#1C1D22;" d="M398.872,306.611c10.837-2.787,20.355,1.013,23.612,2.369
			c24.365,10.139,29.326,39.246,29.747,41.975c-8.027,0.898-16.952,1.495-26.643,1.523c-11.102,0.031-21.231-0.693-30.195-1.776
			c-2.093-5.427-4.187-10.854-6.28-16.281c-0.333,1.522-2.471,10.59-11.025,15.184c-4.179,2.245-8.184,2.506-10.433,2.466
			C369.702,329.104,382.275,310.879,398.872,306.611z"/>
		<path style="fill:#E56A77;" d="M394.018,416.148c-2.241,2.265-4.482,4.529-6.723,6.794c-2.347-1.215-6.015-3.338-9.943-6.746
			c0.52-8.423,1.04-16.845,1.561-25.268c2.162,5.072,5.049,10.778,8.936,16.723C389.898,410.784,391.981,413.612,394.018,416.148z"
			/>
		<path style="fill:none;stroke:#E56A77;stroke-linecap:round;stroke-linejoin:round;stroke-miterlimit:10;" d="M355.235,350.782
			c3.057-0.099,5.662,2.423,6.849,5.242c0.725,1.72,1.44,4.362,0.961,6.236c-0.423,1.653-2.36,2.721-2.232,4.622
			c0.068,1.008,0.746,1.851,1.282,2.707s0.95,1.959,0.473,2.849"/>
		<path style="fill:none;stroke:#E56A77;stroke-linecap:round;stroke-linejoin:round;stroke-miterlimit:10;" d="M359.671,353.861
			c-1.975,1.01-3.537,2.802-4.267,4.897s-0.622,4.469,0.296,6.489"/>
		<path style="fill:none;stroke:#E56A77;stroke-linecap:round;stroke-linejoin:round;stroke-miterlimit:10;" d="M438.769,383.012
			c1.093-0.321,1.907-1.214,2.662-2.069c0.444-0.503,0.896-1.018,1.157-1.637c0.261-0.618,0.302-1.37-0.063-1.934
			c-0.249-0.385-0.656-0.643-0.933-1.008c-1.376-1.814,0.755-5.521,1.862-7.006c1.465-1.966,3.959-3.372,6.35-2.83"/>
		<path style="fill:none;stroke:#E56A77;stroke-linecap:round;stroke-linejoin:round;stroke-miterlimit:10;" d="M444.286,368.679
			c1.569,0.148,2.871,1.402,3.469,2.86s0.603,3.088,0.461,4.657"/>
		<path style="fill:none;stroke:#1C1D22;stroke-linecap:round;stroke-linejoin:round;stroke-miterlimit:10;" d="M428.441,365.962
			c2.984-0.54,6.162,0.081,8.723,1.705"/>
		<path style="fill:none;stroke:#1C1D22;stroke-linecap:round;stroke-linejoin:round;stroke-miterlimit:10;" d="M413.016,402.921
			c0.243,0.226,2.059,1.857,4.622,1.488c1.919-0.276,3.07-1.503,3.383-1.861"/>
		<path style="fill:none;stroke:#1C1D22;stroke-linecap:round;stroke-linejoin:round;stroke-miterlimit:10;" d="M411.084,305.136
			c16.167,3.95,32.173,12.573,40.158,27.175"/>
		<path style="fill:none;stroke:#1C1D22;stroke-linecap:round;stroke-linejoin:round;stroke-miterlimit:10;" d="M409.631,362.578
			c-0.847-0.567-2.364-1.42-4.44-1.776c-2.633-0.451-4.755,0.14-5.766,0.496"/>
		<path style="fill:#FFFFFF;" d="M410.457,376.382c-0.483,1.481-4.443,1.586-8.056,1.071c-0.956-0.126-1.87-0.294-2.71-0.504
			c-0.063-0.011-0.126-0.032-0.189-0.053c-0.914-0.231-2.048-0.578-3.183-0.998c-2.363-0.893-4.664-2.143-4.569-3.414
			c0.137-1.807,5.157-3.498,9.516-2.826c0.809,0.116,1.597,0.326,2.363,0.599c1.029,0.357,2.006,0.819,2.878,1.334
			C409.123,373.157,410.856,375.216,410.457,376.382z"/>
		<path style="fill:#FFFFFF;" d="M438.332,379.884c-0.387,1.601-4.212,1.977-7.286,1.655c-0.322-0.022-0.645-0.075-0.946-0.129
			c-0.709-0.118-1.462-0.312-2.214-0.548c-2.858-0.892-5.588-2.504-5.448-3.987c0.172-1.762,4.492-3.267,8.146-2.751
			c0.527,0.075,1.042,0.204,1.569,0.355c1.365,0.408,2.644,1.064,3.675,1.805C437.505,377.498,438.558,378.917,438.332,379.884z"/>
		<path style="fill:#1C1D22;" d="M438.332,379.884c-0.387,1.601-4.212,1.977-7.286,1.655c-0.322-0.022-0.645-0.075-0.946-0.129
			c-0.709-0.118-1.462-0.312-2.214-0.548c0.376-2.826,2.794-5.008,5.728-5.008c0.784,0,1.537,0.15,2.214,0.43
			C437.505,377.498,438.558,378.917,438.332,379.884z"/>
		<path style="fill:#1C1D22;" d="M410.457,376.382c-0.483,1.481-4.443,1.586-8.056,1.071c-0.956-0.126-1.87-0.294-2.71-0.504
			c-0.063-0.011-0.126-0.032-0.189-0.053c0.095-3.046,2.584-5.472,5.651-5.472c0.473,0,0.924,0.052,1.355,0.168
			C409.123,373.157,410.856,375.216,410.457,376.382z"/>
		<polygon style="fill:#E56A77;" points="421.681,370.75 423.523,396.784 410.514,393.826 		"/>
	</g>
	<g style="clip-path:url(#SVGID_2_);">
		<g>
			<path style="fill:#F59795;" d="M564.264,485.329c15.884,4.358,30.507,13.015,41.867,24.795c3.844,4.13-1.719,10.127-6.119,6.617
				c-11.22-9.371-24.797-15.504-38.791-17.747C551.583,496.965,554.653,483.082,564.264,485.329L564.264,485.329z"/>
			<path style="fill:#EBC6BA;" d="M603.054,513.418c0.967-1.155-0.319-4.337-2.582-5.677c-1.514-0.896-3.903-1.227-4.699-0.177
				c-0.89,1.174,0.414,3.812,2.194,5.127C599.583,513.884,602.2,514.438,603.054,513.418z"/>
		</g>
		<path style="fill:#F59795;" d="M501.616,493.781c8.922-4.299,24.17-10.121,43.648-10.25c6.046-0.04,11.582,0.475,16.501,1.264
			c5.522,0.887,9.824,5.305,10.493,10.857c0.81,6.72,0.828,14.946-1.385,23.9c-0.934,3.777-2.135,7.164-3.425,10.146
			c-1.736,6.015-6.703,10.539-12.778,11.634c-8.957,1.614-15.012-5.182-15.282-5.497c-6.441,2.029-12.883,4.057-19.325,6.086
			c-3.469-2.595-11.426-9.274-16.044-21.037C499.234,508.692,500.774,498.012,501.616,493.781z"/>
		<path style="fill:none;stroke:#E56A77;stroke-linecap:round;stroke-linejoin:round;stroke-miterlimit:10;" d="M537.708,491.079
			c0.994-1.459,2.879-2.254,4.618-1.947c1.739,0.307,3.237,1.699,3.672,3.411"/>
		<path style="fill:none;stroke:#E56A77;stroke-linecap:round;stroke-linejoin:round;stroke-miterlimit:10;" d="M541.113,504.206
			c-0.354,0.039-0.285-0.546-0.068-0.828c0.696-0.906,1.467-1.865,2.565-2.183c1.227-0.355,2.571,0.215,3.478,1.114
			c0.907,0.899,1.464,2.083,2.002,3.241"/>
		<path style="fill:none;stroke:#E56A77;stroke-linecap:round;stroke-linejoin:round;stroke-miterlimit:10;" d="M541.178,514.271
			c1.093-0.325,1.806-1.427,2.883-1.803c1.127-0.394,2.412,0.122,3.255,0.968c0.844,0.845,1.338,1.968,1.814,3.063"/>
		<path style="fill:none;stroke:#E56A77;stroke-linecap:round;stroke-linejoin:round;stroke-miterlimit:10;" d="M556.807,496.821
			c5.34,1.787,10.681,3.574,16.021,5.362"/>
		<path style="fill:none;stroke:#E56A77;stroke-linecap:round;stroke-linejoin:round;stroke-miterlimit:10;" d="M554.462,508.437
			c5.722,1.086,11.347,2.68,16.789,4.756"/>
		<path style="fill:none;stroke:#E56A77;stroke-linecap:round;stroke-linejoin:round;stroke-miterlimit:10;" d="M554.456,516.697
			c3.624,2.583,7.248,5.166,10.873,7.749c0.166,0.119,0.354,0.301,0.282,0.492c-0.073,0.191-0.445-0.047-0.257-0.126"/>
		<path style="fill:none;stroke:#E56A77;stroke-linecap:round;stroke-linejoin:round;stroke-miterlimit:10;" d="M545.117,527.5
			c1.043,0.624,2.086,1.248,3.13,1.872c0.24,0.143,0.504,0.292,0.781,0.254c0.344-0.048,0.578-0.364,0.771-0.654
			c0.784-1.176,1.567-2.352,2.351-3.528c-0.515,1.672-1.356,3.244-2.46,4.601c2.45,1.014,4.742,2.406,6.772,4.112"/>
		<path style="fill:none;stroke:#E56A77;stroke-linecap:round;stroke-linejoin:round;stroke-miterlimit:10;" d="M537.595,536.711
			c5.249-1.533,10.41-3.368,15.45-5.492"/>
		<path style="fill:#E56A77;" d="M501.616,493.781c0.082,5.398,1.029,25.02,15.935,38.338c3.666,3.276,7.482,5.549,10.95,7.146
			c-1.907,0.882-4.788,2.011-8.438,2.657c-2.602,0.461-4.842,0.496-9.214,0.546c-2.433,0.028-5.719,0.019-9.638-0.137
			C501.346,526.148,501.481,509.965,501.616,493.781z"/>
	</g>
	<g style="clip-path:url(#SVGID_2_);">
		<path style="fill:#1C1D22;" d="M597.235,531.542h26.059v-3.03c0-7.196-5.833-13.029-13.029-13.029l0,0
			c-7.196,0-13.029,5.833-13.029,13.029V531.542z"/>
		<circle style="fill:#1C1D22;" cx="598.22" cy="537.981" r="4.015"/>
		<circle style="fill:#1C1D22;" cx="623.975" cy="537.981" r="4.015"/>
		<path style="fill:#1C1D22;" d="M592.955,536.542h36.891c2.74,0,4.962-2.221,4.962-4.962v0c0-2.74-2.221-4.962-4.962-4.962h-36.891
			c-2.74,0-4.962,2.221-4.962,4.962v0C587.993,534.32,590.215,536.542,592.955,536.542z"/>
	</g>
	<g style="clip-path:url(#SVGID_2_);">
		<path style="fill:none;stroke:#FFFFFF;stroke-linecap:round;stroke-linejoin:round;stroke-miterlimit:10;" d="M151.974,326.329
			c32.248,4.479,65.421,2.177,96.741-6.713"/>
		<path style="fill:none;stroke:#FFFFFF;stroke-linecap:round;stroke-linejoin:round;stroke-miterlimit:10;" d="M154.374,326.815
			c28.184-0.629,56.28-5.054,83.293-13.118"/>
		<g>
			<polygon style="fill:#FFFFFF;" points="153.964,543.116 258.198,543.116 258.198,521.704 251.33,521.704 251.734,484.939 
				258.198,483.323 255.773,414.846 251.33,414.846 255.773,396.461 258.198,328.184 153.156,328.184 153.964,387.573 
				150.732,409.966 155.58,409.966 151.136,476.859 148.712,477.263 145.884,522.108 154.368,524.128 			"/>
			<polygon style="fill:#1C1D22;" points="167.297,370.508 155.984,368.084 159.62,358.387 152.348,355.155 147.5,367.68 
				141.036,365.23 94.979,542.413 110.331,544.231 115.987,538.979 120.028,544.231 131.138,545.847 			"/>
			<g>
				<path style="fill:none;stroke:#1C1D22;stroke-linecap:round;stroke-linejoin:round;stroke-miterlimit:10;" d="M152.332,336.257
					c33.021,1.18,66.021,2.943,98.979,5.287"/>
				<path style="fill:none;stroke:#1C1D22;stroke-linecap:round;stroke-linejoin:round;stroke-miterlimit:10;" d="M153.144,344.496
					c32.047,0.435,64.095,0.87,96.142,1.305"/>
				<path style="fill:none;stroke:#1C1D22;stroke-linecap:round;stroke-linejoin:round;stroke-miterlimit:10;" d="M162.458,354.82
					c24.469-0.34,48.937-0.68,73.406-1.02c0.586-0.008,1.333-0.141,1.452-0.714"/>
				<path style="fill:none;stroke:#1C1D22;stroke-linecap:round;stroke-linejoin:round;stroke-miterlimit:10;" d="M158.407,364.011
					c34.332-1.704,68.765-1.344,103.054,1.077"/>
				<path style="fill:none;stroke:#1C1D22;stroke-linecap:round;stroke-linejoin:round;stroke-miterlimit:10;" d="M145.507,383.966
					c36.463-3.33,73.136-4.362,109.729-3.088"/>
				<path style="fill:none;stroke:#1C1D22;stroke-linecap:round;stroke-linejoin:round;stroke-miterlimit:10;" d="M164.871,391.742
					c26.601-2.64,53.441-2.866,80.083-0.674"/>
				<path style="fill:none;stroke:#1C1D22;stroke-linecap:round;stroke-linejoin:round;stroke-miterlimit:10;" d="M160.821,410.655
					c27.569-1.726,55.194-2.562,82.817-2.507"/>
				<path style="fill:none;stroke:#1C1D22;stroke-linecap:round;stroke-linejoin:round;stroke-miterlimit:10;" d="M151.524,424.111
					c26.665,0.121,53.329,0.241,79.994,0.362"/>
				<path style="fill:none;stroke:#1C1D22;stroke-linecap:round;stroke-linejoin:round;stroke-miterlimit:10;" d="M154.004,438.33
					c30.392-2.484,61.029-1.946,91.315,1.602"/>
				<path style="fill:none;stroke:#1C1D22;stroke-linecap:round;stroke-linejoin:round;stroke-miterlimit:10;" d="M160.824,451.838
					c24.984-3.835,50.266-5.732,75.543-5.667"/>
				<path style="fill:none;stroke:#1C1D22;stroke-linecap:round;stroke-linejoin:round;stroke-miterlimit:10;" d="M154.797,462.614
					c30.12-1.672,60.327-1.767,90.456-0.284"/>
				<path style="fill:none;stroke:#1C1D22;stroke-linecap:round;stroke-linejoin:round;stroke-miterlimit:10;" d="M157.17,473.898
					c26.451-2.562,53.175-2.297,79.57,0.789"/>
				<path style="fill:none;stroke:#1C1D22;stroke-linecap:round;stroke-linejoin:round;stroke-miterlimit:10;" d="M141.033,481.164
					c31.673-0.572,63.377,0.538,94.932,3.326"/>
				<path style="fill:none;stroke:#1C1D22;stroke-linecap:round;stroke-linejoin:round;stroke-miterlimit:10;" d="M147.556,494.144
					c32.743-3.149,65.757-3.465,98.554-0.946"/>
				<path style="fill:none;stroke:#1C1D22;stroke-linecap:round;stroke-linejoin:round;stroke-miterlimit:10;" d="M145.882,507.688
					c16.228-2.041,32.585-2.917,48.938-3.233c16.802-0.325,33.615-0.06,50.398,0.794"/>
				<path style="fill:none;stroke:#1C1D22;stroke-linecap:round;stroke-linejoin:round;stroke-miterlimit:10;" d="M147.49,519.121
					c25.299-0.523,50.598-1.046,75.896-1.569c3.581-0.074,7.271-0.13,10.605,1.177"/>
				<path style="fill:none;stroke:#1C1D22;stroke-linecap:round;stroke-linejoin:round;stroke-miterlimit:10;" d="M145.068,529.827
					c27.855-3.536,56.041-4.465,84.068-2.773"/>
				<path style="fill:none;stroke:#1C1D22;stroke-linecap:round;stroke-linejoin:round;stroke-miterlimit:10;" d="M148.314,538.14
					c32.648-2.438,65.411-3.341,98.144-2.705"/>
			</g>
			<path style="fill:none;stroke:#E3E5E8;stroke-linecap:round;stroke-linejoin:round;stroke-miterlimit:10;" d="M148.032,361.748
				c-1.299,5.046-2.703,10.065-4.107,15.082c-6.399,22.866-12.797,45.732-19.196,68.598c-9.213,32.925-18.429,65.858-28.818,98.43"
				/>
			<path style="fill:none;stroke:#E3E5E8;stroke-linecap:round;stroke-linejoin:round;stroke-miterlimit:10;" d="M158.141,364.599
				c-12.928,47.306-24.705,94.928-35.315,142.807c-2.537,11.447-5.039,23.007-9.85,33.699"/>
		</g>
	</g>
</g>
<path style="fill:none;stroke:#1C1D22;stroke-linecap:round;stroke-linejoin:round;stroke-miterlimit:10;" d="M637.612,542.343
	c-5.37-0.02-10.74-0.02-16.11-0.02c-19.55-0.01-39.11,0-58.68,0.03c-6.97,0.01-13.95,0.02-20.94,0.03
	c-5.18,0.02-10.37,0.03-15.57,0.04c-2.4,0.01-4.8,0.01-7.21,0.02c-4.98,0.02-9.97,0.03-14.95,0.04c-0.26,0-0.52,0-0.78,0
	c-9.65,0.03-19.31,0.07-28.96,0.11c-0.43,0-0.87,0-1.32,0c-2.81,0.01-5.63,0.02-8.45,0.03c-1.58,0-3.15,0.01-4.73,0.01
	c-3.45,0.02-6.91,0.04-10.35,0.05c-1.37,0.01-2.73,0.01-4.09,0.02c-4.16,0.02-8.32,0.04-12.48,0.06c-0.06-0.01-0.11-0.01-0.16,0
	c-5.52,0.03-11.03,0.05-16.54,0.09c-3.96,0.01-7.92,0.03-11.88,0.06c-9.96,0.06-19.92,0.11-29.88,0.18c-0.56,0-1.12,0.01-1.68,0.01
	c-1.5,0-3.01,0.01-4.51,0.02c-11.6,0.08-23.21,0.17-34.81,0.26c-20.61,0.16-41.28,0.33-61.89,0.54c-3.68,0.03-7.34,0.07-10.97,0.1
	c-21.51,0.21-43.01,0.44-64.51,0.69c-21.54,0.25-43.07,0.52-64.6,0.81c-14.8,0.2-29.6,0.41-44.4,0.63
	c-0.73,0.01-1.45,0.02-2.17,0.03c-10.25,0.14-20.51,0.3-30.77,0.45"/>
<g>
	<rect x="32.738" y="82.882" style="fill:none;" width="206.609" height="48.896"/>
	<path d="M36.194,83.414c0.503-0.084,1.163-0.156,2.003-0.156c1.031,0,1.786,0.24,2.267,0.672c0.443,0.384,0.707,0.972,0.707,1.69
		c0,0.732-0.216,1.308-0.623,1.728c-0.552,0.588-1.451,0.888-2.471,0.888c-0.313,0-0.6-0.013-0.84-0.072v3.238h-1.043V83.414z
		 M37.237,87.312c0.228,0.061,0.516,0.084,0.863,0.084c1.26,0,2.027-0.611,2.027-1.727c0-1.067-0.756-1.584-1.907-1.584
		c-0.456,0-0.804,0.036-0.983,0.084V87.312z"/>
	<path d="M45.122,83.426c0.527-0.108,1.283-0.168,2.003-0.168c1.115,0,1.835,0.204,2.338,0.659c0.408,0.36,0.636,0.912,0.636,1.535
		c0,1.068-0.671,1.775-1.522,2.063v0.036c0.623,0.216,0.995,0.791,1.187,1.631c0.265,1.127,0.456,1.907,0.624,2.219h-1.079
		c-0.132-0.228-0.313-0.924-0.54-1.931c-0.24-1.115-0.672-1.535-1.619-1.571h-0.983v3.502h-1.043V83.426z M46.165,87.107h1.067
		c1.115,0,1.823-0.611,1.823-1.535c0-1.043-0.756-1.499-1.859-1.511c-0.504,0-0.863,0.048-1.031,0.096V87.107z"/>
	<path d="M61.03,87.275c0,2.782-1.691,4.258-3.754,4.258c-2.135,0-3.635-1.655-3.635-4.102c0-2.566,1.596-4.246,3.754-4.246
		C59.603,83.186,61.03,84.877,61.03,87.275z M54.758,87.407c0,1.728,0.935,3.274,2.578,3.274c1.655,0,2.591-1.523,2.591-3.358
		c0-1.606-0.84-3.286-2.579-3.286C55.621,84.037,54.758,85.633,54.758,87.407z"/>
	<path d="M70.583,91.138c-0.384,0.191-1.151,0.384-2.135,0.384c-2.279,0-3.994-1.439-3.994-4.09c0-2.53,1.715-4.246,4.222-4.246
		c1.007,0,1.643,0.216,1.919,0.36l-0.252,0.852c-0.396-0.192-0.96-0.336-1.631-0.336c-1.896,0-3.154,1.211-3.154,3.334
		c0,1.979,1.139,3.25,3.106,3.25c0.635,0,1.283-0.132,1.703-0.336L70.583,91.138z"/>
	<path d="M74.438,83.426c0.527-0.108,1.283-0.168,2.003-0.168c1.115,0,1.835,0.204,2.339,0.659c0.407,0.36,0.636,0.912,0.636,1.535
		c0,1.068-0.672,1.775-1.523,2.063v0.036c0.624,0.216,0.995,0.791,1.188,1.631c0.264,1.127,0.456,1.907,0.624,2.219h-1.08
		c-0.132-0.228-0.312-0.924-0.539-1.931c-0.24-1.115-0.672-1.535-1.619-1.571h-0.983v3.502h-1.044V83.426z M75.481,87.107h1.067
		c1.115,0,1.822-0.611,1.822-1.535c0-1.043-0.755-1.499-1.858-1.511c-0.504,0-0.863,0.048-1.031,0.096V87.107z"/>
	<path d="M84.745,88.858l-0.84,2.543h-1.079l2.746-8.084h1.26l2.758,8.084h-1.115l-0.863-2.543H84.745z M87.396,88.043l-0.792-2.326
		c-0.18-0.528-0.3-1.008-0.419-1.476H86.16c-0.12,0.479-0.252,0.972-0.408,1.463l-0.791,2.339H87.396z"/>
	<path d="M93.182,90.13c0.468,0.288,1.151,0.528,1.871,0.528c1.067,0,1.691-0.564,1.691-1.38c0-0.756-0.432-1.188-1.523-1.606
		c-1.319-0.468-2.135-1.151-2.135-2.291c0-1.26,1.043-2.195,2.614-2.195c0.828,0,1.428,0.192,1.787,0.396l-0.288,0.852
		c-0.264-0.145-0.803-0.384-1.535-0.384c-1.103,0-1.522,0.659-1.522,1.211c0,0.756,0.491,1.127,1.606,1.56
		c1.367,0.527,2.063,1.187,2.063,2.374c0,1.248-0.924,2.327-2.831,2.327c-0.779,0-1.631-0.229-2.063-0.516L93.182,90.13z"/>
	<path d="M102.829,84.205h-2.459v-0.888h5.985v0.888h-2.471v7.196h-1.056V84.205z"/>
	<path d="M110.846,83.317v8.084h-1.044v-8.084H110.846z"/>
	<path d="M115.214,91.401v-8.084h1.14l2.591,4.09c0.6,0.948,1.067,1.8,1.451,2.627l0.023-0.012c-0.096-1.08-0.12-2.063-0.12-3.322
		v-3.383h0.983v8.084h-1.055L117.66,87.3c-0.563-0.899-1.103-1.823-1.511-2.698l-0.036,0.012c0.061,1.02,0.084,1.991,0.084,3.334
		v3.454H115.214z"/>
	<path d="M126.961,88.858l-0.839,2.543h-1.08l2.747-8.084h1.259l2.759,8.084h-1.115l-0.864-2.543H126.961z M129.611,88.043
		l-0.791-2.326c-0.18-0.528-0.3-1.008-0.42-1.476h-0.024c-0.119,0.479-0.251,0.972-0.407,1.463l-0.792,2.339H129.611z"/>
	<path d="M133.609,84.205h-2.459v-0.888h5.984v0.888h-2.471v7.196h-1.055V84.205z"/>
	<path d="M141.625,83.317v8.084h-1.043v-8.084H141.625z"/>
	<path d="M152.902,87.275c0,2.782-1.691,4.258-3.754,4.258c-2.135,0-3.635-1.655-3.635-4.102c0-2.566,1.596-4.246,3.754-4.246
		C151.475,83.186,152.902,84.877,152.902,87.275z M146.63,87.407c0,1.728,0.935,3.274,2.578,3.274c1.655,0,2.591-1.523,2.591-3.358
		c0-1.606-0.84-3.286-2.579-3.286C147.493,84.037,146.63,85.633,146.63,87.407z"/>
	<path d="M156.807,91.401v-8.084h1.139l2.591,4.09c0.6,0.948,1.067,1.8,1.451,2.627l0.024-0.012c-0.097-1.08-0.12-2.063-0.12-3.322
		v-3.383h0.983v8.084h-1.056l-2.566-4.102c-0.563-0.899-1.104-1.823-1.511-2.698l-0.036,0.012c0.06,1.02,0.084,1.991,0.084,3.334
		v3.454H156.807z"/>
</g>
<g>
</g>
<g>
</g>
<g>
</g>
<g>
</g>
<g>
</g>
<g>
</g>
<g>
</g>
<g>
</g>
<g>
</g>
<g>
</g>
<g>
</g>
<g>
</g>
<g>
</g>
<g>
</g>
<g>
</g>
</svg>
