<?xml version="1.0" encoding="iso-8859-1"?>
<!-- Generator: Adobe Illustrator 24.0.1, SVG Export Plug-In . SVG Version: 6.00 Build 0)  -->
<svg version="1.1" id="Layer_1" xmlns="http://www.w3.org/2000/svg" xmlns:xlink="http://www.w3.org/1999/xlink" x="0px" y="0px"
	 viewBox="0 0 700 700" style="enable-background:new 0 0 700 700;" xml:space="preserve">
<g>
	<path style="fill:none;stroke:#ECEDEB;stroke-linecap:round;stroke-linejoin:round;stroke-miterlimit:10;" d="M492.769,330.797
		c6.886-5.261,36.357-26.554,77.319-22.468c43.563,4.346,69.122,34.303,77.106,44.936c28.058,37.362,30.333,90.746,7.053,137.471"/>
	<path style="fill:none;stroke:#ECEDEB;stroke-linecap:round;stroke-linejoin:round;stroke-miterlimit:10;" d="M64.456,243.491
		c7.257-23.161,24.096-65.256,63.421-101.119c53.507-48.796,144.662-82.422,232.851-45.957
		c72.207,29.856,122.529,98.474,131.745,178.213"/>
	<path style="fill:#ECEDEB;" d="M642.494,524.29c-2.51,5.26-5.33,10.34-8.44,15.24c-7.81,12.35-17.41,23.57-28.42,33.69
		c-2.28,2.1-4.62,4.15-7.01,6.15c-15.98,13.35-34.47,24.61-54.44,33.85c-15.78,7.3-32.49,13.34-49.6,18.14
		c-15.47,4.36-31.27,7.7-47.03,10.06c-83.87,12.59-166.59-2.51-191.42-41.51c-19.36-30.41-8.52-83.22,17.8-111.84
		c34.88-37.94,76.4-11.02,127.72-48.29c52.91-38.43,35.94-86.78,84.52-112.48c40.29-21.32,98.63-12.73,134.08,18.43
		C671.213,390.53,666.293,474.48,642.494,524.29z"/>
	<path style="fill:#ECEDEB;" d="M466.94,272.074c-10.956,45.225-47.549,90.863-92.425,98.043
		c-44.306,7.089-48.511-31.018-102.127-30.128c-44.19,0.734-143.03,28.1-150.384,25.621c-2.78-0.937-5.66-2.09-5.66-2.09
		c-10.31-4.12-45.07-17.81-57.83-48.29c-23.18-55.38,38.23-137.43,99.13-176.66c82.113-52.895,215.734-64.209,278.33,8.26
		C462.124,177.105,478.374,224.871,466.94,272.074z"/>
</g>
<g>
	<path style="fill:#A081B7;" d="M285.773,219.28c-9.11,47.58-18.21,95.14-27.32,142.7c-66.03-4.13-92.57,18.52-136.45,3.63
		c13.18-60.14,26.36-120.28,39.54-180.44c2.8-12.73,15-21.17,27.88-19.15c3.82,0.6,7.76,1.29,11.82,2.11
		c9.64,1.92,19.95,4.5,30.74,7.93c8.31,2.65,16.09,5.55,23.31,8.56c6.11,2.56,11.83,5.19,17.14,7.83
		C282.393,197.4,287.864,208.36,285.773,219.28z"/>
	<path style="fill:#F59795;" d="M255.293,184.62c-1.63,5.15-4.49,12.18-9.69,19.47c-0.26,0.36-0.52,0.73-0.79,1.09
		c-7.61,10.26-16.36,16.13-21.7,19.15c-4.16-3.2-15.08-12.48-20.17-28.85c-3.53-11.34-2.771-21.29-1.7-27.35
		c9.64,1.92,19.95,4.5,30.74,7.93c5.7,1.82,11.14,3.75,16.33,5.76C250.694,182.74,253.023,183.67,255.293,184.62z"/>
	<path style="fill:none;stroke:#E56A77;stroke-linecap:round;stroke-linejoin:round;stroke-miterlimit:10;" d="M206.631,178.196
		c5.483,3.704,11.312,6.895,17.387,9.517"/>
	<path style="fill:none;stroke:#E56A77;stroke-linecap:round;stroke-linejoin:round;stroke-miterlimit:10;" d="M231.537,191.369
		c2.983,0.147,5.978,0.048,8.945-0.297c-0.152-0.098-0.305-0.197-0.457-0.295"/>
	<path style="fill:#814D99;" d="M184.356,343.77c-7.889,4.485-15.832,8.861-23.899,13.086c-0.16-18.187,0.586-37.795,2.186-57.486
		c2.167,7.507,5.134,15.452,9.222,23.643C175.702,330.738,179.985,337.658,184.356,343.77z"/>
	<path style="fill:#814D99;" d="M245.534,295.47c-3.42,1.3-6.84,2.61-10.26,3.9c1.67-6.29,5.26-18.46,6.35-22.13
		c0.2-0.69,0.42-1.39,0.8-1.99c0.75-1.18,2.03-1.87,3.09-2.77c0.54-0.46,1.02-0.97,1.44-1.52c0.2,1.62,0.36,3.33,0.46,5.11
		C247.824,284.09,246.694,290.78,245.534,295.47z"/>
	<path style="fill:none;stroke:#1C1D22;stroke-linecap:round;stroke-linejoin:round;stroke-miterlimit:10;" d="M245.504,249.92
		c1.08,2.39,2.16,4.8,2.91,7.3c0.41,1.37,0.71,2.77,0.86,4.2c0.35,3.33-0.34,6.91-2.32,9.54c-0.42,0.55-0.9,1.06-1.44,1.52
		c-1.06,0.9-2.34,1.59-3.09,2.77c-0.38,0.6-0.6,1.3-0.8,1.99c-1.09,3.67-4.68,15.84-6.35,22.13v0.01c-0.29,1.13-0.52,2.05-0.67,2.72
		"/>
</g>
<path style="fill:none;stroke:#ECEDEB;stroke-linecap:round;stroke-linejoin:round;stroke-miterlimit:10;" d="M248.101,542.24
	c5.905-26.686,18.578-61.998,49.308-81.485c27.971-17.738,51.339-9.96,88.085-21.447c25.702-8.035,60.578-26.316,95.745-72.766"/>
<path style="fill:#F59795;" d="M329.727,247.725c4.211-2.819,10.122-6.144,17.655-8.636c9.667-3.198,18.187-3.759,23.991-3.675
	c-0.815,4.055-1.629,8.11-2.443,12.165C355.862,247.627,342.795,247.676,329.727,247.725z"/>
<g>
	<path style="fill:#F59795;" d="M471.554,336.67c-1.91,4.82-3.81,9.64-5.72,14.46c-11.86-4.08-23.72-8.15-35.58-12.23
		c0.61-1.19,1.22-2.37,1.83-3.56c2.13-4.15,4.26-8.3,6.4-12.45c0.43-0.85,0.86-1.69,1.3-2.54
		C450.373,325.79,460.963,331.23,471.554,336.67z"/>
	<path style="fill:#F59795;" d="M439.146,316.976c-1.154-9.219,2.562-16.801,4.766-20.493c14.457,7.784,28.913,15.568,43.369,23.353
		c-5.136,9.267-10.273,18.534-15.409,27.801C454.005,343.943,440.957,331.435,439.146,316.976z"/>
</g>
<g>
	<path style="fill:#F59795;" d="M254.643,114.18c-0.85,9.63-1.71,19.25-2.56,28.88v0.01c-0.4,4.48-0.79,8.96-1.19,13.44
		c-1.33,2.95-2.66,5.9-3.99,8.85c-0.521,1.15-1.03,2.29-1.55,3.44c-2.71,6.01-5.42,12.03-8.13,18.04
		c-9.99-4.83-19.99-9.66-29.98-14.49L254.643,114.18z"/>
	<path style="fill:#E56A77;" d="M252.083,143.07c-0.4,4.48-0.79,8.96-1.19,13.44c-1.33,2.95-2.66,5.9-3.99,8.85
		c-0.521,1.15-1.03,2.29-1.55,3.44c-1.39-2.54-2.63-5.78-3.06-9.65c-1.12-10.09,4.05-17.27,5.22-18.82
		C249.043,141.25,250.563,142.16,252.083,143.07z"/>
</g>
<g>
	<path style="fill:#E56A77;" d="M294.306,129.487c0.048,9.999,0.095,19.998,0.143,29.997c-3.793-1.349-7.586-2.698-11.38-4.047
		C286.815,146.787,290.56,138.137,294.306,129.487z"/>
	<path style="fill:#F59795;" d="M297.728,92.274c9.854,7.884,0.265,33.501-6.663,52.011c-5.869,15.68-12.475,33.328-23.165,33.804
		c-10.35,0.461-18.268-15.456-19.256-17.441c-7.947-15.975-5.611-37.687,6.838-52.422C267.119,94.454,288.908,85.218,297.728,92.274
		z"/>
	<path style="fill:#1C1D22;" d="M305.62,97.099c1.85,7.61-17.279,17.937-18.966,18.848c-16.143,8.715-32.216,8.165-40.47,7.243
		c0.459-2.621,4.299-22.673,21.645-30.811C283.241,85.147,303.865,89.88,305.62,97.099z"/>
	<path style="fill:#1C1D22;" d="M299.512,91.498c2.878,1.27,7.615,3.835,11.8,8.758c6.883,8.096,7.693,17.181,7.828,20.331
		c-4.089-0.684-8.348-1.517-12.755-2.531c-8.351-1.92-15.999-4.204-22.903-6.619C288.825,104.791,294.168,98.145,299.512,91.498z"/>
	<path style="fill:#FFFFFF;" d="M288.421,133.877c-0.56,1.207-3.883,0.896-6.906,0.075c-0.063-0.012-0.137-0.037-0.212-0.062
		c-0.809-0.224-1.58-0.46-2.29-0.747c-0.05,0-0.1-0.037-0.162-0.075c-0.149-0.05-0.299-0.112-0.448-0.187
		c-0.672-0.274-1.431-0.622-2.203-1.02c-1.954-1.058-3.796-2.402-3.572-3.497c0.311-1.556,4.866-2.451,8.574-1.369
		c0.697,0.187,1.343,0.461,1.991,0.796c0.709,0.348,1.381,0.759,1.991,1.207c0.125,0.075,0.249,0.174,0.361,0.261
		C287.637,130.915,288.906,132.893,288.421,133.877z"/>
	<path style="fill:none;stroke:#1C1D22;stroke-linecap:round;stroke-linejoin:round;stroke-miterlimit:10;" d="M289.416,124.218
		c-1.861-1.729-4.385-2.724-6.925-2.73"/>
	<path style="fill:none;stroke:#1C1D22;stroke-linecap:round;stroke-linejoin:round;stroke-miterlimit:10;" d="M247.17,117.559
		c2.968-12.469,11.208-24.09,23.058-28.976c11.85-4.886,27.145-1.689,34.462,8.835"/>
	<path style="fill:#F59795;" d="M260.644,129.118c1.123-6.102-1.716-11.523-5.677-12.86c-5.179-1.748-11.514,3.742-12.56,9.774
		c-0.98,5.648,2.684,11.73,8.991,13.946"/>
	<path style="fill:none;stroke:#E56A77;stroke-linecap:round;stroke-linejoin:round;stroke-miterlimit:10;" d="M241.5,126.953
		c-0.101,3.514,1.562,7.035,4.34,9.189c2.778,2.154,6.601,2.889,9.979,1.917"/>
	<path style="fill:none;stroke:#E56A77;stroke-linecap:round;stroke-linejoin:round;stroke-miterlimit:10;" d="M250.691,119.376
		c4.23,1.145,7.065,5.991,5.989,10.239"/>
	<path style="fill:none;stroke:#E56A77;stroke-linecap:round;stroke-linejoin:round;stroke-miterlimit:10;" d="M255.175,124.112
		c-3.636-0.976-7.777,0.279-10.26,3.109"/>
	<path style="fill:#1C1D22;" d="M288.421,133.877c-0.56,1.207-3.883,0.896-6.906,0.075c-0.063-0.012-0.137-0.037-0.212-0.062
		c-0.809-0.224-1.58-0.46-2.29-0.747c-0.05,0-0.1-0.037-0.162-0.075c-0.149-0.05-0.299-0.112-0.448-0.187
		c0.273-2.215,2.787-3.945,5.848-3.945c0.324,0,0.635,0.025,0.933,0.062c0.125,0.075,0.249,0.174,0.361,0.261
		C287.637,130.915,288.906,132.893,288.421,133.877z"/>
	<path style="fill:none;stroke:#1C1D22;stroke-linecap:round;stroke-linejoin:round;stroke-miterlimit:10;" d="M275.659,159.393
		c-0.128,0.745-0.189,1.59,0.284,2.18c0.401,0.501,1.102,0.681,1.74,0.614s1.233-0.343,1.815-0.615"/>
	<g>
		<circle style="fill:#1C1D22;" cx="269.174" cy="74.053" r="20.629"/>
		<path style="fill:none;stroke:#1C1D22;stroke-linecap:round;stroke-linejoin:round;stroke-miterlimit:10;" d="M281.834,89.887
			c6.377-2.468,11.28-8.412,12.491-15.142c1.247-6.93-1.461-14.406-6.776-19.025c-0.997-0.866-2.078-1.638-3.234-2.277
			c-4.497-2.485-10.134-2.795-14.877-0.819c-4.743,1.976-8.492,6.197-9.895,11.14"/>
		<path style="fill:none;stroke:#1C1D22;stroke-linecap:round;stroke-linejoin:round;stroke-miterlimit:10;" d="M266.935,94.483
			c-4.414,0.384-8.952-0.896-12.515-3.53c-3.562-2.634-6.117-6.598-7.044-10.93c-0.928-4.34-0.197-9.053,2.19-12.794
			c2.388-3.741,6.448-6.422,10.856-6.936c1.61-0.188,3.245-0.098,4.85-0.325"/>
	</g>
</g>
<circle style="fill:#A081B7;" cx="155.67" cy="380.77" r="41.126"/>
<g>
	<polygon style="fill:#8A9099;" points="396.791,157.202 401.366,147.988 571.667,221.7 553.556,258.243 	"/>
	<polygon style="fill:#FFFFFF;" points="350.437,255.733 390.513,156.092 571.667,237.747 515.142,342.596 	"/>
	<path style="fill:none;stroke:#1C1D22;stroke-linecap:round;stroke-linejoin:round;stroke-miterlimit:10;" d="M402.604,179.139
		c-3.931,13.266-8.379,26.379-13.329,39.299"/>
	<path style="fill:none;stroke:#1C1D22;stroke-linecap:round;stroke-linejoin:round;stroke-miterlimit:10;" d="M410.105,181.823
		c-7.507,19.621-15.014,39.242-22.521,58.864c-0.139,0.362-0.398,0.798-0.78,0.73c-0.382-0.068,0.015-0.826,0.163-0.467"/>
	<path style="fill:none;stroke:#1C1D22;stroke-linecap:round;stroke-linejoin:round;stroke-miterlimit:10;" d="M417.161,187.737
		c-2.842,8.55-6.089,16.966-9.726,25.209"/>
	<path style="fill:none;stroke:#1C1D22;stroke-linecap:round;stroke-linejoin:round;stroke-miterlimit:10;" d="M421.482,194.454
		c-1.02,3.765-2.568,7.387-4.586,10.726"/>
	<path style="fill:none;stroke:#1C1D22;stroke-linecap:round;stroke-linejoin:round;stroke-miterlimit:10;" d="M454.424,205.084
		c-8.173,21.957-16.345,43.913-24.518,65.87"/>
	<path style="fill:none;stroke:#1C1D22;stroke-linecap:round;stroke-linejoin:round;stroke-miterlimit:10;" d="M460.356,211.327
		c-6.979,20.255-13.958,40.51-20.937,60.766"/>
	<path style="fill:none;stroke:#1C1D22;stroke-linecap:round;stroke-linejoin:round;stroke-miterlimit:10;" d="M446.497,204.156
		c-1.782,8.331-4.82,16.392-8.978,23.828"/>
	<path style="fill:none;stroke:#1C1D22;stroke-linecap:round;stroke-linejoin:round;stroke-miterlimit:10;" d="M468.893,217.41
		c-2.39,8.402-5.342,16.645-8.829,24.655"/>
	<path style="fill:none;stroke:#1C1D22;stroke-linecap:round;stroke-linejoin:round;stroke-miterlimit:10;" d="M477.562,219.949
		c-3.351,8.505-7.12,16.845-11.29,24.98"/>
	<path style="fill:none;stroke:#1C1D22;stroke-linecap:round;stroke-linejoin:round;stroke-miterlimit:10;" d="M485.803,218.743
		c-9.695,23.349-19.39,46.699-29.085,70.048c0.514-0.977,1.027-1.953,1.541-2.93"/>
	<path style="fill:none;stroke:#1C1D22;stroke-linecap:round;stroke-linejoin:round;stroke-miterlimit:10;" d="M527.226,240.426
		c-3.692,9.722-7.383,19.445-11.075,29.167"/>
	<path style="fill:none;stroke:#1C1D22;stroke-linecap:round;stroke-linejoin:round;stroke-miterlimit:10;" d="M536.749,238.706
		c-1.894,1.741-2.929,4.201-3.909,6.58c-4.677,11.355-9.354,22.71-14.032,34.065"/>
	<path style="fill:none;stroke:#1C1D22;stroke-linecap:round;stroke-linejoin:round;stroke-miterlimit:10;" d="M548.978,241.344
		c-14.218,27.081-27.148,54.838-38.734,83.146c0.544-1.642,1.088-3.284,1.633-4.926"/>
	<path style="fill:none;stroke:#1C1D22;stroke-linecap:round;stroke-linejoin:round;stroke-miterlimit:10;" d="M503.267,233.327
		c-1.757,2.036-3.068,4.455-3.816,7.038"/>
	<path style="fill:none;stroke:#1C1D22;stroke-linecap:round;stroke-linejoin:round;stroke-miterlimit:10;" d="M510.006,231.049
		c-2.632,5.182-5.265,10.364-7.897,15.545c-0.313-0.534-0.021-1.321,0.565-1.521"/>
	<path style="fill:none;stroke:#1C1D22;stroke-linecap:round;stroke-linejoin:round;stroke-miterlimit:10;" d="M571.944,239.093
		c-10.089,17.491-20.178,34.981-30.267,52.472c-5.098,8.837-10.195,17.675-15.293,26.512c-4.727,8.194-10.415,16.307-14.195,24.951
		c-3.247-2.704-6.913-4.904-10.825-6.499"/>
	<path style="fill:none;stroke:#1C1D22;stroke-linecap:round;stroke-linejoin:round;stroke-miterlimit:10;" d="M545.977,225.784
		c8.457,4.754,17.455,8.455,26.428,12.144c-0.26-0.001-0.52-0.003-0.78-0.004"/>
</g>
<path style="fill:#E56A77;" d="M255.293,184.62c-1.63,5.15-4.49,12.18-9.69,19.47c0.93-2.83,1.75-6.04,2.27-9.63
	c0.71-4.82,0.71-9.11,0.44-12.64C250.694,182.74,253.023,183.67,255.293,184.62z"/>
<g>
	<polygon style="fill:#F59795;" points="335.923,290.88 314.253,298.61 312.633,299.19 298.784,262.51 323.143,250.73 
		328.423,248.17 335.643,289.3 	"/>
	<g>
		<path style="fill:#F59795;" d="M346.103,289.31c-2.11,0.49-4.22,0.87-6.34,1.16c-1.28,0.17-2.55,0.3-3.84,0.41
			c-2.07,0.17-4.16,0.25-6.27,0.27c-2,0.01-4.16,0.26-5.99-0.66c-2.39-1.2-3.66-4.2-4.72-6.52c-0.39-0.87-0.76-1.75-1.1-2.64
			c-3.21-8.32-4.04-17.51,0.45-25.69c1.09-1.98,2.81-3.61,4.85-4.91c1.62-1.05,3.43-1.9,5.28-2.56c2.271-0.83,4.59-1.39,6.64-1.71
			c2.68-0.43,5.49-0.72,8.22-0.88c1.32-0.08,2.68-0.26,4.01-0.29c2.03-0.04,3.65,0.37,4.96,1.13c2.86,1.64,4.24,4.94,5.2,8.81
			c1.11,4.5,1.52,9.26,2.36,13.82c0.59,3.2,1.63,6.3,2.09,9.53C362.934,285.87,351.293,288.1,346.103,289.31z"/>
		<path style="fill:#F59795;" d="M348.436,245.327c3.425-0.181,8.287-0.399,14.133-0.524c5.988-0.128,9.999-0.119,15.052-0.048
			c8.3,0.116,17.397,0.182,24.864,4.156c3.903,2.077,3.248,5.277-0.258,7.113c1.043,0.563,2.24,1.681,2.95,2.668
			c1.66,2.31-0.743,5.157-3.43,4.437c2.889,0.773,5.585,1.896,2.037,4.528c-2.078,1.541-4.802,2.042-7.199,2.871
			c-3.062,1.06-6.254,1.833-9.406,2.545c-3.469,0.783-7.088,1.098-10.585,1.702c-2.938,0.508-7.549,1.046-10.178,2.628
			c-1.672,1.007-2.472,2.097-4.635,2.492c-5.45,0.994-12.897-5.047-15.953-11.677C340.899,257.522,347.714,246.459,348.436,245.327z
			"/>
		<path style="fill:#F59795;" d="M362.43,276.011c1.819,4.067,10.163,1.828,13.408,1.532c4.41-0.401,11.174-3.862,15.159-0.478
			c3.197,2.714-4.938,5.08-6.841,5.738c-3.962,1.369-7.702,1.797-11.831,2.303c-4.529,0.556-9.013,1.44-13.559,1.865
			c-1.408,0.132-7.532,1.329-8.322-0.297c-0.675-1.39,3.375-5.156,4.167-6.037C356.123,278.952,360.423,277.18,362.43,276.011z"/>
		<path style="fill:none;stroke:#E56A77;stroke-linecap:round;stroke-linejoin:round;stroke-miterlimit:10;" d="M403.367,262.971
			c-5.772,1.355-11.705,1.855-17.614,2.352c-6.691,0.563-13.382,1.126-20.073,1.688c-0.253,0.021-0.583-0.008-0.651-0.252
			c-0.068-0.244,0.491-0.225,0.321-0.036"/>
		<path style="fill:none;stroke:#E56A77;stroke-linecap:round;stroke-linejoin:round;stroke-miterlimit:10;" d="M402.197,256.193
			c-12.451-0.494-24.925-0.407-37.368,0.258"/>
		<path style="fill:#EBC6BA;" d="M397.409,253.936c1.5,0.675,5.388,0.667,5.617-1.643c0.242-2.442-3.634-3.706-5.53-2.947
			C394.951,250.364,395.097,252.895,397.409,253.936z"/>
		<path style="fill:#EBC6BA;" d="M402.936,259.385c-0.025-0.124-0.077-0.246-0.161-0.365c-0.478-0.679-1.935-0.928-2.682-1.013
			c-1.415-0.161-4.705,0.021-4.739,2.062C395.283,264.328,403.368,261.555,402.936,259.385z"/>
		<path style="fill:#EBC6BA;" d="M402.313,265.75c-0.32-0.396-0.892-0.651-1.522-0.626c-0.994,0.039-4.717,1.383-3.144,2.86
			c0.607,0.57,3.914,0.098,4.494-0.525C402.718,266.841,402.679,266.203,402.313,265.75z"/>
		<path style="fill:#EBC6BA;" d="M389.543,278.503c0.852-1.544-6.294-1.633-4.618,1.263c0.863,1.491,5.116-0.059,4.335-1.697"/>
		<path style="fill:none;stroke:#E56A77;stroke-linecap:round;stroke-linejoin:round;stroke-miterlimit:10;" d="M361.429,250.061
			c-0.583-0.822-1.695-1.157-2.691-0.997s-1.879,0.742-2.603,1.443c-0.33,0.32-0.642,0.684-0.763,1.127
			c-0.12,0.443,0.002,0.981,0.391,1.224"/>
		<path style="fill:none;stroke:#E56A77;stroke-linecap:round;stroke-linejoin:round;stroke-miterlimit:10;" d="M362.195,260.753
			c-0.967-0.973-2.654-0.671-3.785,0.105c-0.678,0.465-1.295,1.385-0.809,2.047"/>
		<path style="fill:none;stroke:#E56A77;stroke-linecap:round;stroke-linejoin:round;stroke-miterlimit:10;" d="M361.83,272.396
			c-1.011-0.912-2.612-0.414-3.822,0.21c-0.334,0.172-0.684,0.37-0.855,0.704c-0.171,0.334-0.056,0.837,0.307,0.932"/>
		<path style="fill:none;stroke:#E56A77;stroke-linecap:round;stroke-linejoin:round;stroke-miterlimit:10;" d="M381.019,248.138
			c-0.237,1.669-0.244,3.372-0.02,5.043c0.167-0.047,0.333-0.094,0.5-0.141"/>
		<path style="fill:none;stroke:#E56A77;stroke-linecap:round;stroke-linejoin:round;stroke-miterlimit:10;" d="M383.454,247.4
			c-0.366,1.361-0.483,2.79-0.342,4.192"/>
		<path style="fill:none;stroke:#E56A77;stroke-linecap:round;stroke-linejoin:round;stroke-miterlimit:10;" d="M380.906,258.79
			c-0.227,1.08-0.181,2.216,0.131,3.275"/>
		<path style="fill:none;stroke:#E56A77;stroke-linecap:round;stroke-linejoin:round;stroke-miterlimit:10;" d="M384.178,258.687
			c-0.26,1.228-0.521,2.456-0.781,3.684"/>
		<path style="fill:none;stroke:#E56A77;stroke-linecap:round;stroke-linejoin:round;stroke-miterlimit:10;" d="M379.899,269.917
			c-0.17,1.015-0.256,2.044-0.259,3.073"/>
		<path style="fill:none;stroke:#E56A77;stroke-linecap:round;stroke-linejoin:round;stroke-miterlimit:10;" d="M382.109,269.303
			c-0.085,1.007-0.274,2.006-0.563,2.974"/>
		<path style="fill:none;stroke:#E56A77;stroke-linecap:round;stroke-linejoin:round;stroke-miterlimit:10;" d="M374.998,280.801
			c0.454,1.177-0.65,2.754,0.231,3.657"/>
		<path style="fill:none;stroke:#E56A77;stroke-linecap:round;stroke-linejoin:round;stroke-miterlimit:10;" d="M377.287,280.265
			c0.224-0.054,0.442,0.156,0.485,0.383c0.043,0.227-0.039,0.456-0.119,0.672c-0.323,0.869-0.645,1.739-0.968,2.608"/>
	</g>
	<path style="fill:#E56A77;" d="M339.764,290.47c-1.28,0.17-2.55,0.3-3.84,0.41l-21.67,7.73c-3.97-9.81-7.94-19.62-11.91-29.43
		c3.4,3.42,7.68,7.11,12.94,10.55c0.85,0.56,1.71,1.1,2.56,1.6c6.17,3.73,12.26,6.25,17.8,7.97
		C337.054,289.74,338.434,290.13,339.764,290.47z"/>
</g>
<path style="fill:#E56A77;" d="M457.744,346.97c-8.68-3.41-17.36-6.81-26.04-10.22c0.13-0.47,0.25-0.94,0.38-1.41
	c2.13-4.15,4.26-8.3,6.4-12.45c1.12,2.49,2.52,5.16,4.29,7.91C447.733,338.54,453.494,343.74,457.744,346.97z"/>
<path style="fill:#E56A77;" d="M563.503,456.11l-0.58,19.59c-2.53,4-6.35,6.82-10.6,8.08c2.05-4.05,4.08-8.46,6.02-13.24
	C560.393,465.5,562.094,460.66,563.503,456.11z"/>
<g>
	<path style="fill:#A081B7;" d="M186.534,228.4c-11.368,32.541-15.75,59.577-17.601,78.009c-1.736,17.295-2.644,26.337-1,39.37
		c3.017,23.918,10.619,29.497,7.12,42.381c-4.57,16.828-25.918,36.362-39.84,28.39c-9.71-5.56-15.79-11.4-19.23-15.11
		c-27.56-29.79-26.74-75.79-14.81-117.85c7.19-25.39,18.43-49.34,29.92-67.43c2.46-3.87,4.98-7.57,7.56-11.08
		c9-12.32,18.53-22.5,27.53-30.79c7.77-7.16,20.35-1.59,20.35,8.98V228.4z"/>
	<path style="fill:none;stroke:#1C1D22;stroke-linecap:round;stroke-linejoin:round;stroke-miterlimit:10;" d="M172.396,341.046
		c-7.986,3.387-18.547,5.571-27.029,7.388"/>
	<path style="fill:none;stroke:#1C1D22;stroke-linecap:round;stroke-linejoin:round;stroke-miterlimit:10;" d="M167.944,346.8
		c-0.01-0.88-0.02-1.77-0.02-2.66c-0.09-13.3,0.33-27.64,1.23-42.04c1.14-18.2,3.06-36.49,5.75-52.91"/>
	<path style="fill:none;stroke:#1C1D22;stroke-linecap:round;stroke-linejoin:round;stroke-miterlimit:10;" d="M182.311,245.245
		c-3.072,7.948-6.339,15.82-9.798,23.607c-0.11,0.247-0.202,0.579,0.007,0.75c0.209,0.171,0.489-0.337,0.22-0.316"/>
	<path style="fill:#814D99;" d="M138.654,205.08c-1.29,7.07-3.16,14.72-5.84,22.74c-8.18,24.43-20.76,42.93-31.64,55.77
		c7.19-25.39,18.43-49.34,29.92-67.43C133.554,212.29,136.074,208.59,138.654,205.08z"/>
</g>
<g>
	<path style="fill:#A081B7;" d="M322.923,302.59c-17.52,18.73-39.7,39.46-67.1,63.78c-0.69,0.61-1.38,1.21-2.06,1.81
		c-23.08,20.06-46.7,33.74-69.09,44.36c-2.06,0.98-4.1,1.92-6.13,2.85c-16.51,7.53-33.75-8.96-27-25.8
		c6.09-15.19,12.18-30.38,18.27-45.57c15.06-12.78,32.07-26.02,51.14-39.14c27.56-18.97,54.03-33.98,78.01-45.89
		C308.143,275.69,313.753,285.89,322.923,302.59z"/>
	<path style="fill:none;stroke:#1C1D22;stroke-linecap:round;stroke-linejoin:round;stroke-miterlimit:10;" d="M157.454,351.06
		c1.79-1.13,3.56-2.28,5.33-3.46c1.72-1.13,3.44-2.28,5.14-3.46c4.579-3.179,6.898-4.726,13.45-9.57
		c59.7-44.139,94.489-63.516,94.489-63.516c3.266-1.807,8.867-4.859,16.018-8.491"/>
	<path style="fill:#814D99;" d="M253.764,368.18c-23.08,20.06-46.7,33.74-69.09,44.36c0.79-10.87,24.82-26.88,41.76-34.93
		C232.744,374.6,241.904,370.87,253.764,368.18z"/>
	<path style="fill:none;stroke:#1C1D22;stroke-linecap:round;stroke-linejoin:round;stroke-miterlimit:10;" d="M242.059,377.597
		c16.761-15.72,33.902-31.034,51.404-45.924"/>
</g>
<g>
	<path style="fill:none;stroke:#FFFFFF;stroke-linecap:round;stroke-linejoin:round;stroke-miterlimit:10;" d="M418.509,492.347
		c-2.892,12.834-5.297,25.777-7.208,38.794"/>
	<path style="fill:#1C1D22;" d="M372.815,554.111c-2.354-4.173-4.374-8.385-6.09-12.621
		c-31.944-78.857,37.712-174.735,64.479-208.468c13.556,4.872,27.112,9.743,40.668,14.615
		c-19.381,53.378-38.762,106.755-58.144,160.133c-1.296,7.244-10.483,56.772-26.703,57.411
		C383.989,565.3,379.101,563.77,372.815,554.111z"/>
	<path style="fill:none;stroke:#FFFFFF;stroke-linecap:round;stroke-linejoin:round;stroke-miterlimit:10;" d="M417.35,497.89
		c-3.462,10.282-7.238,20.458-11.321,30.509c0.167-0.402,0.333-0.804,0.5-1.207"/>
</g>
<g>
	<path style="fill:#F59795;" d="M471.872,347.636c4.812-3.265,12.354-9.23,18.534-18.852c10.801-16.818,13.622-38.865,9.532-40.669
		c-1.659-0.732-4.338,1.917-5.613,3.177c-6.145,6.074-3.074,12.404-7.519,17.581c-4.952,5.766-11.449,0.92-18.64,6.99
		c-4.492,3.791-8.283,10.866-6.778,18.428C463.114,342.964,470.769,347.068,471.872,347.636z"/>
	<path style="fill:none;stroke:#E56A77;stroke-linecap:round;stroke-linejoin:round;stroke-miterlimit:10;" d="M495.882,306.645
		c1.273,1.475,3.354,2.206,5.27,1.851"/>
	<path style="fill:none;stroke:#E56A77;stroke-linecap:round;stroke-linejoin:round;stroke-miterlimit:10;" d="M494.897,311.277
		c0.625,1.475,2.4,2.357,3.953,1.964"/>
	<path style="fill:none;stroke:#E56A77;stroke-linecap:round;stroke-linejoin:round;stroke-miterlimit:10;" d="M457.332,325.253
		c5.369-7.032,13.609-11.803,22.38-12.958"/>
	<path style="fill:#EBC6BA;" d="M499.281,289.691c-0.871-0.141-2.259,1.894-2.298,3.915c-0.037,1.938,1.165,3.997,2.042,3.915
		c0.918-0.086,1.471-2.518,1.447-4.255C500.455,292.039,500.131,289.829,499.281,289.691z"/>
</g>
<g>
	<defs>
		<path id="SVGID_1_" d="M642.494,524.29c-2.51,5.26-5.33,10.34-8.44,15.24c-7.81,12.35-17.41,23.57-28.42,33.69
			c-2.28,2.1-4.62,4.15-7.01,6.15c-15.98,13.35-34.47,24.61-54.44,33.85c-15.78,7.3-32.49,13.34-49.6,18.14
			c-15.47,4.36-31.27,7.7-47.03,10.06c-83.87,12.59-166.59-2.51-191.42-41.51c-19.36-30.41-8.52-83.22,17.8-111.84
			c34.88-37.94,76.4-11.02,127.72-48.29c52.91-38.43,35.94-86.78,84.52-112.48c40.29-21.32,98.63-12.73,134.08,18.43
			C671.213,390.53,666.293,474.48,642.494,524.29z"/>
	</defs>
	<clipPath id="SVGID_2_">
		<use xlink:href="#SVGID_1_"  style="overflow:visible;"/>
	</clipPath>
	<g style="clip-path:url(#SVGID_2_);">
		<path style="fill:#1C1D22;" d="M507.457,460.429c-14.674,8.048-30.672,16.159-47.977,24.041
			c-21.059,9.592-29.827,9.95-47.976,19.805c-17.341,9.417-39.981,22.065-40.309,39.629c-0.121,6.498,2.854,11.387,3.797,12.818
			c8.656,13.141,29.132,12.927,41.395,12.799c26.814-0.28,48.967-10.227,64.063-19.494c36.586-50.679,50.921-80.183,43-88.506
			C520.735,458.668,515.404,458.303,507.457,460.429z"/>
	</g>
	<g style="clip-path:url(#SVGID_2_);">
		<path style="fill:#1C1D22;" d="M603.961,625.096c-53.56,16.34-107.121,32.681-160.681,49.021
			c1.424-10.899,2.849-21.798,4.273-32.697c-0.035-12.714,25.097-100.935,39.58-159.02c3.61-14.48,17.09-24.28,31.98-23.24
			c18.47,1.29,36.95,2.59,55.42,3.88c3.68,0.26,7.17,1.16,10.36,2.59c3.7,1.63,7,3.98,9.74,6.86
			c2.866,3.002,5.122,6.579,6.587,10.536c1.615,4.362,1.827,8.068,1.894,9.714C603.455,501.212,603.857,553.461,603.961,625.096z"/>
		<path style="fill:#1C1D22;" d="M651.961,598.542c-16,8.851-32,17.702-48,26.553c-4.024-34.193-8.091-68.391-12.199-102.595
			c-2.278-18.964-4.567-37.921-6.869-56.87c2.395,1.397,5.904,3.632,9.74,6.86c14.439,12.151,20.142,27.129,23.286,35.329
			C625.832,528.456,637.956,559.409,651.961,598.542z"/>
		<path style="fill:#A081B7;" d="M562.923,475.7c-1.99,14.64-3.99,29.27-5.979,43.91c-5.563,40.931-7.698,53.872-10.41,76.34
			c-1.521,12.598-3.581,30.906-5.551,53.316c-7.344,0.189-16.004,0.946-25.57,2.845c-11.483,2.279-21.212,5.597-28.942,8.83
			c14.641-62.723,29.282-125.447,43.923-188.17C541.233,473.75,552.083,474.72,562.923,475.7z"/>
		<path style="fill:none;stroke:#FFFFFF;stroke-linecap:round;stroke-linejoin:round;stroke-miterlimit:10;" d="M574.034,465.409
			c5.095,4.6,8.027,10.301,11.643,16.114c-4.457,2.373-8.786,4.987-12.962,7.826c2.391,7.006,4.782,14.012,7.172,21.018
			c0.357,1.048,0.72,2.147,0.546,3.24c-0.119,0.749-0.483,1.434-0.841,2.102c-8.997,16.797-14.355,35.434-21.379,53.291
			c-1.958,4.978-3.918,9.96-6.184,14.806"/>
		<path style="fill:none;stroke:#FFFFFF;stroke-linecap:round;stroke-linejoin:round;stroke-miterlimit:10;" d="M527.415,460.878
			c-4.835,3.505-9.917,6.669-15.196,9.46c2.396,1.026,4.791,2.052,7.187,3.079c0.499,0.214,1.062,0.501,1.175,1.033
			c0.074,0.349-0.074,0.703-0.219,1.029c-3.648,8.167-7.712,16.149-12.171,23.903c-1.047,1.822-2.128,3.658-2.679,5.685
			c-0.555,2.043-0.548,4.191-0.527,6.308c0.18,18.406,1.083,36.806,2.706,55.142"/>
		<path style="fill:none;stroke:#FFFFFF;stroke-linecap:round;stroke-linejoin:round;stroke-miterlimit:10;" d="M467.913,561.719
			c4.679-18.045,10.149-35.884,16.389-53.451"/>
		<path style="fill:none;stroke:#FFFFFF;stroke-linecap:round;stroke-linejoin:round;stroke-miterlimit:10;" d="M592.698,532.149
			c-0.332,11.562-0.457,23.473-0.336,35.713c0.217,21.941,1.206,42.867,2.749,62.68"/>
		<path style="fill:#814D99;" d="M556.944,519.61c-3.47,25.45-6.94,50.89-10.41,76.34c-1.45-10.49-2.15-24.11,0.07-39.71
			C548.744,541.2,552.954,528.81,556.944,519.61z"/>
		<path style="fill:none;stroke:#FFFFFF;stroke-linecap:round;stroke-linejoin:round;stroke-miterlimit:10;" d="M482.098,501.182
			c-1.733,9.072-3.466,18.144-5.199,27.216"/>
	</g>
</g>
<g>
	<path style="fill:#F59795;" d="M564.963,406.31l-1.46,49.8l-0.58,19.59c-2.53,4-6.35,6.82-10.6,8.08c-2.68,0.82-5.52,1-8.33,0.48
		c-9.61-1.8-13.37-10.91-13.6-11.49c0.31-4.27,0.62-8.53,0.93-12.8c0.34-4.79,0.69-9.59,1.04-14.38c0.14-1.87,0.27-3.73,0.41-5.6
		C543.503,428.76,554.233,417.54,564.963,406.31z"/>
	<path style="fill:#E56A77;" d="M543.154,451.58c-3.53,5.02-8.31,7.33-11.83,8.39c0.34-4.79,0.69-9.59,1.04-14.38
		c4.73-3.97,9.46-7.93,14.19-11.9C546.864,434.99,548.773,443.6,543.154,451.58z"/>
</g>
<g>
	<path style="fill:#E56A77;" d="M530.197,392.512c-8.273,5.616-16.546,11.232-24.819,16.848c3.258,2.365,6.516,4.73,9.774,7.095
		C520.168,408.475,525.183,400.494,530.197,392.512z"/>
	<path style="fill:#F59795;" d="M558.951,368.643c-12.075-3.668-27.778,18.729-39.124,34.912
		c-9.611,13.708-20.429,29.138-14.775,38.223c5.474,8.796,23.078,6.323,25.275,6.015c17.668-2.482,34.253-16.688,39.363-35.29
		C574.466,395.118,569.758,371.925,558.951,368.643z"/>
	<path style="fill:#1C1D22;" d="M554.713,367.294c-1.42,3.95-3.06,9.992-2.843,17.34c0.19,6.414,1.702,10.685,3.873,17.923
		c1.818,6.064,4.31,14.914,6.865,26.079c15.418-7.145,23.208-23.884,19.055-38.568C578.327,378.27,567.709,369.306,554.713,367.294z
		"/>
	<path style="fill:#FFFFFF;" d="M543.38,409.756c-0.769,0.805-2.928,0.04-4.897-0.976c-0.935-0.498-1.819-1.032-2.503-1.498
		c-0.055-0.032-0.114-0.051-0.153-0.091c-0.632-0.423-1.264-0.924-1.909-1.469c-0.051-0.043-0.114-0.091-0.164-0.134
		c-2.388-2.037-4.522-4.592-3.846-5.743c0.529-0.951,2.879-1.028,5.435-0.234c0.841,0.27,1.714,0.642,2.543,1.104
		c0.633,0.344,1.226,0.727,1.78,1.189C542.65,404.351,544.485,408.618,543.38,409.756z"/>
	<path style="fill:none;stroke:#1C1D22;stroke-linecap:round;stroke-linejoin:round;stroke-miterlimit:10;" d="M537.309,393.564
		c2.478,0.557,4.727,2.076,6.168,4.167"/>
	<path style="fill:#F59795;" d="M549.541,420.064c4.398-4.377,10.473-5.102,13.816-2.592c4.371,3.282,3.426,11.612-0.956,15.886
		c-4.103,4.002-11.192,4.421-16.586,0.473"/>
	<path style="fill:none;stroke:#E56A77;stroke-linecap:round;stroke-linejoin:round;stroke-miterlimit:10;" d="M562.154,434.627
		c-2.841,2.07-6.685,2.691-10.033,1.618c-3.348-1.072-6.116-3.81-7.226-7.145"/>
	<path style="fill:none;stroke:#E56A77;stroke-linecap:round;stroke-linejoin:round;stroke-miterlimit:10;" d="M563.204,422.762
		c-3.336-2.841-8.937-2.437-11.831,0.853"/>
	<path style="fill:none;stroke:#E56A77;stroke-linecap:round;stroke-linejoin:round;stroke-miterlimit:10;" d="M556.763,421.742
		c2.862,2.447,4.169,6.572,3.239,10.22"/>
	<path style="fill:#1C1D22;" d="M538.19,403.246c-0.515,1.534-2.3,2.391-4.437,2.342c-2.388-2.037-4.522-4.592-3.846-5.743
		c0.529-0.951,2.879-1.028,5.435-0.234c0.841,0.27,1.714,0.642,2.543,1.104C538.34,401.55,538.464,402.432,538.19,403.246z"/>
	<path style="fill:#1C1D22;" d="M556.786,374.331c-4.912,0.958-7.757,1.527-11.361,2.885c-4.093,1.543-7.239,3.378-9.322,4.746
		c0.342-1.481,2.168-8.697,8.94-12.584c7.017-4.028,16.48-2.838,23.441,3.163C563.704,373.076,559.727,373.757,556.786,374.331z"/>
	<path style="fill:none;stroke:#1C1D22;stroke-linecap:round;stroke-linejoin:round;stroke-miterlimit:10;" d="M514.765,420.805
		c-0.609,0.868-0.077,2.165,0.835,2.706s2.044,0.516,3.098,0.397c1.341-0.151,2.668-0.429,3.957-0.829"/>
	<path style="fill:none;stroke:#1C1D22;stroke-linecap:round;stroke-linejoin:round;stroke-miterlimit:10;" d="M567.194,373.52
		c3.815-3.923,7.882-7.602,12.166-11.006"/>
	<path style="fill:none;stroke:#1C1D22;stroke-linecap:round;stroke-linejoin:round;stroke-miterlimit:10;" d="M565.886,374.349
		c5.412-1.913,10.825-3.825,16.237-5.738"/>
	<path style="fill:none;stroke:#1C1D22;stroke-linecap:round;stroke-linejoin:round;stroke-miterlimit:10;" d="M567.883,372.13
		c6.745,2.002,12.528,7.034,15.443,13.439c2.719,5.973,2.935,12.959,1.005,19.232c-1.93,6.272-5.925,11.824-10.984,16.003"/>
</g>
<g>
	<rect x="27.995" y="32.71" style="fill:none;" width="206.609" height="48.896"/>
	<path d="M28.907,33.253c0.528-0.108,1.283-0.168,2.003-0.168c1.115,0,1.835,0.204,2.338,0.659c0.408,0.36,0.636,0.912,0.636,1.535
		c0,1.068-0.671,1.775-1.523,2.063v0.036c0.624,0.216,0.995,0.791,1.187,1.631c0.264,1.127,0.456,1.907,0.624,2.219h-1.08
		c-0.132-0.228-0.312-0.924-0.54-1.931c-0.24-1.115-0.672-1.535-1.619-1.571H29.95v3.502h-1.043V33.253z M29.95,36.935h1.067
		c1.115,0,1.823-0.611,1.823-1.535c0-1.043-0.755-1.499-1.859-1.511c-0.504,0-0.863,0.048-1.031,0.096V36.935z"/>
	<path d="M39.548,37.439h-3.142v2.914h3.502v0.876h-4.545v-8.084h4.366v0.876h-3.322v2.555h3.142V37.439z"/>
	<path d="M48.079,37.679c-0.06-1.128-0.132-2.482-0.12-3.49h-0.036c-0.276,0.947-0.612,1.955-1.02,3.07l-1.427,3.922h-0.792
		l-1.307-3.85c-0.384-1.14-0.708-2.184-0.936-3.143h-0.024c-0.024,1.008-0.084,2.362-0.156,3.574l-0.216,3.466h-0.995l0.563-8.084
		h1.331l1.379,3.91c0.336,0.995,0.612,1.883,0.815,2.723h0.036c0.204-0.815,0.492-1.703,0.852-2.723l1.439-3.91h1.331l0.504,8.084
		h-1.02L48.079,37.679z"/>
	<path d="M57.823,37.103c0,2.782-1.691,4.258-3.754,4.258c-2.135,0-3.634-1.655-3.634-4.102c0-2.566,1.595-4.246,3.754-4.246
		C56.396,33.013,57.823,34.705,57.823,37.103z M51.55,37.235c0,1.728,0.935,3.274,2.579,3.274c1.655,0,2.59-1.523,2.59-3.358
		c0-1.606-0.839-3.286-2.579-3.286C52.414,33.865,51.55,35.46,51.55,37.235z"/>
	<path d="M60.418,34.033h-2.459v-0.888h5.985v0.888h-2.471v7.196h-1.055V34.033z"/>
	<path d="M69.032,37.439H65.89v2.914h3.502v0.876h-4.545v-8.084h4.365v0.876H65.89v2.555h3.142V37.439z"/>
	<path d="M74.182,41.229l-2.051-8.084h1.104l0.959,4.09c0.24,1.008,0.456,2.016,0.6,2.795h0.024c0.132-0.804,0.384-1.763,0.66-2.807
		l1.08-4.078h1.091l0.983,4.103c0.228,0.959,0.444,1.919,0.564,2.771h0.024c0.168-0.888,0.396-1.787,0.647-2.795l1.067-4.078h1.067
		l-2.291,8.084h-1.091l-1.02-4.21c-0.252-1.031-0.42-1.822-0.528-2.639h-0.024c-0.144,0.804-0.324,1.596-0.624,2.639l-1.151,4.21
		H74.182z"/>
	<path d="M89.922,37.103c0,2.782-1.691,4.258-3.754,4.258c-2.135,0-3.634-1.655-3.634-4.102c0-2.566,1.595-4.246,3.754-4.246
		C88.495,33.013,89.922,34.705,89.922,37.103z M83.65,37.235c0,1.728,0.935,3.274,2.579,3.274c1.655,0,2.59-1.523,2.59-3.358
		c0-1.606-0.839-3.286-2.579-3.286C84.513,33.865,83.65,35.46,83.65,37.235z"/>
	<path d="M91.282,33.253c0.527-0.108,1.283-0.168,2.003-0.168c1.115,0,1.835,0.204,2.338,0.659c0.408,0.36,0.636,0.912,0.636,1.535
		c0,1.068-0.671,1.775-1.523,2.063v0.036c0.624,0.216,0.995,0.791,1.187,1.631c0.264,1.127,0.456,1.907,0.624,2.219h-1.08
		c-0.132-0.228-0.312-0.924-0.54-1.931c-0.24-1.115-0.672-1.535-1.619-1.571h-0.983v3.502h-1.043V33.253z M92.326,36.935h1.067
		c1.115,0,1.823-0.611,1.823-1.535c0-1.043-0.755-1.499-1.859-1.511c-0.504,0-0.863,0.048-1.031,0.096V36.935z"/>
	<path d="M97.738,33.145h1.043v3.898h0.036c0.216-0.312,0.432-0.6,0.636-0.863l2.471-3.035h1.295l-2.926,3.431l3.154,4.653h-1.235
		l-2.663-3.97l-0.768,0.888v3.082h-1.043V33.145z"/>
</g>
<g>
</g>
<g>
</g>
<g>
</g>
<g>
</g>
<g>
</g>
<g>
</g>
<g>
</g>
<g>
</g>
<g>
</g>
<g>
</g>
<g>
</g>
<g>
</g>
<g>
</g>
<g>
</g>
<g>
</g>
</svg>
