<?xml version="1.0" encoding="iso-8859-1"?>
<!-- Generator: Adobe Illustrator 24.0.1, SVG Export Plug-In . SVG Version: 6.00 Build 0)  -->
<svg version="1.1" id="Layer_1" xmlns="http://www.w3.org/2000/svg" xmlns:xlink="http://www.w3.org/1999/xlink" x="0px" y="0px"
	 viewBox="0 0 700 700" style="enable-background:new 0 0 700 700;" xml:space="preserve">
<g>
	<defs>
		<path id="SVGID_1_" d="M85.927,519.687c192.426,1.109,384.851,2.219,577.277,3.328c0.085-126.734,0.17-253.468,0.255-380.201
			H85.927V519.687z"/>
	</defs>
	<clipPath id="SVGID_2_">
		<use xlink:href="#SVGID_1_"  style="overflow:visible;"/>
	</clipPath>
	<g style="clip-path:url(#SVGID_2_);">
		<path style="fill:#E3E5E8;" d="M618.012,433.475c-11.718,95.057-101.253,144.374-116.94,152.6
			c-86.637,45.431-192.936,28.378-262.72-23.74c-70.55-52.69-90.47-128.21-95.84-152.77c-0.02-0.07-0.03-0.15-0.05-0.22
			c-0.79-3-1.52-6.04-2.2-9.13c-6.12-27.75-31.07-139.99,35.74-184.67c39.53-26.44,91.72-15.67,122.05-8.69
			c62.19,14.29,63.65,41.45,124.9,57.52c72.14,18.93,91.7-13.08,133.49,11.54C604.038,303.955,624.952,377.17,618.012,433.475z"/>
		<path style="fill:none;stroke:#E3E5E8;stroke-linecap:round;stroke-linejoin:round;stroke-miterlimit:10;" d="M136.42,293.819
			c2.26-9.769,18.626-75.626,79.715-99.754c37.014-14.62,72.926-7,83.563-4.604c69.061,15.554,78.58,68.405,138.538,72.13
			c24.336,1.512,24.444-7.091,62.672-7.162c18.737-0.035,61.525-0.114,88.511,16.882c38.45,24.216,49.759,86.207,30.786,151.934"/>
	</g>
	<g style="clip-path:url(#SVGID_2_);">
		<path style="fill:#A081B7;" d="M310.607,559.015c-15.319-3.404-30.638-6.808-45.957-10.213
			c-12.965-45.903-17.488-68.743-19.215-80.791c-0.113-0.789-0.194-1.381-0.194-1.381c-0.73-5.449-2.193-19.616-0.66-45.652
			c1.072-18.193,3.66-43.08,10.225-72.597c18.365,17.928,26.405,34.746,30.283,45.702c4.15,11.725,7.179,27.088,10.161,42.038
			c1.192,5.975,2.381,12.532,3.613,20.139C304.672,492.154,309.681,548.473,310.607,559.015z"/>
		<path style="fill:#814D99;" d="M286.442,505.055c0.936,3.556,2.013,8.96,2.05,15.96c-5.262-10.856-10.486-22.829-15.374-35.892
			c-3.309-8.845-6.165-17.391-8.636-25.568c5.11-2.44,7.98-8.27,8.21-13.93c0.18-4.55-1.1-9.01-2.91-13.22
			c3.32,4.91,7.51,12.62,8.83,22.61c1.48,11.3-2.35,13.23-0.34,23.49C280.27,488.707,284.113,496.203,286.442,505.055z"/>
		<path style="fill:#814D99;" d="M298.862,456.26c-4.953-8.169-10.807-20.462-13.243-36.278c-1.51-9.841-1.334-18.661-0.531-25.9
			c3.734,13.089,7.186,27.117,10.161,42.039C296.612,442.954,297.809,449.673,298.862,456.26z"/>
	</g>
	<g style="clip-path:url(#SVGID_2_);">
		<path style="fill:#1C1D22;" d="M240.708,278.047c-11.41-10.343-27.319-8.731-29.994-8.46
			c-25.482,2.582-53.531,28.957-46.914,60.373c6.311,29.967,40.08,45.128,61.142,38.069
			C255.544,357.773,263.906,299.076,240.708,278.047z"/>
		<path style="fill:none;stroke:#1C1D22;stroke-linecap:round;stroke-linejoin:round;stroke-miterlimit:10;" d="M236.791,274.262
			c-11.363-5.518-24.568-7.157-36.935-4.583s-23.822,9.343-32.041,18.936c-8.402,9.806-13.413,23.013-11.395,35.768
			c2.019,12.755,11.968,24.45,24.714,26.525"/>
	</g>
	
		<path style="clip-path:url(#SVGID_2_);fill:none;stroke:#1C1D22;stroke-linecap:round;stroke-linejoin:round;stroke-miterlimit:10;" d="
		M228.988,424.389c4.732,14.289,9.836,28.454,15.306,42.477"/>
	<g style="clip-path:url(#SVGID_2_);">
		<g>
			<rect x="351.338" y="220.401" style="fill:#FFFFFF;" width="277.882" height="52.957"/>
			<circle style="fill:#E3E5E8;" cx="599.487" cy="246.879" r="15.063"/>
			<path style="fill:none;stroke:#1C1D22;stroke-linecap:round;stroke-linejoin:round;stroke-miterlimit:10;" d="M366.893,235.57
				c20.364,0.727,40.748,0.881,61.12,0.462"/>
			<path style="fill:none;stroke:#1C1D22;stroke-linecap:round;stroke-linejoin:round;stroke-miterlimit:10;" d="M436.741,234.773
				c3.553-0.259,7.135-0.118,10.657,0.419"/>
			<path style="fill:none;stroke:#1C1D22;stroke-linecap:round;stroke-linejoin:round;stroke-miterlimit:10;" d="M459.529,234.825
				c12.022-0.051,24.043-0.102,36.065-0.152"/>
			<path style="fill:none;stroke:#1C1D22;stroke-linecap:round;stroke-linejoin:round;stroke-miterlimit:10;" d="M509.64,234.302
				c3.845,0.093,7.69,0.187,11.535,0.28c5.636,0.137,11.292,0.273,16.894-0.363"/>
			<path style="fill:none;stroke:#1C1D22;stroke-linecap:round;stroke-linejoin:round;stroke-miterlimit:10;" d="M365.764,252.278
				c34.798,0.122,69.597,0.244,104.395,0.366"/>
		</g>
		<polyline style="fill:none;stroke:#1C1D22;stroke-linecap:round;stroke-linejoin:round;stroke-miterlimit:10;" points="
			351.338,250.011 351.338,218.123 629.219,220.401 629.219,273.358 563.45,273.358 		"/>
	</g>
	<g style="clip-path:url(#SVGID_2_);">
		<g>
			<rect x="351.338" y="314.641" style="fill:#FFFFFF;" width="277.882" height="52.957"/>
			<circle style="fill:#98BBE4;" cx="599.487" cy="341.12" r="15.063"/>
			<path style="fill:none;stroke:#1C1D22;stroke-linecap:round;stroke-linejoin:round;stroke-miterlimit:10;" d="M595.181,338.692
				c3.111,1.684,5.328,4.923,5.772,8.432c3.338-7.945,8.316-15.196,14.531-21.166"/>
			<path style="fill:none;stroke:#1C1D22;stroke-linecap:round;stroke-linejoin:round;stroke-miterlimit:10;" d="M366.576,331.029
				c1.41-0.64,3.031-0.529,4.575-0.416c15.966,1.176,32.01,1.288,47.99,0.334c-0.471,0.399-1.146,0.542-1.738,0.369"/>
			<path style="fill:none;stroke:#1C1D22;stroke-linecap:round;stroke-linejoin:round;stroke-miterlimit:10;" d="M427.644,331.328
				c2.341,0.102,4.689,0.037,7.02-0.194c0.256-0.025,0.565-0.094,0.641-0.339s-0.415-0.419-0.406-0.162"/>
			<path style="fill:none;stroke:#1C1D22;stroke-linecap:round;stroke-linejoin:round;stroke-miterlimit:10;" d="M448.536,330.924
				c30.724-1.43,61.476-2.244,92.233-2.441"/>
			<path style="fill:none;stroke:#1C1D22;stroke-linecap:round;stroke-linejoin:round;stroke-miterlimit:10;" d="M366.545,344.551
				c26.673,1.119,53.399,2.237,80.051,0.701c27.604-1.592,55.199-6.028,82.769-3.927"/>
			<path style="fill:none;stroke:#1C1D22;stroke-linecap:round;stroke-linejoin:round;stroke-miterlimit:10;" d="M542.666,342.38
				c2.406-0.032,4.811-0.063,7.217-0.095"/>
		</g>
		<polyline style="fill:none;stroke:#1C1D22;stroke-linecap:round;stroke-linejoin:round;stroke-miterlimit:10;" points="
			538.069,314.641 629.219,314.641 629.219,367.598 535.072,367.598 		"/>
	</g>
	<g style="clip-path:url(#SVGID_2_);">
		<g>
			<rect x="351.338" y="408.882" style="fill:#FFFFFF;" width="277.882" height="52.957"/>
			<circle style="fill:#E3E5E8;" cx="599.487" cy="435.36" r="15.063"/>
			<path style="fill:none;stroke:#1C1D22;stroke-linecap:round;stroke-linejoin:round;stroke-miterlimit:10;" d="M366.145,422.817
				c37.208,0.146,74.418-0.225,111.616-1.111"/>
			<path style="fill:none;stroke:#1C1D22;stroke-linecap:round;stroke-linejoin:round;stroke-miterlimit:10;" d="M486.102,421.541
				c5.441-0.023,10.882-0.045,16.323-0.068"/>
			<path style="fill:none;stroke:#1C1D22;stroke-linecap:round;stroke-linejoin:round;stroke-miterlimit:10;" d="M511.527,422.695
				c7.834-0.559,15.702-0.629,23.545-0.209"/>
			<path style="fill:none;stroke:#1C1D22;stroke-linecap:round;stroke-linejoin:round;stroke-miterlimit:10;" d="M366.145,437.734
				c6.748-0.975,13.592-1.017,20.41-1.058c6.733-0.04,13.466-0.08,20.199-0.12"/>
			<path style="fill:none;stroke:#1C1D22;stroke-linecap:round;stroke-linejoin:round;stroke-miterlimit:10;" d="M423.086,438.079
				c4.512-0.7,9.109-0.848,13.656-0.438"/>
			<path style="fill:none;stroke:#1C1D22;stroke-linecap:round;stroke-linejoin:round;stroke-miterlimit:10;" d="M462.962,437.954
				c19.702,1.168,39.456,1.457,59.184,0.866"/>
		</g>
		<polyline style="fill:none;stroke:#1C1D22;stroke-linecap:round;stroke-linejoin:round;stroke-miterlimit:10;" points="
			605.332,408.882 629.219,408.882 629.219,461.839 568.86,461.839 		"/>
	</g>
	<g style="clip-path:url(#SVGID_2_);">
		<path style="fill:#F59795;" d="M256.752,315.565c-0.11,5.39-0.22,10.79-0.32,16.18c-0.17,8.06-0.33,16.12-0.49,24.18
			c-13.45-0.63-26.91-1.26-40.36-1.89c8.39-29.17,16.79-58.34,25.19-87.5c3.7,11.36,7.41,22.72,11.11,34.08
			C253.502,305.595,255.132,310.585,256.752,315.565z"/>
		<path style="fill:#E56A77;" d="M256.752,315.565c-0.11,5.39-0.22,10.79-0.32,16.18c-2.84-1.89-6.09-4.76-8.63-8.99
			c-7.12-11.85-2.62-24.35-1.98-26.02c2.02,1.29,4.04,2.59,6.06,3.88C253.502,305.595,255.132,310.585,256.752,315.565z"/>
	</g>
	<g style="clip-path:url(#SVGID_2_);">
		<path style="fill:#A081B7;" d="M303.458,560.546c-58.213-1.021-116.426-2.042-174.638-3.064
			c2.282-53.735,5.385-93.435,7.579-106.22c0.762-4.438,1.595-8.687,1.595-8.687c1.818-9.256,3.914-18.043,6.178-26.339
			c8.174-29.852,31.893-52.969,61.979-60.217c9.367-2.253,19.715-3.825,30.923-4.171c2.81-0.09,5.554-0.099,8.23-0.039
			c5.862,0.133,11.319,0.595,12.333,0.786c7.657,1.442,11.381,34.341,10.745,76.779c0.853,1.251,6.932,10.479,3.463,21.092
			c-1.742,5.328-5.13,8.681-7.002,10.269c3.621,10.278,7.385,20.657,11.297,31.13C285.006,515.598,294.145,538.494,303.458,560.546z
			"/>
		<path style="fill:none;stroke:#1C1D22;stroke-linecap:round;stroke-linejoin:round;stroke-miterlimit:10;" d="M288.492,521.015
			c-1.76-3.62-3.46-7.27-5.11-10.94c-7.38-16.41-13.69-33.29-18.9-50.52c5.11-2.44,7.98-8.27,8.21-13.93
			c0.18-4.55-1.1-9.01-2.91-13.22c-0.44-1.03-0.91-2.04-1.4-3.03"/>
	</g>
	<g style="clip-path:url(#SVGID_2_);">
		<path style="fill:#E56A77;" d="M292.331,264.727c4.816,11.137,9.632,22.273,14.448,33.41c-4.876,0.301-9.752,0.602-14.628,0.903
			C292.211,287.602,292.271,276.165,292.331,264.727z"/>
		<path style="fill:#F59795;" d="M278.426,221.565c14.753,4.105,16.253,37.263,17.337,61.221c0.918,20.295,1.952,43.137-9.752,48.76
			c-11.332,5.444-27.749-8.548-29.798-10.294c-16.478-14.044-24.213-39.388-17.337-61.763
			C245.302,238.577,265.221,217.891,278.426,221.565z"/>
		<path style="fill:#1C1D22;" d="M289.532,223.191c5.69,7.612-10.741,28.249-12.19,30.069
			c-13.865,17.415-32.066,24.458-41.717,27.36c-0.736-3.143-6.002-27.352,9.481-44.697
			C258.863,220.512,284.135,215.97,289.532,223.191z"/>
		<path style="fill:#1C1D22;" d="M280.047,219.849c4.19,0.165,10.534,0.95,17.341,4.154c6.648,3.129,19.643,11.074,18.421,18.962
			c-0.093,0.6-0.557,3.062-3.973,5.869c-12.352,10.151-35.963,2.353-40.182,0.903C274.451,239.775,277.249,229.812,280.047,219.849z
			"/>
		<path style="fill:#FFFFFF;" d="M287.86,272.419c-0.069,1.654-4.09,2.9-7.935,3.411c-1.014,0.146-1.998,0.236-2.918,0.263
			c-0.068,0.007-0.138,0.004-0.208,0.001c-1.002,0.026-2.262-0.003-3.543-0.106c-2.675-0.234-5.387-0.852-5.656-2.18
			c-0.379-1.888,4.272-5.061,8.925-5.626c0.861-0.114,1.727-0.126,2.59-0.067c1.156,0.07,2.288,0.262,3.328,0.538
			C285.569,269.503,287.933,271.111,287.86,272.419z"/>
		<path style="fill:#1C1D22;" d="M287.86,272.419c-0.069,1.654-4.09,2.9-7.935,3.411c-1.014,0.146-1.998,0.236-2.918,0.263
			c-0.068,0.007-0.138,0.004-0.208,0.001c-0.779-3.144,1.071-6.342,4.209-7.223c0.484-0.136,0.961-0.212,1.435-0.217
			C285.569,269.503,287.933,271.111,287.86,272.419z"/>
		<path style="fill:none;stroke:#1C1D22;stroke-linecap:round;stroke-linejoin:round;stroke-miterlimit:10;" d="M284.364,261.175
			c-2.9-1.043-6.192-0.951-9.029,0.252"/>
		<path style="fill:none;stroke:#1C1D22;stroke-linecap:round;stroke-linejoin:round;stroke-miterlimit:10;" d="M281.461,304.231
			c3.308,0.849,6.808,0.939,10.155,0.261"/>
		<path style="fill:none;stroke:#1C1D22;stroke-linecap:round;stroke-linejoin:round;stroke-miterlimit:10;" d="M234.044,273.865
			c-2.627-15.33,1.035-32.224,11.932-43.321c10.898-11.097,29.491-14.814,42.67-6.555"/>
		<path style="fill:#F59795;" d="M254.587,280.348c-1.654-7.345-7.404-12.042-12.461-11.648c-6.613,0.515-11.068,9.661-9.363,16.891
			c1.597,6.77,8.583,11.813,16.677,11.282"/>
		<path style="fill:none;stroke:#1C1D22;stroke-linecap:round;stroke-linejoin:round;stroke-miterlimit:10;" d="M232.19,287.051
			c1.561,3.97,5.094,7.107,9.22,8.188c4.126,1.081,8.743,0.08,12.051-2.613"/>
		<path style="fill:none;stroke:#1C1D22;stroke-linecap:round;stroke-linejoin:round;stroke-miterlimit:10;" d="M238.839,274.217
			c5.266-0.737,10.738,3.322,11.561,8.575"/>
		<path style="fill:none;stroke:#1C1D22;stroke-linecap:round;stroke-linejoin:round;stroke-miterlimit:10;" d="M246.099,277.366
			c-4.523,0.643-8.547,4.016-9.97,8.357"/>
	</g>
	<g style="clip-path:url(#SVGID_2_);">
		<polygon style="fill:#A081B7;" points="260.229,363.898 260.229,341.9 213.538,343.209 210.974,361.095 		"/>
		<path style="fill:none;stroke:#1C1D22;stroke-linecap:round;stroke-linejoin:round;stroke-miterlimit:10;" d="M210.165,348.252
			c4.942,1.48,10.232,0.981,15.365,0.468c4.851-0.484,9.702-0.968,14.553-1.453"/>
		<path style="fill:none;stroke:#1C1D22;stroke-linecap:round;stroke-linejoin:round;stroke-miterlimit:10;" d="M209.351,353.964
			c9.824,0.397,19.7-0.485,29.298-2.617"/>
		<path style="fill:none;stroke:#1C1D22;stroke-linecap:round;stroke-linejoin:round;stroke-miterlimit:10;" d="M245.054,352.314
			c4.187,0.14,8.389-0.14,12.52-0.835"/>
	</g>
</g>
<path style="fill:none;stroke:#1C1D22;stroke-linecap:round;stroke-linejoin:round;stroke-miterlimit:10;" d="M75.792,519.687
	c17.05,0.1,34.112,0.201,51.162,0.301c1.383,0.011,2.766,0.011,4.148,0.022c4.449,0.022,8.899,0.056,13.348,0.078
	c11.006,0.067,22.002,0.123,33.008,0.19c27.165,0.156,54.34,0.312,81.516,0.468c7.204,0.045,14.419,0.089,21.622,0.123
	c5.241,0.033,10.471,0.067,15.712,0.089c0.959,0.011,1.907,0.011,2.866,0.022c5.04,0.033,10.092,0.056,15.132,0.089
	c5.921,0.033,11.843,0.067,17.764,0.1c11.898,0.067,23.797,0.134,35.695,0.201c2.944,0.022,5.888,0.033,8.843,0.056
	c7.036,0.033,14.084,0.078,21.121,0.123c3.234,0.022,6.468,0.033,9.702,0.056c14.954,0.089,29.93,0.178,44.884,0.257
	c17.753,0.1,35.506,0.212,53.259,0.312c12.813,0.078,25.637,0.145,38.439,0.223c7.159,0.033,14.307,0.078,21.455,0.123
	c7.583,0.045,15.166,0.089,22.749,0.134"/>
<path style="fill:#E3E5E8;" d="M301.584,534.674c0,0.044,0.011,0.1,0.022,0.145c-0.881-0.011-1.773-0.022-2.654-0.033
	C299.833,534.752,300.703,534.708,301.584,534.674z"/>
<path style="fill:#A081B7;" d="M301.607,534.819c-0.881-0.011-1.773-0.022-2.654-0.033c0.881-0.034,1.751-0.078,2.632-0.112
	C301.584,534.719,301.595,534.775,301.607,534.819z"/>
<ellipse transform="matrix(0.9487 -0.3162 0.3162 0.9487 -175.135 129.7436)" style="fill:#A081B7;" cx="312.191" cy="604.487" rx="31.562" ry="31.562"/>
<g>
	<g>
		<path style="fill:#F59795;" d="M404.416,384.043c3.894-12.156,9.184-23.004,15.633-32.685c0.013-0.02,0.035-0.053,0.048-0.073
			c1.614-2.416,10.736-16.074,15.046-14.588c2.362,0.815,2.512,5.916,2.518,6.213c0.074,3.708-2.174,5.175-6.637,13.619
			c-4.113,7.78-5.473,8.302-7.129,19.075c-0.404,2.625-2.963,7.091-7.688,9.154C410.866,387.089,405.505,384.581,404.416,384.043z"
			/>
		<path style="fill:#F59795;" d="M397.685,432.815c-1.109-9.272-1.644-24.651,4.191-42.063c1.811-5.405,3.961-10.185,6.169-14.332
			c2.478-4.654,7.733-7.142,12.89-6.043c6.241,1.33,13.584,3.828,20.894,8.537c3.084,1.987,5.737,4.093,8.003,6.154
			c4.835,3.386,7.353,9.198,6.473,14.951c-1.296,8.482-9.208,11.807-9.571,11.952c-0.158,6.365-0.317,12.731-0.475,19.096
			c-3.375,2.302-11.762,7.359-23.665,7.884C410.257,439.495,401.201,434.859,397.685,432.815z"/>
		<path style="fill:none;stroke:#E56A77;stroke-linecap:round;stroke-linejoin:round;stroke-miterlimit:10;" d="M406.301,399.798
			c-0.998-1.333-1.131-3.256-0.326-4.713c0.805-1.457,2.504-2.368,4.164-2.233"/>
		<path style="fill:none;stroke:#E56A77;stroke-linecap:round;stroke-linejoin:round;stroke-miterlimit:10;" d="M419.049,400.771
			c-0.074,0.327-0.574,0.087-0.759-0.192c-0.596-0.898-1.216-1.878-1.164-2.954c0.058-1.203,0.977-2.228,2.056-2.762
			c1.079-0.534,2.305-0.669,3.502-0.796"/>
		<path style="fill:none;stroke:#E56A77;stroke-linecap:round;stroke-linejoin:round;stroke-miterlimit:10;" d="M428.047,403.787
			c0.044-1.074-0.721-2.047-0.727-3.122c-0.007-1.126,0.846-2.114,1.858-2.608c1.012-0.494,2.164-0.592,3.287-0.682"/>
		<path style="fill:none;stroke:#E56A77;stroke-linecap:round;stroke-linejoin:round;stroke-miterlimit:10;" d="M415.066,383.794
			c3.226-4.217,6.451-8.435,9.677-12.652"/>
		<path style="fill:none;stroke:#E56A77;stroke-linecap:round;stroke-linejoin:round;stroke-miterlimit:10;" d="M426.902,390.156
			c2.717-4.772,5.857-9.303,9.371-13.522"/>
		<path style="fill:none;stroke:#E56A77;stroke-linecap:round;stroke-linejoin:round;stroke-miterlimit:10;" d="M434.267,392.685
			c3.411-2.444,6.822-4.887,10.233-7.331c0.157-0.112,0.377-0.224,0.525-0.101c0.148,0.123-0.178,0.382-0.191,0.19"/>
		<path style="fill:none;stroke:#E56A77;stroke-linecap:round;stroke-linejoin:round;stroke-miterlimit:10;" d="M441.05,404.316
			c0.875-0.74,1.751-1.48,2.626-2.22c0.201-0.17,0.415-0.361,0.465-0.619c0.062-0.322-0.148-0.627-0.348-0.887
			c-0.81-1.058-1.619-2.116-2.429-3.175c1.334,0.97,2.479,2.2,3.352,3.6c1.653-1.875,3.595-3.495,5.736-4.784"/>
		<path style="fill:none;stroke:#E56A77;stroke-linecap:round;stroke-linejoin:round;stroke-miterlimit:10;" d="M446.968,413.838
			c0.236-5.15,0.177-10.314-0.179-15.458"/>
		<path style="fill:#EBC6BA;" d="M435.089,338.571c-1.021-0.869-4.106,0.052-5.524,1.885c-0.949,1.226-1.427,3.215-0.493,3.935
			c1.044,0.805,3.617-0.157,4.979-1.586C435.286,341.508,435.99,339.338,435.089,338.571z"/>
	</g>
	<path style="fill:#F59795;" d="M446.262,431.065c-0.1,2.92-0.35,6.25-0.9,9.9c-0.41,2.8-1,5.8-1.82,8.94
		c-1.49,5.71-3.42,10.7-5.41,14.91c-1.3,2.76-2.63,5.19-3.86,7.27c-12.43-8.06-24.86-16.13-37.29-24.2l1.62-18.51L446.262,431.065z"
		/>
	<path style="fill:#E56A77;" d="M445.362,440.965c-0.41,2.8-1,5.8-1.82,8.94c-1.49,5.71-3.42,10.7-5.41,14.91
		c-9.15-7.75-18.29-15.5-27.44-23.25c1.59,1.08,12.41,8.19,25.28,4.34C439.912,444.725,443.032,442.825,445.362,440.965z"/>
</g>
<g>
	<path style="fill:#A081B7;" d="M326.052,579.905c9.164,14.317,20.369,31.823,13.832,43.961
		c-5.571,10.345-21.331,11.777-25.711,12.119c-1.948,0.141-5.929,0.349-10.884-0.034c-37.21-2.876-64.938-34.143-94.197-67.136
		c-8.027-9.052-14.019-16.896-16.95-20.84c-5.38-7.24-10.73-15.08-15.79-23.31c-9.45-15.36-17.89-32.06-23.56-48.7
		c-9.11-26.72-11.1-53.27,1.27-73.84c5.45-9.06,12.57-15.06,18.15-18.88c12.58-4.13,26.29,1.36,32.5,13.04
		c17.36,32.54,37.75,67.08,61.73,102.72c0.43,0.65,0.87,1.29,1.32,1.94c4.85,7.18,9.71,14.21,14.57,21.07
		c12.603,17.788,24.96,33.96,24.96,33.96C322.476,575.737,321.634,573.003,326.052,579.905z"/>
	<path style="fill:#814D99;" d="M178.352,522.755c-0.58,0.73-1.25,1.37-2,1.91c-4.647-6.481-9.547-14.267-14.093-23.392
		c-7.1-14.25-11.21-27.495-13.669-38.239c1.071,0.59,2.142,1.18,3.213,1.771C176.302,489.605,185.722,513.395,178.352,522.755z"/>
	<path style="fill:#814D99;" d="M321.586,573.823c-3.745,1.958-7.489,3.915-11.234,5.872c-4.067-0.688-9.5-2.33-13.144-6.776
		c-4.453-5.431-2.87-10.941-3.966-20.035c-2.389-19.833-14.765-33.896-13.89-34.39c0.445-0.251,2.98,3.52,2.98,3.52
		C288.019,530.474,299.694,546.087,321.586,573.823z"/>
	<path style="fill:none;stroke:#1C1D22;stroke-linecap:round;stroke-linejoin:round;stroke-miterlimit:10;" d="M221.341,424.454
		c6.134,11.694,12.78,23.654,19.983,35.817c17.549,29.629,35.791,56.033,53.721,79.369"/>
	<path style="fill:none;stroke:#1C1D22;stroke-linecap:round;stroke-linejoin:round;stroke-miterlimit:10;" d="M147.494,458.057
		c6.818,33.239,23.164,64.469,46.592,89.014"/>
</g>
<g>
	<path style="fill:#A081B7;" d="M442.962,461.835c-2.314,7.081-43.749,131.445-92.184,161.691
		c-8.434,5.267-26.291,16.417-45.958,11.574c-3.273-0.806-14.069-3.627-20.936-13.277c-11.113-15.616-5.663-40.299,4.255-49.021
		c1.639-1.441,6.512-5.183,12.51-11.766c2.721-2.986,4.551-5.394,5.512-6.541c12.78-15.25,25.73-31.42,38.72-48.53
		c2.42-3.18,4.81-6.36,7.16-9.52c11.73-15.72,22.7-31.19,32.96-46.29c4.3-6.33,8.47-12.59,12.52-18.79
		C412.672,441.525,427.812,451.684,442.962,461.835z"/>
	<path style="fill:none;stroke:#1C1D22;stroke-linecap:round;stroke-linejoin:round;stroke-miterlimit:10;" d="M316.362,543.225
		c-3.38,3.78-6.75,7.57-10.13,11.36c-0.87,0.98-1.75,1.96-2.62,2.94c-1.56,1.74-3.12,3.49-4.79,5.14c-1.73,1.7-3.58,3.28-5.61,4.61
		c-0.04,0.02-0.07,0.05-0.11,0.07"/>
	<path style="fill:#814D99;" d="M380.312,471.954c-7.22,14.8-20.43,21.61-28.27,24.49c11.73-15.72,22.7-31.19,32.96-46.29
		C385.112,455.745,384.342,463.674,380.312,471.954z"/>
</g>
<g>
	<rect x="42.065" y="66.884" style="fill:none;" width="206.609" height="48.896"/>
	<path d="M46.564,68.207h-2.459v-0.888h5.984v0.888h-2.471v7.196h-1.055V68.207z"/>
	<path d="M51.4,72.86l-0.84,2.543h-1.079l2.746-8.084h1.26l2.758,8.084H55.13l-0.863-2.543H51.4z M54.051,72.045l-0.792-2.326
		c-0.18-0.528-0.3-1.008-0.419-1.476h-0.024c-0.12,0.479-0.252,0.972-0.408,1.463l-0.791,2.339H54.051z"/>
	<path d="M57.293,74.132c0.468,0.288,1.151,0.528,1.871,0.528c1.067,0,1.69-0.564,1.69-1.38c0-0.756-0.432-1.188-1.522-1.606
		c-1.319-0.468-2.135-1.151-2.135-2.291c0-1.26,1.043-2.195,2.614-2.195c0.827,0,1.427,0.192,1.787,0.396l-0.288,0.852
		c-0.264-0.145-0.804-0.384-1.535-0.384c-1.104,0-1.523,0.659-1.523,1.211c0,0.756,0.492,1.127,1.607,1.56
		c1.367,0.527,2.063,1.187,2.063,2.374c0,1.248-0.923,2.327-2.83,2.327c-0.779,0-1.631-0.229-2.063-0.516L57.293,74.132z"/>
	<path d="M63.353,67.319h1.044v3.898h0.035c0.217-0.312,0.433-0.6,0.636-0.863l2.471-3.035h1.296l-2.927,3.431l3.154,4.653h-1.235
		l-2.662-3.97l-0.768,0.888v3.082h-1.044V67.319z"/>
	<path d="M79.213,71.854c-0.061-1.128-0.132-2.482-0.12-3.49h-0.036c-0.275,0.947-0.611,1.955-1.02,3.07l-1.427,3.922h-0.792
		l-1.307-3.85c-0.384-1.14-0.708-2.184-0.936-3.143h-0.024c-0.023,1.008-0.084,2.362-0.156,3.574l-0.216,3.466h-0.995l0.563-8.084
		h1.332l1.379,3.91c0.336,0.995,0.611,1.883,0.815,2.723h0.036c0.204-0.815,0.491-1.703,0.852-2.723l1.439-3.91h1.331l0.504,8.084
		h-1.02L79.213,71.854z"/>
	<path d="M83.235,72.86l-0.839,2.543h-1.08l2.747-8.084h1.259l2.759,8.084h-1.115l-0.863-2.543H83.235z M85.886,72.045l-0.791-2.326
		c-0.18-0.528-0.3-1.008-0.42-1.476H84.65c-0.119,0.479-0.251,0.972-0.407,1.463l-0.792,2.339H85.886z"/>
	<path d="M89.272,75.403v-8.084h1.14l2.591,4.09c0.6,0.948,1.067,1.8,1.451,2.627l0.023-0.012c-0.096-1.08-0.12-2.063-0.12-3.322
		v-3.383h0.983v8.084h-1.055l-2.566-4.102c-0.564-0.899-1.104-1.823-1.512-2.698l-0.036,0.012c0.061,1.02,0.084,1.991,0.084,3.334
		v3.454H89.272z"/>
	<path d="M98.476,72.86l-0.839,2.543h-1.08l2.747-8.084h1.259l2.759,8.084h-1.115l-0.863-2.543H98.476z M101.126,72.045
		l-0.791-2.326c-0.18-0.528-0.3-1.008-0.42-1.476h-0.024c-0.119,0.479-0.251,0.972-0.407,1.463l-0.792,2.339H101.126z"/>
	<path d="M110.485,75.044c-0.468,0.168-1.392,0.443-2.482,0.443c-1.224,0-2.231-0.312-3.022-1.067
		c-0.695-0.672-1.128-1.751-1.128-3.011c0.013-2.41,1.667-4.174,4.378-4.174c0.936,0,1.667,0.204,2.015,0.372l-0.252,0.852
		c-0.432-0.191-0.971-0.348-1.787-0.348c-1.967,0-3.25,1.224-3.25,3.25c0,2.051,1.235,3.263,3.118,3.263
		c0.684,0,1.151-0.097,1.392-0.216v-2.411h-1.644v-0.84h2.663V75.044z"/>
	<path d="M116.271,71.613h-3.143v2.914h3.502v0.876h-4.545v-8.084h4.365v0.876h-3.322v2.555h3.143V71.613z"/>
	<path d="M124.801,71.854c-0.061-1.128-0.132-2.482-0.12-3.49h-0.036c-0.275,0.947-0.611,1.955-1.02,3.07l-1.427,3.922h-0.792
		l-1.307-3.85c-0.384-1.14-0.708-2.184-0.936-3.143h-0.024c-0.023,1.008-0.084,2.362-0.156,3.574l-0.216,3.466h-0.995l0.563-8.084
		h1.332l1.379,3.91c0.336,0.995,0.611,1.883,0.815,2.723h0.036c0.204-0.815,0.491-1.703,0.852-2.723l1.439-3.91h1.331l0.504,8.084
		h-1.02L124.801,71.854z"/>
	<path d="M131.822,71.613h-3.143v2.914h3.502v0.876h-4.545v-8.084h4.365v0.876h-3.322v2.555h3.143V71.613z"/>
	<path d="M133.54,75.403v-8.084h1.14l2.591,4.09c0.6,0.948,1.067,1.8,1.451,2.627l0.023-0.012c-0.096-1.08-0.12-2.063-0.12-3.322
		v-3.383h0.983v8.084h-1.055l-2.566-4.102c-0.564-0.899-1.104-1.823-1.512-2.698l-0.036,0.012c0.061,1.02,0.084,1.991,0.084,3.334
		v3.454H133.54z"/>
	<path d="M142.972,68.207h-2.459v-0.888h5.984v0.888h-2.471v7.196h-1.055V68.207z"/>
</g>
<g>
</g>
<g>
</g>
<g>
</g>
<g>
</g>
<g>
</g>
<g>
</g>
<g>
</g>
<g>
</g>
<g>
</g>
<g>
</g>
<g>
</g>
<g>
</g>
<g>
</g>
<g>
</g>
<g>
</g>
</svg>
