<?xml version="1.0" encoding="iso-8859-1"?>
<!-- Generator: Adobe Illustrator 24.0.1, SVG Export Plug-In . SVG Version: 6.00 Build 0)  -->
<svg version="1.1" id="Layer_1" xmlns="http://www.w3.org/2000/svg" xmlns:xlink="http://www.w3.org/1999/xlink" x="0px" y="0px"
	 viewBox="0 0 700 700" style="enable-background:new 0 0 700 700;" xml:space="preserve">
<g>
	<defs>
		<rect id="SVGID_1_" x="45.708" y="108.327" width="615.016" height="417.267"/>
	</defs>
	<clipPath id="SVGID_2_">
		<use xlink:href="#SVGID_1_"  style="overflow:visible;"/>
	</clipPath>
	<g style="clip-path:url(#SVGID_2_);">
		<path style="fill:#E3E5E8;" d="M146.766,558.455c-28.238-16.396-68.46-40.516-83.242-86.66
			c-22.407-69.948,23.473-160.434,81.786-187.379c21.686-10.02,33.567-9.771,90.465-28.33c13.581-4.426,29.12-10.68,47.667-20.29
			c83.453-43.252,85.541-80.92,139.257-93.938c63.308-15.342,149.516,19.415,190.084,77.36
			c69.258,98.923,8.526,258.983-89.166,337.193C366.918,681.864,156.136,563.896,146.766,558.455z"/>
		<path style="fill:none;stroke:#E3E5E8;stroke-linecap:round;stroke-linejoin:round;stroke-miterlimit:10;" d="M479.609,142.062
			c-23.985-6.607-57.942-11.593-91.726,1.658c-40.006,15.691-48.773,40.816-80.675,69.624
			c-83.236,75.163-173.659,29.88-223.79,95.778c-12.937,17.006-26.762,46.109-23.191,97.255"/>
	</g>
</g>
<path style="fill:#FFFFFF;" d="M314.737,524.989c-0.011,0.184-0.032,0.379-0.043,0.563c-0.541,0.011-1.093,0.022-1.645,0.043
	c0.011-0.206,0.022-0.4,0.033-0.606H314.737z"/>
<path style="fill:#FFFFFF;" d="M323.254,524.989h4.253c-0.065,0.086-0.13,0.173-0.195,0.249c-1.353,0.033-2.705,0.065-4.069,0.097
	C323.243,525.227,323.254,525.107,323.254,524.989z"/>
<g>
	<path style="fill:#FFFFFF;" d="M458.612,150.903c-24.442-3.722-49.903,9.742-60.23,32.602
		c-12.888,28.529,0.925,64.762,30.391,76.807c31.964,13.066,70.661-7.107,77.912-40.89
		C513.52,187.583,489.847,155.659,458.612,150.903z"/>
	<path style="fill:#FFFFFF;" d="M427.115,248.708c3.038,8.424,6.568,17.303,10.683,26.523c3.259,7.304,6.599,14.181,9.946,20.629
		c-0.021-4.826,0.089-9.867,0.368-15.103c0.53-9.943,1.591-19.181,2.947-27.628C443.079,251.655,435.097,250.181,427.115,248.708z"
		/>
	<path style="fill:none;stroke:#1C1D22;stroke-linecap:round;stroke-linejoin:round;stroke-miterlimit:10;" d="M443.607,181.024
		c8.036,1.463,16.072,2.926,24.108,4.388c-0.598-0.109-5.932,20.61-6.436,22.539c-0.921,3.522-1.366,7.634-2.795,10.975
		c-1.215,2.84-2.846,3.086-5.675,3.259c-1.361,0.083-2.711,0.315-4.075,0.363c-2.089,0.073-2.542,0.261-2.794-1.712
		c-0.57-4.475-0.385-9.09-0.996-13.607C444.671,205.212,442.154,180.76,443.607,181.024z"/>
	<path style="fill:none;stroke:#1C1D22;stroke-linecap:round;stroke-linejoin:round;stroke-miterlimit:10;" d="M451.04,228.373
		c-3.489,0.966-6.108,4.453-6.065,8.072c0.015,1.241,0.325,2.503,1.045,3.515c0.719,1.012,1.879,1.743,3.12,1.785
		c0.798,0.027,1.584-0.223,2.303-0.572c2.252-1.094,3.949-3.176,4.812-5.526c0.405-1.104,0.64-2.298,0.464-3.461
		c-0.176-1.163-0.806-2.292-1.821-2.887c-1.195-0.7-2.684-0.571-4.057-0.388"/>
</g>
<g>
	<path style="fill:#FFFFFF;" d="M475.005,299.176c-11.899,0.885-22.989,8.692-27.628,19.893
		c-7.09,17.115,2.478,38.302,18.419,44.205c20.268,7.506,46.384-11.346,45.679-32.786
		C510.915,313.467,493.549,297.797,475.005,299.176z"/>
	<path style="fill:#FFFFFF;" d="M462.848,351.854c1.049,5.68,2.475,11.863,4.421,18.419c2.65,8.93,5.746,16.81,8.841,23.576
		c0.885-7.709,2.084-15.834,3.684-24.313c0.911-4.83,1.9-9.498,2.947-13.999C476.11,354.31,469.479,353.082,462.848,351.854z"/>
	<path style="fill:none;stroke:#1C1D22;stroke-linecap:round;stroke-linejoin:round;stroke-miterlimit:10;" d="M474.056,315.673
		c3.079-1.054,6.158-2.108,9.237-3.163c-1.119,5.083-1.281,10.322-1.439,15.524c-0.176,5.799-0.352,11.598-0.528,17.396
		c-1.424,0.193-2.816,0.619-4.104,1.254c-2.657-9.671-5.313-19.342-7.97-29.013c-0.066-0.239-0.196-0.529-0.444-0.524
		c-0.248,0.005-0.122,0.527,0.041,0.341"/>
	<path style="fill:none;stroke:#1C1D22;stroke-linecap:round;stroke-linejoin:round;stroke-miterlimit:10;" d="M480.895,349.786
		c-1.256-0.171-2.545,0.689-2.962,1.886c-0.417,1.197,0.012,2.613,0.958,3.456c0.946,0.844,2.337,1.117,3.563,0.796
		c1.489-0.39,2.755-1.733,2.801-3.272s-1.348-3.044-2.88-2.893"/>
</g>
<g>
	<path style="fill:#FFFFFF;" d="M588.834,252.576c-18.281-1.669-31.346,17.362-32.049,18.419
		c-11.364,17.071-11.884,45.634,5.526,57.467c18.28,12.424,49.155,1.528,57.836-20.629
		C629.485,283.995,610.231,254.53,588.834,252.576z"/>
	<path style="fill:#FFFFFF;" d="M556.416,305.438c-4.848,6.486-10.921,16.214-15.104,29.102c-2.608,8.036-3.849,15.353-4.42,21.366
		c2.075-5.294,5.556-12.478,11.42-19.892c6.752-8.538,14.008-14.023,19.156-17.314C563.784,314.279,560.1,309.859,556.416,305.438z"
		/>
	<path style="fill:none;stroke:#1C1D22;stroke-linecap:round;stroke-linejoin:round;stroke-miterlimit:10;" d="M566.253,293.997
		c4.306,5.581,7.83,11.763,10.438,18.312c9.605-10.35,21.16-18.885,33.876-25.024c-5.877-0.325-11.574,1.942-16.867,4.515
		c-5.382,2.615-10.588,5.591-15.574,8.9c-3.628-2.893-7.808-5.092-12.247-6.443"/>
</g>
<path style="fill:none;stroke:#1C1D22;stroke-linecap:round;stroke-linejoin:round;stroke-miterlimit:10;" d="M620.434,525.237
	c-16.751-0.087-33.481-0.173-50.232-0.249c-14.554-0.076-29.13-0.141-43.685-0.216c-20.171-0.097-40.352-0.206-60.523-0.303
	c-17-0.076-34.011-0.162-51.011-0.249c-3.679-0.022-7.348-0.032-11.027-0.054c-7.997-0.043-16.004-0.087-24.001-0.119
	c-3.355-0.022-6.698-0.032-10.053-0.054c-20.246-0.097-40.503-0.195-60.75-0.292c-12.769-0.065-25.538-0.13-38.307-0.195
	c-8.192-0.032-16.383-0.076-24.575-0.119c-43.382-0.216-86.764-0.422-130.146-0.638c-6.623-0.032-13.256-0.065-19.878-0.097
	c-19.381-0.097-38.761-0.195-58.142-0.292"/>
<g>
	<path style="fill:#1C1D22;" d="M197.089,175.255c-17.578,3.26-29.074,20.754-31.417,35.905
		c-4.423,28.6,21.817,61.455,46.676,58.345c20.649-2.583,38.161-29.706,33.661-54.755
		C241.897,191.861,219.476,171.102,197.089,175.255z"/>
	<path style="fill:none;stroke:#1C1D22;stroke-linecap:round;stroke-linejoin:round;stroke-miterlimit:10;" d="M227.159,186.026
		c0.383-4.251-7.012-8.6-10.173-10.438c-16.98-9.872-38.84,2.771-47.538,18.163c-0.266,0.471-0.522,0.948-0.767,1.43
		c-1.206,2.382-2.111,4.921-2.593,7.55c-1.497,8.16-0.853,16.3,1.978,24.137"/>
</g>
<g>
	<path style="fill:#1C1D22;" d="M213.246,199.042c3.934-8.923,13.912-19.946,26.48-19.299c12.789,0.659,20.252,12.99,22.441,16.606
		c1.473,2.434,12.153,20.775,1.795,37.7c-6.265,10.237-19.073,18.072-30.812,15.626
		C214.569,245.802,205.103,217.514,213.246,199.042z"/>
	<path style="fill:none;stroke:#1C1D22;stroke-linecap:round;stroke-linejoin:round;stroke-miterlimit:10;" d="M267.403,208.317
		c1.544-1.713,0.038-8.2-0.524-10.322c-0.889-3.359-1.928-6.669-4.114-9.391c-4.206-5.238-9.689-7.378-16.27-7.631
		c-2.008-0.077-3.859,0.526-5.736,1.193c-0.98,0.348-1.907,0.667-2.8,1.166c-1.49,0.833-2.366,2.398-3.768,3.292"/>
	<path style="fill:none;stroke:#FFFFFF;stroke-linecap:round;stroke-linejoin:round;stroke-miterlimit:10;" d="M229.828,180.622
		c-7.962,4.363-13.905,12.251-15.904,21.107c-1.998,8.856-0.017,18.532,5.3,25.891"/>
</g>
<g>
	<path style="fill:#F59795;" d="M253.504,243.177c-2.548,25.133-5.096,50.265-7.644,75.398c2.86,1.737,8.835,4.845,17.055,5.386
		c8.062,0.53,14.29-1.671,17.354-2.992c-0.698-10.772-1.396-21.543-2.094-32.314C269.951,273.495,261.727,258.337,253.504,243.177z"
		/>
	<path style="fill:#E56A77;" d="M279.211,304.655c-3.037-2.068-7.45-5.671-11.083-11.392c-6.69-10.534-6.298-21.26-5.957-25.191
		c5.674,8.511,11.348,17.021,17.021,25.532C279.198,297.288,279.205,300.972,279.211,304.655z"/>
</g>
<g>
	<path style="fill:#F59795;" d="M256.239,248.772c-2.908-6.37-7.555-11.137-12.069-10.946c-7.501,0.318-15.224,14.354-9.823,23.015
		c3.538,5.674,12.205,8.234,20.489,5.052C255.303,260.186,255.771,254.479,256.239,248.772z"/>
	<path style="fill:none;stroke:#E56A77;stroke-linecap:round;stroke-linejoin:round;stroke-miterlimit:10;" d="M249.749,254.246
		c0.155-5.747-6.14-11.722-11.37-7.181"/>
	<path style="fill:none;stroke:#E56A77;stroke-linecap:round;stroke-linejoin:round;stroke-miterlimit:10;" d="M244.663,246.765
		c-1.22-0.271-2.248,2.657-2.526,3.743c-0.589,2.299-0.424,5.047,0.132,7.327"/>
</g>
<g>
	<path style="fill:#F59795;" d="M311.537,264.568c-1.107,7.77-4.948,34.647-18.405,37.697c-14.01,3.182-33.32-20.611-38.145-43.533
		c-0.897-4.263-1.477-9.369-1.485-14.748c-0.026-14.256,3.999-30.384,16.893-37.609c1.046-0.589,12.472-6.768,23.634-2.101
		c12.595,5.265,17.201,21.147,18.308,36.326C312.996,249.627,312.416,258.407,311.537,264.568z"/>
	<path style="fill:#1C1D22;" d="M312.337,240.6c-1.652-2.013-3.34-4.236-4.992-6.697c-4.131-6.17-6.926-12.032-8.824-16.91
		c-3.419,4.43-8.693,10.204-16.304,15.408c-11.233,7.691-22.175,10.459-28.714,11.584c-0.026-14.256,3.999-30.384,16.893-37.609
		c1.046-0.589,12.472-6.768,23.634-2.101C306.624,209.539,311.229,225.421,312.337,240.6z"/>
	<path style="fill:none;stroke:#FFFFFF;stroke-linecap:round;stroke-linejoin:round;stroke-miterlimit:10;" d="M269.418,206.558
		c-7.784,5.425-12.839,14.578-13.287,24.055"/>
	<path style="fill:none;stroke:#1C1D22;stroke-linecap:round;stroke-linejoin:round;stroke-miterlimit:10;" d="M290.957,280.552
		c2.163,1.227,4.722,1.743,7.192,1.45"/>
	<path style="fill:#FFFFFF;" d="M289.256,255.488c-0.341,1.486-4.191,1.935-7.758,1.75c-0.943-0.039-1.848-0.123-2.685-0.254
		c-0.062-0.005-0.126-0.02-0.189-0.035c-0.911-0.145-2.047-0.384-3.189-0.694c-2.382-0.663-4.733-1.68-4.752-2.927
		c-0.025-1.773,4.72-3.861,9.027-3.587c0.798,0.042,1.585,0.177,2.356,0.376c1.034,0.258,2.027,0.623,2.922,1.048
		C287.674,252.462,289.543,254.317,289.256,255.488z"/>
	<path style="fill:#FFFFFF;" d="M314.889,256.516c-0.231,1.558-3.844,2.244-6.799,2.2c-0.309,0.007-0.621-0.017-0.912-0.042
		c-0.686-0.052-1.419-0.172-2.156-0.333c-2.799-0.605-5.538-1.907-5.532-3.332c0.013-1.694,4-3.497,7.524-3.318
		c0.508,0.027,1.01,0.105,1.525,0.203c1.335,0.272,2.609,0.787,3.656,1.405C313.897,254.314,315.022,255.575,314.889,256.516z"/>
	<path style="fill:#1C1D22;" d="M314.889,256.516c-0.231,1.558-3.844,2.244-6.799,2.2c-0.309,0.007-0.621-0.017-0.912-0.042
		c-0.686-0.052-1.419-0.172-2.156-0.333c0.116-2.725,2.233-5.01,5.028-5.261c0.747-0.067,1.477,0.012,2.146,0.22
		C313.897,254.314,315.022,255.575,314.889,256.516z"/>
	<path style="fill:#1C1D22;" d="M289.256,255.488c-0.341,1.486-4.191,1.935-7.758,1.75c-0.943-0.039-1.848-0.123-2.685-0.254
		c-0.062-0.005-0.126-0.02-0.189-0.035c-0.175-2.977,2.039-5.56,5.028-5.829c0.461-0.041,0.906-0.03,1.335,0.045
		C287.674,252.462,289.543,254.317,289.256,255.488z"/>
	<polygon style="fill:#E56A77;" points="295.836,249.337 303.834,271.825 292.464,271.825 	"/>
	<path style="fill:none;stroke:#1C1D22;stroke-linecap:round;stroke-linejoin:round;stroke-miterlimit:10;" d="M282.404,241.686
		c-2.953-0.226-5.982,0.894-8.078,2.987"/>
	<path style="fill:none;stroke:#1C1D22;stroke-linecap:round;stroke-linejoin:round;stroke-miterlimit:10;" d="M304.443,244.775
		c1.888,0.016,3.772,0.417,5.504,1.169"/>
</g>
<g>
	<path style="fill:#98BBE4;" d="M328.956,352.446c-0.941,11.405-1.883,22.811-2.824,34.216v0.033
		c-2.543,30.808-5.086,61.615-7.618,92.423c-0.985,11.99-1.969,23.969-2.965,35.959c-0.271,3.3-0.541,6.612-0.812,9.912
		c-0.011,0.184-0.032,0.379-0.043,0.563c-0.541,0.011-1.093,0.022-1.645,0.043c0.011-0.206,0.022-0.4,0.033-0.606H91.974
		c8.267-19.5,16.546-38.999,24.813-58.51c16.654-39.27,33.307-78.54,49.95-117.81c0.79-1.84,1.569-3.69,2.348-5.53
		c2.262-6.417,6.049-12.022,10.908-16.426c6.752-6.157,15.572-9.999,25.127-10.561c10.583-0.628,21.967-0.855,34.065-0.498
		c8.505,0.238,17.357,0.768,26.512,1.666c6.233,0.617,12.271,1.353,18.115,2.207c8.192,1.18,15.994,2.586,23.395,4.123
		c6.904,1.439,12.704,5.346,16.589,10.626c0.303,0.433,0.606,0.876,0.909,1.32c0.054,0.076,0.097,0.141,0.151,0.216
		c0.877,1.385,1.634,2.857,2.251,4.393C328.632,343.984,329.313,348.15,328.956,352.446z"/>
	<path style="fill:#668BC7;" d="M236.383,325.093c3.758,6.809,7.464,15.077,10.213,24.766c8.673,30.575,2.724,57.363-1.555,71.222
		C242.155,389.085,239.269,357.089,236.383,325.093z"/>
	<path style="fill:#1C1D22;" d="M365.218,523.701c-17.184-0.108-34.368-0.206-51.552-0.314c0.682-12.574,1.353-25.17,2.024-37.755
		c2.705-50.448,5.4-100.907,8.105-151.355c0.303,0.454,0.606,0.92,0.909,1.385c0.054,0.076,0.097,0.152,0.151,0.227
		c10.951,16.935,23.785,40.936,32.637,71.722C371.18,455.257,369.005,497.189,365.218,523.701z"/>
	<path style="fill:#1C1D22;" d="M241.348,524.989H73.437c-4.036-0.552-8.083-1.104-12.12-1.656
		c35.136-58.218,70.283-116.446,105.419-174.664c4.426-7.315,8.841-14.641,13.256-21.956c6.752-6.157,15.572-9.999,25.127-10.561
		c10.583-0.628,21.967-0.855,34.065-0.498c-0.097,1.071-0.184,2.153-0.281,3.236c1.742,16.113,3.16,32.691,4.209,49.723
		C246.532,424.547,245.363,476.91,241.348,524.989z"/>
	<path style="fill:#1C1D22;" d="M327.106,340.207c-0.325,15.485-0.649,30.97-0.974,46.455v0.032
		c-0.649,31.23-1.309,62.46-1.948,93.679c-0.249,11.568-0.487,23.135-0.725,34.703c-0.065,3.3-0.141,6.612-0.206,9.912h-8.516
		c-0.011,0.184-0.032,0.379-0.043,0.563c-0.541,0.011-1.093,0.022-1.645,0.043c0.011-0.206,0.022-0.4,0.033-0.606h-31.544
		c0.195-17.574,0.39-35.158,0.584-52.731c0.563-50.913,1.125-101.816,1.688-152.729c8.192,1.18,15.994,2.586,23.395,4.123
		c6.904,1.439,12.704,5.346,16.589,10.626c0.303,0.433,0.606,0.876,0.909,1.32c0.054,0.076,0.097,0.141,0.152,0.216
		C325.732,337.199,326.489,338.67,327.106,340.207z"/>
	<polygon style="fill:#98BBE4;" points="238.906,318.884 239.611,300.447 262.818,305.991 265.397,310.411 269.449,306.359 
		283.816,305.254 283.816,324.41 	"/>
	<path style="fill:none;stroke:#1C1D22;stroke-linecap:round;stroke-linejoin:round;stroke-miterlimit:10;" d="M269.633,308.938
		c1.228,4.284,1.927,8.792,2.871,13.166c0.628,2.91,1.393,5.7,1.357,8.688c2.086-3.294,6.241-6.514,9.517-8.597"/>
	<path style="fill:none;stroke:#1C1D22;stroke-linecap:round;stroke-linejoin:round;stroke-miterlimit:10;" d="M262.634,309.674
		c-1.85,2.871-2.259,7.369-3.085,10.642c-0.99,3.921-1.457,8.249-2.811,12.033c-3.031-2.116-5.474-5.19-8.417-7.486
		c-3.244-2.53-6.681-4.812-10.272-6.818"/>
	<path style="fill:none;stroke:#1C1D22;stroke-linecap:round;stroke-linejoin:round;stroke-miterlimit:10;" d="M264.66,315.384
		c-1.416,20.289,0.596,41.263,1.474,61.464c1.026,23.624,2.947,47.185,2.947,70.973c0,9.339-1.3,19.58,0.285,28.517
		c-0.495-0.09-0.115-0.318-0.285-0.709"/>
	<path style="fill:none;stroke:#FFFFFF;stroke-linecap:round;stroke-linejoin:round;stroke-miterlimit:10;" d="M325.853,400.103
		c0.403,11.505,0.558,23.492,0.396,35.925c-0.217,16.648-0.98,32.507-2.132,47.501"/>
	<path style="fill:none;stroke:#FFFFFF;stroke-linecap:round;stroke-linejoin:round;stroke-miterlimit:10;" d="M332.785,401.476
		c-1.208,9.868-2.419,19.754-4.555,29.464c-0.265,1.207-0.545,2.411-0.839,3.611"/>
	<path style="fill:none;stroke:#FFFFFF;stroke-linecap:round;stroke-linejoin:round;stroke-miterlimit:10;" d="M186.58,417.08
		c8.205-7.077,15.959-14.677,23.201-22.737c0.149-0.166,0.308-0.385,0.222-0.591s-0.509-0.073-0.378,0.107"/>
	<path style="fill:none;stroke:#FFFFFF;stroke-linecap:round;stroke-linejoin:round;stroke-miterlimit:10;" d="M290.824,321.638
		c4.958,4.858,9.199,10.447,12.543,16.529c-3.424,1.765-6.697,3.823-9.771,6.144c2.858,6.241,5.717,12.482,8.575,18.723
		c0.327,0.713,0.659,1.448,0.703,2.231c0.061,1.084-0.432,2.113-0.883,3.1c-2.816,6.167-4.402,12.812-5.971,19.408
		c-4.195,17.633-8.39,35.265-12.585,52.898"/>
	<path style="fill:#668BC7;" d="M282.936,398.618c-0.704,19.758-2.723,41.16-6.723,63.837c-1.094,6.203-2.292,12.247-3.574,18.128
		c4,0.34,8,0.681,12,1.021C284.071,453.942,283.504,426.28,282.936,398.618z"/>
	<path style="fill:none;stroke:#FFFFFF;stroke-linecap:round;stroke-linejoin:round;stroke-miterlimit:10;" d="M235.173,317.168
		c-7.954,2.411-15.435,6.371-21.9,11.593c7.565,5.162,13.865,12.165,18.202,20.231c-2.463,6.439-4.926,12.879-7.39,19.318
		c-0.496,1.298-0.999,2.624-1.052,4.013c-0.042,1.098,0.2,2.185,0.443,3.257c5.552,24.502,12.409,48.709,20.533,72.483"/>
</g>
<g>
	<path style="fill:#1C1D22;" d="M211.447,336.157c-6.835-8.088-17.036-10.25-17.036-10.25c-6.336-1.259-11.624-0.055-14.418,0.805
		c-23.958,23.401-49.68,51.261-75.376,83.985c-21.054,26.813-38.862,52.782-53.888,76.954c-1.505,2.623-7.59,13.887-3.791,26.633
		c4.795,16.088,22.214,24.06,35.525,23.827c9.156-0.16,18.27-4.236,33.357-19.228c25.894-25.73,28.21-38.018,49.103-73.186
		c8.339-14.037,21.536-33.953,41.489-56.094C221.666,372.524,222.639,349.401,211.447,336.157z"/>
	<path style="fill:none;stroke:#FFFFFF;stroke-linecap:round;stroke-linejoin:round;stroke-miterlimit:10;" d="M200.488,394.085
		c-15.202,24.611-31.53,48.526-48.916,71.645"/>
	<path style="fill:none;stroke:#FFFFFF;stroke-linecap:round;stroke-linejoin:round;stroke-miterlimit:10;" d="M121.508,460.234
		c9.424,2.903,18.927,5.546,28.496,7.927c0.326,0.081,0.779-0.383,0.442-0.395"/>
</g>
<g>
	<path style="fill:#F59795;" d="M360.638,505.478c9.926-3.293,21.454-1.424,30.055,4.416c2.84,1.938,5.372,4.296,7.308,7.089
		c1.009,1.456,0.647,3.454-0.809,4.464c-0.974,0.675-2.176,0.733-3.184,0.274c-7.513-3.224-15.078-5.512-23.187-5.629
		c-2.64-0.054-5.29,0.104-7.989,0.285C356.299,516.701,354.543,507.667,360.638,505.478L360.638,505.478z"/>
	<path style="fill:#F59795;" d="M360.152,499.478c11.989-3.509,25.676-0.861,35.699,6.5c3.319,2.421,6.24,5.344,8.479,8.713
		c0.97,1.46,0.573,3.429-0.887,4.4c-1.058,0.703-2.378,0.687-3.4,0.074c-3.108-1.736-6.119-3.314-9.2-4.597
		c-6.056-2.548-12.32-4.058-18.824-4.377c-3.253-0.169-6.523-0.022-9.836,0.231C355.514,510.795,353.837,501.487,360.152,499.478
		L360.152,499.478z"/>
	<path style="fill:#F59795;" d="M361.06,489.112c13.926-3.846,29.685,0.029,40.53,9.504c3.565,3.094,6.627,6.704,8.863,10.769
		c0.84,1.527,0.283,3.446-1.244,4.286c-1.16,0.638-2.544,0.47-3.513-0.316c-6.258-4.861-12.924-8.889-20.339-11.241
		c-7.239-2.346-14.762-2.739-22.336-2.043C356.271,500.498,354.616,491.025,361.06,489.112L361.06,489.112z"/>
	<path style="fill:#F59795;" d="M359.767,483.747c18.681-3.336,39.246,2.039,53.378,14.804c2.506,2.322-0.079,6.463-3.243,5.268
		c-11.822-4.542-23.906-8.018-36.541-8.762c-4.13-0.28-8.273-0.281-12.463-0.228C354.104,494.775,353.157,485.15,359.767,483.747
		L359.767,483.747z"/>
	<path style="fill:#F59795;" d="M372.158,482.823c-1.44,4.79-2.81,10.27-3.84,16.38c-1.06,6.2-1.58,11.9-1.8,16.95
		c-6.85,0.13-13.7,0.26-20.54,0.39c-6.11,0.11-12.21,0.23-18.32,0.34c0.36-10.31,0.73-20.62,1.1-30.94c2.17-0.53,4.44-1.04,6.82-1.5
		c0,0,0.89-0.21,2.3-0.47s3.35-0.57,5.43-0.79C346.108,482.893,357.128,482.483,372.158,482.823z"/>
	<path style="fill:#E56A77;" d="M394.708,514.791c-0.028,0-0.057-0.01-0.081-0.029c-6.427-5.394-14.181-9.075-22.423-10.647
		c-0.068-0.013-0.112-0.079-0.099-0.146c0.013-0.067,0.081-0.109,0.146-0.1c8.284,1.579,16.077,5.279,22.537,10.701
		c0.053,0.044,0.06,0.123,0.015,0.176C394.778,514.775,394.743,514.791,394.708,514.791z"/>
	<path style="fill:#E56A77;" d="M404.319,515.24c-0.041,0-0.08-0.02-0.104-0.056c-2.339-3.533-5.128-6.717-8.292-9.462
		c-5.791-5.026-12.933-8.614-20.656-10.376c-0.067-0.016-0.109-0.083-0.094-0.149c0.016-0.067,0.086-0.105,0.15-0.095
		c7.763,1.771,14.942,5.379,20.764,10.431c3.18,2.761,5.985,5.961,8.335,9.513c0.039,0.058,0.022,0.136-0.035,0.174
		C404.367,515.233,404.343,515.24,404.319,515.24z"/>
	<path style="fill:#E56A77;" d="M408.404,505.474c-0.035,0-0.07-0.015-0.095-0.044c-1.505-1.761-3.133-3.433-4.839-4.968
		c-6.792-6.115-15.062-10.408-24.577-12.759c-0.067-0.017-0.108-0.084-0.092-0.151c0.017-0.066,0.085-0.109,0.151-0.091
		c9.556,2.36,17.861,6.672,24.684,12.815c1.714,1.542,3.35,3.222,4.862,4.991c0.044,0.053,0.039,0.131-0.014,0.176
		C408.462,505.464,408.433,505.474,408.404,505.474z"/>
	<path style="fill:#E56A77;" d="M366.673,505.229c-0.005,0-0.01,0-0.016-0.001c-0.068-0.009-0.117-0.071-0.108-0.14
		c0.124-0.984-0.314-1.763-0.704-2.243c-0.712-0.877-1.853-1.479-2.977-1.57c-2.101-0.179-4.105,0.94-5.607,1.931
		c-0.058,0.036-0.135,0.022-0.173-0.036c-0.038-0.058-0.022-0.135,0.036-0.173c1.535-1.012,3.582-2.137,5.766-1.972
		c1.189,0.098,2.397,0.734,3.151,1.663c0.603,0.742,0.865,1.583,0.758,2.432C366.79,505.183,366.736,505.229,366.673,505.229z"/>
	<path style="fill:#E56A77;" d="M368.421,495.177c-0.043,0-0.086-0.022-0.109-0.063c-0.517-0.913-1.491-1.539-2.673-1.718
		c-1.322-0.197-2.703,0.198-3.595,1.039c-0.051,0.047-0.129,0.046-0.177-0.005s-0.045-0.13,0.005-0.177
		c0.947-0.893,2.401-1.318,3.805-1.104c1.259,0.19,2.299,0.861,2.854,1.842c0.034,0.06,0.013,0.137-0.047,0.17
		C368.463,495.172,368.442,495.177,368.421,495.177z"/>
	<path style="fill:#E56A77;" d="M363.777,487.553c-0.018,0-0.037-0.004-0.054-0.013c-0.063-0.029-0.089-0.104-0.059-0.166
		c0.609-1.272,1.915-2.175,3.494-2.415c1.578-0.243,3.094,0.235,4.053,1.271c0.047,0.051,0.044,0.13-0.007,0.177
		c-0.05,0.049-0.129,0.044-0.177-0.007c-0.902-0.974-2.335-1.421-3.832-1.193s-2.733,1.078-3.306,2.275
		C363.868,487.527,363.823,487.553,363.777,487.553z"/>
	<path style="fill:#E56A77;" d="M378.667,511.708c-0.027,0-0.054-0.009-0.077-0.026c-0.055-0.042-0.064-0.121-0.022-0.175
		l2.929-3.781c0.042-0.057,0.12-0.064,0.175-0.022c0.055,0.042,0.064,0.12,0.022,0.175l-2.929,3.781
		C378.741,511.691,378.704,511.708,378.667,511.708z"/>
	<path style="fill:#E56A77;" d="M382.524,512.219c-0.009,0-0.019-0.001-0.028-0.003c-0.067-0.016-0.109-0.083-0.093-0.15
		c0.303-1.313,0.816-2.559,1.524-3.706c0.037-0.06,0.114-0.078,0.172-0.041c0.059,0.036,0.077,0.113,0.041,0.172
		c-0.694,1.124-1.196,2.346-1.494,3.632C382.632,512.18,382.581,512.219,382.524,512.219z"/>
	<path style="fill:#E56A77;" d="M386.507,505.576c-0.008,0-0.016-0.001-0.024-0.002c-0.068-0.014-0.112-0.079-0.099-0.147
		c0.289-1.476,1.148-2.833,2.358-3.726c0.056-0.041,0.134-0.028,0.175,0.026c0.041,0.056,0.029,0.134-0.026,0.175
		c-1.16,0.855-1.984,2.157-2.261,3.573C386.618,505.535,386.566,505.576,386.507,505.576z"/>
	<path style="fill:#E56A77;" d="M388.117,507.473c-0.027,0-0.054-0.009-0.077-0.026c-0.054-0.042-0.064-0.12-0.022-0.175
		l2.886-3.731c0.042-0.057,0.121-0.064,0.176-0.022c0.054,0.042,0.064,0.12,0.022,0.175l-2.886,3.731
		C388.191,507.457,388.154,507.473,388.117,507.473z"/>
	<path style="fill:#E56A77;" d="M391.713,498.579c-0.016,0-0.031-0.003-0.046-0.009c-0.064-0.026-0.095-0.099-0.07-0.163
		c0.604-1.505,1.674-2.837,3.014-3.75c0.057-0.039,0.134-0.023,0.174,0.033c0.039,0.057,0.024,0.135-0.033,0.174
		c-1.299,0.885-2.337,2.177-2.922,3.637C391.809,498.549,391.762,498.579,391.713,498.579z"/>
	<path style="fill:#E56A77;" d="M394.298,500.038c-0.031,0-0.061-0.011-0.085-0.033c-0.05-0.048-0.053-0.127-0.006-0.177
		c1.044-1.121,1.848-2.484,2.323-3.941c0.021-0.065,0.093-0.101,0.157-0.08c0.066,0.021,0.102,0.092,0.08,0.158
		c-0.486,1.491-1.308,2.886-2.377,4.033C394.365,500.024,394.332,500.038,394.298,500.038z"/>
	<path style="fill:#E56A77;" d="M394.785,491.342c-0.038,0-0.076-0.018-0.1-0.051c-0.042-0.055-0.03-0.133,0.025-0.175l3.191-2.376
		c0.056-0.04,0.134-0.029,0.175,0.026c0.042,0.055,0.03,0.133-0.025,0.175l-3.191,2.376
		C394.837,491.335,394.811,491.342,394.785,491.342z"/>
	<path style="fill:#E56A77;" d="M398.428,493.091c-0.019,0-0.038-0.004-0.056-0.014c-0.062-0.03-0.086-0.105-0.056-0.168
		c0.672-1.334,1.874-2.357,3.298-2.809c0.065-0.02,0.137,0.017,0.157,0.081c0.021,0.066-0.016,0.137-0.082,0.157
		c-1.34,0.424-2.518,1.428-3.15,2.684C398.518,493.066,398.473,493.091,398.428,493.091z"/>
	<path style="fill:#EBC6BA;" d="M407.788,506.71c0.763,0.95,1.405,2.605,0.766,3.319c-0.705,0.789-2.831,0.269-4-0.936
		c-1.136-1.171-1.608-3.234-0.851-3.915C404.508,504.454,406.673,505.323,407.788,506.71z"/>
	<path style="fill:#EBC6BA;" d="M411.591,498.107c0.638,0.794,1.175,2.179,0.641,2.776c-0.59,0.66-2.368,0.225-3.346-0.783
		c-0.95-0.979-1.345-2.705-0.712-3.275C408.848,496.219,410.659,496.946,411.591,498.107z"/>
	<path style="fill:#E56A77;" d="M345.978,516.543c-6.11,0.11-12.21,0.23-18.32,0.34c0.36-10.31,0.73-20.62,1.1-30.94
		c2.17-0.53,4.44-1.04,6.82-1.5c2.77,4.84,5.76,11.21,7.91,18.99C344.818,508.223,345.568,512.663,345.978,516.543z"/>
</g>
<g>
	<path style="fill:#1C1D22;" d="M334.934,518.806c-2.456,5.663-5.908,9.911-5.908,9.911c0,0-0.001,0.001-0.001,0.001
		c-0.082,0.105-0.15,0.191-0.195,0.249c-1.353,0.033-2.705,0.065-4.069,0.097c-2.846,0.065-5.692,0.141-8.549,0.216
		c-0.541,0.011-1.093,0.022-1.645,0.043c-29.466,0.758-59.267,1.731-89.382,2.954c-44.313,1.786-87.911,4.036-130.784,6.688
		c-11.763,0.725-22.962-3.138-31.609-10.248c-6.363-5.216-11.341-12.195-14.154-20.387c-0.065-0.206-0.13-0.4-0.195-0.595
		c-2.413-7.045-1.309-14.327,2.283-20.084c3.419-5.519,9.111-9.652,16.145-10.832c39.622-6.644,51.433-6.612,51.433-6.612
		c45.312,0.912,30.76-3.148,83.082-0.401c33.379,1.752,79.703,5.526,136.567,14.201C339.327,501.795,336.615,514.93,334.934,518.806
		z"/>
	<path style="fill:none;stroke:#FFFFFF;stroke-linecap:round;stroke-linejoin:round;stroke-miterlimit:10;" d="M126.787,470.179
		c9.102-1.045,18.283-1.133,27.444-1.22c7.544-0.072,15.087-0.143,22.631-0.215c5.373-0.051,10.75-0.102,16.118,0.132
		c4.077,0.178,8.145,0.519,12.211,0.861c14.374,1.208,28.748,2.415,43.122,3.623"/>
	<path style="fill:none;stroke:#FFFFFF;stroke-linecap:round;stroke-linejoin:round;stroke-miterlimit:10;" d="M281.202,476.498
		c4.54-0.42,9.109,0.041,13.645,0.502c14.221,1.445,28.441,2.89,42.662,4.334c0.3,0.031,0.65,0.093,0.787,0.362
		s-0.27,0.653-0.444,0.406"/>
</g>
<g>
	<path style="fill:#1C1D22;" d="M569.402,412.817l-25.971,108.406l-100.485,2.943c-6.558-0.043-13.115-0.087-19.673-0.119
		c-2.749-0.022-5.497-0.032-8.246-0.054l1.85-8.917l20.463-98.938L569.402,412.817z"/>
	<path style="fill:#FFFFFF;" d="M498.397,456.197c-8.495-0.836-16.189,7.363-15.748,16.024c0.39,7.662,7.106,14.889,15.196,14.367
		c7.497-0.484,12.879-7.412,13.262-14.367C511.524,464.622,505.977,456.943,498.397,456.197z"/>
	<path style="fill:#1C1D22;" d="M543.431,515.076v9.696c-16.535-0.097-33.08-0.206-49.615-0.303
		c-16.957-0.097-33.913-0.206-50.87-0.303c-6.558-0.043-13.115-0.087-19.673-0.119c-2.749-0.022-5.497-0.032-8.246-0.054
		c-16.6-0.097-33.21-0.195-49.81-0.292c-10.464-0.065-20.939-0.13-31.403-0.195v-8.43H543.431z"/>
	<path style="fill:none;stroke:#FFFFFF;stroke-linecap:round;stroke-linejoin:round;stroke-miterlimit:10;" d="M423.273,524.047
		c0.584-2.987,1.158-5.984,1.742-8.971c6.352-32.82,12.726-65.652,19.078-98.483c0.022-0.141-0.249,0.043-0.108,0.076"/>
</g>
<g>
	<path style="fill:#FFFFFF;" d="M337.968,288.861c1.375-0.936,19.243-12.691,39.785-6.631c29.123,8.592,51.628,49.456,35.364,82.517
		c-15.894,32.308-60.726,40.726-83.622,24.313C300.75,368.454,307.669,309.488,337.968,288.861z"/>
	<path style="fill:#FFFFFF;" d="M402.434,365.852c5.051,3.8,12.024,9.861,18.419,18.787c6.64,9.268,11.452,19.944,9.946,20.998
		c-1.395,0.976-6.686-7.378-17.682-14.367c-8.508-5.407-16.863-7.729-22.839-8.841C394.33,376.904,398.382,371.378,402.434,365.852z
		"/>
	<path style="fill:none;stroke:#1C1D22;stroke-linecap:round;stroke-linejoin:round;stroke-miterlimit:10;" d="M352.207,317.524
		c6.871-1.457,13.682-3.197,20.41-5.215c-5.432,15.419-4.707,32.207-6.24,48.483c-2.845,0.688-5.615,1.687-8.244,2.974
		c-1.736-14.954-4.511-29.786-8.299-44.356"/>
	<path style="fill:none;stroke:#1C1D22;stroke-linecap:round;stroke-linejoin:round;stroke-miterlimit:10;" d="M363.472,366.823
		c-1.717,1.087-3.423,2.38-4.272,4.226c-0.849,1.846-0.537,4.368,1.178,5.457c0.964,0.613,2.178,0.679,3.315,0.567
		c1.866-0.183,3.874-0.959,4.667-2.658c0.673-1.44,0.29-3.149-0.31-4.621c-0.434-1.064-0.992-2.108-1.845-2.879
		c-0.852-0.771-2.042-1.237-3.167-1"/>
</g>
<g>
	<rect x="23.483" y="24.963" style="fill:none;" width="206.609" height="48.896"/>
	<path d="M23.471,33.961l3.346-8.695h0.816l-3.358,8.695H23.471z"/>
	<path d="M31.941,33.482l-2.051-8.084h1.104l0.959,4.09c0.24,1.008,0.456,2.016,0.6,2.795h0.024c0.132-0.804,0.384-1.763,0.66-2.807
		l1.08-4.078h1.091l0.983,4.103c0.228,0.959,0.444,1.919,0.564,2.771h0.024c0.168-0.888,0.396-1.787,0.647-2.795l1.067-4.078h1.067
		l-2.291,8.084h-1.091l-1.02-4.21c-0.252-1.031-0.42-1.822-0.528-2.639h-0.024c-0.144,0.804-0.324,1.596-0.624,2.639l-1.151,4.21
		H31.941z"/>
	<path d="M47.682,29.356c0,2.782-1.691,4.258-3.754,4.258c-2.135,0-3.634-1.655-3.634-4.102c0-2.566,1.595-4.246,3.754-4.246
		C46.255,25.266,47.682,26.958,47.682,29.356z M41.41,29.488c0,1.728,0.935,3.274,2.578,3.274c1.655,0,2.591-1.523,2.591-3.358
		c0-1.606-0.839-3.286-2.579-3.286C42.273,26.118,41.41,27.713,41.41,29.488z"/>
	<path d="M49.042,25.506c0.528-0.108,1.283-0.168,2.003-0.168c1.115,0,1.835,0.204,2.338,0.659c0.408,0.36,0.636,0.912,0.636,1.535
		c0,1.068-0.671,1.775-1.523,2.063v0.036c0.624,0.216,0.995,0.791,1.187,1.631c0.264,1.127,0.456,1.907,0.624,2.219h-1.08
		c-0.132-0.228-0.312-0.924-0.54-1.931c-0.24-1.115-0.672-1.535-1.619-1.571h-0.983v3.502h-1.043V25.506z M50.085,29.188h1.067
		c1.115,0,1.823-0.611,1.823-1.535c0-1.043-0.755-1.499-1.859-1.511c-0.504,0-0.863,0.048-1.031,0.096V29.188z"/>
	<path d="M55.498,25.398h1.043v3.898h0.036c0.216-0.312,0.432-0.6,0.636-0.863l2.471-3.035h1.295l-2.926,3.431l3.154,4.653h-1.235
		l-2.663-3.97L56.542,30.4v3.082h-1.043V25.398z"/>
	<path d="M63.045,25.398v8.084h-1.043v-8.084H63.045z"/>
	<path d="M64.87,33.482v-8.084h1.139l2.591,4.09c0.6,0.948,1.067,1.8,1.451,2.627l0.024-0.012c-0.096-1.08-0.12-2.063-0.12-3.322
		v-3.383h0.983v8.084h-1.055l-2.566-4.102c-0.564-0.899-1.104-1.823-1.511-2.698l-0.036,0.012c0.06,1.02,0.084,1.991,0.084,3.334
		v3.454H64.87z"/>
	<path d="M78.918,33.123c-0.468,0.168-1.391,0.443-2.482,0.443c-1.224,0-2.231-0.312-3.022-1.067
		c-0.695-0.672-1.127-1.751-1.127-3.011c0.012-2.41,1.667-4.174,4.378-4.174c0.935,0,1.667,0.204,2.015,0.372l-0.252,0.852
		c-0.432-0.191-0.971-0.348-1.787-0.348c-1.967,0-3.25,1.224-3.25,3.25c0,2.051,1.235,3.263,3.118,3.263
		c0.684,0,1.151-0.097,1.391-0.216v-2.411h-1.643v-0.84h2.663V33.123z"/>
	<path d="M79.594,33.961l3.346-8.695h0.816l-3.358,8.695H79.594z"/>
	<path d="M88.065,33.482l-2.051-8.084h1.104l0.959,4.09c0.24,1.008,0.456,2.016,0.6,2.795h0.024c0.132-0.804,0.384-1.763,0.66-2.807
		l1.08-4.078h1.091l0.983,4.103c0.228,0.959,0.444,1.919,0.564,2.771h0.024c0.168-0.888,0.396-1.787,0.647-2.795l1.067-4.078h1.067
		l-2.291,8.084h-1.091l-1.02-4.21c-0.252-1.031-0.42-1.822-0.528-2.639h-0.024c-0.144,0.804-0.324,1.596-0.624,2.639l-1.151,4.21
		H88.065z"/>
	<path d="M103.806,29.356c0,2.782-1.691,4.258-3.754,4.258c-2.135,0-3.634-1.655-3.634-4.102c0-2.566,1.595-4.246,3.754-4.246
		C102.379,25.266,103.806,26.958,103.806,29.356z M97.534,29.488c0,1.728,0.935,3.274,2.578,3.274c1.655,0,2.591-1.523,2.591-3.358
		c0-1.606-0.839-3.286-2.579-3.286C98.397,26.118,97.534,27.713,97.534,29.488z"/>
	<path d="M105.166,25.506c0.528-0.108,1.283-0.168,2.003-0.168c1.115,0,1.835,0.204,2.338,0.659c0.408,0.36,0.636,0.912,0.636,1.535
		c0,1.068-0.671,1.775-1.523,2.063v0.036c0.624,0.216,0.995,0.791,1.187,1.631c0.264,1.127,0.456,1.907,0.624,2.219h-1.08
		c-0.132-0.228-0.312-0.924-0.54-1.931c-0.24-1.115-0.672-1.535-1.619-1.571h-0.983v3.502h-1.043V25.506z M106.209,29.188h1.067
		c1.115,0,1.823-0.611,1.823-1.535c0-1.043-0.755-1.499-1.859-1.511c-0.504,0-0.863,0.048-1.031,0.096V29.188z"/>
	<path d="M111.622,25.398h1.043v3.898h0.036c0.216-0.312,0.432-0.6,0.636-0.863l2.471-3.035h1.295l-2.926,3.431l3.154,4.653h-1.235
		l-2.663-3.97l-0.768,0.888v3.082h-1.043V25.398z"/>
	<path d="M120.67,25.506c0.636-0.096,1.391-0.168,2.219-0.168c1.499,0,2.566,0.348,3.274,1.008c0.72,0.659,1.14,1.595,1.14,2.902
		c0,1.319-0.408,2.398-1.164,3.142c-0.755,0.756-2.003,1.164-3.574,1.164c-0.744,0-1.367-0.036-1.895-0.097V25.506z M121.713,32.655
		c0.264,0.048,0.647,0.06,1.055,0.06c2.231,0,3.442-1.247,3.442-3.43c0.012-1.907-1.067-3.119-3.274-3.119
		c-0.54,0-0.947,0.049-1.223,0.108V32.655z"/>
	<path d="M135.57,29.356c0,2.782-1.691,4.258-3.754,4.258c-2.135,0-3.634-1.655-3.634-4.102c0-2.566,1.595-4.246,3.754-4.246
		C134.143,25.266,135.57,26.958,135.57,29.356z M129.297,29.488c0,1.728,0.935,3.274,2.578,3.274c1.655,0,2.591-1.523,2.591-3.358
		c0-1.606-0.839-3.286-2.579-3.286C130.161,26.118,129.297,27.713,129.297,29.488z"/>
	<path d="M136.93,33.482v-8.084h1.139l2.591,4.09c0.6,0.948,1.067,1.8,1.451,2.627l0.024-0.012c-0.096-1.08-0.12-2.063-0.12-3.322
		v-3.383h0.983v8.084h-1.055l-2.566-4.102c-0.564-0.899-1.104-1.823-1.511-2.698l-0.036,0.012c0.06,1.02,0.084,1.991,0.084,3.334
		v3.454H136.93z"/>
	<path d="M149.011,29.692h-3.142v2.914h3.502v0.876h-4.545v-8.084h4.365v0.876h-3.322v2.555h3.142V29.692z"/>
</g>
<g>
</g>
<g>
</g>
<g>
</g>
<g>
</g>
<g>
</g>
<g>
</g>
<g>
</g>
<g>
</g>
<g>
</g>
<g>
</g>
<g>
</g>
<g>
</g>
<g>
</g>
<g>
</g>
<g>
</g>
</svg>
