<svg xmlns="http://www.w3.org/2000/svg" viewBox="0 0 1920 1018" preserveAspectRatio="xMidYMid" width="1920" height="1018" xmlns:xlink="http://www.w3.org/1999/xlink" style="shape-rendering:auto;display:block;background-position-x:0%;background-position-y:0%;background-size:auto;background-origin:padding-box;background-clip:border-box;background:scroll rgb(31, 31, 31) none  repeat;width:1920px;height:1018px;;animation:none"><g><path stroke-width="2" stroke-opacity="0" stroke="rgb(197, 85, 82)" fill="none" d="M 0 564.5 C 320 564.5 640 717.5 960 717.5 C 1280 717.5 1600 564.5 1920 564.5 C 2240 564.5 2560 717.5 2880 717.5 C 3200 717.5 3520 564.5 3840 564.5" transform="matrix(1,0,0,1,0,0)" style="fill:none;stroke:rgb(197, 85, 82);transform:matrix(1, 0, 0, 1, 0, 0);;animation:none"></path>
<path stroke-width="2" stroke-opacity="0" stroke="rgb(197, 85, 82)" fill="none" d="M 0 564.523 C 320 564.523 640 717.477 960 717.477 C 1280 717.477 1600 564.523 1920 564.523 C 2240 564.523 2560 717.477 2880 717.477 C 3200 717.477 3520 564.523 3840 564.523" transform="matrix(1,0,0,1,-10.239840507507324,0)" style="fill:none;stroke:rgb(197, 85, 82);transform:matrix(1, 0, 0, 1, -10.2398, 0);;animation:none"></path>
<path stroke-width="2" stroke-opacity="0" stroke="rgb(197, 85, 82)" fill="none" d="M 0 564.595 C 320 564.595 640 717.405 960 717.405 C 1280 717.405 1600 564.595 1920 564.595 C 2240 564.595 2560 717.405 2880 717.405 C 3200 717.405 3520 564.595 3840 564.595" transform="matrix(1,0,0,1,-20.479930877685547,0)" style="fill:none;stroke:rgb(197, 85, 82);transform:matrix(1, 0, 0, 1, -20.4799, 0);;animation:none"></path>
<path stroke-width="2" stroke-opacity="0" stroke="rgb(197, 85, 83)" fill="none" d="M 0 564.715 C 320 564.715 640 717.285 960 717.285 C 1280 717.285 1600 564.715 1920 564.715 C 2240 564.715 2560 717.285 2880 717.285 C 3200 717.285 3520 564.715 3840 564.715" transform="matrix(1,0,0,1,-30.719772338867188,0)" style="fill:none;stroke:rgb(197, 85, 83);transform:matrix(1, 0, 0, 1, -30.7198, 0);;animation:none"></path>
<path stroke-width="2" stroke-opacity="0" stroke="rgb(197, 86, 83)" fill="none" d="M 0 564.886 C 320 564.886 640 717.114 960 717.114 C 1280 717.114 1600 564.886 1920 564.886 C 2240 564.886 2560 717.114 2880 717.114 C 3200 717.114 3520 564.886 3840 564.886" transform="matrix(1,0,0,1,-40.959861755371094,0)" style="fill:none;stroke:rgb(197, 86, 83);transform:matrix(1, 0, 0, 1, -40.9599, 0);;animation:none"></path>
<path stroke-width="2" stroke-opacity="0" stroke="rgb(197, 86, 83)" fill="none" d="M 0 565.109 C 320 565.109 640 716.891 960 716.891 C 1280 716.891 1600 565.109 1920 565.109 C 2240 565.109 2560 716.891 2880 716.891 C 3200 716.891 3520 565.109 3840 565.109" transform="matrix(1,0,0,1,-51.199954986572266,0)" style="fill:none;stroke:rgb(197, 86, 83);transform:matrix(1, 0, 0, 1, -51.2, 0);;animation:none"></path>
<path stroke-width="2" stroke-opacity="0" stroke="rgb(196, 87, 84)" fill="none" d="M 0 565.386 C 320 565.386 640 716.614 960 716.614 C 1280 716.614 1600 565.386 1920 565.386 C 2240 565.386 2560 716.614 2880 716.614 C 3200 716.614 3520 565.386 3840 565.386" transform="matrix(1,0,0,1,-61.439796447753906,0)" style="fill:none;stroke:rgb(196, 87, 84);transform:matrix(1, 0, 0, 1, -61.4398, 0);;animation:none"></path>
<path stroke-width="2" stroke-opacity="0" stroke="rgb(196, 88, 85)" fill="none" d="M 0 565.718 C 320 565.718 640 716.282 960 716.282 C 1280 716.282 1600 565.718 1920 565.718 C 2240 565.718 2560 716.282 2880 716.282 C 3200 716.282 3520 565.718 3840 565.718" transform="matrix(1,0,0,1,-71.67988586425781,0)" style="fill:none;stroke:rgb(196, 88, 85);transform:matrix(1, 0, 0, 1, -71.6799, 0);;animation:none"></path>
<path stroke-width="2" stroke-opacity="0" stroke="rgb(196, 89, 86)" fill="none" d="M 0 566.107 C 320 566.107 640 715.893 960 715.893 C 1280 715.893 1600 566.107 1920 566.107 C 2240 566.107 2560 715.893 2880 715.893 C 3200 715.893 3520 566.107 3840 566.107" transform="matrix(1,0,0,1,-81.91997528076172,0)" style="fill:none;stroke:rgb(196, 89, 86);transform:matrix(1, 0, 0, 1, -81.92, 0);;animation:none"></path>
<path stroke-width="2" stroke-opacity="0" stroke="rgb(195, 90, 87)" fill="none" d="M 0 566.554 C 320 566.554 640 715.446 960 715.446 C 1280 715.446 1600 566.554 1920 566.554 C 2240 566.554 2560 715.446 2880 715.446 C 3200 715.446 3520 566.554 3840 566.554" transform="matrix(1,0,0,1,-92.1598129272461,0)" style="fill:none;stroke:rgb(195, 90, 87);transform:matrix(1, 0, 0, 1, -92.1598, 0);;animation:none"></path>
<path stroke-width="2" stroke-opacity="0" stroke="rgb(195, 91, 89)" fill="none" d="M 0 567.062 C 320 567.062 640 714.938 960 714.938 C 1280 714.938 1600 567.062 1920 567.062 C 2240 567.062 2560 714.938 2880 714.938 C 3200 714.938 3520 567.062 3840 567.062" transform="matrix(1,0,0,1,-102.39990997314453,0)" style="fill:none;stroke:rgb(195, 91, 89);transform:matrix(1, 0, 0, 1, -102.4, 0);;animation:none"></path>
<path stroke-width="2" stroke-opacity="0" stroke="rgb(195, 93, 90)" fill="none" d="M 0 567.632 C 320 567.632 640 714.368 960 714.368 C 1280 714.368 1600 567.632 1920 567.632 C 2240 567.632 2560 714.368 2880 714.368 C 3200 714.368 3520 567.632 3840 567.632" transform="matrix(1,0,0,1,-112.63999938964844,0)" style="fill:none;stroke:rgb(195, 93, 90);transform:matrix(1, 0, 0, 1, -112.64, 0);;animation:none"></path>
<path stroke-width="2" stroke-opacity="0" stroke="rgb(194, 95, 92)" fill="none" d="M 0 568.265 C 320 568.265 640 713.735 960 713.735 C 1280 713.735 1600 568.266 1920 568.266 C 2240 568.266 2560 713.735 2880 713.735 C 3200 713.735 3520 568.266 3840 568.266" transform="matrix(1,0,0,1,-122.87983703613281,0)" style="fill:none;stroke:rgb(194, 95, 92);transform:matrix(1, 0, 0, 1, -122.88, 0);;animation:none"></path>
<path stroke-width="2" stroke-opacity="0" stroke="rgb(194, 97, 94)" fill="none" d="M 0 568.965 C 320 568.965 640 713.035 960 713.035 C 1280 713.035 1600 568.965 1920 568.965 C 2240 568.965 2560 713.035 2880 713.035 C 3200 713.035 3520 568.965 3840 568.965" transform="matrix(1,0,0,1,-133.1199188232422,0)" style="fill:none;stroke:rgb(194, 97, 94);transform:matrix(1, 0, 0, 1, -133.12, 0);;animation:none"></path>
<path stroke-width="2" stroke-opacity="0" stroke="rgb(193, 99, 96)" fill="none" d="M 0 569.733 C 320 569.733 640 712.267 960 712.267 C 1280 712.267 1600 569.733 1920 569.733 C 2240 569.733 2560 712.267 2880 712.267 C 3200 712.267 3520 569.733 3840 569.733" transform="matrix(1,0,0,1,-143.35977172851562,0)" style="fill:none;stroke:rgb(193, 99, 96);transform:matrix(1, 0, 0, 1, -143.36, 0);;animation:none"></path>
<path stroke-width="2" stroke-opacity="0" stroke="rgb(192, 101, 99)" fill="none" d="M 0 570.57 C 320 570.57 640 711.43 960 711.43 C 1280 711.43 1600 570.57 1920 570.57 C 2240 570.57 2560 711.43 2880 711.43 C 3200 711.43 3520 570.57 3840 570.57" transform="matrix(1,0,0,1,-153.599853515625,0)" style="fill:none;stroke:rgb(192, 101, 99);transform:matrix(1, 0, 0, 1, -153.6, 0);;animation:none"></path>
<path stroke-width="2" stroke-opacity="0" stroke="rgb(191, 103, 101)" fill="none" d="M 0 571.48 C 320 571.48 640 710.52 960 710.52 C 1280 710.52 1600 571.48 1920 571.48 C 2240 571.48 2560 710.52 2880 710.52 C 3200 710.52 3520 571.48 3840 571.48" transform="matrix(1,0,0,1,-163.83995056152344,0)" style="fill:none;stroke:rgb(191, 103, 101);transform:matrix(1, 0, 0, 1, -163.84, 0);;animation:none"></path>
<path stroke-width="2" stroke-opacity="0" stroke="rgb(191, 106, 104)" fill="none" d="M 0 572.463 C 320 572.463 640 709.537 960 709.537 C 1280 709.537 1600 572.463 1920 572.463 C 2240 572.463 2560 709.537 2880 709.537 C 3200 709.537 3520 572.463 3840 572.463" transform="matrix(1,0,0,1,-174.0797882080078,0)" style="fill:none;stroke:rgb(191, 106, 104);transform:matrix(1, 0, 0, 1, -174.08, 0);;animation:none"></path>
<path stroke-width="2" stroke-opacity="0" stroke="rgb(190, 109, 107)" fill="none" d="M 0 573.522 C 320 573.522 640 708.478 960 708.478 C 1280 708.478 1600 573.522 1920 573.522 C 2240 573.522 2560 708.478 2880 708.478 C 3200 708.478 3520 573.522 3840 573.522" transform="matrix(1,0,0,1,-184.31988525390625,0)" style="fill:none;stroke:rgb(190, 109, 107);transform:matrix(1, 0, 0, 1, -184.32, 0);;animation:none"></path>
<path stroke-width="2" stroke-opacity="0" stroke="rgb(189, 112, 110)" fill="none" d="M 0 574.659 C 320 574.659 640 707.34 960 707.34 C 1280 707.34 1600 574.659 1920 574.659 C 2240 574.659 2560 707.34 2880 707.34 C 3200 707.34 3520 574.659 3840 574.659" transform="matrix(1,0,0,1,-194.55996704101562,0)" style="fill:none;stroke:rgb(189, 112, 110);transform:matrix(1, 0, 0, 1, -194.56, 0);;animation:none"></path>
<path stroke-width="2" stroke-opacity="0" stroke="rgb(188, 116, 114)" fill="none" d="M 0 575.877 C 320 575.877 640 706.123 960 706.123 C 1280 706.123 1600 575.877 1920 575.877 C 2240 575.877 2560 706.123 2880 706.123 C 3200 706.123 3520 575.877 3840 575.877" transform="matrix(1,0,0,1,-204.79981994628906,0)" style="fill:none;stroke:rgb(188, 116, 114);transform:matrix(1, 0, 0, 1, -204.8, 0);;animation:none"></path>
<path stroke-width="2" stroke-opacity="0" stroke="rgb(187, 119, 117)" fill="none" d="M 0 577.177 C 320 577.177 640 704.823 960 704.823 C 1280 704.823 1600 577.177 1920 577.177 C 2240 577.177 2560 704.823 2880 704.823 C 3200 704.823 3520 577.177 3840 577.177" transform="matrix(1,0,0,1,-215.03990173339844,0)" style="fill:none;stroke:rgb(187, 119, 117);transform:matrix(1, 0, 0, 1, -215.04, 0);;animation:none"></path>
<path stroke-width="2" stroke-opacity="0" stroke="rgb(186, 123, 121)" fill="none" d="M 0 578.561 C 320 578.561 640 703.439 960 703.439 C 1280 703.439 1600 578.561 1920 578.561 C 2240 578.561 2560 703.439 2880 703.439 C 3200 703.439 3520 578.561 3840 578.561" transform="matrix(1,0,0,1,-225.27999877929688,0)" style="fill:none;stroke:rgb(186, 123, 121);transform:matrix(1, 0, 0, 1, -225.28, 0);;animation:none"></path>
<path stroke-width="2" stroke-opacity="0" stroke="rgb(184, 126, 125)" fill="none" d="M 0 580.031 C 320 580.031 640 701.969 960 701.969 C 1280 701.969 1600 580.031 1920 580.031 C 2240 580.031 2560 701.969 2880 701.969 C 3200 701.969 3520 580.031 3840 580.031" transform="matrix(1,0,0,1,-235.51983642578125,0)" style="fill:none;stroke:rgb(184, 126, 125);transform:matrix(1, 0, 0, 1, -235.52, 0);;animation:none"></path>
<path stroke-width="2" stroke-opacity="0" stroke="rgb(183, 130, 129)" fill="none" d="M 0 581.589 C 320 581.589 640 700.411 960 700.411 C 1280 700.411 1600 581.589 1920 581.589 C 2240 581.589 2560 700.411 2880 700.411 C 3200 700.411 3520 581.589 3840 581.589" transform="matrix(1,0,0,1,-245.75991821289062,0)" style="fill:none;stroke:rgb(183, 130, 129);transform:matrix(1, 0, 0, 1, -245.76, 0);;animation:none"></path>
<path stroke-width="2" stroke-opacity="0" stroke="rgb(182, 134, 132)" fill="none" d="M 0 583.237 C 320 583.237 640 698.763 960 698.763 C 1280 698.763 1600 583.237 1920 583.237 C 2240 583.237 2560 698.763 2880 698.763 C 3200 698.763 3520 583.237 3840 583.237" transform="matrix(1,0,0,1,-256,0)" style="fill:none;stroke:rgb(182, 134, 132);transform:matrix(1, 0, 0, 1, -256, 0);;animation:none"></path>
<path stroke-width="2" stroke-opacity="0" stroke="rgb(181, 137, 136)" fill="none" d="M 0 584.977 C 320 584.977 640 697.023 960 697.023 C 1280 697.023 1600 584.977 1920 584.977 C 2240 584.977 2560 697.023 2880 697.023 C 3200 697.023 3520 584.977 3840 584.977" transform="matrix(1,0,0,1,-266.2398376464844,0)" style="fill:none;stroke:rgb(181, 137, 136);transform:matrix(1, 0, 0, 1, -266.24, 0);;animation:none"></path>
<path stroke-width="2" stroke-opacity="0" stroke="rgb(180, 141, 140)" fill="none" d="M 0 586.81 C 320 586.81 640 695.19 960 695.19 C 1280 695.19 1600 586.81 1920 586.81 C 2240 586.81 2560 695.19 2880 695.19 C 3200 695.19 3520 586.81 3840 586.81" transform="matrix(1,0,0,1,-276.4799499511719,0)" style="fill:none;stroke:rgb(180, 141, 140);transform:matrix(1, 0, 0, 1, -276.48, 0);;animation:none"></path>
<path stroke-width="2" stroke-opacity="0" stroke="rgb(179, 144, 143)" fill="none" d="M 0 588.737 C 320 588.737 640 693.263 960 693.263 C 1280 693.263 1600 588.737 1920 588.737 C 2240 588.737 2560 693.263 2880 693.263 C 3200 693.263 3520 588.737 3840 588.737" transform="matrix(1,0,0,1,-286.71978759765625,0)" style="fill:none;stroke:rgb(179, 144, 143);transform:matrix(1, 0, 0, 1, -286.72, 0);;animation:none"></path>
<path stroke-width="2" stroke-opacity="0" stroke="rgb(178, 147, 146)" fill="none" d="M 0 590.759 C 320 590.759 640 691.241 960 691.241 C 1280 691.241 1600 590.759 1920 590.759 C 2240 590.759 2560 691.241 2880 691.241 C 3200 691.241 3520 590.759 3840 590.759" transform="matrix(1,0,0,1,-296.9598693847656,0)" style="fill:none;stroke:rgb(178, 147, 146);transform:matrix(1, 0, 0, 1, -296.96, 0);;animation:none"></path>
<path stroke-width="2" stroke-opacity="0" stroke="rgb(177, 150, 149)" fill="none" d="M 0 592.877 C 320 592.877 640 689.123 960 689.123 C 1280 689.123 1600 592.877 1920 592.877 C 2240 592.877 2560 689.123 2880 689.123 C 3200 689.123 3520 592.877 3840 592.877" transform="matrix(1,0,0,1,-307.199951171875,0)" style="fill:none;stroke:rgb(177, 150, 149);transform:matrix(1, 0, 0, 1, -307.2, 0);;animation:none"></path>
<path stroke-width="2" stroke-opacity="0" stroke="rgb(176, 153, 152)" fill="none" d="M 0 595.091 C 320 595.091 640 686.909 960 686.909 C 1280 686.909 1600 595.091 1920 595.091 C 2240 595.091 2560 686.909 2880 686.909 C 3200 686.909 3520 595.091 3840 595.091" transform="matrix(1,0,0,1,-317.4398193359375,0)" style="fill:none;stroke:rgb(176, 153, 152);transform:matrix(1, 0, 0, 1, -317.44, 0);;animation:none"></path>
<path stroke-width="2" stroke-opacity="0" stroke="rgb(176, 155, 155)" fill="none" d="M 0 597.4 C 320 597.4 640 684.6 960 684.6 C 1280 684.6 1600 597.4 1920 597.4 C 2240 597.4 2560 684.6 2880 684.6 C 3200 684.6 3520 597.4 3840 597.4" transform="matrix(1,0,0,1,-327.6799011230469,0)" style="fill:none;stroke:rgb(176, 155, 155);transform:matrix(1, 0, 0, 1, -327.68, 0);;animation:none"></path>
<path stroke-width="2" stroke-opacity="0" stroke="rgb(175, 158, 157)" fill="none" d="M 0 599.806 C 320 599.806 640 682.194 960 682.194 C 1280 682.194 1600 599.806 1920 599.806 C 2240 599.806 2560 682.194 2880 682.194 C 3200 682.194 3520 599.806 3840 599.806" transform="matrix(1,0,0,1,-337.91998291015625,0)" style="fill:none;stroke:rgb(175, 158, 157);transform:matrix(1, 0, 0, 1, -337.92, 0);;animation:none"></path>
<path stroke-width="2" stroke-opacity="0" stroke="rgb(174, 160, 159)" fill="none" d="M 0 602.304 C 320 602.304 640 679.696 960 679.696 C 1280 679.696 1600 602.304 1920 602.304 C 2240 602.304 2560 679.696 2880 679.696 C 3200 679.696 3520 602.304 3840 602.304" transform="matrix(1,0,0,1,-348.1598205566406,0)" style="fill:none;stroke:rgb(174, 160, 159);transform:matrix(1, 0, 0, 1, -348.16, 0);;animation:none"></path>
<path stroke-width="2" stroke-opacity="0" stroke="rgb(174, 162, 161)" fill="none" d="M 0 604.895 C 320 604.895 640 677.105 960 677.105 C 1280 677.105 1600 604.895 1920 604.895 C 2240 604.895 2560 677.105 2880 677.105 C 3200 677.105 3520 604.895 3840 604.895" transform="matrix(1,0,0,1,-358.39990234375,0)" style="fill:none;stroke:rgb(174, 162, 161);transform:matrix(1, 0, 0, 1, -358.4, 0);;animation:none"></path>
<path stroke-width="2" stroke-opacity="0" stroke="rgb(173, 163, 163)" fill="none" d="M 0 607.576 C 320 607.576 640 674.424 960 674.424 C 1280 674.424 1600 607.576 1920 607.576 C 2240 607.576 2560 674.424 2880 674.424 C 3200 674.424 3520 607.576 3840 607.576" transform="matrix(1,0,0,1,-368.6400146484375,0)" style="fill:none;stroke:rgb(173, 163, 163);transform:matrix(1, 0, 0, 1, -368.64, 0);;animation:none"></path>
<path stroke-width="2" stroke-opacity="0" stroke="rgb(173, 165, 165)" fill="none" d="M 0 610.342 C 320 610.342 640 671.658 960 671.658 C 1280 671.658 1600 610.342 1920 610.342 C 2240 610.342 2560 671.658 2880 671.658 C 3200 671.658 3520 610.342 3840 610.342" transform="matrix(1,0,0,1,-378.8798522949219,0)" style="fill:none;stroke:rgb(173, 165, 165);transform:matrix(1, 0, 0, 1, -378.88, 0);;animation:none"></path>
<path stroke-width="2" stroke-opacity="0" stroke="rgb(172, 166, 166)" fill="none" d="M 0 613.19 C 320 613.19 640 668.81 960 668.81 C 1280 668.81 1600 613.19 1920 613.19 C 2240 613.19 2560 668.81 2880 668.81 C 3200 668.81 3520 613.19 3840 613.19" transform="matrix(1,0,0,1,-389.11993408203125,0)" style="fill:none;stroke:rgb(172, 166, 166);transform:matrix(1, 0, 0, 1, -389.12, 0);;animation:none"></path>
<path stroke-width="2" stroke-opacity="0" stroke="rgb(172, 167, 167)" fill="none" d="M 0 616.115 C 320 616.115 640 665.885 960 665.885 C 1280 665.885 1600 616.115 1920 616.115 C 2240 616.115 2560 665.885 2880 665.885 C 3200 665.885 3520 616.115 3840 616.115" transform="matrix(1,0,0,1,-399.36004638671875,0)" style="fill:none;stroke:rgb(172, 167, 167);transform:matrix(1, 0, 0, 1, -399.36, 0);;animation:none"></path>
<path stroke-width="2" stroke-opacity="0" stroke="rgb(172, 168, 168)" fill="none" d="M 0 619.111 C 320 619.111 640 662.889 960 662.889 C 1280 662.889 1600 619.111 1920 619.111 C 2240 619.111 2560 662.889 2880 662.889 C 3200 662.889 3520 619.111 3840 619.111" transform="matrix(1,0,0,1,-409.599853515625,0)" style="fill:none;stroke:rgb(172, 168, 168);transform:matrix(1, 0, 0, 1, -409.6, 0);;animation:none"></path>
<path stroke-width="2" stroke-opacity="0" stroke="rgb(172, 169, 169)" fill="none" d="M 0 622.171 C 320 622.171 640 659.829 960 659.829 C 1280 659.829 1600 622.171 1920 622.171 C 2240 622.171 2560 659.829 2880 659.829 C 3200 659.829 3520 622.171 3840 622.171" transform="matrix(1,0,0,1,-419.8399658203125,0)" style="fill:none;stroke:rgb(172, 169, 169);transform:matrix(1, 0, 0, 1, -419.84, 0);;animation:none"></path>
<path stroke-width="2" stroke-opacity="0" stroke="rgb(171, 170, 170)" fill="none" d="M 0 625.288 C 320 625.288 640 656.712 960 656.712 C 1280 656.712 1600 625.288 1920 625.288 C 2240 625.288 2560 656.712 2880 656.712 C 3200 656.712 3520 625.288 3840 625.288" transform="matrix(1,0,0,1,-430.0798034667969,0)" style="fill:none;stroke:rgb(171, 170, 170);transform:matrix(1, 0, 0, 1, -430.08, 0);;animation:none"></path>
<path stroke-width="2" stroke-opacity="0" stroke="rgb(171, 170, 170)" fill="none" d="M 0 628.453 C 320 628.453 640 653.547 960 653.547 C 1280 653.547 1600 628.453 1920 628.453 C 2240 628.453 2560 653.547 2880 653.547 C 3200 653.547 3520 628.453 3840 628.453" transform="matrix(1,0,0,1,-440.31988525390625,0)" style="fill:none;stroke:rgb(171, 170, 170);transform:matrix(1, 0, 0, 1, -440.32, 0);;animation:none"></path>
<path stroke-width="2" stroke-opacity="0" stroke="rgb(171, 171, 171)" fill="none" d="M 0 631.658 C 320 631.658 640 650.342 960 650.342 C 1280 650.342 1600 631.658 1920 631.658 C 2240 631.658 2560 650.342 2880 650.342 C 3200 650.342 3520 631.658 3840 631.658" transform="matrix(1,0,0,1,-450.55999755859375,0)" style="fill:none;stroke:rgb(171, 171, 171);transform:matrix(1, 0, 0, 1, -450.56, 0);;animation:none"></path>
<path stroke-width="2" stroke-opacity="0" stroke="rgb(171, 171, 171)" fill="none" d="M 0 634.892 C 320 634.892 640 647.109 960 647.109 C 1280 647.109 1600 634.892 1920 634.892 C 2240 634.892 2560 647.109 2880 647.109 C 3200 647.109 3520 634.892 3840 634.892" transform="matrix(1,0,0,1,-460.7998046875,0)" style="fill:none;stroke:rgb(171, 171, 171);transform:matrix(1, 0, 0, 1, -460.8, 0);;animation:none"></path>
<path stroke-width="2" stroke-opacity="0.022727272727272728" stroke="rgb(171, 171, 171)" fill="none" d="M 0 638.145 C 320 638.145 640 643.855 960 643.855 C 1280 643.855 1600 638.145 1920 638.145 C 2240 638.145 2560 643.855 2880 643.855 C 3200 643.855 3520 638.145 3840 638.145" transform="matrix(1,0,0,1,-471.0399475097656,0)" style="fill:none;stroke:rgb(171, 171, 171);transform:matrix(1, 0, 0, 1, -471.04, 0);;animation:none"></path>
<path stroke-width="2" stroke-opacity="0.045454545454545456" stroke="rgb(171, 171, 171)" fill="none" d="M 0 641.408 C 320 641.408 640 640.592 960 640.592 C 1280 640.592 1600 641.408 1920 641.408 C 2240 641.408 2560 640.592 2880 640.592 C 3200 640.592 3520 641.408 3840 641.408" transform="matrix(1,0,0,1,-481.280029296875,0)" style="fill:none;stroke:rgb(171, 171, 171);transform:matrix(1, 0, 0, 1, -481.28, 0);;animation:none"></path>
<path stroke-width="2" stroke-opacity="0.06818181818181818" stroke="rgb(171, 171, 171)" fill="none" d="M 0 644.669 C 320 644.669 640 637.331 960 637.331 C 1280 637.331 1600 644.669 1920 644.669 C 2240 644.669 2560 637.331 2880 637.331 C 3200 637.331 3520 644.669 3840 644.669" transform="matrix(1,0,0,1,-491.51983642578125,0)" style="fill:none;stroke:rgb(171, 171, 171);transform:matrix(1, 0, 0, 1, -491.52, 0);;animation:none"></path>
<path stroke-width="2" stroke-opacity="0.09090909090909091" stroke="rgb(171, 171, 171)" fill="none" d="M 0 647.919 C 320 647.919 640 634.081 960 634.081 C 1280 634.081 1600 647.919 1920 647.919 C 2240 647.919 2560 634.081 2880 634.081 C 3200 634.081 3520 647.919 3840 647.919" transform="matrix(1,0,0,1,-501.7599792480469,0)" style="fill:none;stroke:rgb(171, 171, 171);transform:matrix(1, 0, 0, 1, -501.76, 0);;animation:none"></path>
<path stroke-width="2" stroke-opacity="0.11363636363636363" stroke="rgb(170, 170, 170)" fill="none" d="M 0 651.147 C 320 651.147 640 630.853 960 630.853 C 1280 630.853 1600 651.147 1920 651.147 C 2240 651.147 2560 630.853 2880 630.853 C 3200 630.853 3520 651.147 3840 651.147" transform="matrix(1,0,0,1,-512,0)" style="fill:none;stroke:rgb(170, 170, 170);transform:matrix(1, 0, 0, 1, -512, 0);;animation:none"></path>
<path stroke-width="2" stroke-opacity="0.13636363636363635" stroke="rgb(170, 170, 170)" fill="none" d="M 0 654.342 C 320 654.342 640 627.658 960 627.658 C 1280 627.658 1600 654.342 1920 654.342 C 2240 654.342 2560 627.658 2880 627.658 C 3200 627.658 3520 654.342 3840 654.342" transform="matrix(1,0,0,1,-522.2398681640625,0)" style="fill:none;stroke:rgb(170, 170, 170);transform:matrix(1, 0, 0, 1, -522.24, 0);;animation:none"></path>
<path stroke-width="2" stroke-opacity="0.1590909090909091" stroke="rgb(169, 169, 169)" fill="none" d="M 0 657.496 C 320 657.496 640 624.504 960 624.504 C 1280 624.504 1600 657.496 1920 657.496 C 2240 657.496 2560 624.504 2880 624.504 C 3200 624.504 3520 657.496 3840 657.496" transform="matrix(1,0,0,1,-532.47998046875,0)" style="fill:none;stroke:rgb(169, 169, 169);transform:matrix(1, 0, 0, 1, -532.48, 0);;animation:none"></path>
<path stroke-width="2" stroke-opacity="0.18181818181818182" stroke="rgb(169, 169, 169)" fill="none" d="M 0 660.599 C 320 660.599 640 621.401 960 621.401 C 1280 621.401 1600 660.599 1920 660.599 C 2240 660.599 2560 621.401 2880 621.401 C 3200 621.401 3520 660.599 3840 660.599" transform="matrix(1,0,0,1,-542.7197875976562,0)" style="fill:none;stroke:rgb(169, 169, 169);transform:matrix(1, 0, 0, 1, -542.72, 0);;animation:none"></path>
<path stroke-width="2" stroke-opacity="0.20454545454545456" stroke="rgb(168, 168, 168)" fill="none" d="M 0 663.644 C 320 663.644 640 618.356 960 618.356 C 1280 618.356 1600 663.644 1920 663.644 C 2240 663.644 2560 618.356 2880 618.356 C 3200 618.356 3520 663.644 3840 663.644" transform="matrix(1,0,0,1,-552.9598999023438,0)" style="fill:none;stroke:rgb(168, 168, 168);transform:matrix(1, 0, 0, 1, -552.96, 0);;animation:none"></path>
<path stroke-width="2" stroke-opacity="0.22727272727272727" stroke="rgb(167, 167, 167)" fill="none" d="M 0 666.623 C 320 666.623 640 615.377 960 615.377 C 1280 615.377 1600 666.623 1920 666.623 C 2240 666.623 2560 615.377 2880 615.377 C 3200 615.377 3520 666.623 3840 666.623" transform="matrix(1,0,0,1,-563.199951171875,0)" style="fill:none;stroke:rgb(167, 167, 167);transform:matrix(1, 0, 0, 1, -563.2, 0);;animation:none"></path>
<path stroke-width="2" stroke-opacity="0.25" stroke="rgb(165, 165, 165)" fill="none" d="M 0 669.529 C 320 669.529 640 612.471 960 612.471 C 1280 612.471 1600 669.529 1920 669.529 C 2240 669.529 2560 612.471 2880 612.471 C 3200 612.471 3520 669.529 3840 669.529" transform="matrix(1,0,0,1,-573.4398193359375,0)" style="fill:none;stroke:rgb(165, 165, 165);transform:matrix(1, 0, 0, 1, -573.44, 0);;animation:none"></path>
<path stroke-width="2" stroke-opacity="0.2727272727272727" stroke="rgb(164, 164, 164)" fill="none" d="M 0 672.357 C 320 672.357 640 609.643 960 609.643 C 1280 609.643 1600 672.357 1920 672.357 C 2240 672.357 2560 609.643 2880 609.643 C 3200 609.643 3520 672.357 3840 672.357" transform="matrix(1,0,0,1,-583.679931640625,0)" style="fill:none;stroke:rgb(164, 164, 164);transform:matrix(1, 0, 0, 1, -583.68, 0);;animation:none"></path>
<path stroke-width="2" stroke-opacity="0.29545454545454547" stroke="rgb(162, 162, 162)" fill="none" d="M 0 675.102 C 320 675.102 640 606.898 960 606.898 C 1280 606.898 1600 675.102 1920 675.102 C 2240 675.102 2560 606.898 2880 606.898 C 3200 606.898 3520 675.102 3840 675.102" transform="matrix(1,0,0,1,-593.9199829101562,0)" style="fill:none;stroke:rgb(162, 162, 162);transform:matrix(1, 0, 0, 1, -593.92, 0);;animation:none"></path>
<path stroke-width="2" stroke-opacity="0.3181818181818182" stroke="rgb(160, 160, 160)" fill="none" d="M 0 677.761 C 320 677.761 640 604.239 960 604.239 C 1280 604.239 1600 677.761 1920 677.761 C 2240 677.761 2560 604.239 2880 604.239 C 3200 604.239 3520 677.761 3840 677.761" transform="matrix(1,0,0,1,-604.1598510742188,0)" style="fill:none;stroke:rgb(160, 160, 160);transform:matrix(1, 0, 0, 1, -604.16, 0);;animation:none"></path>
<path stroke-width="2" stroke-opacity="0.3409090909090909" stroke="rgb(158, 158, 158)" fill="none" d="M 0 680.329 C 320 680.329 640 601.671 960 601.671 C 1280 601.671 1600 680.329 1920 680.329 C 2240 680.329 2560 601.671 2880 601.671 C 3200 601.671 3520 680.329 3840 680.329" transform="matrix(1,0,0,1,-614.39990234375,0)" style="fill:none;stroke:rgb(158, 158, 158);transform:matrix(1, 0, 0, 1, -614.4, 0);;animation:none"></path>
<path stroke-width="2" stroke-opacity="0.36363636363636365" stroke="rgb(156, 156, 156)" fill="none" d="M 0 682.805 C 320 682.805 640 599.195 960 599.195 C 1280 599.195 1600 682.805 1920 682.805 C 2240 682.805 2560 599.195 2880 599.195 C 3200 599.195 3520 682.805 3840 682.805" transform="matrix(1,0,0,1,-624.6400146484375,0)" style="fill:none;stroke:rgb(156, 156, 156);transform:matrix(1, 0, 0, 1, -624.64, 0);;animation:none"></path>
<path stroke-width="2" stroke-opacity="0.38636363636363635" stroke="rgb(153, 153, 153)" fill="none" d="M 0 685.186 C 320 685.186 640 596.814 960 596.814 C 1280 596.814 1600 685.186 1920 685.186 C 2240 685.186 2560 596.814 2880 596.814 C 3200 596.814 3520 685.186 3840 685.186" transform="matrix(1,0,0,1,-634.8798828125,0)" style="fill:none;stroke:rgb(153, 153, 153);transform:matrix(1, 0, 0, 1, -634.88, 0);;animation:none"></path>
<path stroke-width="2" stroke-opacity="0.4090909090909091" stroke="rgb(150, 150, 150)" fill="none" d="M 0 687.472 C 320 687.472 640 594.528 960 594.528 C 1280 594.528 1600 687.472 1920 687.472 C 2240 687.472 2560 594.528 2880 594.528 C 3200 594.528 3520 687.472 3840 687.472" transform="matrix(1,0,0,1,-645.1199340820312,0)" style="fill:none;stroke:rgb(150, 150, 150);transform:matrix(1, 0, 0, 1, -645.12, 0);;animation:none"></path>
<path stroke-width="2" stroke-opacity="0.4318181818181818" stroke="rgb(147, 147, 147)" fill="none" d="M 0 689.662 C 320 689.662 640 592.338 960 592.338 C 1280 592.338 1600 689.662 1920 689.662 C 2240 689.662 2560 592.338 2880 592.338 C 3200 592.338 3520 689.662 3840 689.662" transform="matrix(1,0,0,1,-655.3600463867188,0)" style="fill:none;stroke:rgb(147, 147, 147);transform:matrix(1, 0, 0, 1, -655.36, 0);;animation:none"></path>
<path stroke-width="2" stroke-opacity="0.45454545454545453" stroke="rgb(144, 144, 144)" fill="none" d="M 0 691.756 C 320 691.756 640 590.244 960 590.244 C 1280 590.244 1600 691.756 1920 691.756 C 2240 691.756 2560 590.244 2880 590.244 C 3200 590.244 3520 691.756 3840 691.756" transform="matrix(1,0,0,1,-665.599853515625,0)" style="fill:none;stroke:rgb(144, 144, 144);transform:matrix(1, 0, 0, 1, -665.6, 0);;animation:none"></path>
<path stroke-width="2" stroke-opacity="0.4772727272727273" stroke="rgb(141, 141, 141)" fill="none" d="M 0 693.754 C 320 693.754 640 588.246 960 588.246 C 1280 588.246 1600 693.754 1920 693.754 C 2240 693.754 2560 588.246 2880 588.246 C 3200 588.246 3520 693.754 3840 693.754" transform="matrix(1,0,0,1,-675.8399658203125,0)" style="fill:none;stroke:rgb(141, 141, 141);transform:matrix(1, 0, 0, 1, -675.84, 0);;animation:none"></path>
<path stroke-width="2" stroke-opacity="0.5" stroke="rgb(137, 137, 137)" fill="none" d="M 0 695.657 C 320 695.657 640 586.343 960 586.343 C 1280 586.343 1600 695.657 1920 695.657 C 2240 695.657 2560 586.343 2880 586.343 C 3200 586.343 3520 695.657 3840 695.657" transform="matrix(1,0,0,1,-686.079833984375,0)" style="fill:none;stroke:rgb(137, 137, 137);transform:matrix(1, 0, 0, 1, -686.08, 0);;animation:none"></path>
<path stroke-width="2" stroke-opacity="0.5227272727272727" stroke="rgb(133, 133, 133)" fill="none" d="M 0 697.467 C 320 697.467 640 584.533 960 584.533 C 1280 584.533 1600 697.467 1920 697.467 C 2240 697.467 2560 584.533 2880 584.533 C 3200 584.533 3520 697.467 3840 697.467" transform="matrix(1,0,0,1,-696.3199462890625,0)" style="fill:none;stroke:rgb(133, 133, 133);transform:matrix(1, 0, 0, 1, -696.32, 0);;animation:none"></path>
<path stroke-width="2" stroke-opacity="0.5454545454545454" stroke="rgb(129, 129, 129)" fill="none" d="M 0 699.183 C 320 699.183 640 582.817 960 582.817 C 1280 582.817 1600 699.183 1920 699.183 C 2240 699.183 2560 582.817 2880 582.817 C 3200 582.817 3520 699.183 3840 699.183" transform="matrix(1,0,0,1,-706.5599975585938,0)" style="fill:none;stroke:rgb(129, 129, 129);transform:matrix(1, 0, 0, 1, -706.56, 0);;animation:none"></path>
<path stroke-width="2" stroke-opacity="0.5681818181818182" stroke="rgb(125, 125, 125)" fill="none" d="M 0 700.809 C 320 700.809 640 581.191 960 581.191 C 1280 581.191 1600 700.809 1920 700.809 C 2240 700.809 2560 581.191 2880 581.191 C 3200 581.191 3520 700.809 3840 700.809" transform="matrix(1,0,0,1,-716.7998046875,0)" style="fill:none;stroke:rgb(125, 125, 125);transform:matrix(1, 0, 0, 1, -716.8, 0);;animation:none"></path>
<path stroke-width="2" stroke-opacity="0.5909090909090909" stroke="rgb(121, 121, 121)" fill="none" d="M 0 702.345 C 320 702.345 640 579.655 960 579.655 C 1280 579.655 1600 702.345 1920 702.345 C 2240 702.345 2560 579.655 2880 579.655 C 3200 579.655 3520 702.345 3840 702.345" transform="matrix(1,0,0,1,-727.0399169921875,0)" style="fill:none;stroke:rgb(121, 121, 121);transform:matrix(1, 0, 0, 1, -727.04, 0);;animation:none"></path>
<path stroke-width="2" stroke-opacity="0.6136363636363636" stroke="rgb(117, 117, 117)" fill="none" d="M 0 703.793 C 320 703.793 640 578.207 960 578.207 C 1280 578.207 1600 703.793 1920 703.793 C 2240 703.793 2560 578.207 2880 578.207 C 3200 578.207 3520 703.793 3840 703.793" transform="matrix(1,0,0,1,-737.280029296875,0)" style="fill:none;stroke:rgb(117, 117, 117);transform:matrix(1, 0, 0, 1, -737.28, 0);;animation:none"></path>
<path stroke-width="2" stroke-opacity="0.6363636363636364" stroke="rgb(113, 113, 113)" fill="none" d="M 0 705.156 C 320 705.156 640 576.844 960 576.844 C 1280 576.844 1600 705.156 1920 705.156 C 2240 705.156 2560 576.844 2880 576.844 C 3200 576.844 3520 705.156 3840 705.156" transform="matrix(1,0,0,1,-747.5198974609375,0)" style="fill:none;stroke:rgb(113, 113, 113);transform:matrix(1, 0, 0, 1, -747.52, 0);;animation:none"></path>
<path stroke-width="2" stroke-opacity="0.6590909090909091" stroke="rgb(110, 110, 110)" fill="none" d="M 0 706.435 C 320 706.435 640 575.565 960 575.565 C 1280 575.565 1600 706.435 1920 706.435 C 2240 706.435 2560 575.565 2880 575.565 C 3200 575.565 3520 706.435 3840 706.435" transform="matrix(1,0,0,1,-757.7599487304688,0)" style="fill:none;stroke:rgb(110, 110, 110);transform:matrix(1, 0, 0, 1, -757.76, 0);;animation:none"></path>
<g></g></g><!-- [ldio] generated by https://loading.io --></svg>